<svg xmlns="http://www.w3.org/2000/svg" style="isolation:isolate" viewBox="18 18 414 414" width="552" height="552"><circle vector-effect="non-scaling-stroke" cx="225" cy="225" r="207" fill="#464646"/><clipPath id="a"><circle vector-effect="non-scaling-stroke" cx="225" cy="225" r="203.25" fill="#FFF"/></clipPath><g clip-path="url(#a)"><path d="M200.183-26.362h49.634c9.335 0 16.208 7.545 15.339 16.839l-6.671 71.383c-.869 9.294-9.152 16.839-18.487 16.839h-29.996c-9.335 0-17.618-7.545-18.487-16.839l-6.671-71.383c-.869-9.294 6.004-16.839 15.339-16.839zM433.254 79.545l24.817 42.984c4.667 8.084 1.569 17.81-6.914 21.704l-65.155 29.914c-8.483 3.895-19.159.494-23.827-7.59l-14.998-25.978c-4.667-8.084-2.274-19.03 5.34-24.43l58.484-41.468c7.614-5.4 17.586-3.22 22.253 4.864zM458.071 334.344l-24.817 42.984c-4.667 8.084-14.639 10.264-22.253 4.865l-58.484-41.469c-7.614-5.399-10.007-16.346-5.34-24.43l14.998-25.978c4.668-8.084 15.344-11.485 23.827-7.59l65.155 29.914c8.483 3.895 11.581 13.62 6.914 21.704zM249.817 483.236h-49.634c-9.335 0-16.208-7.546-15.339-16.84l6.671-71.383c.869-9.294 9.152-16.839 18.487-16.839h29.996c9.335 0 17.618 7.545 18.487 16.839l6.671 71.383c.869 9.294-6.004 16.84-15.339 16.84zM16.746 377.328l-24.817-42.984c-4.667-8.084-1.569-17.809 6.914-21.704l65.155-29.914c8.483-3.895 19.159-.494 23.827 7.59l14.998 25.978c4.667 8.084 2.274 19.031-5.34 24.43l-58.484 41.469c-7.614 5.399-17.586 3.219-22.253-4.865zM-8.071 122.529l24.817-42.984c4.667-8.084 14.639-10.264 22.253-4.864l58.484 41.468c7.614 5.4 10.007 16.346 5.34 24.43l-14.998 25.978c-4.668 8.084-15.344 11.485-23.827 7.59l-65.155-29.914c-8.483-3.894-11.581-13.62-6.914-21.704z" fill="#FFF"/></g><defs><filter id="b" x="-200%" y="-200%" width="400%" height="400%" filterUnits="objectBoundingBox" color-interpolation-filters="sRGB"><feOffset xmlns="http://www.w3.org/2000/svg" in="SourceGraphic"/><feGaussianBlur xmlns="http://www.w3.org/2000/svg" stdDeviation="10.73402266" result="pf_100_offsetBlur"/><feComposite xmlns="http://www.w3.org/2000/svg" in="SourceGraphic" in2="pf_100_offsetBlur" result="pf_100_inverse" operator="out"/><feFlood xmlns="http://www.w3.org/2000/svg" flood-color="#000" flood-opacity=".45" result="pf_100_color"/><feComposite xmlns="http://www.w3.org/2000/svg" in="pf_100_color" in2="pf_100_inverse" operator="in" result="pf_100_shadow"/><feComposite xmlns="http://www.w3.org/2000/svg" in="pf_100_shadow" in2="SourceGraphic"/></filter></defs><g filter="url(#b)"><mask id="c"><path d="M159.75 338.016c-62.375-36.012-83.779-115.891-47.766-178.266 36.012-62.375 115.891-83.779 178.266-47.766 62.375 36.012 83.779 115.891 47.766 178.266-36.012 62.375-115.891 83.779-178.266 47.766z" fill="#fff"/></mask><path d="M159.75 338.016c-62.375-36.012-83.779-115.891-47.766-178.266 36.012-62.375 115.891-83.779 178.266-47.766 62.375 36.012 83.779 115.891 47.766 178.266-36.012 62.375-115.891 83.779-178.266 47.766z" fill="#464646" mask="url(#c)" vector-effect="non-scaling-stroke" stroke-width="20" stroke="#000" stroke-opacity=".28" stroke-linecap="square" stroke-miterlimit="3"/><path d="M159.75 338.016c-62.375-36.012-83.779-115.891-47.766-178.266 36.012-62.375 115.891-83.779 178.266-47.766 62.375 36.012 83.779 115.891 47.766 178.266-36.012 62.375-115.891 83.779-178.266 47.766z" fill="#464646"/></g><path d="M158 341.05c-10.49-6.05-20.1-13.48-28.59-22.11-8.21-8.35-15.28-17.74-21.03-27.93C96.99 270.82 91 248.02 91 224.84c0-11.49 1.48-22.93 4.41-34.04 3.04-11.49 7.6-22.52 13.54-32.8 6.05-10.49 13.49-20.1 22.11-28.59 8.35-8.21 17.74-15.28 27.93-21.03C179.18 96.99 201.98 91 225.16 91c11.49 0 22.93 1.48 34.04 4.41 11.49 3.04 22.52 7.6 32.8 13.54 10.49 6.05 20.1 13.49 28.59 22.11 8.21 8.35 15.28 17.74 21.03 27.93 11.39 20.19 17.38 42.99 17.38 66.17 0 11.49-1.48 22.93-4.41 34.04-3.04 11.49-7.6 22.52-13.54 32.8-6.05 10.49-13.49 20.1-22.11 28.59-8.35 8.21-17.74 15.28-27.93 21.03-20.19 11.39-42.99 17.38-66.17 17.38-11.49 0-22.93-1.48-34.04-4.41-11.49-3.04-22.52-7.6-32.8-13.54zm3.5-6.06c-9.94-5.73-19.06-12.78-27.11-20.96-7.77-7.91-14.46-16.81-19.91-26.46C103.68 268.43 98 246.82 98 224.84c0-10.89 1.4-21.73 4.18-32.25 2.88-10.89 7.2-21.34 12.83-31.09 5.73-9.94 12.78-19.06 20.96-27.1 7.91-7.78 16.81-14.47 26.46-19.92C181.57 103.68 203.18 98 225.16 98c10.89 0 21.73 1.4 32.25 4.18 10.89 2.88 21.34 7.2 31.09 12.83 9.94 5.73 19.06 12.78 27.1 20.96 7.78 7.91 14.47 16.81 19.92 26.46 10.8 19.14 16.48 40.75 16.48 62.73 0 10.89-1.4 21.73-4.18 32.25-2.88 10.89-7.2 21.34-12.83 31.09-5.73 9.94-12.78 19.06-20.96 27.1-7.91 7.78-16.81 14.47-26.46 19.92-19.14 10.8-40.75 16.48-62.73 16.48-10.89 0-21.73-1.4-32.25-4.18-10.89-2.88-21.34-7.2-31.09-12.83z" fill-rule="evenodd" fill="#FFF"/><text transform="translate(134.06 254.82)" font-family="Rokkitt" font-weight="700" font-size="120" fill="#fff">100</text></svg>