<svg xmlns="http://www.w3.org/2000/svg" style="isolation:isolate" viewBox="472.276 423.943 69.124 103.685" width="92.165" height="138.247"><path d="M541.4 524.906a2.722 2.722 0 01-2.722 2.722h-63.68a2.722 2.722 0 01-2.722-2.722v-98.24a2.723 2.723 0 012.722-2.723h63.68a2.723 2.723 0 012.722 2.723v98.24z" fill="#EAE8E8"/><path d="M479.99 431.89c0 1.437-.49 1.818-1.339 1.818-.327 0-.61-.065-.806-.141l-.131.772c.229.098.654.175 1.013.175 1.263 0 2.22-.599 2.22-2.548v-4.909h-.957v4.833zm53.696 87.792c0-1.437.49-1.818 1.339-1.818.327 0 .61.065.806.141l.13-.773c-.228-.098-.653-.174-1.012-.174-1.263 0-2.221.599-2.221 2.547v4.91h.958v-4.833zm-3.624-8.815c0-1.213 1.089-1.893 2.153-1.735.549.082.954.42 1.281.827.311.382.389.134.346-.116-.197-1.158-.725-1.814-1.707-2.121-.098-.033-.511-.127-.134-.127h3.911c.376 0-.036.094-.134.127-.981.307-1.508.963-1.706 2.121-.043.25.034.498.344.116.329-.407.732-.745 1.282-.827 1.064-.158 2.155.522 2.155 1.735v.002c0 .871-.703 1.838-1.62 1.771-.063-.004-.498-.097-.632.035-.196.19.078.33.097.764v.002c.03 1.031-.679 1.582-1.471 1.684v-.002c0 .002-.172.023-.249.023-.142 0-.253-.021-.292-.023v.002c-.791-.102-1.501-.655-1.471-1.684v-.002c.02-.434.292-.574.098-.764-.135-.132-.571-.039-.631-.035-.917.067-1.62-.9-1.62-1.771v-.002z" fill="#444247"/><path d="M533.965 515.146h.013c.077 0 .249-.021.249-.023v.002c.792-.1 1.501-.653 1.471-1.684v-.002c-.019-.434-.293-.574-.097-.764.134-.132.569-.039.632-.035.917.067 1.62-.9 1.62-1.771v-.002c0-1.213-1.091-1.893-2.155-1.735-.55.082-.953.42-1.282.827-.31.382-.387.134-.344-.116.198-1.158.725-1.814 1.706-2.121.098-.033.51-.127.134-.127h-1.947v7.551z" fill="#57565A"/><path d="M483.528 440.705c0 1.213-1.089 1.892-2.153 1.734-.549-.082-.954-.42-1.282-.826-.311-.383-.387-.137-.345.115.197 1.156.725 1.815 1.706 2.121.099.033.512.125.135.125h-3.911c-.377 0 .036-.092.134-.125.981-.306 1.509-.965 1.706-2.121.043-.252-.034-.498-.344-.115-.329.406-.732.744-1.283.826-1.063.158-2.154-.521-2.154-1.734v-.002c0-.871.704-1.84 1.62-1.772.063.004.497.098.632-.035.196-.189-.078-.33-.098-.764v-.002c-.03-1.031.68-1.584 1.472-1.683v.002c0-.002.172-.024.249-.024.141-.002.253.022.292.024v-.002c.791.099 1.501.652 1.471 1.683v.002c-.02.434-.292.575-.098.764.135.133.571.039.632.035.916-.068 1.619.901 1.619 1.772v.002z" fill="#444247"/><path d="M479.624 436.425h-.012a2.11 2.11 0 00-.249.024v-.002c-.792.099-1.502.652-1.472 1.683v.002c.02.434.294.575.098.764-.135.133-.569.039-.632.035-.916-.068-1.62.901-1.62 1.772v.002c0 1.213 1.091 1.892 2.154 1.734.551-.082.954-.42 1.283-.826.31-.383.387-.137.344.115-.197 1.156-.725 1.815-1.706 2.121-.098.033-.511.125-.134.125h1.946v-7.549z" fill="#57565A"/><path d="M491.295 497.453s-3.724-1.348-7.191-5.112v-4.609h7.191v9.721zm2.956-56.826l-3.857-5.006s7.525-4.996 9.043-5.082c1.517-.088 18.672 5.218 18.672 5.218l-3.873 6.19-19.985-1.32z" fill="#444247"/><path d="M514.236 434.574s-2.126 6.803-2.675 7.256c-.55.451-3.349-.836-3.349-.836s2.158-2.135 3.224-7.26l2.8.84z" fill="#A64045"/><path d="M484.104 485.441v-25.869s3.252-4.147 9.778-4.76c0 0 .121 26.203-9.778 30.629z" fill="#444247"/><path d="M503.195 456.234h3.329v6.109h-3.329v-6.109zm-6.672-2.109h3.328v6.107h-3.328v-6.107z" fill="#302C32"/><path d="M506.548 453.806h3.328v6.11h-3.328v-6.11zm-6.681 1.992h3.328v6.11h-3.328v-6.11z" fill="#A64045"/><path d="M509.771 451.966h3.329v6.108h-3.329v-6.108z" fill="#302C32"/><path d="M513.124 451.843h3.328v3.803h-3.328v-3.803z" fill="#A64045"/><path d="M496.551 451.953l.762 2.722-2.559.137 1.797-2.859z" fill="#A76F49"/><path d="M492.99 454.91s1.165 17.115-8.886 30.531l.018 1.781s5.916-2.781 9.281-14.506c3.367-11.726 1.841-17.806 1.841-17.806h-2.254z" fill="#302C32"/><path d="M494.527 455.293s.309 11.261-2.47 18.009c-2.78 6.748-4.714 11.35-7.953 13.891v5.148s9.131-8.83 12.126-18.775c2.994-9.947 2.434-18.647 2.434-18.647l-4.137.374z" fill="#454474"/><path d="M494.359 454.994c0 .422.857.765 1.914.765s1.914-.343 1.914-.765-.857-.764-1.914-.764-1.914.342-1.914.764zm.141 1.683c-.021.412.799.791 1.832.846 1.035.055 1.891-.236 1.912-.648.023-.414-.799-.793-1.833-.848-1.033-.055-1.888.236-1.911.65zm.029 1.936c-.043.402.741.818 1.752.928 1.01.109 1.865-.131 1.909-.534.044-.404-.742-.82-1.751-.929-1.011-.11-1.866.131-1.91.535zm-.087 2.148c-.066.395.682.846 1.67 1.01.987.164 1.84-.023 1.906-.418.065-.394-.683-.848-1.67-1.012-.988-.162-1.841.026-1.906.42zm-.211 2.321c-.086.386.625.875 1.588 1.093.965.217 1.817.082 1.904-.304.087-.385-.624-.873-1.588-1.092-.965-.217-1.817-.082-1.904.303zm-.338 2.455c-.109.377.565.902 1.508 1.174.94.273 1.791.189 1.9-.188.109-.375-.567-.902-1.507-1.174-.941-.273-1.792-.187-1.901.188zm-.472 2.549c-.131.367.508.927 1.426 1.255.918.327 1.767.293 1.898-.072.131-.367-.508-.93-1.426-1.256-.918-.328-1.767-.295-1.898.073zm-.61 2.601c-.153.357.449.957 1.344 1.338.895.381 1.744.4 1.896.043.152-.357-.449-.957-1.345-1.338-.894-.381-1.743-.4-1.895-.043zm-.754 2.615c-.174.348.391.985 1.262 1.42.873.436 1.72.506 1.894.158.174-.347-.392-.984-1.264-1.419-.871-.436-1.718-.506-1.892-.159zm-.904 2.59c-.195.338.334 1.012 1.182 1.5.849.49 1.695.613 1.891.274.196-.338-.333-1.01-1.182-1.5-.849-.491-1.694-.614-1.891-.274zm-1.057 2.524c-.218.33.274 1.039 1.1 1.582.826.545 1.67.718 1.888.388.218-.33-.275-1.037-1.1-1.582-.826-.545-1.67-.718-1.888-.388zm-1.218 2.416c-.238.322.217 1.066 1.02 1.666.801.599 1.645.824 1.885.504.24-.321-.217-1.067-1.018-1.665-.803-.599-1.648-.826-1.887-.505zm-1.382 2.273c-.261.311.158 1.092.937 1.746.779.654 1.622.932 1.884.619.26-.31-.16-1.092-.938-1.746-.779-.654-1.622-.93-1.883-.619zm-1.554 2.086c-.282.303.101 1.121.857 1.828.756.709 1.598 1.037 1.88.736.283-.302-.101-1.121-.856-1.83-.756-.707-1.597-1.037-1.881-.734zm-1.728 1.861c-.305.293.042 1.149.774 1.91.733.762 1.574 1.143 1.878.85.305-.291-.042-1.146-.774-1.91-.733-.762-1.573-1.143-1.878-.85z" fill="#A64045"/><path d="M503.42 469.886h5.29v-5.853h-5.29v5.853z" fill="#495DA7"/><path d="M508.483 469.638h-5.063v5.309l5.063-5.309zm.182-.451h-5.335v-4.344h5.335v4.344zm0-4.726h-5.245v-1.418l5.245-3.174v4.592z" fill="#B7975B"/><path d="M502.398 475.453l.203-12.317-4.341-2.453s-.854 10.201-1.884 12.033c-1.031 1.83 6.022 2.737 6.022 2.737z" fill="#444247"/><path d="M502.322 475.49l1.289-.639v-12.605h-1.289v13.244z" fill="#DAE2F2"/><path d="M501.906 475.972l1.289-.638v-12.606h-1.289v13.244z" fill="#302C32"/><path d="M493.473 480.248c.437-1.104 1.178-2.127 1.725-3.18.892-1.717 1.528-3.535 1.819-5.428l.08-.002a6.332 6.332 0 015.879 3.987c-.198.224-.39.455-.636.662-.443.373-.966.668-1.428 1.021-1.122.861-1.979 2.047-3.234 2.721-.946.51-1.952.861-2.96 1.226-.432.159-.87.315-1.319.42a26.818 26.818 0 00-.409-.06c.166-.461.309-.932.483-1.367z" fill="#302C32"/><path d="M493.473 480.248c.437-1.104 1.178-2.127 1.725-3.18.813-1.566 1.413-3.217 1.734-4.93.054 0 .109-.004.165-.004a5.833 5.833 0 015.504 3.905 3.25 3.25 0 01-.261.248c-.443.373-.966.668-1.428 1.021-1.122.861-1.979 2.047-3.234 2.721-.946.51-1.952.861-2.96 1.226-.432.159-.87.315-1.319.42a28.785 28.785 0 00-.409-.06c.166-.461.309-.932.483-1.367z" fill="#B7975B"/><path d="M495.198 477.068c.358-.69.672-1.395.942-2.113a3.158 3.158 0 014.111 2.916c-.828.761-1.575 1.621-2.573 2.158-.602.324-1.228.584-1.862.824a3.159 3.159 0 01-1.713-1.881c.362-.638.764-1.267 1.095-1.904z" fill="#495DA7"/><path d="M514.946 465.507l-5.178 2.989-.263-9.643 5.441-2.996v9.65z" fill="#444247"/><path d="M508.483 469.046h1.288v-9.757h-1.288v9.757z" fill="#DAE2F2"/><path d="M519.874 452.923s-2.227-1.252-4.526-1.572l-.278 13.981s3.527-1.307 5.112-1.248l-.308-11.161z" fill="#B9C8E6"/><path d="M519.874 452.923l.803.305v10.76h-.803v-11.065z" fill="#756262"/><path d="M520.677 453.228s1.188.494 1.703.891v9.72h-1.703v-10.611z" fill="#302C32"/><path d="M522.38 454.119s3.725 1.347 7.191 5.111v4.609h-7.191v-9.72z" fill="#444247"/><path d="M508.96 468.611h1.29v-9.758h-1.29v9.758z" fill="#302C32"/><path d="M514.545 451.351h.803v13.715h-.803v-13.715z" fill="#756262"/><path d="M494.039 481.847c.485 0 1.114-.095 1.906-.394 2.622-.994 5.829-3.731 9.529-8.131 4.458-5.301 8.84-7.406 11.731-8.24 3.127-.903 6.681-.735 6.702-.733l.154-.861c-.092-.018-3.735-.209-7.041.734-3.023.862-7.595 3.041-12.216 8.535-8.315 9.887-11.485 8.088-11.516 8.069l-.495.722c.064.045.46.299 1.246.299z" fill="#A47953"/><path d="M514.545 455.302s-10.715 6.989-11.727 6.989c-1.011 0-4.047-2.127-4.047-2.127v1.234s3.661 2.441 4.137 2.441c.476 0 11.637-7.232 11.637-7.232v-1.305z" fill="#DAE2F2"/><path d="M513.348 451.953s-9.056 6.656-10.341 6.656c-1.285 0-5.013-3.328-5.013-3.328l15.354-3.328z" fill="#B7975B"/><path d="M514.545 454.453s-10.715 7.107-11.727 7.107c-1.011 0-4.047-2.396-4.047-2.396v1.199s3.661 2.365 4.137 2.365c.476 0 11.637-7.01 11.637-7.01v-1.265z" fill="#B7975B"/><path d="M499.063 455.773s.026 11.307-2.62 18.764c-2.644 7.459-9.301 17.945-11.258 18.898l-1.081-1.094s4.684-3.861 11.387-18.353c1.745-7.174 1.805-4.07 2.649-18.686.843-14.617.923.471.923.471z" fill="#A47953"/><path d="M507.395 454.453s-3.704 2.724-4.492 2.724c-.787 0-2.466-1.533-2.466-1.533s5.127-3.418 6.536-2.935c1.409.482.422 1.744.422 1.744z" fill="#CED6E7"/><path d="M497.08 441.093s-1.748 1.744-1.302 6.274c.447 4.529.824 9.066-2.49 7.681-3.313-1.384-.449-4.914 1.55-3.05 0 0-.011-2.233-.3-5.172-.29-2.94-.078-5.754 2.542-5.733z" fill="#CA834E"/><path d="M495.329 441.83s-.486 2.722 0 3.279c.487.555.034 1.416 0 2.08-.035.664-.73 6.258 3.092 8.273 3.822 2.016 3.51-.769 8.2-2.539 0 0 .73-10.908-2.467-11.81 0 0-6.358-.549-8.825.717z" fill="#DAE2F2"/><path d="M510.941 442.529s1.24 1.015 1.24 3.969c0 2.955 1.531 6.043 3.584 4.939 2.052-1.107-.023-3.203-1.196-1.873 0 0-.134-1.443-.134-3.361 0-1.916-1.073-4.153-3.494-3.674z" fill="#A36D48"/><path d="M509.763 441.841s1.434 1.176 1.434 4.594.771 7.008 3.146 5.729c2.375-1.28-.026-3.707-1.383-2.166 0 0-.157-1.672-.157-3.889 0-2.219-1.083-4.477-3.04-4.268z" fill="#A76F49"/><path d="M508.212 441.47s1.361 2.403 1.361 6.08c0 3.678 1.027 6.385 3.581 5.01 2.555-1.377-.027-3.988-1.487-2.332 0 0-.169-1.795-.169-4.182 0-2.386-1.181-4.8-3.286-4.576z" fill="#AC724A"/><path d="M506.973 441.287s.969 1.631.969 5.732c0 4.102.815 7.979 3.664 6.443 2.848-1.533-.032-4.443-1.66-2.597 0 0-.188-2.004-.188-4.664 0-2.66-.438-5.164-2.785-4.914z" fill="#B1754B"/><path d="M505.33 441.107s1.837 1.504 1.837 5.879c0 4.377.067 8.752 3.107 7.115 3.04-1.637-.034-4.744-1.77-2.771 0 0-.201-2.139-.201-4.979 0-2.838-.468-5.51-2.973-5.244z" fill="#B6784C"/><path d="M504.154 441.113s1.912 1.562 1.912 6.115c0 4.551.068 9.104 3.23 7.4 3.162-1.703-.034-4.933-1.841-2.882 0 0-.208-2.225-.208-5.178s-.486-5.732-3.093-5.455z" fill="#CA834E"/><path d="M513.787 443.746s-7.176-3.959-18.845-1.438l-.691-1.681s9.045-3.545 19.985 1.32l-.449 1.799z" fill="#444247"/><path d="M498.242 444.743s-.19-.039-.476-.061a5.85 5.85 0 00-.488-.022c-.176-.013-.364.013-.549.026-.185.019-.356.089-.522.114a3.58 3.58 0 01-.436.124c-.22.125-.428.197-.428.197l-.027-.024s.088-.175.317-.414c.134-.074.296-.172.483-.236.192-.021.398-.054.598-.04.809.008 1.538.303 1.538.303l-.01.033zm3.198-.033s.729-.295 1.538-.303c.2-.014.406.019.597.04.188.064.35.162.484.235.228.239.317.415.317.415l-.027.024s-.208-.072-.428-.197a3.782 3.782 0 01-.437-.124c-.166-.025-.336-.095-.521-.114-.186-.013-.372-.039-.55-.026a5.805 5.805 0 00-.964.083l-.009-.033z" fill="#CA834E"/><path d="M500.448 446.034s.19.162.523.311c.079.043.178.064.274.1.099.031.197.076.311.088.221.042.454.086.693.064.237.011.469-.039.685-.089.219-.025.426-.045.598-.104a4.22 4.22 0 01.615-.096l.015.031s-.199.155-.545.33c-.169.097-.382.17-.625.2-.24.042-.498.051-.756.008-.258-.005-.506-.079-.736-.149-.228-.066-.424-.184-.588-.275-.321-.203-.487-.394-.487-.394l.023-.025zm-2.293.025c0 .001-.119.139-.347.291a2.43 2.43 0 01-.416.222c-.165.051-.34.129-.529.14a1.53 1.53 0 01-.553.031 1.153 1.153 0 01-.461-.14c-.251-.136-.387-.264-.388-.264l.016-.031c-.001 0 .199-.012.451.028.123.037.272.027.426.044.151.039.315.057.484.053.17.017.333-.031.492-.055.153-.041.299-.084.418-.135.242-.1.384-.209.384-.209l.023.025zm.666-.571s.072.512.057 1.286c-.007.388-.043.84-.136 1.321-.047.24-.131.481-.199.731l-.329.698c-.111.238-.08.383.064.54.146.136.354.224.565.271.212.047.427.06.629.045.2-.011.394-.048.548-.126.158-.067.3-.152.386-.262.11-.098.147-.221.205-.312.064-.202.085-.333.085-.333h.036s.011.128-.004.364c-.033.114-.053.268-.162.403a1.08 1.08 0 01-.42.388 1.725 1.725 0 01-.637.213c-.236.044-.49.022-.748-.024-.254-.069-.522-.179-.729-.407-.045-.066-.09-.131-.129-.199l-.056-.239c.006-.171.047-.348.113-.44l.359-.669c.076-.234.168-.459.226-.688.109-.46.178-.9.211-1.281.065-.764.03-1.276.03-1.276l.035-.004zm2.901 6.482s-1.042.077-2.085.123c-.522.045-1.043.059-1.434-.002-.39-.045-.651-.121-.651-.121v-.035s.261-.076.651-.121c.391-.061.912-.047 1.434-.002 1.043.046 2.085.123 2.085.123v.035zm-1.564.971s-.373.077-.747.123c-.186.045-.374.059-.513-.002-.14-.045-.234-.121-.234-.121v-.035s.094-.076.234-.121c.139-.061.327-.047.513-.002.374.046.747.123.747.123v.035z" fill="#454761"/><path d="M519.424 510.947l3.858 5.006s-7.525 4.994-9.043 5.082c-1.518.088-18.672-5.221-18.672-5.221l3.873-6.189 19.984 1.322z" fill="#444247"/><path d="M499.44 516.998s2.125-6.803 2.675-7.256c.55-.451 3.349.836 3.349.836s-2.158 2.136-3.224 7.259l-2.8-.839z" fill="#A64045"/><path d="M529.571 466.132v25.87s-3.252 4.144-9.777 4.757c0 0-.121-26.203 9.777-30.627z" fill="#444247"/><path d="M510.481 495.337h-3.329v-6.107h3.329v6.107zm6.671 2.112h-3.328v-6.11h3.328v6.11z" fill="#302C32"/><path d="M507.127 497.765h-3.328v-6.109h3.328v6.109zm6.682-1.992h-3.328v-6.109h3.328v6.109z" fill="#A64045"/><path d="M503.904 499.607h-3.328v-6.109h3.328v6.109z" fill="#302C32"/><path d="M500.552 499.728h-3.328v-3.803h3.328v3.803z" fill="#A64045"/><path d="M517.124 499.619l-.761-2.721 2.558-.139-1.797 2.86z" fill="#A76F49"/><path d="M520.686 496.662s-1.165-17.116 8.885-30.53l-.017-1.783s-5.916 2.781-9.282 14.508c-3.367 11.725-1.841 17.805-1.841 17.805h2.255z" fill="#302C32"/><path d="M519.149 496.279s-.31-11.262 2.469-18.01c2.78-6.748 4.715-11.35 7.953-13.891v-5.148s-4.997 1.016-12.125 18.775c-2.995 9.948-2.434 18.647-2.434 18.647l4.137-.373z" fill="#454474"/><path d="M519.317 496.578c0-.422-.857-.766-1.915-.766-1.056 0-1.914.344-1.914.766 0 .422.858.765 1.914.765 1.058 0 1.915-.343 1.915-.765zm-.142-1.684c.022-.412-.798-.791-1.832-.846-1.034-.054-1.89.237-1.911.649-.023.414.799.793 1.832.847 1.034.055 1.89-.236 1.911-.65zm-.028-1.933c.044-.405-.742-.821-1.752-.93-1.011-.11-1.866.131-1.909.535-.044.402.741.818 1.751.928 1.011.109 1.866-.131 1.91-.533zm.087-2.149c.065-.396-.682-.848-1.669-1.012-.989-.164-1.842.026-1.908.42-.064.395.683.846 1.67 1.01.989.164 1.842-.023 1.907-.418zm.21-2.322c.087-.387-.624-.875-1.587-1.092-.965-.219-1.818-.082-1.905.303-.087.385.624.875 1.589 1.092.965.218 1.817.082 1.903-.303zm.339-2.455c.109-.377-.566-.903-1.507-1.174-.941-.272-1.792-.188-1.901.187-.109.377.566.903 1.507 1.174.941.274 1.792.19 1.901-.187zm.471-2.549c.131-.367-.507-.928-1.425-1.256-.918-.326-1.768-.293-1.898.072-.131.367.508.93 1.425 1.258.919.326 1.768.293 1.898-.074zm.611-2.602c.152-.357-.45-.955-1.344-1.338-.895-.38-1.745-.398-1.896-.043-.152.36.449.958 1.344 1.338.894.381 1.744.401 1.896.043zm.753-2.615c.175-.348-.39-.984-1.262-1.418-.872-.437-1.719-.508-1.893-.158-.174.348.392.982 1.263 1.418.871.435 1.718.506 1.892.158zm.904-2.59c.196-.338-.333-1.01-1.182-1.5-.848-.49-1.694-.613-1.89-.273-.196.338.333 1.01 1.181 1.5.849.49 1.695.613 1.891.273zm1.058-2.523c.218-.33-.275-1.037-1.1-1.582-.826-.545-1.67-.719-1.888-.389-.218.33.274 1.037 1.1 1.582.825.545 1.67.719 1.888.389zm1.217-2.416c.239-.322-.217-1.067-1.02-1.666-.8-.6-1.645-.824-1.884-.504-.24.32.216 1.066 1.018 1.666.803.598 1.647.824 1.886.504zm1.383-2.274c.261-.31-.158-1.091-.938-1.746-.778-.652-1.622-.929-1.883-.619-.26.311.16 1.094.938 1.746.778.655 1.622.932 1.883.619zm1.553-2.086c.283-.302-.101-1.121-.857-1.828-.755-.707-1.597-1.037-1.88-.734-.282.301.101 1.119.857 1.828.756.707 1.597 1.037 1.88.734zm1.728-1.861c.305-.293-.042-1.148-.774-1.91-.733-.762-1.573-1.143-1.878-.85-.305.293.043 1.149.774 1.91.733.762 1.573 1.143 1.878.85z" fill="#A64045"/><path d="M510.255 481.687h-5.289v5.852h5.289v-5.852z" fill="#495DA7"/><path d="M505.193 481.933h5.062v-5.308l-5.062 5.308zm-.182.451h5.335v4.344h-5.335v-4.344zm0 4.727h5.244v1.418l-5.244 3.174v-4.592z" fill="#B7975B"/><path d="M511.278 476.119l-.204 12.316 4.342 2.453s.853-10.201 1.884-12.031c1.031-1.832-6.022-2.738-6.022-2.738z" fill="#444247"/><path d="M511.354 476.082l-1.29.638v12.606h1.29v-13.244z" fill="#DAE2F2"/><path d="M511.77 475.599l-1.289.639v12.605h1.289v-13.244z" fill="#302C32"/><path d="M520.202 471.326c-.436 1.101-1.177 2.125-1.725 3.179-.891 1.717-1.527 3.536-1.818 5.426l-.08.002a6.33 6.33 0 01-5.88-3.986c.199-.225.391-.455.637-.662.442-.373.965-.668 1.427-1.022 1.122-.859 1.98-2.045 3.235-2.72.946-.508 1.952-.862 2.959-1.227.433-.158.871-.314 1.32-.42.136.022.272.041.409.061-.166.461-.31.931-.484 1.369z" fill="#302C32"/><path d="M520.202 471.326c-.436 1.101-1.177 2.125-1.725 3.179-.812 1.565-1.412 3.215-1.733 4.928a5.835 5.835 0 01-5.67-3.9c.082-.086.167-.168.262-.248.442-.373.965-.668 1.427-1.022 1.122-.859 1.98-2.045 3.235-2.72.946-.508 1.952-.862 2.959-1.227.433-.158.871-.314 1.32-.42.136.022.272.041.409.061-.166.461-.31.931-.484 1.369z" fill="#B7975B"/><path d="M518.477 474.505a19.376 19.376 0 00-.942 2.112 3.157 3.157 0 01-4.11-2.916c.828-.762 1.575-1.621 2.573-2.158a15.42 15.42 0 011.862-.825 3.164 3.164 0 011.713 1.881c-.363.641-.764 1.268-1.096 1.906z" fill="#495DA7"/><path d="M498.73 486.064l5.177-2.988.263 9.642-5.44 2.996v-9.65z" fill="#444247"/><path d="M505.193 482.525h-1.289v9.758h1.289v-9.758z" fill="#DAE2F2"/><path d="M493.802 498.648s2.227 1.252 4.526 1.572l.278-13.98s-3.527 1.308-5.112 1.248l.308 11.16z" fill="#B9C8E6"/><path d="M493.802 498.648l-.803-.305v-10.759h.803v11.064z" fill="#756262"/><path d="M492.999 498.343s-1.188-.494-1.704-.89v-9.721h1.704v10.611zm11.716-15.382h-1.289v9.757h1.289v-9.757z" fill="#302C32"/><path d="M499.13 500.22h-.802v-13.713h.802v13.713z" fill="#756262"/><path d="M519.636 469.724c-.483 0-1.113.096-1.905.397-2.622.992-5.829 3.728-9.53 8.129-4.458 5.3-8.84 7.408-11.73 8.242-3.127.902-6.527.484-6.548.48l-.153.864c.092.017 3.579.457 6.886-.487 3.023-.861 7.595-3.041 12.216-8.535 8.315-9.887 11.485-8.086 11.515-8.068l.496-.723c-.065-.045-.46-.299-1.247-.299z" fill="#A47953"/><path d="M499.13 496.269s10.716-6.988 11.727-6.988c1.011 0 4.047 2.127 4.047 2.127v-1.237s-3.66-2.439-4.136-2.439c-.477 0-11.638 7.232-11.638 7.232v1.305z" fill="#DAE2F2"/><path d="M500.328 499.619s9.056-6.657 10.341-6.657c1.285 0 5.012 3.329 5.012 3.329l-15.353 3.328z" fill="#B7975B"/><path d="M499.13 497.119s10.716-7.108 11.727-7.108c1.011 0 4.047 2.397 4.047 2.397v-1.199s-3.66-2.366-4.136-2.366c-.477 0-11.638 7.01-11.638 7.01v1.266z" fill="#B7975B"/><path d="M514.612 495.798s-.024-11.306 2.621-18.763c2.644-7.457 8.69-17.832 11.406-18.758l.932.953c-2.343 1.186-9.962 12.717-11.387 18.354-1.745 7.173-1.804 4.07-2.648 18.685-.843 14.617-.924-.471-.924-.471z" fill="#A47953"/><path d="M506.281 497.119s3.703-2.725 4.492-2.725c.787 0 2.466 1.533 2.466 1.533s-5.128 3.418-6.536 2.936c-1.409-.483-.422-1.744-.422-1.744z" fill="#CED6E7"/><path d="M516.595 510.478s1.749-1.744 1.303-6.273c-.447-4.53-.825-9.067 2.49-7.682 3.313 1.385.449 4.914-1.55 3.051 0 0 .011 2.232.3 5.172.289 2.939.078 5.754-2.543 5.732z" fill="#CA834E"/><path d="M518.347 509.742s.486-2.723 0-3.278c-.487-.556-.035-1.418 0-2.082.034-.664.729-6.257-3.092-8.273-3.823-2.016-3.51.769-8.2 2.539 0 0-.731 10.908 2.467 11.811 0 0 6.358.548 8.825-.717z" fill="#DAE2F2"/><path d="M502.735 509.043s-1.24-1.014-1.24-3.969-1.532-6.043-3.585-4.938c-2.051 1.106.024 3.203 1.196 1.871 0 0 .136 1.444.136 3.362 0 1.916 1.072 4.152 3.493 3.674z" fill="#A36D48"/><path d="M503.913 509.73s-1.435-1.176-1.435-4.594-.77-7.006-3.146-5.728c-2.374 1.279.027 3.707 1.384 2.166 0 0 .157 1.67.157 3.888 0 2.219 1.082 4.477 3.04 4.268z" fill="#A76F49"/><path d="M505.464 510.101s-1.361-2.402-1.361-6.08-1.027-6.385-3.582-5.008c-2.555 1.375.028 3.987 1.488 2.33 0 0 .168 1.795.168 4.182 0 2.387 1.182 4.801 3.287 4.576z" fill="#AC724A"/><path d="M506.703 510.287s-.969-1.633-.969-5.735c0-4.101-.815-7.978-3.665-6.443-2.847 1.533.032 4.445 1.661 2.598 0 0 .187 2.004.187 4.664 0 2.66.439 5.166 2.786 4.916z" fill="#B1754B"/><path d="M508.346 510.464s-1.837-1.503-1.837-5.878c0-4.377-.067-8.752-3.108-7.116-3.039 1.637.035 4.744 1.771 2.772 0 0 .2 2.138.2 4.978 0 2.838.468 5.512 2.974 5.244z" fill="#B6784C"/><path d="M509.522 510.459s-1.912-1.563-1.912-6.116c0-4.55-.069-9.103-3.231-7.4-3.162 1.703.035 4.934 1.842 2.885 0 0 .208 2.222.208 5.175 0 2.956.486 5.735 3.093 5.456z" fill="#CA834E"/><path d="M499.889 507.826s7.175 3.959 18.845 1.437l.69 1.684s-9.045 3.543-19.984-1.322l.449-1.799z" fill="#444247"/><path d="M515.433 506.829s.19.038.476.06c.143.015.31.021.488.023.177.013.364-.014.549-.027.186-.017.356-.088.523-.113.152-.055.301-.093.435-.124.221-.124.429-.195.429-.195l.027.023s-.088.176-.318.414c-.134.073-.296.172-.483.236-.192.02-.398.052-.598.04-.809-.009-1.538-.304-1.538-.304l.01-.033zm-3.197.033s-.729.295-1.538.304c-.2.012-.406-.02-.597-.04-.188-.064-.35-.163-.484-.236-.229-.238-.318-.414-.318-.414l.027-.023s.208.071.428.195c.136.031.284.069.437.124.167.025.336.096.522.113.186.013.372.04.55.027.178-.002.345-.008.487-.023.286-.022.477-.06.477-.06l.009.033z" fill="#CA834E"/><path d="M513.228 505.538s-.19-.161-.523-.311c-.079-.043-.179-.064-.274-.1-.099-.031-.197-.077-.312-.087-.22-.042-.453-.086-.692-.065a2.49 2.49 0 00-.685.089c-.219.024-.426.045-.598.104-.351.08-.615.095-.615.095l-.015-.031s.2-.154.545-.329c.169-.097.382-.17.625-.199.24-.042.498-.053.756-.009.258.006.506.079.735.149.229.066.425.185.589.275.321.203.487.393.487.393l-.023.026zm2.293-.026a2.264 2.264 0 01.763-.512c.165-.051.34-.129.529-.141.186-.038.376-.061.553-.03.178.02.338.065.461.139.251.136.387.264.388.264l-.016.031s-.199.012-.451-.027c-.123-.037-.272-.027-.426-.045a1.775 1.775 0 00-.484-.053c-.17-.016-.333.031-.492.055a3.211 3.211 0 00-.418.136 1.785 1.785 0 00-.384.209l-.023-.026zm-.666.572s-.072-.512-.057-1.287c.007-.387.042-.839.135-1.32.047-.24.132-.481.199-.731l.33-.699c.11-.238.08-.381-.064-.539a1.256 1.256 0 00-.566-.271 2.216 2.216 0 00-.629-.046c-.2.013-.394.049-.548.127-.157.066-.3.151-.386.262-.11.097-.147.22-.205.311-.064.202-.085.333-.085.333h-.036s-.011-.128.004-.364c.033-.113.053-.267.162-.402a1.08 1.08 0 01.42-.388c.181-.112.403-.176.637-.213.236-.044.49-.021.748.024.254.069.522.179.729.407.045.065.091.131.13.199l.056.239c-.006.17-.047.348-.113.44l-.359.669c-.076.233-.168.459-.226.687-.11.46-.178.9-.211 1.282-.066.763-.03 1.276-.03 1.276l-.035.004zm-2.902-6.483s1.043-.077 2.085-.123c.522-.045 1.042-.059 1.434.002.39.045.651.121.651.121v.035s-.261.076-.651.121c-.392.061-.912.047-1.434.002a80.955 80.955 0 01-2.085-.123v-.035zm1.565-.971s.373-.077.747-.123c.186-.045.374-.058.513.002.14.045.234.121.234.121v.036s-.094.076-.234.121c-.139.06-.327.047-.513.002a10.7 10.7 0 01-.747-.123v-.036z" fill="#454761"/></svg>