<svg xmlns="http://www.w3.org/2000/svg" style="isolation:isolate" viewBox="472.276 318.148 69.124 103.684" width="92.165" height="138.245"><path d="M541.4 419.111a2.72 2.72 0 01-2.722 2.721h-63.68a2.72 2.72 0 01-2.722-2.721v-98.242a2.722 2.722 0 012.722-2.721h63.68a2.722 2.722 0 012.722 2.721v98.242z" fill="#EAE8E8"/><path d="M498.599 341.746c0 2.343-2.105 3.654-4.159 3.349-1.06-.159-1.842-.811-2.474-1.595-.6-.738-.749-.263-.666.222.38 2.234 1.398 3.502 3.294 4.095.19.063.987.243.26.243h-7.55c-.729 0 .068-.18.257-.243 1.895-.593 2.913-1.861 3.295-4.095.081-.485-.066-.96-.664-.222-.636.784-1.416 1.436-2.477 1.595-2.053.303-4.158-1.006-4.158-3.349v-.003c0-1.681 1.357-3.552 3.127-3.423.121.01.959.191 1.219-.064.377-.367-.15-.64-.188-1.476v-.003c-.057-1.992 1.311-3.057 2.842-3.25v.002c0-.002.332-.044.48-.044.273-.002.489.039.564.044v-.002c1.527.193 2.898 1.26 2.839 3.25v.003c-.039.836-.564 1.109-.188 1.476.26.255 1.101.072 1.219.064 1.769-.129 3.128 1.742 3.128 3.423v.003z" fill="#444247"/><path d="M491.061 333.485h-.024c-.148 0-.48.042-.48.044v-.002c-1.531.193-2.899 1.257-2.842 3.25v.003c.038.836.565 1.109.188 1.476-.26.255-1.098.074-1.219.064-1.77-.129-3.127 1.742-3.127 3.423v.003c0 2.343 2.105 3.652 4.158 3.349 1.061-.159 1.841-.811 2.477-1.595.598-.738.745-.263.664.222-.382 2.234-1.4 3.502-3.295 4.095-.189.063-.986.243-.257.243h3.757v-14.575z" fill="#57565A"/><path d="M530.055 341.746c0 2.343-2.104 3.654-4.158 3.349-1.061-.159-1.842-.811-2.475-1.595-.599-.738-.748-.263-.666.222.381 2.234 1.399 3.502 3.295 4.095.189.063.987.243.26.243h-7.551c-.728 0 .069-.18.257-.243 1.895-.593 2.914-1.861 3.295-4.095.082-.485-.065-.96-.664-.222-.635.784-1.414 1.436-2.477 1.595-2.053.303-4.158-1.006-4.158-3.349v-.003c0-1.681 1.357-3.552 3.127-3.423.122.01.959.191 1.219-.064.378-.367-.149-.64-.188-1.476v-.003c-.057-1.992 1.313-3.057 2.842-3.25v.002c0-.002.332-.044.481-.044.272-.002.489.039.563.044v-.002c1.527.193 2.898 1.26 2.84 3.25v.003c-.039.836-.564 1.109-.188 1.476.259.255 1.1.072 1.219.064 1.768-.129 3.127 1.742 3.127 3.423v.003z" fill="#444247"/><path d="M522.518 333.485h-.024c-.149 0-.481.042-.481.044v-.002c-1.529.193-2.899 1.257-2.842 3.25v.003c.039.836.566 1.109.188 1.476-.26.255-1.097.074-1.219.064-1.77-.129-3.127 1.742-3.127 3.423v.003c0 2.343 2.105 3.652 4.158 3.349 1.063-.159 1.842-.811 2.477-1.595.599-.738.746-.263.664.222-.381 2.234-1.4 3.502-3.295 4.095-.188.063-.985.243-.257.243h3.758v-14.575z" fill="#57565A"/><path d="M530.105 405.072c0-1.215 1.089-1.893 2.153-1.735.549.082.954.42 1.281.827.311.38.389.134.346-.116-.197-1.158-.725-1.814-1.706-2.123-.099-.031-.512-.125-.135-.125h3.911c.376 0-.036.094-.134.125-.981.309-1.508.965-1.706 2.123-.043.25.034.496.344.116.329-.407.732-.745 1.282-.827 1.064-.158 2.155.52 2.155 1.735 0 .871-.704 1.84-1.62 1.773-.063-.006-.498-.097-.632.033-.196.192.078.333.097.766.03 1.033-.679 1.584-1.471 1.684 0 0-.172.021-.249.021-.142.002-.253-.019-.292-.021-.791-.1-1.501-.653-1.471-1.684.02-.433.292-.574.098-.766-.135-.13-.571-.037-.631-.033-.917.067-1.62-.902-1.62-1.773z" fill="#444247"/><path d="M534.009 409.349h.012c.077 0 .249-.021.249-.021.792-.1 1.501-.651 1.471-1.684-.019-.433-.293-.574-.097-.766.134-.13.569-.039.632-.033.916.067 1.62-.902 1.62-1.773 0-1.215-1.091-1.893-2.155-1.735-.55.082-.953.42-1.282.827-.31.38-.387.134-.344-.116.198-1.158.725-1.814 1.706-2.123.098-.031.51-.125.134-.125h-1.946v7.549z" fill="#57565A"/><path d="M483.571 334.909c0 1.213-1.089 1.893-2.154 1.735-.548-.083-.953-.42-1.281-.827-.311-.381-.388-.135-.345.115.197 1.158.725 1.814 1.706 2.122.099.032.512.126.135.126h-3.911c-.377 0 .036-.094.134-.126.981-.308 1.508-.964 1.706-2.122.043-.25-.034-.496-.344-.115-.329.407-.733.744-1.283.827-1.063.157-2.154-.522-2.154-1.735v-.001c0-.872.704-1.84 1.62-1.773.063.006.497.098.631-.033.197-.191-.077-.332-.097-.765v-.002c-.03-1.031.679-1.583 1.472-1.684v.002c0-.002.172-.023.249-.023.141-.001.253.02.291.023v-.002c.792.101 1.502.654 1.471 1.684v.002c-.019.433-.291.574-.097.765.134.131.571.037.631.033.917-.067 1.62.901 1.62 1.773v.001z" fill="#444247"/><path d="M479.667 330.63h-.012c-.077 0-.249.021-.249.023v-.002c-.793.101-1.502.653-1.472 1.684v.002c.02.433.294.574.097.765-.134.131-.568.039-.631.033-.916-.067-1.62.901-1.62 1.773v.001c0 1.213 1.091 1.892 2.154 1.735.55-.083.954-.42 1.283-.827.31-.381.387-.135.344.115-.198 1.158-.725 1.814-1.706 2.122-.098.032-.511.126-.134.126h1.946v-7.55z" fill="#57565A"/><path d="M477.938 328.707c.229.011.533 0 .882-.055.762-.087 1.513-.413 2.057-.947.697-.675 1.219-1.763 1.219-3.309 0-1.829-.892-2.994-2.34-2.994s-2.417 1.176-2.417 2.515c0 1.208.817 2.166 2.079 2.166.719 0 1.285-.272 1.677-.751h.032c-.13.828-.468 1.448-.936 1.873-.403.391-.925.609-1.48.685-.327.033-.566.055-.773.033v.784zm1.731-6.575c1.012 0 1.458.925 1.458 2.133a.67.67 0 01-.087.36c-.25.424-.751.74-1.393.74-.827 0-1.361-.621-1.361-1.502 0-1.013.577-1.731 1.383-1.731zm56.069 89.141a4.48 4.48 0 00-.882.054c-.762.088-1.513.414-2.057.948-.697.674-1.219 1.763-1.219 3.309 0 1.829.892 2.993 2.34 2.993s2.417-1.175 2.417-2.514c0-1.209-.817-2.167-2.08-2.167-.718 0-1.284.273-1.676.752h-.033c.131-.828.468-1.448.937-1.873.402-.392.925-.609 1.48-.686.327-.032.566-.054.773-.032v-.784zm-1.731 6.575c-1.012 0-1.459-.925-1.459-2.134 0-.163.033-.261.088-.359.25-.424.751-.74 1.393-.74.827 0 1.361.62 1.361 1.502 0 1.012-.577 1.731-1.383 1.731zm-19.648-46.885c0 2.343-2.104 3.654-4.159 3.349-1.059-.16-1.841-.81-2.474-1.595-.599-.738-.748-.263-.665.222.38 2.234 1.398 3.502 3.294 4.096.19.062.987.242.259.242h-7.55c-.728 0 .069-.18.256-.242 1.896-.594 2.914-1.862 3.295-4.096.082-.485-.064-.96-.663-.222-.635.785-1.415 1.435-2.476 1.595-2.053.303-4.159-1.006-4.159-3.349v-.002c0-1.683 1.357-3.552 3.126-3.424.123.011.96.191 1.22-.064.378-.367-.149-.64-.187-1.476v-.003c-.058-1.992 1.311-3.056 2.841-3.25v.002c0-.002.333-.044.481-.044.272-.002.488.039.563.044v-.002c1.528.194 2.898 1.26 2.839 3.25v.003c-.039.836-.563 1.109-.187 1.476.259.255 1.1.072 1.219.064 1.769-.128 3.127 1.741 3.127 3.424v.002z" fill="#444247"/><path d="M506.821 362.702h-.023c-.148 0-.481.042-.481.044v-.002c-1.53.194-2.899 1.257-2.841 3.25v.003c.038.836.565 1.109.187 1.476-.26.255-1.097.075-1.22.064-1.769-.128-3.126 1.741-3.126 3.424v.002c0 2.343 2.106 3.652 4.159 3.349 1.061-.16 1.841-.811 2.476-1.595.599-.738.745-.263.663.222-.381 2.234-1.399 3.502-3.295 4.096-.187.062-.984.242-.256.242h3.757v-14.575z" fill="#57565A"/><path d="M498.599 360.946c0 2.343-2.105 3.655-4.159 3.349-1.06-.159-1.842-.81-2.474-1.595-.6-.738-.749-.262-.666.222.38 2.234 1.398 3.503 3.294 4.097.19.061.987.241.26.241h-7.55c-.729 0 .068-.18.257-.241 1.895-.594 2.913-1.863 3.295-4.097.081-.484-.066-.96-.664-.222-.636.785-1.416 1.436-2.477 1.595-2.053.304-4.158-1.006-4.158-3.349v-.002c0-1.682 1.357-3.551 3.127-3.423.121.01.959.19 1.219-.065.377-.367-.15-.64-.188-1.475v-.003c-.057-1.993 1.311-3.057 2.842-3.25v.002c0-.002.332-.043.48-.043.273-.003.489.038.564.043v-.002c1.527.193 2.898 1.259 2.839 3.25v.003c-.039.835-.564 1.108-.188 1.475.26.255 1.101.072 1.219.065 1.769-.128 3.128 1.741 3.128 3.423v.002z" fill="#444247"/><path d="M491.061 352.687h-.024c-.148 0-.48.041-.48.043v-.002c-1.531.193-2.899 1.256-2.842 3.25v.003c.038.835.565 1.108.188 1.475-.26.255-1.098.075-1.219.065-1.77-.128-3.127 1.741-3.127 3.423v.002c0 2.343 2.105 3.653 4.158 3.349 1.061-.159 1.841-.811 2.477-1.595.598-.738.745-.262.664.222-.382 2.234-1.4 3.503-3.295 4.097-.189.061-.986.241-.257.241h3.757v-14.573z" fill="#57565A"/><path d="M530.055 360.946c0 2.343-2.104 3.655-4.158 3.349-1.061-.159-1.842-.81-2.475-1.595-.599-.738-.748-.262-.666.222.381 2.234 1.399 3.503 3.295 4.097.189.061.987.241.26.241h-7.551c-.728 0 .069-.18.257-.241 1.895-.594 2.914-1.863 3.295-4.097.082-.484-.065-.96-.664-.222-.635.785-1.414 1.436-2.477 1.595-2.053.304-4.158-1.006-4.158-3.349v-.002c0-1.682 1.357-3.551 3.127-3.423.122.01.959.19 1.219-.065.378-.367-.149-.64-.188-1.475v-.003c-.057-1.993 1.313-3.057 2.842-3.25v.002c0-.002.332-.043.481-.043.272-.003.489.038.563.043v-.002c1.527.193 2.898 1.259 2.84 3.25v.003c-.039.835-.564 1.108-.188 1.475.259.255 1.1.072 1.219.065 1.768-.128 3.127 1.741 3.127 3.423v.002z" fill="#444247"/><path d="M522.518 352.687h-.024c-.149 0-.481.041-.481.043v-.002c-1.529.193-2.899 1.256-2.842 3.25v.003c.039.835.566 1.108.188 1.475-.26.255-1.097.075-1.219.065-1.77-.128-3.127 1.741-3.127 3.423v.002c0 2.343 2.105 3.653 4.158 3.349 1.063-.159 1.842-.811 2.477-1.595.599-.738.746-.262.664.222-.381 2.234-1.4 3.503-3.295 4.097-.188.061-.985.241-.257.241h3.758v-14.573z" fill="#57565A"/><path d="M498.599 380.146c0 2.344-2.105 3.654-4.159 3.35-1.06-.16-1.842-.811-2.474-1.596-.6-.738-.749-.262-.666.223.38 2.234 1.398 3.502 3.294 4.095.19.063.987.243.26.243h-7.55c-.729 0 .068-.18.257-.243 1.895-.593 2.913-1.861 3.295-4.095.081-.485-.066-.961-.664-.223-.636.785-1.416 1.436-2.477 1.596-2.053.302-4.158-1.006-4.158-3.35v-.002c0-1.682 1.357-3.551 3.127-3.424.121.012.959.192 1.219-.062.377-.369-.15-.641-.188-1.477v-.004c-.057-1.991 1.311-3.056 2.842-3.249v.002c0-.002.332-.043.48-.043.273-.003.489.038.564.043v-.002c1.527.193 2.898 1.26 2.839 3.249v.004c-.039.836-.564 1.108-.188 1.477.26.254 1.101.072 1.219.062 1.769-.127 3.128 1.742 3.128 3.424v.002z" fill="#444247"/><path d="M491.061 371.887h-.024c-.148 0-.48.041-.48.043v-.002c-1.531.193-2.899 1.257-2.842 3.249v.004c.038.836.565 1.108.188 1.477-.26.254-1.098.074-1.219.062-1.77-.127-3.127 1.742-3.127 3.424v.002c0 2.344 2.105 3.652 4.158 3.35 1.061-.16 1.841-.811 2.477-1.596.598-.738.745-.262.664.223-.382 2.234-1.4 3.502-3.295 4.095-.189.063-.986.243-.257.243h3.757v-14.574z" fill="#57565A"/><path d="M530.055 380.146c0 2.344-2.104 3.654-4.158 3.35-1.061-.16-1.842-.811-2.475-1.596-.599-.738-.748-.262-.666.223.381 2.234 1.399 3.502 3.295 4.095.189.063.987.243.26.243h-7.551c-.728 0 .069-.18.257-.243 1.895-.593 2.914-1.861 3.295-4.095.082-.485-.065-.961-.664-.223-.635.785-1.414 1.436-2.477 1.596-2.053.302-4.158-1.006-4.158-3.35v-.002c0-1.682 1.357-3.551 3.127-3.424.122.012.959.192 1.219-.062.378-.369-.149-.641-.188-1.477v-.004c-.057-1.991 1.313-3.056 2.842-3.249v.002c0-.002.332-.043.481-.043.272-.003.489.038.563.043v-.002c1.527.193 2.898 1.26 2.84 3.249v.004c-.039.836-.564 1.108-.188 1.477.259.254 1.1.072 1.219.062 1.768-.127 3.127 1.742 3.127 3.424v.002z" fill="#444247"/><path d="M522.518 371.887h-.024c-.149 0-.481.041-.481.043v-.002c-1.529.193-2.899 1.257-2.842 3.249v.004c.039.836.566 1.108.188 1.477-.26.254-1.097.074-1.219.062-1.77-.127-3.127 1.742-3.127 3.424v.002c0 2.344 2.105 3.652 4.158 3.35 1.063-.16 1.842-.811 2.477-1.596.599-.738.746-.262.664.223-.381 2.234-1.4 3.502-3.295 4.095-.188.063-.985.243-.257.243h3.758v-14.574z" fill="#57565A"/><path d="M498.599 399.347c0 2.344-2.105 3.655-4.159 3.35-1.06-.16-1.842-.811-2.474-1.596-.6-.738-.749-.262-.666.221.38 2.236 1.398 3.504 3.294 4.097.19.063.987.243.26.243h-7.55c-.729 0 .068-.18.257-.243 1.895-.593 2.913-1.861 3.295-4.097.081-.483-.066-.959-.664-.221-.636.785-1.416 1.436-2.477 1.596-2.053.303-4.158-1.006-4.158-3.35v-.002c0-1.681 1.357-3.552 3.127-3.424.121.01.959.192 1.219-.064.377-.367-.15-.639-.188-1.475v-.004c-.057-1.992 1.311-3.056 2.842-3.25v.002c0-.002.332-.043.48-.043.273-.001.489.038.564.043v-.002c1.527.194 2.898 1.26 2.839 3.25v.004c-.039.836-.564 1.108-.188 1.475.26.256 1.101.072 1.219.064 1.769-.128 3.128 1.743 3.128 3.424v.002z" fill="#444247"/><path d="M491.061 391.087h-.024c-.148 0-.48.041-.48.043v-.002c-1.531.194-2.899 1.258-2.842 3.25v.004c.038.836.565 1.108.188 1.475-.26.256-1.098.074-1.219.064-1.77-.128-3.127 1.743-3.127 3.424v.002c0 2.344 2.105 3.653 4.158 3.35 1.061-.16 1.841-.811 2.477-1.596.598-.738.745-.262.664.221-.382 2.236-1.4 3.504-3.295 4.097-.189.063-.986.243-.257.243h3.757v-14.575z" fill="#57565A"/><path d="M530.055 399.347c0 2.344-2.104 3.655-4.158 3.35-1.061-.16-1.842-.811-2.475-1.596-.599-.738-.748-.262-.666.221.381 2.236 1.399 3.504 3.295 4.097.189.063.987.243.26.243h-7.551c-.728 0 .069-.18.257-.243 1.895-.593 2.914-1.861 3.295-4.097.082-.483-.065-.959-.664-.221-.635.785-1.414 1.436-2.477 1.596-2.053.303-4.158-1.006-4.158-3.35v-.002c0-1.681 1.357-3.552 3.127-3.424.122.01.959.192 1.219-.064.378-.367-.149-.639-.188-1.475v-.004c-.057-1.992 1.313-3.056 2.842-3.25v.002c0-.002.332-.043.481-.043.272-.001.489.038.563.043v-.002c1.527.194 2.898 1.26 2.84 3.25v.004c-.039.836-.564 1.108-.188 1.475.259.256 1.1.072 1.219.064 1.768-.128 3.127 1.743 3.127 3.424v.002z" fill="#444247"/><path d="M522.518 391.087h-.024c-.149 0-.481.041-.481.043v-.002c-1.529.194-2.899 1.258-2.842 3.25v.004c.039.836.566 1.108.188 1.475-.26.256-1.097.074-1.219.064-1.77-.128-3.127 1.743-3.127 3.424v.002c0 2.344 2.105 3.653 4.158 3.35 1.063-.16 1.842-.811 2.477-1.596.599-.738.746-.262.664.221-.381 2.236-1.4 3.504-3.295 4.097-.188.063-.985.243-.257.243h3.758v-14.575z" fill="#57565A"/></svg>