<svg xmlns="http://www.w3.org/2000/svg" style="isolation:isolate" viewBox="146.553 530.132 69.123 103.686" width="92.164" height="138.248"><path d="M215.676 631.095a2.722 2.722 0 01-2.721 2.723h-63.68a2.723 2.723 0 01-2.722-2.723v-98.24a2.723 2.723 0 012.722-2.723h63.68a2.722 2.722 0 012.721 2.723v98.24z" fill="#EAE8E8"/><path d="M157.364 540.867a31.447 31.447 0 01-2.145-.468v-.044c1.219-.435 2.09-1.633 2.09-3.527 0-2.166-1.295-3.712-3.298-3.712-1.981 0-3.407 1.513-3.407 3.865 0 2.373 1.48 3.657 3.233 3.723.141 0 .283.054.446.108.849.294 1.818.588 2.809.85l.272-.795zm-3.407-.936c-1.503 0-2.352-1.404-2.352-2.972 0-1.589.784-3.07 2.384-3.07 1.557 0 2.319 1.513 2.319 2.994 0 1.665-.849 3.048-2.351 3.048zm50.909 83.154c.621.109 1.415.283 2.145.468v.043c-1.22.436-2.091 1.633-2.091 3.527 0 2.167 1.296 3.712 3.299 3.712 1.981 0 3.407-1.513 3.407-3.864 0-2.373-1.48-3.658-3.233-3.723-.142 0-.283-.054-.446-.109a39.471 39.471 0 00-2.809-.849l-.272.795zm3.407.936c1.502 0 2.352 1.404 2.352 2.972 0 1.589-.784 3.07-2.384 3.07-1.557 0-2.319-1.514-2.319-2.994 0-1.666.849-3.048 2.351-3.048zm-3.934-6.965c0-1.215 1.089-1.892 2.153-1.734.549.082.954.42 1.282.826.31.381.388.135.345-.115-.197-1.158-.724-1.815-1.707-2.121-.097-.034-.511-.125-.134-.125h3.911c.377 0-.037.091-.133.125-.982.306-1.509.963-1.706 2.121-.043.25.033.496.343.115.33-.406.732-.744 1.283-.826 1.063-.158 2.154.519 2.154 1.734v.002c0 .871-.704 1.838-1.62 1.772-.063-.006-.497-.098-.632.033-.195.191.077.332.098.765.029 1.034-.68 1.584-1.472 1.686v-.002c0 .002-.172.024-.249.024-.142 0-.253-.022-.292-.024v.002c-.791-.102-1.501-.654-1.471-1.686.021-.433.292-.574.098-.765-.135-.131-.57-.037-.632-.033-.916.066-1.619-.901-1.619-1.772v-.002z" fill="#444247"/><path d="M208.242 621.336h.013c.077 0 .249-.022.249-.024v.002c.792-.102 1.501-.652 1.472-1.686-.021-.433-.293-.574-.098-.765.135-.131.569-.039.632-.033.916.066 1.62-.901 1.62-1.772v-.002c0-1.215-1.091-1.892-2.154-1.734-.551.082-.953.42-1.283.826-.31.381-.386.135-.343-.115.197-1.158.724-1.815 1.706-2.121.096-.034.51-.125.133-.125h-1.947v7.549z" fill="#57565A"/><path d="M157.806 546.894c0 1.213-1.09 1.893-2.155 1.734-.548-.082-.953-.419-1.281-.826-.31-.383-.387-.134-.344.116.197 1.156.724 1.814 1.706 2.121.098.031.511.125.134.125h-3.911c-.377 0 .036-.094.133-.125.982-.307 1.51-.965 1.707-2.121.043-.25-.033-.499-.344-.116-.329.407-.732.744-1.283.826-1.062.157-2.153-.521-2.153-1.734v-.002c0-.871.703-1.84 1.619-1.773.063.006.497.099.632-.033.195-.19-.077-.333-.098-.764v-.002c-.029-1.031.68-1.584 1.473-1.684v.002c0-.002.172-.023.248-.023.141 0 .254.019.292.023v-.002c.792.1 1.502.653 1.47 1.684v.002c-.02.431-.292.574-.096.764.134.132.57.039.631.033.916-.067 1.62.902 1.62 1.773v.002z" fill="#444247"/><path d="M153.901 542.615h-.012c-.076 0-.248.021-.248.023v-.002c-.793.1-1.502.653-1.473 1.684v.002c.021.431.293.574.098.764-.135.132-.569.039-.632.033-.916-.067-1.619.902-1.619 1.773v.002c0 1.213 1.091 1.891 2.153 1.734.551-.082.954-.419 1.283-.826.311-.383.387-.134.344.116-.197 1.156-.725 1.814-1.707 2.121-.097.031-.51.125-.133.125h1.946v-7.549z" fill="#57565A"/><path d="M181.693 575.988h4.063v-1.377h-4.063v1.377z" fill="#454474"/><path d="M181.34 574.611h4.062v-1.375h-4.062v1.375z" fill="#A64045"/><path d="M180.739 573.236h4.063v-1.375h-4.063v1.375z" fill="#454474"/><path d="M180.386 571.861h4.062v-1.375h-4.062v1.375z" fill="#A64045"/><path d="M179.785 570.486h4.064v-1.377h-4.064v1.377z" fill="#454474"/><path d="M179.432 569.109h4.063v-1.375h-4.063v1.375z" fill="#A64045"/><path d="M178.832 567.734h4.063v-1.375h-4.063v1.375z" fill="#454474"/><path d="M181.34 576.044l-2.973-7.703-7.71-.543 4.415 8.825 6.268-.579zm9.592-.492l1.079-8.519-7.855.357-.128 3.139 2.704 5.588 4.2-.565z" fill="#444247"/><path d="M181.982 566.871l3.486 9.021 2.559-.34s-3.583-4.715-3.023-6.506c.561-1.791 4.702-.705 4.702-.705l1.777-3.175-9.501 1.705zm.56 9.246l-3.407-9.151-8.701-.65 1.149 2.602s4.736-.895 6.112.224c1.375 1.119 2.687 6.846 2.687 6.846l2.16.129z" fill="#302C32"/><path d="M174.147 579.353c7.103.309 17.336-.617 17.336-.617v-3.184s-10.233.924-17.336.616" fill="#302C32"/><path d="M191.483 575.552s-10.233.924-17.336.616m17.336 2.568s-10.233.926-17.336.617" fill="none" vector-effect="non-scaling-stroke" stroke-width=".768" stroke="#A47953" stroke-miterlimit="10"/><path d="M197.113 569.158l-4.892-4.492s-3.862 1.996-3.398 5.964c.465 3.971 2.606 5.358 2.606 5.358l5.684-6.83z" fill="#CED6E7"/><path d="M197.113 569.162l-4.351-3.996s-3.434 1.775-3.021 5.304c.412 3.532 2.317 4.766 2.317 4.766l5.055-6.074z" fill="#302C32"/><path d="M197.113 569.168l-3.631-3.336s-2.867 1.482-2.522 4.427c.345 2.948 1.934 3.977 1.934 3.977l4.219-5.068zm-16.577 18.794h-4.062v1.375h4.062v-1.375z" fill="#454474"/><path d="M180.89 589.337h-4.064v1.377h4.064v-1.377z" fill="#A64045"/><path d="M181.49 590.714h-4.063v1.375h4.063v-1.375z" fill="#454474"/><path d="M181.843 592.089h-4.063v1.375h4.063v-1.375z" fill="#A64045"/><path d="M182.443 593.464h-4.062v1.375h4.062v-1.375z" fill="#454474"/><path d="M182.797 594.839h-4.063v1.375h4.063v-1.375z" fill="#A64045"/><path d="M183.397 596.214h-4.062v1.377h4.062v-1.377z" fill="#454474"/><path d="M180.89 587.906l2.972 7.701 7.71.545-4.415-8.824-6.267.578zm-9.592.492l-1.079 8.52 7.854-.36.127-3.137-2.702-5.587-4.2.564z" fill="#444247"/><path d="M180.248 597.08l-3.486-9.022-2.56.34s3.583 4.715 3.023 6.506c-.56 1.791-4.702.703-4.702.703l-1.776 3.176 9.501-1.703zm-.56-9.246l3.407 9.148 8.701.652-1.149-2.601s-4.737.894-6.113-.225c-1.376-1.119-2.686-6.846-2.686-6.846l-2.16-.128z" fill="#302C32"/><path d="M188.082 584.597c-7.102-.308-17.335.617-17.335.617v3.184s10.233-.926 17.335-.617" fill="#302C32"/><path d="M170.747 588.398s10.233-.926 17.335-.617m-17.335-2.567s10.233-.925 17.335-.617" fill="none" vector-effect="non-scaling-stroke" stroke-width=".768" stroke="#A47953" stroke-miterlimit="10"/><path d="M206.396 601.277c-1.405.453-2.89.697-4.428.697-8.633 0-15.631-7.656-15.631-17.099 0-9.444 6.998-17.1 15.631-17.1 1.538 0 3.023.244 4.428.697v32.805z" fill="#DAE2F2"/><path d="M206.396 600.531c-1.4.472-2.886.728-4.428.728-8.273 0-14.978-7.336-14.978-16.384 0-9.049 6.705-16.385 14.978-16.385 1.542 0 3.028.256 4.428.728v31.313z" fill="#CED6E7"/><path d="M206.396 596.972c-1.37.602-2.863.934-4.428.934-6.579 0-11.912-5.834-11.912-13.031 0-7.198 5.333-13.032 11.912-13.032 1.565 0 3.058.332 4.428.934v24.195z" fill="#A47953"/><path d="M206.396 595.595a9.925 9.925 0 01-4.428 1.045c-5.94 0-10.754-5.267-10.754-11.765s4.814-11.766 10.754-11.766c1.579 0 3.077.375 4.428 1.045v21.441z" fill="#B7975B"/><path d="M206.396 591.603c-1.246.983-2.775 1.565-4.428 1.565-4.187 0-7.58-3.713-7.58-8.293 0-4.581 3.393-8.293 7.58-8.293 1.653 0 3.182.582 4.428 1.564v13.457z" fill="#DAE2F2"/><path d="M206.396 591.076c-1.221 1.045-2.758 1.67-4.428 1.67-3.973 0-7.194-3.526-7.194-7.871 0-4.346 3.221-7.872 7.194-7.872 1.67 0 3.207.625 4.428 1.67v12.403z" fill="#444247"/><path d="M206.396 586.074c-.251.164-.497.334-.738.512-.245.181-.485.369-.719.562l-.001.002c-.233.193-.46.393-.682.6-.001.002-.003.002-.005.003-.219.206-.432.415-.639.631l-.014.014c-.028-.223-.06-.445-.098-.666-.006-.039-.015-.078-.021-.115a17.008 17.008 0 00-.102-.528l-.004-.015c-.013-.065-.029-.127-.044-.192-.031-.134-.062-.271-.096-.404a2.38 2.38 0 01-.022-.08c-.016-.062-.035-.125-.053-.189a18.319 18.319 0 00-.109-.383l-.023-.074-.063-.192c-.042-.129-.084-.258-.129-.385-.029-.082-.061-.164-.092-.246-.046-.123-.091-.244-.14-.365l-.106-.25c-.05-.117-.099-.234-.152-.35-.038-.086-.079-.168-.118-.252l-.163-.335c-.043-.084-.087-.166-.131-.249-.05-.095-.101-.189-.152-.281-.01-.019-.02-.039-.031-.056-.044-.08-.09-.157-.135-.235-.047-.082-.095-.162-.143-.242-.028-.045-.056-.092-.084-.135-.037-.06-.074-.121-.112-.179-.056-.088-.113-.172-.169-.258-.04-.061-.082-.121-.123-.182-.024-.033-.046-.068-.071-.101a11.416 11.416 0 00-.407-.555c-.064-.086-.129-.168-.195-.252-.032-.039-.064-.076-.096-.117a10.915 10.915 0 00-.171-.205 6.43 6.43 0 00-.148-.174c-.048-.057-.098-.112-.147-.168-.08-.09-.162-.178-.243-.266a.958.958 0 01-.043-.047l-.196-.203a14.77 14.77 0 00-.307-.306c-.054-.051-.107-.106-.162-.157-.042-.039-.085-.076-.127-.117-.093-.086-.187-.17-.283-.256-.024-.019-.047-.041-.07-.062a8.702 8.702 0 00-.208-.174c-.107-.092-.214-.18-.325-.268a11.4 11.4 0 00-.244-.191c-.078-.059-.155-.119-.234-.176-.096-.07-.194-.14-.291-.207-.078-.056-.157-.113-.239-.166-.099-.068-.201-.133-.301-.199-.081-.051-.161-.104-.243-.152a11.316 11.316 0 00-.314-.188c-.082-.049-.163-.098-.246-.142a14.843 14.843 0 00-.573-.307c-.115-.059-.23-.111-.345-.168-.081-.037-.161-.078-.242-.115a17.194 17.194 0 00-.37-.16 8.676 8.676 0 00-.646-.256c-.065-.026-.13-.053-.195-.075a16.334 16.334 0 00-1.262-.39l-.096-.024a16.727 16.727 0 00-.547-.13l-.203-.04c-.15-.029-.3-.06-.452-.085-.079-.014-.16-.024-.239-.038a15.98 15.98 0 00-1.143-.132c2.844-4.254 7.438-7.016 12.624-7.016 1.532 0 3.013.242 4.413.693v17.606z" fill="#A47953"/><path d="M206.396 584.894c-.161.52-.38.92-.681 1.141-.562.607-1.322 1.07-1.904 1.677-.825-6.646-6.472-12.994-13.164-13.507 3.747-5.602 15.307-9.918 15.749-.844v11.533z" fill="#B7975B"/><path d="M177.724 616.273s-5.178-11.443-4.376-15.131c.801-3.685 8.172 6.75 8.172 6.75l-3.796 8.381z" fill="#302C32"/><path d="M182.173 626.752s-8.227-1.971-12.001-13.36c-3.775-11.387-2.048-15.758-2.048-15.758l5.735 4.012s-.526 5.381 3.409 14.69c3.934 9.308 4.905 8.458 4.905 8.458v1.958z" fill="#444247"/><path d="M186.887 625.753s-8.227-1.97-12.001-13.359c-3.775-11.387-1.963-13.443-1.963-13.443l1.663.367s-2.099 3.703 1.835 13.014c3.935 9.308 10.466 11.464 10.466 11.464v1.957z" fill="#B7975B"/><path d="M206.396 585.408v11.156l-5.745 5.318-5.848-3.338 11.593-13.136z" fill="#454474"/><path d="M193.547 598.279s12.543-14.442 12.849-14.602v2.235l-10.506 12.632-2.343-.265z" fill="#302C32"/><path d="M174.267 602.609l-5.119-3.902s14.842-5.403 32.18 1.248l-4.149 5.117-22.912-2.463z" fill="#A47953"/><path d="M175.289 603.414l-5.117-3.905s13.818-5.109 31.156 1.539l-4.149 5.12-21.89-2.754z" fill="#B7975B"/><path d="M178.916 607.841c0-.101-.939-2.83-3.627-4.427 0 0 13.518-2.438 21.89 1.66 0 0-1.289 8.299-5.32 6.582-4.03-1.717-12.943-3.815-12.943-3.815z" fill="#CED6E7"/><path d="M177.415 618.439s-.34-3.027 0-3.477c.341-.447.404-.798.277-1.537-.128-.736-.128-4.291.448-5.06.576-.768 3.011-5.412 4.677-5.446 1.665-.031 8.68 2.852 8.776 6.6 0 0 .513-.674 1.184-.289.674.385.77 3.17.77 3.17s-5.739 12.525-11.374 11.98c0 0-4.777-3.425-4.758-5.941z" fill="#DAE2F2"/><path d="M182.173 626.752s5.96 1.597 10.602-3.348c4.641-4.945 9.74-16.817 13.621-18.11v-4.902s-9.436 4.824-11.719 12.283c-2.283 7.457-12.504 14.077-12.504 14.077z" fill="#302C32"/><path d="M182.173 624.132s1.526-6.714 8.07-6.943c1.826 1.75-4.181 6.943-4.181 6.943s-1.24.985-3.889.662v-.662z" fill="#CA834E"/><path d="M182.173 624.794s6.33-1.625 11.579-14.541c8.914-14.4 12.644-13.689 12.644-13.689v3.828s-6.468 5.205-10.425 12.36c-3.957 7.152-6.593 14-13.798 14v-1.958z" fill="#444247"/><path d="M182.173 626.752s-8.227-1.971-12.001-13.36c-3.775-11.387-2.048-15.758-2.048-15.758l1.513.91s-1.864 5.475 2.07 14.786c3.935 9.308 10.466 11.464 10.466 11.464v1.958z" fill="#B7975B"/><path d="M182.173 624.132s-1.011-4.324-4.916-5.754c0 0-1.22 7.043 4.916 6.416v-.662z" fill="#B6784C"/><path d="M165.116 594.791l4.893 4.494s3.861-1.996 3.396-5.965c-.463-3.971-2.604-5.358-2.604-5.358l-5.685 6.829z" fill="#CED6E7"/><path d="M165.116 594.789l4.352 3.994s3.433-1.774 3.02-5.305c-.413-3.529-2.316-4.764-2.316-4.764l-5.056 6.075z" fill="#302C32"/><path d="M165.116 594.783l3.632 3.334s2.866-1.481 2.521-4.426c-.344-2.947-1.934-3.977-1.934-3.977l-4.219 5.069z" fill="#454474"/><path d="M177.399 615.414s.769.203 1.539.174c.192-.012.382-.02.558-.049.175-.019.346.013.488-.006.287-.009.502.032.502.032l.011.037c-.001 0-.171.12-.463.232-.29.115-.71.135-1.112.061a4.802 4.802 0 01-1.078-.251 3.736 3.736 0 01-.459-.195l.014-.035zm9.494.2s-.237.098-.609.204c-.37.111-.878.21-1.394.261-.259.024-.519.065-.764.048a2.78 2.78 0 01-.66-.109c-.378-.12-.61-.251-.61-.251l.009-.043s.27-.051.645-.051c.186.017.407-.019.637-.001.231.031.479.041.729.057a10.208 10.208 0 002.004-.157l.013.042z" fill="#CA834E"/><path d="M183.446 614.449s.169-.113.455-.215c.145-.042.315-.101.503-.126.188-.02.39-.053.593-.046.405.004.808.084 1.091.189.283.112.461.198.461.198s-.203-.018-.493-.063c-.142-.038-.316-.031-.495-.052a3.103 3.103 0 00-.566-.025c-.386-.02-.77.029-1.061.06-.291.035-.488.08-.488.08zm-3.296 0s-.154-.049-.383-.087c-.229-.035-.531-.087-.833-.067a1.965 1.965 0 00-.444.027c-.141.021-.279.018-.389.056-.227.048-.389.071-.389.071s.135-.081.354-.189c.217-.1.54-.18.866-.183.163-.009.324.025.475.044.15.027.284.082.396.124.223.098.347.204.347.204z" fill="#454761"/><path d="M181.946 606.904s.67-.416 1.621 0" fill="#DAE2F2"/><path d="M181.946 606.904s.077-.078.225-.153c.075-.029.163-.074.264-.09.102-.017.211-.037.321-.033.22.004.436.064.579.138.145.077.232.138.232.138s-.111-.009-.264-.034c-.151-.023-.352-.06-.55-.05-.199-.018-.397.016-.55.033-.152.022-.257.051-.257.051zm-1.117 1.16s.964-.103 1.927-.096c.963-.007 1.927.096 1.927.096s-.964.104-1.927.096c-.963.008-1.927-.096-1.927-.096zm.451 2.184s.006-.036.034-.094a.688.688 0 01.151-.223c.08-.08.183-.164.312-.22.123-.077.272-.093.413-.143.145-.029.292-.025.428-.039.137-.018.263.02.371.028.215.035.354.07.354.07s-.146.022-.357.039c-.106.006-.229.005-.357.029-.128.02-.269.026-.401.06-.128.039-.273.045-.383.107a1.297 1.297 0 00-.31.151c-.173.11-.255.235-.255.235z" fill="#454761"/><path d="M155.834 562.673a14.386 14.386 0 014.427-.697c8.633 0 15.631 7.656 15.631 17.1 0 9.443-6.998 17.099-15.631 17.099-1.537 0-3.023-.244-4.427-.697v-32.805z" fill="#DAE2F2"/><path d="M155.834 563.419c1.4-.474 2.886-.728 4.427-.728 8.272 0 14.978 7.336 14.978 16.385 0 9.049-6.706 16.385-14.978 16.385-1.541 0-3.027-.256-4.427-.729v-31.313z" fill="#CED6E7"/><path d="M155.834 566.978a10.974 10.974 0 014.427-.935c6.58 0 11.913 5.835 11.913 13.033 0 7.197-5.333 13.031-11.913 13.031a10.99 10.99 0 01-4.427-.934v-24.195z" fill="#A47953"/><path d="M155.834 568.355a9.921 9.921 0 014.427-1.045c5.94 0 10.756 5.268 10.756 11.766s-4.816 11.765-10.756 11.765a9.948 9.948 0 01-4.427-1.045v-21.441z" fill="#B7975B"/><path d="M155.834 572.347c1.246-.982 2.774-1.564 4.427-1.564 4.186 0 7.581 3.713 7.581 8.293 0 4.58-3.395 8.291-7.581 8.291-1.653 0-3.181-.58-4.427-1.563v-13.457z" fill="#DAE2F2"/><path d="M155.834 572.875c1.221-1.045 2.757-1.67 4.427-1.67 3.974 0 7.194 3.523 7.194 7.871 0 4.345-3.22 7.869-7.194 7.869-1.67 0-3.206-.623-4.427-1.668v-12.402z" fill="#444247"/><path d="M155.834 577.877a15.921 15.921 0 001.456-1.075l.002-.002c.233-.193.46-.392.681-.599l.006-.006a17.192 17.192 0 00.652-.643c.027.223.061.446.098.666.006.039.014.078.021.116.032.175.066.353.103.527l.003.016c.013.064.03.126.045.189.031.137.062.271.096.406l.021.08c.016.063.036.125.052.188.037.129.072.258.111.385l.023.074.063.191c.042.129.083.256.129.385.029.082.06.164.091.246.046.121.092.244.141.365a8.9 8.9 0 00.106.25c.049.117.099.235.151.35l.119.25c.054.113.107.226.163.338.043.084.087.166.131.248.05.094.1.189.151.281a14.069 14.069 0 00.393.668c.037.061.075.119.113.18l.168.258.124.179.07.104a13.607 13.607 0 00.408.554c.064.084.129.168.195.25.031.041.064.079.096.118.055.07.113.138.171.207a8 8 0 00.295.34c.08.089.161.179.243.267l.043.047c.065.068.13.137.195.203.101.104.203.205.307.305l.163.158c.041.039.084.076.126.115a9.75 9.75 0 00.353.319c.069.06.139.117.207.175.109.092.216.18.325.268l.246.191.233.176c.096.07.193.139.291.207.079.057.158.111.238.166.101.069.201.133.304.197.08.053.16.106.241.155.104.064.209.125.315.187.082.047.163.096.246.143.108.06.218.119.328.176.081.045.163.087.245.13.114.057.229.112.345.166.081.04.161.081.242.118.122.054.246.107.369.16.078.031.153.066.23.097.138.055.277.108.416.159.066.025.129.05.196.074a19.069 19.069 0 00.623.209c.211.064.424.125.639.182.031.007.064.013.095.023.182.045.365.09.548.131.067.013.135.025.202.039.151.029.301.06.452.086.079.013.16.023.24.035.377.059.757.105 1.142.135-2.844 4.252-7.438 7.015-12.623 7.015a14.42 14.42 0 01-4.413-.693v-17.605z" fill="#A47953"/><path d="M155.834 579.056c.16-.519.38-.92.681-1.14.56-.608 1.322-1.071 1.904-1.678.824 6.646 6.472 12.994 13.164 13.506-3.748 5.603-15.308 9.92-15.749.845v-11.533z" fill="#B7975B"/><path d="M155.834 578.543v-11.159l5.743-5.318 5.85 3.34-11.593 13.137z" fill="#454474"/><path d="M168.683 565.671s-12.543 14.44-12.849 14.602v-2.236l10.506-12.631 2.343.265zm15.823-17.996s5.177 11.446 4.376 15.131c-.802 3.688-8.172-6.748-8.172-6.748l3.796-8.383z" fill="#302C32"/><path d="M180.056 537.197s8.227 1.972 12.002 13.359c3.774 11.389 2.047 15.76 2.047 15.76l-5.735-4.012s.527-5.381-3.408-14.689c-3.935-9.311-4.906-8.459-4.906-8.459v-1.959z" fill="#444247"/><path d="M175.342 538.195s8.227 1.973 12.002 13.359c3.774 11.389 1.963 13.446 1.963 13.446l-1.663-.368s2.098-3.705-1.836-13.013c-3.934-9.309-10.466-11.465-10.466-11.465v-1.959z" fill="#B7975B"/><path d="M187.963 561.341l5.118 3.903s-14.842 5.402-32.18-1.248l4.15-5.118 22.912 2.463z" fill="#A47953"/><path d="M186.94 560.537l5.118 3.902s-13.819 5.111-31.157-1.539l4.15-5.117 21.889 2.754z" fill="#B7975B"/><path d="M183.313 556.109c0 .102.94 2.828 3.627 4.428 0 0-13.517 2.437-21.889-1.66 0 0 1.289-8.299 5.319-6.583 4.031 1.717 12.943 3.815 12.943 3.815z" fill="#CED6E7"/><path d="M184.814 545.509s.34 3.03 0 3.477c-.34.449-.404.801-.276 1.539.128.736.128 4.291-.449 5.061-.576.767-3.011 5.412-4.676 5.445-1.665.031-8.68-2.852-8.776-6.6 0 0-.513.674-1.186.289-.673-.384-.768-3.172-.768-3.172s5.738-12.523 11.373-11.978c0 0 4.778 3.424 4.758 5.939z" fill="#DAE2F2"/><path d="M180.056 537.197s-5.959-1.598-10.602 3.349c-4.641 4.946-9.739 16.817-13.62 18.11v4.902s9.436-4.826 11.718-12.283c2.283-7.457 12.504-14.078 12.504-14.078z" fill="#302C32"/><path d="M180.056 539.818s-1.526 6.715-8.071 6.943c-1.826-1.75 4.182-6.943 4.182-6.943s1.24-.984 3.889-.662v.662z" fill="#CA834E"/><path d="M180.056 539.156s-6.33 1.625-11.578 14.541c-8.914 14.4-12.644 13.687-12.644 13.687v-3.826s6.468-5.207 10.425-12.359c3.957-7.153 6.593-14.002 13.797-14.002v1.959z" fill="#444247"/><path d="M180.056 537.197s8.227 1.972 12.002 13.359c3.774 11.389 2.047 15.76 2.047 15.76l-1.512-.91s1.864-5.477-2.07-14.785c-3.935-9.309-10.467-11.465-10.467-11.465v-1.959z" fill="#B7975B"/><path d="M180.056 539.818s1.011 4.322 4.917 5.752c0 0 1.219-7.043-4.917-6.414v.662z" fill="#B6784C"/><path d="M184.831 548.537s-.769-.203-1.539-.175c-.193.013-.383.02-.558.05-.176.018-.347-.014-.488.006-.287.008-.503-.033-.503-.033l-.01-.037c.001 0 .171-.12.463-.231.289-.115.71-.136 1.112-.062.403.048.796.145 1.077.251.284.102.46.196.46.196l-.014.035zm-9.495-.201s.237-.098.608-.204c.371-.11.879-.21 1.395-.26.259-.025.52-.066.765-.049.244.019.471.046.66.109.378.12.61.251.61.251l-.009.043s-.271.051-.646.051c-.185-.017-.406.019-.636.001-.231-.03-.479-.041-.729-.057-1.001-.036-2.006.157-2.006.156l-.012-.041z" fill="#CA834E"/><path d="M178.782 549.502s-.168.112-.455.214c-.144.042-.314.101-.502.126-.189.02-.39.053-.593.046a3.421 3.421 0 01-1.091-.188c-.283-.113-.461-.198-.461-.198s.203.017.493.062c.142.038.315.03.495.053.18.028.373.029.566.024.385.022.77-.029 1.061-.059.291-.036.487-.08.487-.08zm3.298 0s.154.048.383.086c.229.036.53.087.833.067.151.006.303.002.444-.027.14-.021.279-.018.389-.056.227-.048.389-.07.389-.07s-.135.081-.354.188a2.22 2.22 0 01-.866.184c-.164.008-.325-.026-.476-.044-.15-.028-.283-.082-.396-.124-.223-.099-.346-.204-.346-.204z" fill="#454761"/><path d="M180.283 557.044s-.67.418-1.62 0" fill="#DAE2F2"/><path d="M180.283 557.044s-.076.079-.223.154c-.076.029-.164.074-.265.091-.102.015-.211.037-.321.032a1.392 1.392 0 01-.58-.138 2.594 2.594 0 01-.231-.139s.111.009.263.036c.152.022.352.059.551.049.199.018.397-.016.549-.034.152-.021.257-.051.257-.051zm1.118-1.158s-.964.104-1.927.096c-.964.008-1.927-.096-1.927-.096s.963-.103 1.927-.095a19.28 19.28 0 011.927.095zm-.452-2.183s-.006.035-.033.093a.68.68 0 01-.152.222c-.08.081-.182.165-.312.222-.122.076-.271.093-.412.142-.145.03-.292.026-.429.039-.137.018-.262-.02-.37-.028-.215-.035-.354-.069-.354-.069s.145-.023.357-.039c.105-.007.229-.006.357-.03.128-.02.269-.026.4-.06.129-.038.274-.045.383-.107.12-.044.228-.09.311-.152.172-.108.254-.233.254-.233z" fill="#454761"/></svg>