<svg xmlns="http://www.w3.org/2000/svg" style="isolation:isolate" viewBox="469.899 644.089 69.123 103.686" width="92.164" height="138.248"><path d="M539.022 745.052a2.722 2.722 0 01-2.722 2.723h-63.68a2.722 2.722 0 01-2.721-2.723v-98.24a2.722 2.722 0 012.721-2.723h63.68a2.722 2.722 0 012.722 2.723v98.24z" fill="#EAE8E8"/><path d="M524.058 698.468c0 6.106-5.482 9.524-10.835 8.727-2.761-.416-4.798-2.111-6.447-4.156-1.561-1.924-1.951-.684-1.736.576.992 5.824 3.646 9.127 8.585 10.676.496.16 2.573.628.677.628h-19.675c-1.896 0 .181-.468.669-.628 4.939-1.549 7.593-4.852 8.585-10.676.214-1.26-.167-2.5-1.729-.576-1.655 2.045-3.684 3.74-6.454 4.156-5.347.789-10.836-2.621-10.836-8.727v-.006c0-4.382 3.539-9.253 8.15-8.919.316.027 2.499.496 3.178-.168.983-.957-.391-1.668-.492-3.846v-.008c-.146-5.193 3.42-7.967 7.406-8.469v.006c0-.006.866-.113 1.253-.113.71-.008 1.273.099 1.467.113v-.006c3.981.502 7.553 3.284 7.399 8.469v.008c-.101 2.178-1.468 2.889-.489 3.846.676.664 2.867.187 3.175.168 4.612-.334 8.149 4.537 8.149 8.919v.006z" fill="#444247"/><path d="M504.418 676.945c-.02 0-.041-.002-.061 0-.387 0-1.253.107-1.253.113v-.006c-3.986.502-7.552 3.276-7.406 8.469v.008c.101 2.178 1.475 2.889.492 3.846-.679.664-2.862.195-3.178.168-4.611-.334-8.15 4.537-8.15 8.919v.006c0 6.106 5.489 9.516 10.836 8.725 2.77-.416 4.799-2.111 6.454-4.154 1.562-1.924 1.943-.684 1.729.576-.992 5.824-3.646 9.127-8.585 10.676-.488.16-2.565.628-.669.628h9.791v-37.974z" fill="#57565A"/><path d="M478.591 652.231l.784 2.308h1.013l-2.504-7.337h-1.132l-2.504 7.337h.98l.762-2.308h2.601zm-2.405-.74l.718-2.123c.153-.446.261-.903.37-1.328h.022c.109.425.218.86.381 1.339l.729 2.112h-2.22zm54.141 88.141l-.783-2.308h-1.013l2.504 7.337h1.132l2.504-7.337h-.98l-.762 2.308h-2.602zm2.406.74l-.718 2.123c-.153.446-.262.903-.37 1.328h-.022c-.109-.425-.218-.86-.381-1.339l-.73-2.112h2.221zm-5.048-9.359c0-1.213 1.089-1.892 2.153-1.734.549.082.954.42 1.281.826.311.381.388.135.346-.115-.197-1.158-.725-1.815-1.707-2.121-.098-.033-.511-.127-.134-.127h3.91c.377 0-.036.094-.133.127-.982.306-1.508.963-1.706 2.121-.043.25.034.496.344.115.329-.406.732-.744 1.282-.826 1.064-.158 2.155.521 2.155 1.734 0 .873-.704 1.84-1.62 1.774-.063-.006-.497-.098-.632.033-.196.191.077.332.097.766.03 1.033-.679 1.583-1.471 1.683 0 0-.172.024-.249.024-.142 0-.253-.022-.292-.024-.791-.1-1.501-.652-1.471-1.683.021-.434.292-.575.098-.766-.135-.131-.571-.037-.632-.033-.916.066-1.619-.901-1.619-1.774z" fill="#444247"/><path d="M531.588 735.293h.013c.077 0 .249-.024.249-.024.792-.1 1.501-.65 1.471-1.683-.02-.434-.293-.575-.097-.766.135-.131.569-.039.632-.033.916.066 1.62-.901 1.62-1.774 0-1.213-1.091-1.892-2.155-1.734-.55.082-.953.42-1.282.826-.31.381-.387.135-.344-.115.198-1.158.724-1.815 1.706-2.121.097-.033.51-.127.133-.127h-1.946v7.551z" fill="#57565A"/><path d="M481.151 660.851c0 1.213-1.089 1.893-2.154 1.735-.549-.083-.953-.42-1.281-.827-.311-.382-.388-.136-.345.116.197 1.156.724 1.814 1.706 2.121.099.031.512.125.135.125h-3.911c-.377 0 .036-.094.133-.125.982-.307 1.509-.965 1.707-2.121.042-.252-.033-.498-.344-.116-.329.407-.732.744-1.283.827-1.063.156-2.154-.522-2.154-1.735v-.002c0-.871.704-1.84 1.62-1.773.063.006.497.099.631-.033.196-.19-.077-.331-.097-.764v-.002c-.03-1.031.679-1.584 1.472-1.684v.002c0-.002.172-.023.248-.023.142-.002.254.019.292.023v-.002c.792.1 1.502.653 1.471 1.684v.002c-.02.433-.292.574-.096.764.133.132.57.039.63.033.916-.067 1.62.902 1.62 1.773v.002z" fill="#444247"/><path d="M477.247 656.572h-.013c-.076 0-.248.021-.248.023v-.002c-.793.1-1.502.653-1.472 1.684v.002c.02.433.293.574.097.764-.134.132-.568.039-.631.033-.916-.067-1.62.902-1.62 1.773v.002c0 1.213 1.091 1.891 2.154 1.735.551-.083.954-.42 1.283-.827.311-.382.386-.136.344.116-.198 1.156-.725 1.814-1.707 2.121-.097.031-.51.125-.133.125h1.946v-7.549z" fill="#57565A"/></svg>