<svg xmlns="http://www.w3.org/2000/svg" style="isolation:isolate" viewBox="75.654 644.089 69.123 103.686" width="92.164" height="138.248"><path d="M144.777 745.052a2.722 2.722 0 01-2.721 2.723h-63.68a2.723 2.723 0 01-2.722-2.723v-98.24a2.723 2.723 0 012.722-2.723h63.68a2.722 2.722 0 012.721 2.723v98.24z" fill="#EAE8E8"/><path d="M110.216 715.191l-14.159-19.26 14.159-19.258 14.159 19.258-14.159 19.26z" fill="#7D3C40"/><path d="M110.172 676.734l-14.115 19.197 14.115 19.199v-38.396z" fill="#934348"/><path d="M137.325 727.722l2.789 3.795-2.789 3.795-2.79-3.795 2.79-3.795z" fill="#7D3C40"/><path d="M137.334 735.3l2.78-3.783-2.78-3.783v7.566z" fill="#934348"/><path d="M84.347 652.231l.784 2.308h1.013l-2.504-7.337h-1.132l-2.504 7.337h.98l.762-2.308h2.601zm-2.405-.74l.718-2.123c.153-.446.261-.903.37-1.328h.022c.109.425.218.86.381 1.339l.729 2.112h-2.22zm54.142 88.141l-.783-2.308h-1.013l2.504 7.337h1.132l2.504-7.337h-.98l-.762 2.308h-2.602zm2.406.74l-.718 2.123c-.153.446-.262.903-.37 1.328h-.022c-.109-.425-.218-.86-.381-1.339l-.73-2.112h2.221zm-55.471-76.21l-2.79-3.795 2.79-3.795 2.79 3.795-2.79 3.795z" fill="#7D3C40"/><path d="M83.01 656.584l-2.781 3.783 2.781 3.783v-7.566z" fill="#934348"/></svg>