<svg xmlns="http://www.w3.org/2000/svg" style="isolation:isolate" viewBox="73.276 0 69.124 103.685" width="92.165" height="138.247"><path d="M142.4 100.963a2.722 2.722 0 01-2.722 2.722h-63.68a2.722 2.722 0 01-2.722-2.722V2.722A2.722 2.722 0 0175.998 0h63.68a2.722 2.722 0 012.722 2.722v98.241z" fill="#EAE8E8"/><path d="M107.821 40.722l-5.27-7.168 5.27-7.168 5.271 7.168-5.271 7.168z" fill="#7D3C40"/><path d="M107.806 26.408l-5.255 7.146 5.255 7.145V26.408z" fill="#934348"/><path d="M107.821 77.298l-5.27-7.168 5.27-7.168 5.271 7.168-5.271 7.168z" fill="#7D3C40"/><path d="M107.806 62.984l-5.255 7.146 5.255 7.145V62.984z" fill="#934348"/><path d="M82.9 10.45v-.795h-3.167v-.022l.555-.522c1.491-1.437 2.438-2.493 2.438-3.799 0-1.013-.642-2.058-2.166-2.058-.806 0-1.513.316-1.992.719l.305.675c.326-.272.86-.599 1.502-.599 1.056 0 1.393.664 1.393 1.382 0 1.067-.827 1.982-2.634 3.702l-.751.729v.588H82.9zm49.875 82.785v.795h3.167v.021l-.555.523c-1.491 1.437-2.438 2.493-2.438 3.799 0 1.012.642 2.057 2.166 2.057.805 0 1.513-.315 1.992-.718l-.305-.675c-.326.272-.86.599-1.502.599-1.056 0-1.393-.664-1.393-1.383 0-1.067.827-1.981 2.634-3.701l.751-.729v-.588h-4.517zm2.216-9.79l2.79 3.795-2.79 3.794-2.79-3.794 2.79-3.795z" fill="#7D3C40"/><path d="M135 91.023l2.781-3.783L135 83.457v7.566z" fill="#934348"/><path d="M80.685 19.884l-2.79-3.795 2.79-3.794 2.79 3.794-2.79 3.795z" fill="#7D3C40"/><path d="M80.676 12.307l-2.781 3.782 2.781 3.783v-7.565z" fill="#934348"/></svg>