<svg xmlns="http://www.w3.org/2000/svg" style="isolation:isolate" viewBox="398.999 106.405 69.123 103.685" width="92.164" height="138.247"><path d="M468.122 207.368a2.722 2.722 0 01-2.721 2.722h-63.68a2.722 2.722 0 01-2.722-2.722v-98.241a2.722 2.722 0 012.722-2.722h63.68a2.722 2.722 0 012.721 2.722v98.241z" fill="#EAE8E8"/><path d="M417.817 140.892l-5.271-7.168 5.271-7.168 5.27 7.168-5.27 7.168z" fill="#7D3C40"/><path d="M417.8 126.578l-5.254 7.146 5.254 7.145v-14.291z" fill="#934348"/><path d="M449.274 140.892l-5.271-7.168 5.271-7.168 5.269 7.168-5.269 7.168z" fill="#7D3C40"/><path d="M449.257 126.578l-5.254 7.146 5.254 7.145v-14.291z" fill="#934348"/><path d="M417.817 189.94l-5.271-7.168 5.271-7.168 5.27 7.168-5.27 7.168z" fill="#7D3C40"/><path d="M417.8 175.626l-5.254 7.146 5.254 7.145v-14.291z" fill="#934348"/><path d="M449.274 189.94l-5.271-7.168 5.271-7.168 5.269 7.168-5.269 7.168z" fill="#7D3C40"/><path d="M449.257 175.626l-5.254 7.146 5.254 7.145v-14.291z" fill="#934348"/><path d="M408.328 109.78h-3.385l-.457 3.397c.261-.033.577-.066.99-.066 1.405 0 2.025.642 2.025 1.557.011.947-.773 1.535-1.665 1.535-.654 0-1.231-.218-1.524-.392l-.24.729c.348.218.991.436 1.764.436 1.534 0 2.634-1.035 2.634-2.417 0-.882-.457-1.502-1.012-1.807-.436-.272-.969-.381-1.524-.381-.262 0-.414.011-.577.033l.272-1.818h2.699v-.806zm50.463 96.936h3.386l.457-3.397a7.54 7.54 0 01-.991.066c-1.404 0-2.024-.643-2.024-1.557-.011-.947.773-1.535 1.665-1.535.653 0 1.23.218 1.524.392l.24-.729c-.349-.218-.991-.436-1.764-.436-1.535 0-2.634 1.034-2.634 2.417 0 .881.457 1.502 1.012 1.807.436.272.969.381 1.524.381.262 0 .414-.011.577-.033l-.272 1.818h-2.7v.806zm1.923-16.777l2.79 3.793-2.79 3.795-2.79-3.795 2.79-3.793z" fill="#7D3C40"/><path d="M460.723 197.515l2.781-3.783-2.781-3.782v7.565z" fill="#934348"/><path d="M406.407 126.377l-2.79-3.795 2.79-3.794 2.789 3.794-2.789 3.795z" fill="#7D3C40"/><path d="M406.399 118.8l-2.782 3.782 2.782 3.783V118.8z" fill="#934348"/><path d="M433.561 165.416l-5.27-7.168 5.27-7.168 5.27 7.168-5.27 7.168z" fill="#7D3C40"/><path d="M433.545 151.103l-5.254 7.145 5.254 7.145v-14.29z" fill="#934348"/></svg>