<svg xmlns="http://www.w3.org/2000/svg" style="isolation:isolate" viewBox="73.276 318.148 69.124 103.684" width="92.165" height="138.245"><path d="M142.4 419.111a2.72 2.72 0 01-2.722 2.721h-63.68a2.72 2.72 0 01-2.722-2.721v-98.242a2.722 2.722 0 012.722-2.721h63.68a2.722 2.722 0 012.722 2.721v98.242z" fill="#EAE8E8"/><path d="M92.094 352.634l-5.271-7.168 5.271-7.168 5.269 7.168-5.269 7.168z" fill="#7D3C40"/><path d="M92.077 338.32l-5.254 7.146 5.254 7.145V338.32z" fill="#934348"/><path d="M123.55 352.634l-5.271-7.168 5.271-7.168 5.27 7.168-5.27 7.168z" fill="#7D3C40"/><path d="M123.533 338.32l-5.254 7.146 5.254 7.145V338.32z" fill="#934348"/><path d="M92.094 377.158l-5.271-7.169 5.271-7.168 5.269 7.168-5.269 7.169z" fill="#7D3C40"/><path d="M92.077 362.845l-5.254 7.144 5.254 7.147v-14.291z" fill="#934348"/><path d="M123.55 377.158l-5.271-7.169 5.271-7.168 5.27 7.168-5.27 7.169z" fill="#7D3C40"/><path d="M123.533 362.845l-5.254 7.144 5.254 7.147v-14.291z" fill="#934348"/><path d="M92.094 401.683l-5.271-7.17 5.271-7.168 5.269 7.168-5.269 7.17z" fill="#7D3C40"/><path d="M92.077 387.369l-5.254 7.144 5.254 7.147v-14.291z" fill="#934348"/><path d="M123.55 401.683l-5.271-7.17 5.271-7.168 5.27 7.168-5.27 7.17z" fill="#7D3C40"/><path d="M123.533 387.369l-5.254 7.144 5.254 7.147v-14.291z" fill="#934348"/><path d="M79.7 324.908c-.871.37-1.404 1.012-1.404 1.905 0 1.034.892 1.905 2.373 1.905 1.35 0 2.405-.817 2.405-2.058 0-.849-.544-1.48-1.426-1.829v-.032c.871-.403 1.176-1.056 1.176-1.655 0-.892-.697-1.742-2.068-1.742-1.252 0-2.199.762-2.199 1.884 0 .609.337 1.219 1.132 1.589l.011.033zm.99 3.113c-.903 0-1.447-.631-1.415-1.339 0-.675.447-1.23 1.274-1.47.958.273 1.557.697 1.557 1.546 0 .73-.556 1.263-1.416 1.263zm.011-5.933c.86 0 1.198.588 1.198 1.154 0 .642-.468 1.078-1.078 1.285-.816-.218-1.361-.599-1.35-1.307 0-.609.436-1.132 1.23-1.132zm55.274 92.984c.871-.37 1.404-1.012 1.404-1.905 0-1.034-.892-1.905-2.373-1.905-1.35 0-2.406.817-2.406 2.058 0 .849.545 1.48 1.426 1.828v.033c-.87.403-1.175 1.056-1.175 1.655 0 .892.696 1.741 2.068 1.741 1.252 0 2.199-.762 2.199-1.883 0-.61-.338-1.219-1.132-1.589l-.011-.033zm-.991-3.113c.904 0 1.448.631 1.415 1.339 0 .675-.446 1.23-1.273 1.469-.958-.272-1.557-.696-1.557-1.545 0-.73.555-1.263 1.415-1.263zm-.011 5.932c-.86 0-1.197-.587-1.197-1.153 0-.643.468-1.078 1.078-1.285.816.218 1.36.599 1.349 1.306 0 .61-.435 1.132-1.23 1.132zm.018-16.21l2.789 3.795-2.789 3.793-2.79-3.793 2.79-3.795z" fill="#7D3C40"/><path d="M134.999 409.257l2.781-3.781-2.781-3.783v7.564z" fill="#934348"/><path d="M80.684 338.119l-2.789-3.795 2.789-3.794 2.79 3.794-2.79 3.795z" fill="#7D3C40"/><path d="M80.675 330.542l-2.78 3.782 2.78 3.783v-7.565z" fill="#934348"/><path d="M107.838 363.727l-5.271-7.168 5.271-7.168 5.271 7.168-5.271 7.168z" fill="#7D3C40"/><path d="M107.822 349.413l-5.255 7.146 5.255 7.145v-14.291z" fill="#934348"/><path d="M107.838 389.759l-5.271-7.168 5.271-7.168 5.271 7.168-5.271 7.168z" fill="#7D3C40"/><path d="M107.822 375.445l-5.255 7.146 5.255 7.145v-14.291z" fill="#934348"/></svg>