<svg xmlns="http://www.w3.org/2000/svg" style="isolation:isolate" viewBox="0 106.73 69.123 103.683" width="92.164" height="138.244"><path d="M69.123 207.692a2.722 2.722 0 01-2.722 2.721H2.721A2.721 2.721 0 010 207.692V109.45a2.721 2.721 0 012.721-2.72h63.68a2.721 2.721 0 012.722 2.72v98.242z" fill="#EAE8E8"/><path d="M50.274 141.135l-1.081-1.076c-4.006-3.543-6.625-5.932-6.625-8.863 0-2.384 1.852-4.235 4.236-4.235 1.315 0 2.623 1.4 3.47 2.401.846-1.001 2.155-2.401 3.467-2.401 2.385 0 4.237 1.851 4.237 4.235 0 2.931-2.619 5.32-6.625 8.863l-1.079 1.076z" fill="#7D3C40"/><path d="M50.257 129.351c-.848-.998-2.147-2.382-3.453-2.382-2.384 0-4.236 1.851-4.236 4.235 0 2.931 2.619 5.319 6.625 8.863l1.064 1.06v-11.776z" fill="#934348"/><path d="M18.817 190.183l-1.08-1.077c-4.006-3.542-6.625-5.931-6.625-8.863 0-2.384 1.851-4.235 4.236-4.235 1.314 0 2.622 1.401 3.469 2.401.846-1 2.155-2.401 3.468-2.401 2.385 0 4.237 1.851 4.237 4.235 0 2.932-2.619 5.321-6.625 8.863l-1.08 1.077z" fill="#7D3C40"/><path d="M18.8 178.398c-.847-.999-2.147-2.381-3.452-2.381-2.385 0-4.236 1.85-4.236 4.235 0 2.931 2.619 5.318 6.625 8.862l1.063 1.06v-11.776z" fill="#934348"/><path d="M18.817 141.135l-1.08-1.076c-4.006-3.543-6.625-5.932-6.625-8.863 0-2.384 1.851-4.235 4.236-4.235 1.314 0 2.622 1.4 3.469 2.401.846-1.001 2.155-2.401 3.468-2.401 2.385 0 4.237 1.851 4.237 4.235 0 2.931-2.619 5.32-6.625 8.863l-1.08 1.076z" fill="#7D3C40"/><path d="M18.8 129.351c-.847-.998-2.147-2.382-3.452-2.382-2.385 0-4.236 1.851-4.236 4.235 0 2.931 2.619 5.319 6.625 8.863l1.063 1.06v-11.776z" fill="#934348"/><path d="M50.274 190.183l-1.081-1.077c-4.006-3.542-6.625-5.931-6.625-8.863 0-2.384 1.852-4.235 4.236-4.235 1.315 0 2.623 1.401 3.47 2.401.846-1 2.155-2.401 3.467-2.401 2.385 0 4.237 1.851 4.237 4.235 0 2.932-2.619 5.321-6.625 8.863l-1.079 1.077z" fill="#7D3C40"/><path d="M50.257 178.398c-.848-.999-2.147-2.381-3.453-2.381-2.384 0-4.236 1.85-4.236 4.235 0 2.931 2.619 5.318 6.625 8.862l1.064 1.06v-11.776z" fill="#934348"/><path d="M8.97 117.179v-1.938h.991v-.74H8.97v-4.398H7.936l-3.157 4.518v.62h3.287v1.938h.904zm-3.222-2.678v-.022l1.731-2.405c.196-.327.37-.632.587-1.045h.033c-.022.37-.033.74-.033 1.11v2.362H5.748zm54.403 85.461v1.938h-.991v.74h.991v4.398h1.034l3.157-4.518v-.62h-3.288v-1.938h-.903zm3.222 2.678v.021l-1.731 2.406c-.196.327-.37.632-.588 1.045h-.032c.021-.37.032-.74.032-1.11v-2.362h2.319zM7.417 126.691l-.578-.576c-2.144-1.895-3.545-3.174-3.545-4.742 0-1.275.99-2.266 2.267-2.266.703 0 1.403.749 1.856 1.285.453-.536 1.153-1.285 1.857-1.285 1.275 0 2.265.991 2.265 2.266 0 1.568-1.4 2.847-3.545 4.742l-.577.576z" fill="#7D3C40"/><path d="M7.408 120.386c-.454-.534-1.148-1.275-1.847-1.275a2.236 2.236 0 00-2.267 2.267c0 1.568 1.401 2.846 3.545 4.742l.569.567v-6.301z" fill="#934348"/><path d="M61.706 190.452l.577.575c2.144 1.897 3.545 3.174 3.545 4.743 0 1.276-.99 2.266-2.265 2.266-.704 0-1.405-.75-1.857-1.285-.453.535-1.153 1.285-1.856 1.285a2.235 2.235 0 01-2.266-2.266c0-1.569 1.4-2.846 3.545-4.743l.577-.575z" fill="#7D3C40"/><path d="M61.715 196.757c.453.535 1.148 1.274 1.848 1.274 1.275 0 2.265-.99 2.265-2.265 0-1.569-1.401-2.847-3.545-4.743l-.568-.567v6.301z" fill="#934348"/></svg>