<svg xmlns="http://www.w3.org/2000/svg" style="isolation:isolate" viewBox="0 0 69.123 103.685" width="92.164" height="138.247"><path d="M69.123 100.963a2.722 2.722 0 01-2.722 2.722H2.721A2.722 2.722 0 010 100.963V2.722A2.72 2.72 0 012.721 0h63.68a2.722 2.722 0 012.722 2.722v98.241z" fill="#EAE8E8"/><path d="M34.561 40.641l-1.079-1.076c-4.007-3.544-6.625-5.932-6.625-8.863 0-2.384 1.85-4.235 4.235-4.235 1.314 0 2.622 1.401 3.469 2.401.846-1 2.155-2.401 3.468-2.401 2.385 0 4.237 1.851 4.237 4.235 0 2.931-2.618 5.319-6.625 8.863l-1.08 1.076z" fill="#7D3C40"/><path d="M34.545 28.856c-.848-.998-2.146-2.381-3.453-2.381-2.385 0-4.235 1.851-4.235 4.235 0 2.932 2.618 5.319 6.625 8.863l1.063 1.06V28.856z" fill="#934348"/><path d="M34.561 77.217l-1.079-1.075c-4.007-3.544-6.625-5.933-6.625-8.864 0-2.384 1.85-4.235 4.235-4.235 1.314 0 2.622 1.401 3.469 2.401.846-1 2.155-2.401 3.468-2.401 2.385 0 4.237 1.851 4.237 4.235 0 2.931-2.618 5.32-6.625 8.864l-1.08 1.075z" fill="#7D3C40"/><path d="M34.545 65.433c-.848-.998-2.146-2.381-3.453-2.381-2.385 0-4.235 1.85-4.235 4.234 0 2.932 2.618 5.319 6.625 8.863l1.063 1.06V65.433z" fill="#934348"/><path d="M7.372 19.874l-.577-.576c-2.144-1.895-3.545-3.173-3.545-4.741 0-1.276.99-2.267 2.266-2.267.704 0 1.404.75 1.856 1.285.453-.535 1.154-1.285 1.857-1.285 1.275 0 2.265.991 2.265 2.267 0 1.568-1.4 2.846-3.544 4.741l-.578.576z" fill="#7D3C40"/><path d="M7.363 13.569c-.453-.534-1.147-1.274-1.847-1.274-1.276 0-2.266.99-2.266 2.265 0 1.569 1.401 2.847 3.545 4.743l.568.567v-6.301z" fill="#934348"/><path d="M61.662 83.636l.577.575c2.144 1.895 3.545 3.174 3.545 4.742 0 1.276-.99 2.266-2.265 2.266-.704 0-1.405-.749-1.857-1.284-.453.535-1.154 1.284-1.856 1.284a2.235 2.235 0 01-2.266-2.266c0-1.568 1.401-2.847 3.544-4.742l.578-.575z" fill="#7D3C40"/><path d="M61.671 89.94c.453.535 1.147 1.275 1.848 1.275a2.236 2.236 0 002.265-2.266c0-1.568-1.401-2.846-3.545-4.742l-.568-.567v6.3z" fill="#934348"/><path d="M9.623 10.45v-.795H6.455v-.022l.556-.522c1.491-1.437 2.438-2.493 2.438-3.799 0-1.013-.642-2.058-2.166-2.058-.806 0-1.513.316-1.992.719l.304.675c.327-.272.86-.599 1.503-.599 1.056 0 1.393.664 1.393 1.382 0 1.067-.827 1.982-2.634 3.702l-.751.729v.588h4.517zm49.875 82.785v.795h3.167v.021l-.555.523c-1.491 1.437-2.438 2.493-2.438 3.799 0 1.012.642 2.057 2.166 2.057.805 0 1.513-.315 1.992-.718l-.305-.675c-.326.272-.86.599-1.502.599-1.056 0-1.393-.664-1.393-1.383 0-1.067.827-1.981 2.634-3.701l.751-.729v-.588h-4.517z" fill="#7D3C40"/></svg>