<svg xmlns="http://www.w3.org/2000/svg" style="isolation:isolate" viewBox="325.723 212.812 69.123 103.683" width="92.164" height="138.244"><path d="M394.846 313.774a2.722 2.722 0 01-2.722 2.721h-63.68a2.721 2.721 0 01-2.721-2.721v-98.242a2.72 2.72 0 012.721-2.72h63.68a2.72 2.72 0 012.722 2.72v98.242z" fill="#EAE8E8"/><path d="M375.996 247.217l-1.079-1.076c-4.007-3.543-6.625-5.932-6.625-8.864 0-2.383 1.851-4.235 4.234-4.235 1.316 0 2.624 1.401 3.47 2.402.847-1.001 2.155-2.402 3.469-2.402 2.385 0 4.236 1.852 4.236 4.235 0 2.932-2.618 5.321-6.625 8.864l-1.08 1.076z" fill="#7D3C40"/><path d="M375.98 235.433c-.848-.999-2.147-2.382-3.454-2.382-2.383 0-4.234 1.85-4.234 4.235 0 2.931 2.618 5.32 6.625 8.862l1.063 1.061v-11.776z" fill="#934348"/><path d="M344.539 296.264l-1.079-1.075c-4.007-3.543-6.625-5.932-6.625-8.864 0-2.384 1.852-4.235 4.235-4.235 1.316 0 2.623 1.401 3.469 2.401.848-1 2.156-2.401 3.469-2.401 2.385 0 4.236 1.851 4.236 4.235 0 2.932-2.618 5.321-6.625 8.864l-1.08 1.075z" fill="#7D3C40"/><path d="M344.524 284.481c-.848-1-2.147-2.382-3.454-2.382-2.383 0-4.235 1.85-4.235 4.235 0 2.931 2.618 5.318 6.625 8.862l1.064 1.06v-11.775z" fill="#934348"/><path d="M344.539 247.217l-1.079-1.076c-4.007-3.543-6.625-5.932-6.625-8.864 0-2.383 1.852-4.235 4.235-4.235 1.316 0 2.623 1.401 3.469 2.402.848-1.001 2.156-2.402 3.469-2.402 2.385 0 4.236 1.852 4.236 4.235 0 2.932-2.618 5.321-6.625 8.864l-1.08 1.076z" fill="#7D3C40"/><path d="M344.524 235.433c-.848-.999-2.147-2.382-3.454-2.382-2.383 0-4.235 1.85-4.235 4.235 0 2.931 2.618 5.32 6.625 8.862l1.064 1.061v-11.776z" fill="#934348"/><path d="M375.996 271.74l-1.079-1.076c-4.007-3.543-6.625-5.932-6.625-8.862 0-2.385 1.851-4.236 4.234-4.236 1.316 0 2.624 1.401 3.47 2.402.847-1.001 2.155-2.402 3.469-2.402 2.385 0 4.236 1.851 4.236 4.236 0 2.93-2.618 5.319-6.625 8.862l-1.08 1.076z" fill="#7D3C40"/><path d="M375.98 259.956c-.848-.998-2.147-2.382-3.454-2.382-2.383 0-4.234 1.852-4.234 4.236 0 2.93 2.618 5.319 6.625 8.863l1.063 1.059v-11.776z" fill="#934348"/><path d="M344.539 271.74l-1.079-1.076c-4.007-3.543-6.625-5.932-6.625-8.862 0-2.385 1.852-4.236 4.235-4.236 1.316 0 2.623 1.401 3.469 2.402.848-1.001 2.156-2.402 3.469-2.402 2.385 0 4.236 1.851 4.236 4.236 0 2.93-2.618 5.319-6.625 8.862l-1.08 1.076z" fill="#7D3C40"/><path d="M344.524 259.956c-.848-.998-2.147-2.382-3.454-2.382-2.383 0-4.235 1.852-4.235 4.236 0 2.93 2.618 5.319 6.625 8.863l1.064 1.059v-11.776z" fill="#934348"/><path d="M375.996 296.264l-1.079-1.075c-4.007-3.543-6.625-5.932-6.625-8.864 0-2.384 1.851-4.235 4.234-4.235 1.316 0 2.624 1.401 3.47 2.401.847-1 2.155-2.401 3.469-2.401 2.385 0 4.236 1.851 4.236 4.235 0 2.932-2.618 5.321-6.625 8.864l-1.08 1.075z" fill="#7D3C40"/><path d="M375.98 284.481c-.848-1-2.147-2.382-3.454-2.382-2.383 0-4.234 1.85-4.234 4.235 0 2.931 2.618 5.318 6.625 8.862l1.063 1.06v-11.775z" fill="#934348"/><path d="M330.958 216.185v.795h3.462v.022l-3.07 6.259h.991l3.08-6.444v-.632h-4.463zm58.651 96.936v-.795h-3.461v-.022l3.07-6.259h-.991l-3.081 6.444v.632h4.463zm-56.469-80.348l-.577-.576c-2.144-1.895-3.545-3.174-3.545-4.742 0-1.275.99-2.266 2.265-2.266.704 0 1.405.75 1.857 1.285.453-.535 1.153-1.285 1.856-1.285 1.276 0 2.266.991 2.266 2.266 0 1.568-1.401 2.847-3.545 4.742l-.577.576z" fill="#7D3C40"/><path d="M333.131 226.468c-.453-.534-1.148-1.275-1.848-1.275a2.236 2.236 0 00-2.265 2.266c0 1.568 1.401 2.847 3.545 4.742l.568.568v-6.301z" fill="#934348"/><path d="M387.429 296.534l.578.575c2.144 1.897 3.545 3.174 3.545 4.743 0 1.275-.99 2.265-2.267 2.265-.703 0-1.403-.749-1.856-1.284-.453.535-1.153 1.284-1.856 1.284a2.235 2.235 0 01-2.266-2.265c0-1.569 1.4-2.846 3.545-4.743l.577-.575z" fill="#7D3C40"/><path d="M387.438 302.839c.454.534 1.148 1.274 1.847 1.274 1.277 0 2.267-.99 2.267-2.265 0-1.569-1.401-2.847-3.545-4.742l-.569-.568v6.301z" fill="#934348"/><path d="M360.284 258.309l-1.079-1.076c-4.007-3.543-6.625-5.931-6.625-8.863 0-2.384 1.851-4.235 4.236-4.235 1.314 0 2.622 1.401 3.468 2.401.847-1 2.156-2.401 3.469-2.401 2.385 0 4.236 1.851 4.236 4.235 0 2.932-2.618 5.32-6.625 8.863l-1.08 1.076z" fill="#7D3C40"/><path d="M360.269 246.525c-.848-.999-2.148-2.381-3.453-2.381-2.385 0-4.236 1.85-4.236 4.235 0 2.931 2.618 5.318 6.625 8.862l1.064 1.06v-11.776z" fill="#934348"/></svg>