<svg xmlns="http://www.w3.org/2000/svg" style="isolation:isolate" viewBox="325.723 0 69.123 103.685" width="92.164" height="138.247"><path d="M394.846 100.963a2.722 2.722 0 01-2.722 2.722h-63.68a2.722 2.722 0 01-2.721-2.722V2.722A2.722 2.722 0 01328.444 0h63.68a2.722 2.722 0 012.722 2.722v98.241z" fill="#EAE8E8"/><path d="M360.284 58.929l-1.079-1.077c-4.007-3.542-6.626-5.931-6.626-8.862 0-2.384 1.852-4.235 4.236-4.235 1.315 0 2.623 1.401 3.469 2.401.847-1 2.156-2.401 3.469-2.401 2.385 0 4.235 1.851 4.235 4.235 0 2.931-2.617 5.32-6.624 8.862l-1.08 1.077z" fill="#7D3C40"/><path d="M360.268 47.146c-.848-1-2.147-2.382-3.453-2.382-2.384 0-4.236 1.85-4.236 4.234 0 2.931 2.619 5.319 6.626 8.863l1.063 1.06V47.146z" fill="#934348"/><path d="M375.996 34.405l-1.079-1.076c-4.008-3.543-6.626-5.932-6.626-8.863 0-2.384 1.852-4.235 4.235-4.235 1.316 0 2.624 1.401 3.47 2.402.847-1.001 2.155-2.402 3.469-2.402 2.385 0 4.236 1.851 4.236 4.235 0 2.931-2.619 5.32-6.625 8.863l-1.08 1.076z" fill="#7D3C40"/><path d="M375.98 22.621c-.848-.998-2.147-2.382-3.454-2.382-2.383 0-4.235 1.852-4.235 4.236 0 2.93 2.618 5.319 6.626 8.862l1.063 1.06V22.621z" fill="#934348"/><path d="M344.539 83.453l-1.079-1.076c-4.007-3.543-6.625-5.932-6.625-8.863 0-2.384 1.852-4.236 4.235-4.236 1.315 0 2.623 1.402 3.469 2.402.848-1 2.156-2.402 3.469-2.402 2.385 0 4.236 1.852 4.236 4.236 0 2.931-2.618 5.32-6.625 8.863l-1.08 1.076z" fill="#7D3C40"/><path d="M344.524 71.669c-.848-.999-2.148-2.382-3.454-2.382-2.383 0-4.235 1.851-4.235 4.235 0 2.931 2.618 5.319 6.625 8.863l1.064 1.059V71.669z" fill="#934348"/><path d="M330.795 10.091c.348.229 1.045.479 1.84.479 1.687 0 2.58-.99 2.58-2.122-.011-.991-.708-1.644-1.579-1.807v-.022c.86-.316 1.307-.936 1.307-1.676 0-.86-.632-1.688-2.025-1.688-.762 0-1.481.272-1.862.544l.262.697c.304-.218.849-.468 1.415-.468.881 0 1.241.501 1.241 1.067 0 .838-.882 1.197-1.579 1.197h-.533v.719h.533c.926 0 1.818.424 1.829 1.415.011.599-.381 1.371-1.6 1.371a3.301 3.301 0 01-1.568-.435l-.261.729zm58.978 83.503c-.349-.228-1.045-.479-1.84-.479-1.687 0-2.58.991-2.58 2.123.011.99.708 1.644 1.579 1.807v.022c-.86.315-1.307.936-1.307 1.676 0 .86.632 1.687 2.025 1.687.762 0 1.48-.272 1.861-.544l-.261-.697c-.305.218-.849.468-1.415.468-.882 0-1.241-.5-1.241-1.066 0-.839.882-1.198 1.579-1.198h.533v-.718h-.533c-.926 0-1.818-.425-1.829-1.415-.011-.599.381-1.372 1.6-1.372.675 0 1.295.272 1.567.435l.262-.729zM333.14 19.962l-.578-.576c-2.144-1.896-3.544-3.174-3.544-4.743 0-1.275.99-2.265 2.265-2.265.704 0 1.404.749 1.857 1.284.453-.535 1.153-1.284 1.856-1.284 1.276 0 2.266.99 2.266 2.265 0 1.569-1.401 2.847-3.545 4.743l-.577.576z" fill="#7D3C40"/><path d="M333.131 13.657c-.453-.535-1.148-1.275-1.848-1.275-1.275 0-2.265.99-2.265 2.265 0 1.569 1.4 2.847 3.544 4.744l.569.566v-6.3z" fill="#934348"/><path d="M387.429 83.723l.578.575c2.144 1.896 3.545 3.174 3.545 4.742 0 1.276-.99 2.267-2.267 2.267-.703 0-1.403-.75-1.856-1.285-.453.535-1.153 1.285-1.856 1.285a2.236 2.236 0 01-2.266-2.267c0-1.568 1.4-2.846 3.545-4.742l.577-.575z" fill="#7D3C40"/><path d="M387.438 90.027c.454.536 1.148 1.275 1.847 1.275 1.277 0 2.267-.99 2.267-2.266 0-1.568-1.401-2.846-3.545-4.742l-.569-.567v6.3z" fill="#934348"/></svg>