<svg xmlns="http://www.w3.org/2000/svg" style="isolation:isolate" viewBox="0 212.812 69.123 103.683" width="92.164" height="138.244"><path d="M69.123 313.774a2.722 2.722 0 01-2.722 2.721H2.721A2.721 2.721 0 010 313.774v-98.242a2.72 2.72 0 012.721-2.72h63.68a2.72 2.72 0 012.722 2.72v98.242z" fill="#EAE8E8"/><path d="M50.274 247.217l-1.081-1.076c-4.006-3.543-6.625-5.932-6.625-8.864 0-2.383 1.852-4.235 4.236-4.235 1.315 0 2.623 1.401 3.47 2.402.846-1.001 2.155-2.402 3.467-2.402 2.385 0 4.237 1.852 4.237 4.235 0 2.932-2.619 5.321-6.625 8.864l-1.079 1.076z" fill="#7D3C40"/><path d="M50.257 235.433c-.848-.999-2.147-2.382-3.453-2.382-2.384 0-4.236 1.85-4.236 4.235 0 2.931 2.619 5.32 6.625 8.862l1.064 1.061v-11.776z" fill="#934348"/><path d="M18.817 296.264l-1.08-1.075c-4.006-3.543-6.625-5.932-6.625-8.864 0-2.384 1.851-4.235 4.236-4.235 1.314 0 2.622 1.401 3.469 2.401.846-1 2.155-2.401 3.468-2.401 2.385 0 4.237 1.851 4.237 4.235 0 2.932-2.619 5.321-6.625 8.864l-1.08 1.075z" fill="#7D3C40"/><path d="M18.8 284.481c-.847-1-2.147-2.382-3.452-2.382-2.385 0-4.236 1.85-4.236 4.235 0 2.931 2.619 5.318 6.625 8.862l1.063 1.06v-11.775z" fill="#934348"/><path d="M18.817 247.217l-1.08-1.076c-4.006-3.543-6.625-5.932-6.625-8.864 0-2.383 1.851-4.235 4.236-4.235 1.314 0 2.622 1.401 3.469 2.402.846-1.001 2.155-2.402 3.468-2.402 2.385 0 4.237 1.852 4.237 4.235 0 2.932-2.619 5.321-6.625 8.864l-1.08 1.076z" fill="#7D3C40"/><path d="M18.8 235.433c-.847-.999-2.147-2.382-3.452-2.382-2.385 0-4.236 1.85-4.236 4.235 0 2.931 2.619 5.32 6.625 8.862l1.063 1.061v-11.776z" fill="#934348"/><path d="M50.274 271.74l-1.081-1.076c-4.006-3.543-6.625-5.932-6.625-8.862 0-2.385 1.852-4.236 4.236-4.236 1.315 0 2.623 1.401 3.47 2.402.846-1.001 2.155-2.402 3.467-2.402 2.385 0 4.237 1.851 4.237 4.236 0 2.93-2.619 5.319-6.625 8.862l-1.079 1.076z" fill="#7D3C40"/><path d="M50.257 259.956c-.848-.998-2.147-2.382-3.453-2.382-2.384 0-4.236 1.852-4.236 4.236 0 2.93 2.619 5.319 6.625 8.863l1.064 1.059v-11.776z" fill="#934348"/><path d="M18.817 271.74l-1.08-1.076c-4.006-3.543-6.625-5.932-6.625-8.862 0-2.385 1.851-4.236 4.236-4.236 1.314 0 2.622 1.401 3.469 2.402.846-1.001 2.155-2.402 3.468-2.402 2.385 0 4.237 1.851 4.237 4.236 0 2.93-2.619 5.319-6.625 8.862l-1.08 1.076z" fill="#7D3C40"/><path d="M18.8 259.956c-.847-.998-2.147-2.382-3.452-2.382-2.385 0-4.236 1.852-4.236 4.236 0 2.93 2.619 5.319 6.625 8.863l1.063 1.059v-11.776z" fill="#934348"/><path d="M50.274 296.264l-1.081-1.075c-4.006-3.543-6.625-5.932-6.625-8.864 0-2.384 1.852-4.235 4.236-4.235 1.315 0 2.623 1.401 3.47 2.401.846-1 2.155-2.401 3.467-2.401 2.385 0 4.237 1.851 4.237 4.235 0 2.932-2.619 5.321-6.625 8.864l-1.079 1.075z" fill="#7D3C40"/><path d="M50.257 284.481c-.848-1-2.147-2.382-3.453-2.382-2.384 0-4.236 1.85-4.236 4.235 0 2.931 2.619 5.318 6.625 8.862l1.064 1.06v-11.775z" fill="#934348"/><path d="M9.144 216.076c-.174 0-.414.011-.697.055-.892.109-1.676.468-2.264 1.045-.707.696-1.197 1.796-1.197 3.189 0 1.84.99 3.016 2.493 3.016 1.48 0 2.362-1.198 2.362-2.504 0-1.372-.882-2.286-2.134-2.286-.784 0-1.382.37-1.72.827h-.021c.163-1.175.947-2.264 2.46-2.503a3.51 3.51 0 01.718-.055v-.784zM7.5 222.64c-1.012 0-1.556-.87-1.567-2.035 0-.174.043-.305.098-.414a1.572 1.572 0 011.382-.871c.882 0 1.459.61 1.459 1.622 0 1.013-.555 1.698-1.372 1.698zm52.476 90.589c.175 0 .414-.01.697-.054.893-.109 1.677-.468 2.264-1.045.708-.697 1.198-1.796 1.198-3.19 0-1.839-.991-3.015-2.493-3.015-1.48 0-2.362 1.198-2.362 2.504 0 1.371.882 2.286 2.133 2.286.784 0 1.383-.37 1.72-.827h.022c-.163 1.175-.947 2.264-2.46 2.503a3.52 3.52 0 01-.719.055v.783zm1.644-6.564c1.013 0 1.557.871 1.568 2.036a.9.9 0 01-.098.414c-.261.522-.806.87-1.383.87-.881 0-1.458-.609-1.458-1.621 0-1.013.555-1.699 1.371-1.699zM7.417 232.773l-.578-.576c-2.144-1.895-3.545-3.174-3.545-4.742 0-1.275.99-2.266 2.267-2.266.703 0 1.403.75 1.856 1.285.453-.535 1.153-1.285 1.857-1.285 1.275 0 2.265.991 2.265 2.266 0 1.568-1.4 2.847-3.545 4.742l-.577.576z" fill="#7D3C40"/><path d="M7.408 226.468c-.454-.534-1.148-1.275-1.847-1.275a2.236 2.236 0 00-2.267 2.266c0 1.568 1.401 2.847 3.545 4.742l.569.568v-6.301z" fill="#934348"/><path d="M61.706 296.534l.577.575c2.144 1.897 3.545 3.174 3.545 4.743 0 1.275-.99 2.265-2.265 2.265-.704 0-1.405-.749-1.857-1.284-.453.535-1.153 1.284-1.856 1.284a2.235 2.235 0 01-2.266-2.265c0-1.569 1.4-2.846 3.545-4.743l.577-.575z" fill="#7D3C40"/><path d="M61.715 302.839c.453.534 1.148 1.274 1.848 1.274 1.275 0 2.265-.99 2.265-2.265 0-1.569-1.401-2.847-3.545-4.742l-.568-.568v6.301z" fill="#934348"/></svg>