<svg xmlns="http://www.w3.org/2000/svg" style="isolation:isolate" viewBox="0 644.363 69.123 103.683" width="92.164" height="138.244"><path d="M69.123 745.326a2.721 2.721 0 01-2.722 2.72H2.721A2.72 2.72 0 010 745.326v-98.242a2.721 2.721 0 012.721-2.721h63.68a2.722 2.722 0 012.722 2.721v98.242z" fill="#EAE8E8"/><path d="M34.561 713.685l-2.662-2.654c-9.883-8.74-16.34-14.631-16.34-21.862 0-5.878 4.564-10.445 10.445-10.445 3.242 0 6.469 3.455 8.557 5.924 2.089-2.469 5.317-5.924 8.555-5.924 5.882 0 10.448 4.567 10.448 10.445 0 7.231-6.457 13.122-16.34 21.862l-2.663 2.654z" fill="#7D3C40"/><path d="M34.52 684.621c-2.089-2.465-5.294-5.877-8.516-5.877-5.881 0-10.445 4.566-10.445 10.447 0 7.228 6.457 13.121 16.34 21.859l2.621 2.616v-29.045z" fill="#934348"/><path d="M7.372 664.238l-.577-.576c-2.144-1.897-3.545-3.174-3.545-4.743 0-1.275.99-2.265 2.266-2.265.704 0 1.404.75 1.856 1.285.453-.535 1.154-1.285 1.857-1.285 1.275 0 2.265.99 2.265 2.265 0 1.569-1.4 2.846-3.544 4.743l-.578.576z" fill="#7D3C40"/><path d="M7.363 657.933c-.453-.535-1.147-1.275-1.847-1.275-1.276 0-2.266.99-2.266 2.265 0 1.569 1.401 2.846 3.545 4.743l.568.566v-6.299z" fill="#934348"/><path d="M61.662 727.998l.577.576c2.144 1.896 3.545 3.174 3.545 4.742 0 1.275-.99 2.266-2.265 2.266-.704 0-1.405-.75-1.857-1.286-.453.536-1.154 1.286-1.856 1.286a2.236 2.236 0 01-2.266-2.266c0-1.568 1.401-2.846 3.544-4.742l.578-.576z" fill="#7D3C40"/><path d="M61.671 734.302c.453.535 1.147 1.276 1.848 1.276a2.236 2.236 0 002.265-2.266c0-1.568-1.401-2.848-3.545-4.742l-.568-.568v6.3z" fill="#934348"/><path d="M8.693 652.504l.783 2.308h1.013l-2.504-7.337H6.853l-2.504 7.337h.98l.762-2.308h2.602zm-2.406-.74l.718-2.123c.153-.446.262-.903.371-1.328h.021c.109.425.218.86.381 1.339l.73 2.112H6.287zm54.141 88.14l-.783-2.308h-1.013l2.504 7.337h1.132l2.504-7.337h-.98l-.762 2.308h-2.602zm2.406.74l-.718 2.123c-.153.446-.262.903-.37 1.328h-.022c-.109-.425-.218-.86-.381-1.339l-.73-2.112h2.221z" fill="#7D3C40"/></svg>