<svg xmlns="http://www.w3.org/2000/svg" style="isolation:isolate" viewBox="545.553 212.812 69.123 103.683" width="92.164" height="138.244"><path d="M614.676 313.774a2.72 2.72 0 01-2.722 2.721h-63.679a2.722 2.722 0 01-2.722-2.721v-98.242a2.72 2.72 0 012.722-2.72h63.679a2.72 2.72 0 012.722 2.72v98.242z" fill="#EAE8E8"/><path d="M567.312 235.338c-.873-.717-1.78-1.458-2.472-2.279a.607.607 0 00-.467-.216h-.036a.61.61 0 00-.47.216c-.692.821-1.598 1.562-2.472 2.279-1.851 1.514-3.762 3.083-3.762 5.509 0 2.202 1.538 3.739 3.744 3.739 1.065 0 1.994-.627 2.626-1.201-.304 1.296-.869 2.83-1.938 4.032h4.575c-1.07-1.205-1.636-2.74-1.939-4.037.63.575 1.561 1.206 2.629 1.206 2.203 0 3.745-1.537 3.745-3.739 0-2.423-1.915-3.991-3.763-5.509z" fill="#444247"/><path d="M564.338 247.417v-14.574h-.001a.61.61 0 00-.47.216c-.692.821-1.598 1.562-2.472 2.279-1.851 1.514-3.762 3.083-3.762 5.509 0 2.202 1.538 3.739 3.744 3.739 1.065 0 1.994-.627 2.626-1.201-.304 1.296-.869 2.83-1.938 4.032h2.273z" fill="#57565A"/><path d="M554.493 226.586c-.452-.371-.921-.755-1.28-1.18a.315.315 0 00-.241-.112h-.019a.316.316 0 00-.243.112c-.359.425-.829.809-1.281 1.18-.959.784-1.948 1.597-1.948 2.854 0 1.14.795 1.936 1.939 1.936.552 0 1.032-.324 1.359-.622-.156.672-.45 1.466-1.003 2.089h2.37c-.554-.624-.848-1.42-1.004-2.092.326.299.808.625 1.361.625 1.142 0 1.939-.796 1.939-1.936 0-1.255-.991-2.068-1.949-2.854z" fill="#444247"/><path d="M552.953 232.843v-7.549a.316.316 0 00-.243.112c-.359.425-.829.809-1.281 1.18-.959.784-1.948 1.597-1.948 2.854 0 1.14.795 1.936 1.939 1.936.552 0 1.032-.324 1.359-.622-.156.672-.45 1.466-1.003 2.089h1.177z" fill="#57565A"/><path d="M605.735 302.721c.453.371.922.755 1.281 1.18a.31.31 0 00.241.112h.019a.316.316 0 00.244-.112c.358-.425.828-.809 1.28-1.18.959-.784 1.949-1.597 1.949-2.854 0-1.14-.797-1.936-1.939-1.936-.552 0-1.034.325-1.361.622.158-.672.451-1.466 1.004-2.089h-2.37c.555.624.848 1.42 1.005 2.092-.327-.299-.809-.625-1.362-.625-1.141 0-1.94.796-1.94 1.936 0 1.255.992 2.068 1.949 2.854z" fill="#444247"/><path d="M607.276 296.464v7.549a.316.316 0 00.244-.112c.358-.425.828-.809 1.28-1.18.959-.784 1.949-1.597 1.949-2.854 0-1.14-.797-1.936-1.939-1.936-.552 0-1.034.325-1.361.622.158-.672.451-1.466 1.004-2.089h-1.177z" fill="#57565A"/><path d="M598.769 235.338c-.873-.717-1.78-1.458-2.473-2.279a.605.605 0 00-.466-.216h-.036a.61.61 0 00-.47.216c-.692.821-1.599 1.562-2.472 2.279-1.852 1.514-3.763 3.083-3.763 5.509 0 2.202 1.538 3.739 3.745 3.739 1.066 0 1.994-.627 2.625-1.201-.303 1.296-.869 2.83-1.938 4.032h4.576c-1.071-1.205-1.636-2.74-1.94-4.037.631.575 1.562 1.206 2.63 1.206 2.203 0 3.744-1.537 3.744-3.739 0-2.423-1.914-3.991-3.762-5.509z" fill="#444247"/><path d="M595.794 247.417v-14.574a.61.61 0 00-.47.216c-.692.821-1.599 1.562-2.472 2.279-1.852 1.514-3.763 3.083-3.763 5.509 0 2.202 1.538 3.739 3.745 3.739 1.066 0 1.994-.627 2.625-1.201-.303 1.296-.869 2.83-1.938 4.032h2.273z" fill="#57565A"/><path d="M567.312 259.861c-.873-.716-1.78-1.458-2.472-2.279a.61.61 0 00-.467-.216h-.036a.613.613 0 00-.47.216c-.692.821-1.598 1.563-2.472 2.279-1.851 1.514-3.762 3.083-3.762 5.51 0 2.2 1.538 3.739 3.744 3.739 1.065 0 1.994-.628 2.626-1.201-.304 1.295-.869 2.829-1.938 4.031h4.575c-1.07-1.204-1.636-2.74-1.939-4.037.63.576 1.561 1.207 2.629 1.207 2.203 0 3.745-1.539 3.745-3.739 0-2.424-1.915-3.992-3.763-5.51z" fill="#444247"/><path d="M564.338 271.94v-14.574h-.001a.613.613 0 00-.47.216c-.692.821-1.598 1.563-2.472 2.279-1.851 1.514-3.762 3.083-3.762 5.51 0 2.2 1.538 3.739 3.744 3.739 1.065 0 1.994-.628 2.626-1.201-.304 1.295-.869 2.829-1.938 4.031h2.273z" fill="#57565A"/><path d="M598.769 259.861c-.873-.716-1.78-1.458-2.473-2.279a.608.608 0 00-.466-.216h-.036a.613.613 0 00-.47.216c-.692.821-1.599 1.563-2.472 2.279-1.852 1.514-3.763 3.083-3.763 5.51 0 2.2 1.538 3.739 3.745 3.739 1.066 0 1.994-.628 2.625-1.201-.303 1.295-.869 2.829-1.938 4.031h4.576c-1.071-1.204-1.636-2.74-1.94-4.037.631.576 1.562 1.207 2.63 1.207 2.203 0 3.744-1.539 3.744-3.739 0-2.424-1.914-3.992-3.762-5.51z" fill="#444247"/><path d="M595.794 271.94v-14.574a.613.613 0 00-.47.216c-.692.821-1.599 1.563-2.472 2.279-1.852 1.514-3.763 3.083-3.763 5.51 0 2.2 1.538 3.739 3.745 3.739 1.066 0 1.994-.628 2.625-1.201-.303 1.295-.869 2.829-1.938 4.031h2.273z" fill="#57565A"/><path d="M567.312 284.386c-.873-.717-1.78-1.458-2.472-2.28a.61.61 0 00-.467-.216h-.036a.613.613 0 00-.47.216c-.692.822-1.598 1.563-2.472 2.28-1.851 1.513-3.762 3.082-3.762 5.509 0 2.201 1.538 3.739 3.744 3.739 1.065 0 1.994-.628 2.626-1.201-.304 1.296-.869 2.83-1.938 4.032h4.575c-1.07-1.205-1.636-2.741-1.939-4.038.63.576 1.561 1.207 2.629 1.207 2.203 0 3.745-1.538 3.745-3.739 0-2.423-1.915-3.992-3.763-5.509z" fill="#444247"/><path d="M564.338 296.465V281.89h-.001a.613.613 0 00-.47.216c-.692.822-1.598 1.563-2.472 2.28-1.851 1.513-3.762 3.082-3.762 5.509 0 2.201 1.538 3.739 3.744 3.739 1.065 0 1.994-.628 2.626-1.201-.304 1.296-.869 2.83-1.938 4.032h2.273z" fill="#57565A"/><path d="M598.769 284.386c-.873-.717-1.78-1.458-2.473-2.28a.608.608 0 00-.466-.216h-.036a.613.613 0 00-.47.216c-.692.822-1.599 1.563-2.472 2.28-1.852 1.513-3.763 3.082-3.763 5.509 0 2.201 1.538 3.739 3.745 3.739 1.066 0 1.994-.628 2.625-1.201-.303 1.296-.869 2.83-1.938 4.032h4.576c-1.071-1.205-1.636-2.741-1.94-4.038.631.576 1.562 1.207 2.63 1.207 2.203 0 3.744-1.538 3.744-3.739 0-2.423-1.914-3.992-3.762-5.509z" fill="#444247"/><path d="M595.794 296.465V281.89a.613.613 0 00-.47.216c-.692.822-1.599 1.563-2.472 2.28-1.852 1.513-3.763 3.082-3.763 5.509 0 2.201 1.538 3.739 3.745 3.739 1.066 0 1.994-.628 2.625-1.201-.303 1.296-.869 2.83-1.938 4.032h2.273z" fill="#57565A"/><path d="M550.79 216.185v.795h3.462v.022l-3.07 6.259h.991l3.08-6.444v-.632h-4.463zm58.649 96.936v-.795h-3.461v-.022l3.07-6.259h-.991l-3.081 6.444v.632h4.463zm-26.367-66.69c-.873-.717-1.779-1.458-2.471-2.28a.61.61 0 00-.467-.216h-.036a.612.612 0 00-.47.216c-.692.822-1.599 1.563-2.473 2.28-1.85 1.513-3.762 3.082-3.762 5.509 0 2.201 1.539 3.739 3.745 3.739 1.065 0 1.994-.628 2.626-1.201-.304 1.295-.869 2.83-1.939 4.032h4.576c-1.07-1.205-1.636-2.741-1.939-4.038.63.576 1.561 1.207 2.629 1.207 2.203 0 3.745-1.538 3.745-3.739 0-2.423-1.915-3.992-3.764-5.509z" fill="#444247"/><path d="M580.099 258.51v-14.575h-.001a.612.612 0 00-.47.216c-.692.822-1.599 1.563-2.473 2.28-1.85 1.513-3.762 3.082-3.762 5.509 0 2.201 1.539 3.739 3.745 3.739 1.065 0 1.994-.628 2.626-1.201-.304 1.295-.869 2.83-1.939 4.032h2.274z" fill="#57565A"/></svg>