<svg xmlns="http://www.w3.org/2000/svg" style="isolation:isolate" viewBox="545.553 530.406 69.123 103.683" width="92.164" height="138.244"><path d="M552.953 550.437v-7.549a.315.315 0 00-.244.112c-.358.425-.828.808-1.28 1.181-.959.783-1.948 1.596-1.948 2.854 0 1.138.795 1.935 1.939 1.935.552 0 1.032-.324 1.359-.621-.156.67-.45 1.465-1.003 2.088h1.177z" fill="#57565A"/><path d="M609.39 623.64h-.947v2.797l-.708.806-2.406-3.603h-1.121l2.863 4.223-2.656 3.114h1.176l2.242-2.754c.185-.24.381-.501.577-.784h.033v3.538h.947v-7.337z" fill="#444247"/><path d="M569.909 629.49l3.337.693.674-3.244c.843.195 1.731.357 2.645.486l-.379 3.096 3.54.432.386-3.164c1.008.068 2.013.111 2.988.132v3.248h3.612v-3.244a95.396 95.396 0 002.909-.101l.547 3.256 3.888-.653-1.314-7.81-.723.121-.009-.348-19.436-.75-.034.307-1.019-.211-1.612 7.754z" fill="#B7975B"/><path d="M614.676 631.369a2.721 2.721 0 01-2.722 2.72h-63.679a2.721 2.721 0 01-2.722-2.72v-98.242a2.722 2.722 0 012.722-2.721h63.679a2.722 2.722 0 012.722 2.721v98.242z" fill="#EAE8E8"/><path d="M554.493 544.181c-.452-.373-.921-.756-1.28-1.181a.312.312 0 00-.241-.112h-.019a.315.315 0 00-.244.112c-.358.425-.828.808-1.28 1.181-.959.783-1.948 1.596-1.948 2.854 0 1.138.795 1.935 1.939 1.935.552 0 1.032-.324 1.359-.621-.156.67-.45 1.465-1.003 2.088h2.37c-.554-.625-.848-1.42-1.004-2.092.326.299.808.625 1.361.625 1.142 0 1.939-.797 1.939-1.935 0-1.256-.991-2.069-1.949-2.854zm-3.654-3.326h.947v-2.798l.708-.805 2.406 3.603h1.121l-2.863-4.224 2.656-3.113h-1.176l-2.242 2.754c-.185.24-.381.501-.577.784h-.033v-3.538h-.947v7.337zm54.896 79.459c.452.373.922.756 1.281 1.182a.311.311 0 00.241.111h.019a.317.317 0 00.243-.111c.359-.426.829-.809 1.281-1.182.958-.783 1.948-1.596 1.948-2.853 0-1.141-.796-1.936-1.939-1.936-.552 0-1.033.324-1.361.621.159-.672.452-1.465 1.005-2.088h-2.37c.554.623.847 1.42 1.004 2.092-.326-.299-.809-.625-1.361-.625-1.142 0-1.94.795-1.94 1.936 0 1.255.991 2.068 1.949 2.853z" fill="#444247"/><path d="M607.276 614.058v7.549a.317.317 0 00.243-.111c.359-.426.829-.809 1.281-1.182.958-.783 1.948-1.596 1.948-2.853 0-1.141-.796-1.936-1.939-1.936-.552 0-1.033.324-1.361.621.159-.672.452-1.465 1.005-2.088h-1.177z" fill="#57565A"/><path d="M563.199 605.812s-4.053-1.465-7.827-5.562v-5.018h7.827v10.58zm-7.827-13.072v-28.154s3.539-4.512 10.642-5.18c0 0 .132 28.517-10.642 33.334z" fill="#444247"/><path d="M576.151 560.953h3.621v6.648h-3.621v-6.648zm-7.263-2.297h3.623v6.648h-3.623v-6.648z" fill="#302C32"/><path d="M579.8 558.31h3.621v6.649H579.8v-6.649zm-7.273 2.168h3.624v6.65h-3.624v-6.65z" fill="#A64045"/><path d="M583.307 556.306h3.622v6.651h-3.622v-6.651z" fill="#302C32"/><path d="M586.955 556.173h3.623v4.141h-3.623v-4.141z" fill="#A64045"/><path d="M565.043 559.511s1.269 18.627-9.671 33.229l.02 1.937s6.438-3.025 10.101-15.787c3.664-12.76 2.004-19.379 2.004-19.379h-2.454z" fill="#302C32"/><path d="M566.717 559.929s.336 12.256-2.69 19.6c-3.025 7.344-5.129 12.351-8.655 15.117v5.604s9.939-9.61 13.197-20.434c3.259-10.824 2.65-20.293 2.65-20.293l-4.502.406z" fill="#EAE8E8"/><path d="M566.532 559.603c0 .459.934.832 2.084.832 1.151 0 2.083-.373 2.083-.832 0-.459-.932-.832-2.083-.832-1.15 0-2.084.373-2.084.832zm.155 1.832c-.024.449.869.861 1.994.922 1.126.059 2.057-.258 2.08-.707.025-.451-.868-.863-1.994-.922-1.124-.059-2.056.258-2.08.707zm.032 2.106c-.048.439.807.892 1.906 1.011 1.1.119 2.03-.142 2.077-.582.048-.439-.805-.892-1.906-1.009-1.1-.12-2.03.14-2.077.58zm-.097 2.337c-.07.432.743.924 1.819 1.1 1.074.18 2.003-.025 2.075-.455.07-.43-.743-.922-1.819-1.1-1.074-.177-2.003.028-2.075.455zm-.228 2.528c-.094.42.679.951 1.729 1.189 1.049.237 1.978.088 2.071-.33.095-.42-.679-.951-1.728-1.189-1.05-.237-1.978-.09-2.072.33zm-.368 2.672c-.119.41.616.98 1.64 1.277 1.025.297 1.951.205 2.069-.205.119-.408-.616-.981-1.639-1.277-1.026-.295-1.951-.205-2.07.205zm-.513 2.773c-.143.399.553 1.012 1.551 1.367 1 .356 1.923.321 2.066-.08.143-.398-.553-1.01-1.551-1.365-1-.355-1.925-.32-2.066.078zm-.665 2.832c-.165.389.489 1.039 1.464 1.455.972.414 1.897.436 2.062.047.167-.389-.488-1.041-1.463-1.455-.973-.416-1.897-.437-2.063-.047zm-.821 2.846c-.189.379.427 1.07 1.375 1.545.949.474 1.872.551 2.061.172.189-.379-.427-1.071-1.375-1.545-.948-.473-1.871-.551-2.061-.172zm-.982 2.818c-.213.369.362 1.1 1.286 1.633.923.535 1.844.668 2.058.299.213-.369-.363-1.1-1.286-1.635-.924-.533-1.845-.666-2.058-.297zm-1.152 2.746c-.237.36.299 1.131 1.198 1.723.898.594 1.818.783 2.055.424.237-.36-.299-1.131-1.198-1.723-.898-.594-1.817-.783-2.055-.424zm-1.325 2.631c-.26.35.237 1.16 1.11 1.813.873.652 1.791.896 2.052.549.26-.35-.237-1.161-1.109-1.813-.873-.65-1.792-.896-2.053-.549zm-1.504 2.473c-.284.34.172 1.189 1.02 1.9.848.713 1.766 1.014 2.049.676.285-.34-.172-1.189-1.021-1.902-.846-.709-1.764-1.012-2.048-.674zm-1.691 2.271c-.307.328.111 1.219.933 1.991.822.769 1.738 1.128 2.046.798.307-.328-.11-1.218-.932-1.99-.822-.769-1.738-1.129-2.047-.799zm-1.881 2.026c-.331.318.046 1.25.843 2.078.797.83 1.713 1.244 2.044.926.331-.319-.046-1.25-.844-2.079-.797-.83-1.711-1.244-2.043-.925z" fill="#A64045"/><path d="M576.396 575.81h5.756v-6.369h-5.756v6.369z" fill="#495DA7"/><path d="M581.903 575.541h-5.507v5.777l5.507-5.777zm.2-.491h-5.806v-4.728h5.806v4.728zm0-5.144h-5.707v-1.543l5.707-3.455v4.998z" fill="#B7975B"/><path d="M575.282 581.871l.221-13.405-4.725-2.672s-.928 11.102-2.049 13.096c-1.122 1.994 6.553 2.981 6.553 2.981z" fill="#444247"/><path d="M575.199 581.91l1.405-.696v-13.716h-1.405v14.412z" fill="#DAE2F2"/><path d="M574.747 582.435l1.404-.695v-13.719h-1.404v14.414z" fill="#302C32"/><path d="M565.569 587.086c.476-1.2 1.282-2.313 1.878-3.459.97-1.87 1.662-3.848 1.978-5.907.029 0 .058-.004.088-.004a6.888 6.888 0 016.398 4.342c-.215.242-.424.494-.692.719-.482.406-1.05.726-1.553 1.111-1.222.938-2.155 2.229-3.521 2.963-1.03.553-2.124.938-3.22 1.334-.471.172-.948.342-1.438.455l-.444-.064c.181-.502.337-1.014.526-1.49z" fill="#302C32"/><path d="M565.569 587.086c.476-1.2 1.282-2.313 1.878-3.459.884-1.704 1.537-3.5 1.886-5.364.06-.002.119-.006.18-.006a6.35 6.35 0 015.99 4.25 3.66 3.66 0 01-.284.27c-.482.406-1.05.726-1.553 1.111-1.222.938-2.155 2.229-3.521 2.963-1.03.553-2.124.938-3.22 1.334-.471.172-.948.342-1.438.455-.147-.021-.295-.043-.444-.062.181-.504.337-1.016.526-1.492z" fill="#B7975B"/><path d="M567.447 583.627c.388-.75.732-1.516 1.025-2.299a3.433 3.433 0 014.473 3.174c-.9.83-1.713 1.765-2.8 2.349-.655.352-1.335.635-2.027.897a3.45 3.45 0 01-1.864-2.049c.395-.696.832-1.377 1.193-2.072z" fill="#495DA7"/><path d="M588.939 571.044l-5.635 3.254-.286-10.494 5.921-3.261v10.501z" fill="#444247"/><path d="M581.903 574.896h1.404v-10.619h-1.404v10.619z" fill="#DAE2F2"/><path d="M594.302 557.349s-2.425-1.361-4.926-1.711l-.302 15.217s3.838-1.424 5.563-1.359l-.335-12.147z" fill="#B9C8E6"/><path d="M594.302 557.349l.874.332v11.711h-.874v-12.043z" fill="#756262"/><path d="M595.176 557.681s1.293.539 1.854.971v10.58h-1.854v-11.551z" fill="#302C32"/><path d="M597.03 558.652s4.053 1.465 7.827 5.562v5.018h-7.827v-10.58z" fill="#444247"/><path d="M582.424 574.423h1.404v-10.619h-1.404v10.619z" fill="#302C32"/><path d="M588.503 555.638h.873v14.926h-.873v-14.926z" fill="#756262"/><path d="M566.186 588.83c.526 0 1.212-.106 2.074-.432 2.853-1.08 6.343-4.059 10.371-8.848 4.851-5.767 9.62-8.06 12.767-8.968 3.403-.983 7.271-.799 7.294-.795l.167-.94c-.1-.017-4.064-.226-7.663.799-3.29.938-8.266 3.311-13.295 9.291-9.049 10.76-12.5 8.801-12.533 8.779l-.539.787c.07.049.5.327 1.357.327z" fill="#A47953"/><path d="M588.503 559.939s-11.662 7.605-12.763 7.605c-1.1 0-4.405-2.314-4.405-2.314v1.344s3.984 2.658 4.503 2.658c.518 0 12.665-7.873 12.665-7.873v-1.42z" fill="#DAE2F2"/><path d="M587.199 556.294s-9.856 7.245-11.254 7.245c-1.399 0-5.455-3.623-5.455-3.623l16.709-3.622z" fill="#B7975B"/><path d="M588.503 559.013s-11.662 7.737-12.763 7.737c-1.1 0-4.405-2.608-4.405-2.608v1.305s3.984 2.574 4.503 2.574c.518 0 12.665-7.629 12.665-7.629v-1.379z" fill="#B7975B"/><path d="M571.653 560.451s.028 12.304-2.851 20.422c-2.878 8.117-10.123 19.531-12.253 20.566l-1.177-1.189s5.098-4.204 12.394-19.975c1.899-7.807 1.964-4.43 2.882-20.336.918-15.908 1.005.512 1.005.512z" fill="#A47953"/><path d="M604.857 571.724v28.154s-3.54 4.512-10.641 5.18c0 0-.133-28.517 10.641-33.334z" fill="#444247"/><path d="M584.078 603.511h-3.622v-6.648h3.622v6.648zm7.263 2.297h-3.623v-6.648h3.623v6.648z" fill="#302C32"/><path d="M580.43 606.154h-3.622v-6.649h3.622v6.649zm7.27-2.17h-3.622v-6.648h3.622v6.648z" fill="#A64045"/><path d="M576.922 608.156H573.3v-6.649h3.622v6.649z" fill="#302C32"/><path d="M573.273 608.289h-3.622v-4.139h3.622v4.139z" fill="#A64045"/><path d="M595.185 604.953s-1.268-18.627 9.672-33.229l-.02-1.937s-6.439 3.025-10.103 15.787c-3.663 12.76-2.002 19.379-2.002 19.379h2.453z" fill="#302C32"/><path d="M593.512 604.535s-.335-12.256 2.688-19.6c3.026-7.346 5.131-12.351 8.657-15.117v-5.604s-5.439 1.104-13.197 20.434c-3.259 10.826-2.65 20.293-2.65 20.293l4.502-.406z" fill="#EAE8E8"/><path d="M593.695 604.861c0-.461-.931-.832-2.083-.832-1.15 0-2.083.371-2.083.832 0 .459.933.832 2.083.832 1.152 0 2.083-.373 2.083-.832zm-.154-1.832c.025-.449-.868-.861-1.993-.922-1.126-.059-2.057.258-2.081.707-.025.449.869.861 1.995.922 1.125.058 2.057-.258 2.079-.707zm-.03-2.106c.047-.441-.807-.892-1.906-1.011-1.101-.118-2.031.142-2.079.582-.046.439.807.892 1.907 1.009 1.099.12 2.029-.14 2.078-.58zm.095-2.339c.07-.428-.744-.92-1.818-1.1-1.074-.178-2.004.027-2.075.457-.069.43.743.922 1.817 1.1 1.077.177 2.005-.028 2.076-.457zm.228-2.526c.095-.42-.679-.951-1.728-1.189-1.049-.237-1.977-.09-2.072.33-.094.42.679.953 1.729 1.189 1.05.237 1.976.088 2.071-.33zm.368-2.672c.119-.41-.615-.98-1.639-1.277-1.025-.297-1.952-.205-2.07.203-.118.41.616.982 1.641 1.279 1.023.295 1.95.203 2.068-.205zm.514-2.773c.143-.401-.553-1.01-1.551-1.367-1-.356-1.925-.321-2.066.08-.142.398.552 1.01 1.551 1.365 1 .355 1.924.322 2.066-.078zm.665-2.832c.165-.389-.49-1.041-1.464-1.455-.973-.414-1.897-.436-2.062-.047-.166.389.489 1.041 1.462 1.455.974.416 1.898.435 2.064.047zm.819-2.846c.191-.379-.425-1.07-1.374-1.545-.948-.474-1.87-.551-2.06-.172-.189.379.426 1.071 1.375 1.545.948.473 1.871.551 2.059.172zm.984-2.818c.214-.369-.363-1.1-1.286-1.635-.923-.533-1.844-.666-2.057-.297-.214.369.363 1.1 1.285 1.635.923.533 1.845.666 2.058.297zm1.152-2.746c.235-.36-.3-1.131-1.198-1.723-.899-.594-1.818-.783-2.055-.424-.236.36.299 1.131 1.197 1.723.899.594 1.819.783 2.056.424zm1.324-2.631c.26-.35-.236-1.16-1.109-1.813-.872-.652-1.791-.898-2.052-.549-.26.35.236 1.161 1.109 1.813.873.65 1.792.896 2.052.549zm1.505-2.473c.284-.34-.173-1.189-1.019-1.902-.849-.711-1.767-1.012-2.05-.674-.284.34.173 1.189 1.019 1.9.848.713 1.766 1.014 2.05.676zm1.691-2.271c.307-.328-.11-1.219-.933-1.991-.821-.769-1.738-1.127-2.046-.798-.308.328.109 1.218.932 1.99.822.769 1.739 1.127 2.047.799zm1.88-2.026c.331-.318-.045-1.25-.842-2.078-.798-.83-1.712-1.244-2.044-.926-.332.319.046 1.248.842 2.078.798.831 1.712 1.245 2.044.926z" fill="#A64045"/><path d="M583.834 588.654h-5.758v6.369h5.758v-6.369z" fill="#495DA7"/><path d="M578.325 588.923h5.509v-5.777l-5.509 5.777zm-.199.491h5.806v4.726h-5.806v-4.726zm0 5.144h5.708v1.543l-5.708 3.455v-4.998z" fill="#B7975B"/><path d="M584.946 582.593l-.22 13.405 4.724 2.67s.928-11.102 2.05-13.094c1.122-1.994-6.554-2.981-6.554-2.981z" fill="#444247"/><path d="M585.028 582.552l-1.403.696v13.72h1.403v-14.416z" fill="#DAE2F2"/><path d="M585.482 582.029l-1.404.695v13.719h1.404v-14.414z" fill="#302C32"/><path d="M594.66 577.377c-.476 1.201-1.282 2.312-1.879 3.46-.969 1.87-1.661 3.848-1.978 5.907l-.086.002a6.89 6.89 0 01-6.4-4.34c.215-.242.425-.494.693-.719.481-.406 1.051-.726 1.554-1.111 1.22-.938 2.154-2.227 3.519-2.963 1.03-.553 2.125-.938 3.222-1.334.47-.172.947-.342 1.436-.457.148.023.295.045.444.066-.18.502-.335 1.014-.525 1.489z" fill="#302C32"/><path d="M594.66 577.377c-.476 1.201-1.282 2.312-1.879 3.46-.883 1.704-1.536 3.499-1.885 5.364-.06.002-.12.006-.179.006a6.349 6.349 0 01-5.991-4.25 3.66 3.66 0 01.284-.27c.481-.406 1.051-.726 1.554-1.111 1.22-.938 2.154-2.227 3.519-2.963 1.03-.553 2.125-.938 3.222-1.334.47-.172.947-.342 1.436-.457l.444.066c-.18.502-.335 1.014-.525 1.489z" fill="#B7975B"/><path d="M592.781 580.837c-.388.749-.73 1.516-1.024 2.299a3.437 3.437 0 01-4.474-3.174c.902-.83 1.714-1.765 2.8-2.349a16.996 16.996 0 012.027-.897 3.453 3.453 0 011.865 2.047c-.395.698-.832 1.379-1.194 2.074z" fill="#495DA7"/><path d="M571.289 593.418l5.637-3.252.284 10.494-5.921 3.261v-10.503z" fill="#444247"/><path d="M578.325 589.568h-1.403v10.619h1.403v-10.619z" fill="#DAE2F2"/><path d="M565.926 607.113s2.426 1.363 4.927 1.713l.302-15.217s-3.838 1.424-5.563 1.359l.334 12.145z" fill="#B9C8E6"/><path d="M565.926 607.113l-.873-.33v-11.711h.873v12.041z" fill="#756262"/><path d="M565.053 606.783s-1.294-.539-1.854-.971v-10.58h1.854v11.551zm12.751-16.742h-1.403v10.619h1.403v-10.619z" fill="#302C32"/><path d="M571.726 608.826h-.873V593.9h.873v14.926z" fill="#756262"/><path d="M594.043 575.634c-.526 0-1.212.106-2.073.432-2.855 1.08-6.343 4.057-10.372 8.848-4.852 5.769-9.62 8.062-12.767 8.968-3.403.983-7.102.53-7.126.526l-.166.939c.1.018 3.895.496 7.494-.531 3.289-.936 8.266-3.309 13.295-9.289 9.049-10.76 12.499-8.801 12.532-8.779l.54-.787c-.069-.049-.5-.327-1.357-.327z" fill="#A47953"/><path d="M571.726 604.525s11.662-7.606 12.762-7.606c1.101 0 4.406 2.315 4.406 2.315v-1.344s-3.985-2.658-4.502-2.658c-.519 0-12.666 7.873-12.666 7.873v1.42z" fill="#DAE2F2"/><path d="M573.029 608.169s9.856-7.244 11.255-7.244c1.399 0 5.454 3.623 5.454 3.623l-16.709 3.621z" fill="#B7975B"/><path d="M571.726 605.451s11.662-7.737 12.762-7.737c1.101 0 4.406 2.608 4.406 2.608v-1.305s-3.985-2.574-4.502-2.574c-.519 0-12.666 7.631-12.666 7.631v1.377z" fill="#B7975B"/><path d="M588.576 604.011s-.028-12.304 2.851-20.42c2.879-8.117 9.46-19.408 12.414-20.414l1.016 1.037c-2.551 1.289-10.844 13.84-12.395 19.975-1.898 7.807-1.964 4.43-2.88 20.336-.919 15.908-1.006-.514-1.006-.514z" fill="#A47953"/><path d="M570.226 543.392s.626 5.836 0 7.031c-.626 1.196-1.823 3.844-1.823 3.844s2.591-.939 2.649 1.736c.057 2.676-2.135 2.534-2.933 2.534-.797 0-3.102-.94-1.593-4.641 1.508-3.699 1.777-2.221 2.013-4.896.236-2.676 0-5.436 0-5.436l1.687-.172z" fill="#DDDCDB"/><path d="M569.401 541.677s.625 5.836 0 7.032c-.626 1.197-1.822 3.843-1.822 3.843s2.59-.939 2.647 1.737c.057 2.675-2.135 2.533-2.932 2.533-.797 0-3.103-.94-1.594-4.639 1.508-3.701 1.778-2.221 2.013-4.896.235-2.676 0-5.438 0-5.438l1.688-.172z" fill="#EAE8E8"/><path d="M568.307 550.076s-4.475 17.039 5.683 17.039c10.159 0 8.952-13.002 5.778-17.58-3.174-4.576-11.461.541-11.461.541z" fill="#DDDCDB"/><path d="M568.527 542.976s-.749 2.836-.295 3.742c.453.905-.007 2.463.075 3.358.083.896 1.303 2.431 3.963.621 0 0 6.853 3.664 6.913-1.065.059-4.726-.276-7.248-.276-7.248s-8.272-.925-10.38.592z" fill="#DAE2F2"/><path d="M587.114 540.88s-.626 5.836 0 7.032c.626 1.197 1.823 3.843 1.823 3.843s-2.591-.939-2.648 1.737c-.057 2.676 2.135 2.533 2.933 2.533.796 0 3.101-.939 1.593-4.641-1.508-3.699-1.777-2.218-2.013-4.896-.235-2.674 0-5.436 0-5.436l-1.688-.172z" fill="#6B6B6E"/><path d="M586.317 541.677s-.626 5.836 0 7.032c.626 1.197 1.822 3.843 1.822 3.843s-2.59-.939-2.648 1.737c-.056 2.675 2.136 2.533 2.933 2.533.798 0 3.102-.94 1.594-4.639-1.509-3.701-1.778-2.221-2.013-4.896-.235-2.676 0-5.438 0-5.438l-1.688-.172z" fill="#828486"/><path d="M585.151 542.503s-.626 5.836 0 7.032c.625 1.195 1.821 3.843 1.821 3.843s-2.59-.939-2.647 1.737c-.057 2.676 2.134 2.533 2.932 2.533.797 0 3.102-.939 1.594-4.641-1.509-3.701-1.778-2.218-2.014-4.896-.235-2.676 0-5.436 0-5.436l-1.686-.172z" fill="#95999A"/><path d="M583.452 542.759s-.626 5.836 0 7.032c.627 1.197 1.823 3.843 1.823 3.843s-2.591-.939-2.648 1.737c-.058 2.675 2.135 2.533 2.932 2.533.798 0 3.102-.94 1.594-4.641-1.509-3.699-1.778-2.219-2.012-4.896-.237-2.674 0-5.436 0-5.436l-1.689-.172z" fill="#ABAEAF"/><path d="M581.801 542.503s-.626 5.836 0 7.032c.627 1.195 1.822 3.843 1.822 3.843s-2.591-.939-2.647 1.737c-.057 2.676 2.134 2.533 2.931 2.533.798 0 3.104-.939 1.595-4.641-1.509-3.701-1.777-2.218-2.013-4.896-.236-2.676 0-5.436 0-5.436l-1.688-.172z" fill="#C4C4C3"/><path d="M580.122 542.277s-.627 5.834 0 7.029c.626 1.197 1.821 3.844 1.821 3.844s-2.59-.939-2.647 1.736c-.057 2.676 2.136 2.533 2.933 2.533.797 0 3.102-.939 1.593-4.638-1.508-3.701-1.777-2.221-2.012-4.897-.236-2.675 0-5.437 0-5.437l-1.688-.17z" fill="#DDDCDB"/><path d="M578.613 541.962s-.626 5.836 0 7.032c.626 1.195 1.823 3.843 1.823 3.843s-2.591-.939-2.648 1.737c-.057 2.676 2.135 2.533 2.932 2.533.797 0 3.102-.939 1.594-4.639-1.509-3.701-1.778-2.22-2.013-4.898-.235-2.676 0-5.436 0-5.436l-1.688-.172zm-6.343 8.735s-2.742.24-3.731 1.908c0 0 1.453 1.404 3.571.357 0 0 2.399.92 4.594.282 0 0-1.519-2.313-4.434-2.547z" fill="#EAE8E8"/><path d="M590.32 535.005l-3.337-.693-.674 3.244a31.785 31.785 0 00-2.644-.488l.378-3.094-3.54-.433-.387 3.164a66.884 66.884 0 00-2.987-.131v-3.248h-3.612v3.244a95.32 95.32 0 00-2.908.101l-.548-3.255-3.888.652 1.314 7.81.723-.121.009.348 19.434.75.036-.307 1.019.211 1.612-7.754z" fill="#B7975B"/><path d="M567.713 543.203s10.004-1.528 20.986 1.064l.103-1.764s-13.768-3.212-21.37-.826l.281 1.526z" fill="#302C32"/><path d="M571.162 545.66s-.174-.035-.434-.055a4.804 4.804 0 00-.944.003c-.17.016-.323.084-.477.097a2.439 2.439 0 01-.396.12c-.2.112-.39.177-.39.177l-.024-.021s.08-.159.289-.377c.122-.066.27-.158.442-.207a2.44 2.44 0 01.543-.044 4.362 4.362 0 011.399.275l-.008.032zm2.91-.032s.664-.267 1.4-.275c.181-.011.371.015.543.044.172.049.319.141.441.207.209.218.289.377.289.377l-.023.021s-.191-.065-.391-.178a2.299 2.299 0 01-.395-.119c-.155-.013-.308-.081-.478-.097a4.794 4.794 0 00-.943-.003c-.261.02-.435.055-.435.055l-.008-.032z" fill="#828486"/><path d="M573.17 546.836s.172.147.476.283c.154.057.333.133.533.171.201.038.413.079.631.058.216.011.425-.038.625-.074.198-.031.385-.048.543-.102.319-.073.559-.087.559-.087l.014.029s-.182.14-.496.3a1.361 1.361 0 01-.571.173c-.215.05-.452.055-.686.016-.235-.005-.461-.071-.67-.136-.209-.059-.387-.168-.535-.25-.293-.185-.444-.358-.444-.358l.021-.023zm-2.088.023s-.108.126-.316.265a2.18 2.18 0 01-.379.202c-.15.046-.31.117-.481.128-.17.033-.343.057-.503.019a.918.918 0 01-.42-.12c-.229-.123-.353-.239-.353-.239l.014-.029s.181-.011.41.025c.112.033.248.023.387.049.14.023.288.045.442.04.307.011.608-.088.829-.173.22-.091.349-.19.349-.19l.021.023zm.607-.519s.064.465.051 1.17a7.039 7.039 0 01-.123 1.202c-.043.219-.12.439-.181.666l-.3.636c-.102.217-.073.348.058.49.133.123.32.208.512.255.195.04.392.046.574.035.183-.011.36-.044.499-.116a.864.864 0 00.353-.239c.099-.088.134-.199.186-.283.059-.184.079-.303.079-.303h.031s.011.116-.004.332c-.028.103-.048.242-.148.366a.977.977 0 01-.381.353c-.165.102-.368.16-.58.194-.215.041-.447.015-.68-.03-.23-.059-.477-.152-.664-.362a.727.727 0 01-.17-.399c.006-.155.043-.317.103-.401l.328-.609c.068-.212.153-.418.205-.626.1-.419.162-.82.192-1.167.061-.694.028-1.162.028-1.162l.032-.002z" fill="#454761"/><path d="M590.003 621.103s-.626-5.836 0-7.031c.626-1.195 1.822-3.844 1.822-3.844s-2.591.94-2.647-1.736c-.057-2.676 2.135-2.533 2.931-2.533.798 0 3.104.939 1.594 4.64-1.508 3.699-1.777 2.221-2.012 4.897-.236 2.675 0 5.437 0 5.437l-1.688.17z" fill="#DDDCDB"/><path d="M590.828 622.818s-.626-5.836 0-7.033c.626-1.196 1.823-3.842 1.823-3.842s-2.591.939-2.648-1.736c-.058-2.676 2.135-2.534 2.932-2.534.798 0 3.102.94 1.594 4.639-1.508 3.701-1.777 2.221-2.013 4.897-.236 2.675 0 5.437 0 5.437l-1.688.172z" fill="#EAE8E8"/><path d="M591.922 614.418s4.475-17.04-5.683-17.04c-10.159 0-8.953 13.004-5.778 17.581 3.175 4.578 11.461-.541 11.461-.541z" fill="#DDDCDB"/><path d="M591.701 621.519s.749-2.836.296-3.742c-.453-.906.007-2.463-.075-3.359-.082-.895-1.304-2.432-3.963-.62 0 0-6.854-3.662-6.913 1.065-.059 4.726.275 7.248.275 7.248s8.273.926 10.38-.592z" fill="#DAE2F2"/><path d="M573.114 623.615s.626-5.836 0-7.031c-.626-1.196-1.822-3.844-1.822-3.844s2.591.939 2.649-1.737c.056-2.675-2.136-2.533-2.933-2.533-.797 0-3.104.94-1.595 4.639 1.51 3.701 1.779 2.221 2.014 4.896.235 2.676 0 5.438 0 5.438l1.687.172z" fill="#6B6B6E"/><path d="M573.911 622.818s.626-5.836 0-7.033c-.626-1.196-1.822-3.842-1.822-3.842s2.591.939 2.648-1.736c.057-2.676-2.134-2.534-2.932-2.534-.797 0-3.103.94-1.594 4.639 1.509 3.701 1.778 2.221 2.014 4.897.235 2.675 0 5.437 0 5.437l1.686.172z" fill="#828486"/><path d="M575.078 621.992s.626-5.836 0-7.031c-.626-1.196-1.821-3.844-1.821-3.844s2.59.939 2.647-1.737c.057-2.675-2.134-2.533-2.932-2.533-.797 0-3.103.94-1.594 4.641 1.509 3.699 1.777 2.221 2.013 4.896.236 2.676 0 5.438 0 5.438l1.687.17z" fill="#95999A"/><path d="M576.776 621.736s.626-5.836 0-7.031c-.625-1.196-1.822-3.844-1.822-3.844s2.591.939 2.649-1.736c.055-2.676-2.136-2.534-2.933-2.534-.798 0-3.103.94-1.595 4.639 1.509 3.701 1.779 2.221 2.014 4.897.235 2.675 0 5.437 0 5.437l1.687.172z" fill="#ABAEAF"/><path d="M578.427 621.992s.627-5.836 0-7.031c-.626-1.196-1.821-3.844-1.821-3.844s2.59.939 2.647-1.737c.057-2.675-2.135-2.533-2.932-2.533-.797 0-3.103.94-1.594 4.641 1.508 3.699 1.778 2.221 2.013 4.896.236 2.676 0 5.438 0 5.438l1.687.17z" fill="#C4C4C3"/><path d="M580.107 622.218s.626-5.834 0-7.031c-.626-1.195-1.823-3.842-1.823-3.842s2.591.94 2.649-1.736c.056-2.676-2.135-2.533-2.933-2.533-.797 0-3.102.937-1.594 4.638 1.509 3.702 1.779 2.221 2.014 4.897.235 2.676 0 5.437 0 5.437l1.687.17z" fill="#DDDCDB"/><path d="M581.615 622.533s.627-5.836 0-7.031c-.626-1.198-1.821-3.844-1.821-3.844s2.59.939 2.648-1.737c.056-2.675-2.135-2.533-2.933-2.533-.797 0-3.103.94-1.594 4.641 1.509 3.699 1.777 2.219 2.013 4.896.236 2.676 0 5.436 0 5.436l1.687.172zm6.344-8.735s2.741-.24 3.732-1.908c0 0-1.454-1.404-3.573-.357 0 0-2.399-.92-4.593-.281 0 0 1.519 2.312 4.434 2.546z" fill="#EAE8E8"/><path d="M592.516 621.293s-10.003 1.527-20.987-1.065l-.102 1.764s13.767 3.213 21.37.826l-.281-1.525z" fill="#302C32"/><path d="M589.067 618.836s.173.035.434.054c.26.026.608.034.943-.003.17-.015.324-.084.478-.096.138-.059.272-.092.395-.121.201-.112.391-.177.391-.177l.024.021s-.081.159-.29.377c-.122.067-.269.158-.441.207a2.44 2.44 0 01-.543.044c-.735-.008-1.399-.275-1.399-.275l.008-.031zm-2.911.031s-.664.267-1.399.275a2.44 2.44 0 01-.543-.044c-.172-.049-.319-.14-.441-.207-.209-.218-.289-.377-.289-.377l.023-.021s.19.065.391.178c.123.028.257.061.395.12.154.012.308.081.478.096.336.037.683.029.943.003.261-.019.435-.054.435-.054l.007.031z" fill="#828486"/><path d="M587.059 617.66s-.172-.148-.476-.283c-.154-.058-.333-.134-.533-.171-.201-.039-.413-.079-.631-.06-.216-.011-.426.039-.624.074-.199.032-.387.048-.544.102-.319.072-.559.087-.559.087l-.014-.03s.181-.14.496-.299c.153-.088.348-.157.57-.173.217-.05.452-.055.687-.016.236.005.462.072.67.137.209.059.386.168.535.25.293.185.444.358.444.358l-.021.024zm2.088-.024s.108-.126.316-.264a2.08 2.08 0 01.379-.203c.15-.045.309-.117.48-.127.17-.034.344-.059.504-.021.162.01.309.051.42.119.23.123.354.239.354.239l-.014.03s-.182.01-.41-.026c-.113-.032-.249-.022-.388-.047a2.246 2.246 0 00-.441-.041c-.308-.009-.61.088-.83.174-.22.091-.349.191-.349.191l-.021-.024zm-.606.519s-.065-.465-.053-1.17c.007-.353.039-.765.123-1.202.043-.219.121-.439.182-.666l.3-.635c.101-.218.073-.349-.058-.491a1.188 1.188 0 00-.512-.254 2.128 2.128 0 00-.575-.034c-.182.01-.359.044-.499.114a.888.888 0 00-.352.239c-.099.088-.134.2-.187.283a2.496 2.496 0 00-.078.303h-.031s-.011-.116.004-.332c.028-.102.048-.242.147-.366a.98.98 0 01.382-.353c.165-.101.367-.16.58-.193.215-.041.446-.015.68.029.229.06.476.154.665.364a.73.73 0 01.169.398c-.005.155-.043.316-.104.4-.109.205-.218.409-.327.609-.068.213-.153.418-.205.626-.1.419-.162.82-.192 1.167-.06.694-.028 1.162-.028 1.162l-.031.002z" fill="#454761"/></svg>