<svg xmlns="http://www.w3.org/2000/svg" style="isolation:isolate" viewBox="219.83 318.148 69.122 103.684" width="92.163" height="138.245"><path d="M288.952 419.111a2.72 2.72 0 01-2.72 2.721h-63.68a2.72 2.72 0 01-2.722-2.721v-98.242a2.722 2.722 0 012.722-2.721h63.68a2.72 2.72 0 012.72 2.721v98.242z" fill="#EAE8E8"/><path d="M241.589 340.675c-.873-.717-1.779-1.458-2.472-2.279a.609.609 0 00-.466-.217h-.037a.609.609 0 00-.469.217c-.693.821-1.6 1.562-2.473 2.279-1.852 1.514-3.763 3.082-3.763 5.509 0 2.201 1.538 3.739 3.745 3.739 1.066 0 1.995-.628 2.625-1.201-.302 1.296-.869 2.83-1.938 4.032h4.576c-1.069-1.205-1.636-2.741-1.939-4.038.631.576 1.561 1.207 2.63 1.207 2.203 0 3.744-1.538 3.744-3.739 0-2.423-1.914-3.992-3.763-5.509z" fill="#444247"/><path d="M238.614 352.754v-14.575a.609.609 0 00-.469.217c-.693.821-1.6 1.562-2.473 2.279-1.852 1.514-3.763 3.082-3.763 5.509 0 2.201 1.538 3.739 3.745 3.739 1.066 0 1.995-.628 2.625-1.201-.302 1.296-.869 2.83-1.938 4.032h2.273z" fill="#57565A"/><path d="M228.771 331.923c-.453-.371-.922-.755-1.281-1.181a.316.316 0 00-.242-.112h-.018a.318.318 0 00-.243.112c-.359.426-.829.81-1.281 1.181-.959.784-1.949 1.597-1.949 2.853 0 1.141.797 1.937 1.94 1.937.552 0 1.033-.325 1.36-.622-.157.672-.45 1.466-1.004 2.089h2.37c-.555-.624-.848-1.42-1.005-2.092.327.298.809.625 1.362.625 1.141 0 1.94-.796 1.94-1.937 0-1.254-.992-2.067-1.949-2.853z" fill="#444247"/><path d="M227.231 338.18v-7.55h-.001a.318.318 0 00-.243.112c-.359.426-.829.81-1.281 1.181-.959.784-1.949 1.597-1.949 2.853 0 1.141.797 1.937 1.94 1.937.552 0 1.033-.325 1.36-.622-.157.672-.45 1.466-1.004 2.089h1.178z" fill="#57565A"/><path d="M280.013 408.058c.452.371.921.754 1.28 1.18a.314.314 0 00.241.111h.019a.315.315 0 00.243-.111c.359-.426.828-.809 1.281-1.18.958-.785 1.949-1.597 1.949-2.855 0-1.139-.797-1.936-1.94-1.936-.552 0-1.033.324-1.359.621.156-.67.45-1.465 1.004-2.088h-2.371c.554.625.847 1.42 1.004 2.092-.326-.299-.807-.625-1.361-.625-1.142 0-1.94.797-1.94 1.936 0 1.256.992 2.068 1.95 2.855z" fill="#444247"/><path d="M281.553 401.8v7.549a.315.315 0 00.243-.111c.359-.426.828-.809 1.281-1.18.958-.785 1.949-1.597 1.949-2.855 0-1.139-.797-1.936-1.94-1.936-.552 0-1.033.324-1.359.621.156-.67.45-1.465 1.004-2.088h-1.178z" fill="#57565A"/><path d="M273.045 340.675c-.873-.717-1.779-1.458-2.472-2.279a.606.606 0 00-.466-.217h-.037a.608.608 0 00-.468.217c-.694.821-1.6 1.562-2.473 2.279-1.852 1.514-3.763 3.082-3.763 5.509 0 2.201 1.538 3.739 3.744 3.739 1.066 0 1.995-.628 2.626-1.201-.302 1.296-.869 2.83-1.938 4.032h4.575c-1.069-1.205-1.636-2.741-1.938-4.038.63.576 1.56 1.207 2.629 1.207 2.203 0 3.745-1.538 3.745-3.739 0-2.423-1.915-3.992-3.764-5.509z" fill="#444247"/><path d="M270.071 352.754v-14.575h-.001a.608.608 0 00-.468.217c-.694.821-1.6 1.562-2.473 2.279-1.852 1.514-3.763 3.082-3.763 5.509 0 2.201 1.538 3.739 3.744 3.739 1.066 0 1.995-.628 2.626-1.201-.302 1.296-.869 2.83-1.938 4.032h2.273z" fill="#57565A"/><path d="M241.589 365.198c-.873-.717-1.779-1.458-2.472-2.279a.609.609 0 00-.466-.217h-.037a.609.609 0 00-.469.217c-.693.821-1.6 1.562-2.473 2.279-1.852 1.514-3.763 3.083-3.763 5.509 0 2.202 1.538 3.739 3.745 3.739 1.066 0 1.995-.628 2.625-1.201-.302 1.296-.869 2.831-1.938 4.032h4.576c-1.069-1.205-1.636-2.74-1.939-4.037.631.575 1.561 1.206 2.63 1.206 2.203 0 3.744-1.537 3.744-3.739 0-2.423-1.914-3.991-3.763-5.509z" fill="#444247"/><path d="M238.614 377.277v-14.575a.609.609 0 00-.469.217c-.693.821-1.6 1.562-2.473 2.279-1.852 1.514-3.763 3.083-3.763 5.509 0 2.202 1.538 3.739 3.745 3.739 1.066 0 1.995-.628 2.625-1.201-.302 1.296-.869 2.831-1.938 4.032h2.273z" fill="#57565A"/><path d="M273.045 365.198c-.873-.717-1.779-1.458-2.472-2.279a.606.606 0 00-.466-.217h-.037a.608.608 0 00-.468.217c-.694.821-1.6 1.562-2.473 2.279-1.852 1.514-3.763 3.083-3.763 5.509 0 2.202 1.538 3.739 3.744 3.739 1.066 0 1.995-.628 2.626-1.201-.302 1.296-.869 2.831-1.938 4.032h4.575c-1.069-1.205-1.636-2.74-1.938-4.037.63.575 1.56 1.206 2.629 1.206 2.203 0 3.745-1.537 3.745-3.739 0-2.423-1.915-3.991-3.764-5.509z" fill="#444247"/><path d="M270.071 377.277v-14.575h-.001a.608.608 0 00-.468.217c-.694.821-1.6 1.562-2.473 2.279-1.852 1.514-3.763 3.083-3.763 5.509 0 2.202 1.538 3.739 3.744 3.739 1.066 0 1.995-.628 2.626-1.201-.302 1.296-.869 2.831-1.938 4.032h2.273z" fill="#57565A"/><path d="M241.589 389.722c-.873-.717-1.779-1.457-2.472-2.279a.612.612 0 00-.466-.217h-.037a.612.612 0 00-.469.217c-.693.822-1.6 1.562-2.473 2.279-1.852 1.514-3.763 3.082-3.763 5.51 0 2.201 1.538 3.738 3.745 3.738 1.066 0 1.995-.627 2.625-1.201-.302 1.297-.869 2.83-1.938 4.033h4.576c-1.069-1.205-1.636-2.742-1.939-4.039.631.576 1.561 1.207 2.63 1.207 2.203 0 3.744-1.537 3.744-3.738 0-2.424-1.914-3.992-3.763-5.51z" fill="#444247"/><path d="M238.614 401.802v-14.576a.612.612 0 00-.469.217c-.693.822-1.6 1.562-2.473 2.279-1.852 1.514-3.763 3.082-3.763 5.51 0 2.201 1.538 3.738 3.745 3.738 1.066 0 1.995-.627 2.625-1.201-.302 1.297-.869 2.83-1.938 4.033h2.273z" fill="#57565A"/><path d="M273.045 389.722c-.873-.717-1.779-1.457-2.472-2.279a.609.609 0 00-.466-.217h-.037a.611.611 0 00-.468.217c-.694.822-1.6 1.562-2.473 2.279-1.852 1.514-3.763 3.082-3.763 5.51 0 2.201 1.538 3.738 3.744 3.738 1.066 0 1.995-.627 2.626-1.201-.302 1.297-.869 2.83-1.938 4.033h4.575c-1.069-1.205-1.636-2.742-1.938-4.039.63.576 1.56 1.207 2.629 1.207 2.203 0 3.745-1.537 3.745-3.738 0-2.424-1.915-3.992-3.764-5.51z" fill="#444247"/><path d="M270.071 401.802v-14.576h-.001a.611.611 0 00-.468.217c-.694.822-1.6 1.562-2.473 2.279-1.852 1.514-3.763 3.082-3.763 5.51 0 2.201 1.538 3.738 3.744 3.738 1.066 0 1.995-.627 2.626-1.201-.302 1.297-.869 2.83-1.938 4.033h2.273z" fill="#57565A"/><path d="M226.253 324.908c-.871.37-1.404 1.012-1.404 1.905 0 1.034.892 1.905 2.373 1.905 1.35 0 2.405-.817 2.405-2.058 0-.849-.544-1.48-1.426-1.829v-.032c.871-.403 1.176-1.056 1.176-1.655 0-.892-.697-1.742-2.068-1.742-1.252 0-2.199.762-2.199 1.884 0 .609.337 1.219 1.132 1.589l.011.033zm.991 3.113c-.904 0-1.448-.631-1.416-1.339 0-.675.447-1.23 1.274-1.47.958.273 1.557.697 1.557 1.546 0 .73-.556 1.263-1.415 1.263zm.01-5.933c.86 0 1.198.588 1.198 1.154 0 .642-.468 1.078-1.078 1.285-.816-.218-1.361-.599-1.35-1.307 0-.609.436-1.132 1.23-1.132zm55.275 92.984c.871-.37 1.404-1.012 1.404-1.905 0-1.034-.892-1.905-2.373-1.905-1.35 0-2.406.817-2.406 2.058 0 .849.545 1.48 1.426 1.828v.033c-.87.403-1.175 1.056-1.175 1.655 0 .892.696 1.741 2.068 1.741 1.252 0 2.199-.762 2.199-1.883 0-.61-.338-1.219-1.132-1.589l-.011-.033zm-.991-3.113c.904 0 1.448.631 1.415 1.339 0 .675-.446 1.23-1.273 1.469-.958-.272-1.557-.696-1.557-1.545 0-.73.555-1.263 1.415-1.263zm-.011 5.932c-.86 0-1.197-.587-1.197-1.153 0-.643.468-1.078 1.078-1.285.816.218 1.36.599 1.349 1.306 0 .61-.435 1.132-1.23 1.132zm-24.177-66.124c-.873-.716-1.78-1.457-2.473-2.28a.61.61 0 00-.466-.215h-.036a.615.615 0 00-.47.215c-.693.823-1.599 1.564-2.472 2.28-1.852 1.514-3.763 3.083-3.763 5.509 0 2.202 1.538 3.74 3.744 3.74 1.067 0 1.995-.628 2.626-1.201-.303 1.295-.869 2.829-1.938 4.032h4.576c-1.07-1.205-1.636-2.741-1.94-4.038.631.575 1.561 1.207 2.629 1.207 2.203 0 3.745-1.538 3.745-3.74 0-2.423-1.915-3.992-3.762-5.509z" fill="#444247"/><path d="M254.375 363.847v-14.575a.615.615 0 00-.47.215c-.693.823-1.599 1.564-2.472 2.28-1.852 1.514-3.763 3.083-3.763 5.509 0 2.202 1.538 3.74 3.744 3.74 1.067 0 1.995-.628 2.626-1.201-.303 1.295-.869 2.829-1.938 4.032h2.273z" fill="#57565A"/><path d="M257.35 377.798c-.873-.716-1.78-1.457-2.473-2.279a.607.607 0 00-.466-.215h-.036a.612.612 0 00-.47.215c-.693.822-1.599 1.563-2.472 2.279-1.852 1.516-3.763 3.084-3.763 5.51 0 2.201 1.538 3.738 3.744 3.738 1.067 0 1.995-.627 2.626-1.201-.303 1.297-.869 2.83-1.938 4.033h4.576c-1.07-1.205-1.636-2.74-1.94-4.037.631.575 1.561 1.205 2.629 1.205 2.203 0 3.745-1.537 3.745-3.738 0-2.424-1.915-3.992-3.762-5.51z" fill="#444247"/><path d="M254.375 389.878v-14.574a.612.612 0 00-.47.215c-.693.822-1.599 1.563-2.472 2.279-1.852 1.516-3.763 3.084-3.763 5.51 0 2.201 1.538 3.738 3.744 3.738 1.067 0 1.995-.627 2.626-1.201-.303 1.297-.869 2.83-1.938 4.033h2.273z" fill="#57565A"/></svg>