<svg xmlns="http://www.w3.org/2000/svg" style="isolation:isolate" viewBox="545.553 424.216 69.123 103.684" width="92.164" height="138.245"><path d="M614.676 525.179a2.722 2.722 0 01-2.722 2.721h-63.679a2.722 2.722 0 01-2.722-2.721v-98.242a2.722 2.722 0 012.722-2.721h63.679a2.722 2.722 0 012.722 2.721v98.242z" fill="#EAE8E8"/><path d="M554.493 437.99c-.452-.369-.922-.754-1.28-1.18a.314.314 0 00-.241-.111h-.019a.317.317 0 00-.244.111c-.358.426-.828.811-1.28 1.18-.959.785-1.949 1.597-1.949 2.855 0 1.139.796 1.936 1.939 1.936.552 0 1.033-.324 1.36-.621-.157.67-.45 1.465-1.003 2.088h2.37c-.555-.623-.848-1.42-1.005-2.092.327.299.809.625 1.362.625 1.141 0 1.939-.797 1.939-1.936 0-1.256-.991-2.068-1.949-2.855z" fill="#444247"/><path d="M552.953 444.248v-7.549a.317.317 0 00-.244.111c-.358.426-.828.811-1.28 1.18-.959.785-1.949 1.597-1.949 2.855 0 1.139.796 1.936 1.939 1.936.552 0 1.033-.324 1.36-.621-.157.67-.45 1.465-1.003 2.088h1.177z" fill="#57565A"/><path d="M553.266 432.162c0 1.437-.49 1.818-1.339 1.818-.327 0-.61-.065-.806-.141l-.131.772c.229.098.654.175 1.013.175 1.263 0 2.22-.599 2.22-2.548v-4.909h-.957v4.833zm52.468 81.963c.453.371.923.755 1.281 1.181.06.072.15.112.242.112h.019c.093 0 .182-.04.243-.112.359-.426.828-.81 1.281-1.181.958-.784 1.948-1.596 1.948-2.854 0-1.139-.796-1.935-1.939-1.935-.552 0-1.033.324-1.361.621.159-.67.452-1.465 1.005-2.088h-2.37c.554.623.847 1.42 1.004 2.092-.326-.299-.809-.625-1.361-.625-1.142 0-1.941.796-1.941 1.935 0 1.256.992 2.068 1.949 2.854z" fill="#444247"/><path d="M607.276 507.869v7.549c.093 0 .182-.04.243-.112.359-.426.828-.81 1.281-1.181.958-.784 1.948-1.596 1.948-2.854 0-1.139-.796-1.935-1.939-1.935-.552 0-1.033.324-1.361.621.159-.67.452-1.465 1.005-2.088h-1.177z" fill="#57565A"/><path d="M606.962 519.953c0-1.437.49-1.818 1.339-1.818.327 0 .61.065.806.141l.13-.773c-.228-.098-.653-.174-1.012-.174-1.263 0-2.221.599-2.221 2.547v4.91h.958v-4.833zm-11.305-22.229s3.724-1.346 7.192-5.111v-4.61h-7.192v9.721zm-2.957-56.826l3.859-5.006s-7.526-4.994-9.043-5.082c-1.519-.088-18.673 5.219-18.673 5.219l3.873 6.189 19.984-1.32z" fill="#444247"/><path d="M572.716 434.847s2.126 6.803 2.676 7.254c.55.451 3.348-.834 3.348-.834s-2.158-2.137-3.223-7.26l-2.801.84z" fill="#A64045"/><path d="M602.849 485.712v-25.869s-3.252-4.144-9.779-4.759c0 0-.121 26.203 9.779 30.628z" fill="#444247"/><path d="M583.757 456.505h-3.328v6.11h3.328v-6.11zm6.673-2.109h-3.329v6.109h3.329v-6.109z" fill="#302C32"/><path d="M580.403 454.078h-3.327v6.109h3.327v-6.109zm6.682 1.994h-3.328v6.109h3.328v-6.109z" fill="#A64045"/><path d="M577.181 452.238h-3.328v6.109h3.328v-6.109z" fill="#302C32"/><path d="M573.828 452.115H570.5v3.804h3.328v-3.804z" fill="#A64045"/><path d="M590.401 452.226l-.761 2.721 2.558.137-1.797-2.858z" fill="#A76F49"/><path d="M593.962 455.183s-1.165 17.113 8.887 30.529l-.019 1.782s-5.916-2.782-9.282-14.506c-3.365-11.725-1.84-17.805-1.84-17.805h2.254z" fill="#302C32"/><path d="M592.425 455.564s-.309 11.262 2.471 18.01c2.779 6.748 4.713 11.349 7.953 13.89v5.149s-9.132-8.828-12.126-18.776c-2.994-9.945-2.435-18.644-2.435-18.644l4.137.371z" fill="#454474"/><path d="M592.593 455.267c0 .422-.857.764-1.914.764s-1.914-.342-1.914-.764c0-.424.857-.765 1.914-.765s1.914.341 1.914.765zm-.141 1.682c.022.414-.799.793-1.832.847-1.035.053-1.89-.236-1.912-.65-.022-.412.799-.791 1.833-.846 1.033-.054 1.889.237 1.911.649zm-.029 1.935c.043.405-.74.821-1.752.928-1.01.109-1.865-.129-1.908-.533-.044-.404.74-.818 1.751-.928 1.011-.109 1.865.129 1.909.533zm.088 2.149c.065.394-.683.847-1.671 1.011-.986.163-1.84-.025-1.905-.419-.066-.395.681-.848 1.67-1.01.987-.164 1.84.023 1.906.418zm.211 2.322c.086.385-.625.873-1.589 1.092-.965.219-1.817.082-1.903-.303-.088-.385.624-.875 1.587-1.092.965-.218 1.817-.082 1.905.303zm.338 2.455c.108.375-.566.901-1.508 1.174-.941.271-1.792.187-1.901-.188-.109-.377.567-.902 1.507-1.175.942-.272 1.792-.188 1.902.189zm.47 2.547c.131.367-.506.93-1.424 1.256-.918.326-1.769.295-1.899-.072-.131-.368.508-.93 1.426-1.256.918-.326 1.768-.293 1.897.072zm.612 2.602c.152.357-.45.957-1.345 1.337-.895.381-1.743.401-1.896.043-.152-.357.45-.957 1.344-1.337.895-.381 1.744-.401 1.897-.043zm.754 2.615c.173.349-.392.984-1.264 1.42-.871.435-1.719.508-1.893.158-.173-.348.392-.984 1.264-1.42.871-.434 1.719-.506 1.893-.158zm.902 2.59c.196.339-.333 1.011-1.182 1.502-.847.49-1.694.613-1.89.273-.196-.34.334-1.012 1.181-1.502.85-.488 1.696-.611 1.891-.273zm1.059 2.523c.217.33-.275 1.039-1.101 1.584-.825.543-1.67.719-1.888.389-.217-.33.276-1.039 1.1-1.584.826-.543 1.671-.719 1.889-.389zm1.216 2.418c.24.32-.216 1.066-1.018 1.664-.802.6-1.646.826-1.886.506-.239-.32.218-1.066 1.019-1.666.802-.598 1.647-.824 1.885-.504zm1.383 2.272c.261.312-.158 1.093-.936 1.746-.78.654-1.623.931-1.884.621-.261-.313.158-1.094.937-1.746.78-.655 1.622-.932 1.883-.621zm1.553 2.087c.283.301-.1 1.12-.856 1.829-.755.707-1.597 1.035-1.879.734-.284-.303.099-1.121.855-1.828.756-.709 1.598-1.037 1.88-.735zm1.728 1.86c.305.293-.041 1.148-.773 1.91-.732.764-1.573 1.144-1.878.852-.305-.293.042-1.149.774-1.911.733-.761 1.574-1.142 1.877-.851z" fill="#A64045"/><path d="M583.532 470.158h-5.29v-5.852h5.29v5.852z" fill="#495DA7"/><path d="M578.47 469.91h5.062v5.308l-5.062-5.308zm-.183-.449h5.335v-4.344h-5.335v4.344zm0-4.727h5.245v-1.418l-5.245-3.176v4.594z" fill="#B7975B"/><path d="M584.555 475.726l-.203-12.316 4.34-2.453s.854 10.199 1.884 12.031c1.032 1.832-6.021 2.738-6.021 2.738z" fill="#444247"/><path d="M584.63 475.763l-1.289-.638v-12.606h1.289v13.244z" fill="#DAE2F2"/><path d="M585.046 476.246l-1.289-.639v-12.605h1.289v13.244z" fill="#302C32"/><path d="M593.48 480.519c-.438-1.103-1.179-2.125-1.727-3.18-.891-1.716-1.526-3.535-1.817-5.427l-.08-.002a6.329 6.329 0 00-5.879 3.988c.197.223.389.453.635.662.444.373.965.668 1.428 1.022 1.121.859 1.98 2.045 3.235 2.72.946.508 1.952.862 2.959 1.227.432.156.871.314 1.32.418.136-.02.271-.041.408-.059-.166-.463-.309-.931-.482-1.369z" fill="#302C32"/><path d="M593.48 480.519c-.438-1.103-1.179-2.125-1.727-3.18-.811-1.564-1.412-3.214-1.732-4.927-.055-.002-.11-.006-.165-.006a5.835 5.835 0 00-5.504 3.906c.082.084.166.168.26.248.444.373.965.668 1.428 1.022 1.121.859 1.98 2.045 3.235 2.72.946.508 1.952.862 2.959 1.227.432.156.871.314 1.32.418.136-.02.272-.041.408-.059-.166-.461-.309-.931-.482-1.369z" fill="#B7975B"/><path d="M591.753 477.339a19.073 19.073 0 01-.94-2.111 3.158 3.158 0 00-4.112 2.916c.828.762 1.575 1.621 2.574 2.158.601.323 1.227.584 1.862.825a3.17 3.17 0 001.713-1.881c-.363-.641-.765-1.268-1.097-1.907z" fill="#495DA7"/><path d="M572.006 465.779l5.179 2.988.262-9.64-5.441-2.999v9.651z" fill="#444247"/><path d="M578.47 469.318h-1.289v-9.758h1.289v9.758z" fill="#DAE2F2"/><path d="M567.078 453.197s2.228-1.252 4.527-1.574l.277 13.982s-3.526-1.309-5.111-1.248l.307-11.16z" fill="#B9C8E6"/><path d="M567.078 453.197l-.802.303v10.759h.802v-11.062z" fill="#756262"/><path d="M566.276 453.5s-1.189.496-1.704.892v9.721h1.704V453.5z" fill="#302C32"/><path d="M564.572 454.392s-3.724 1.346-7.192 5.11v4.611h7.192v-9.721z" fill="#444247"/><path d="M577.992 468.884h-1.29v-9.757h1.29v9.757z" fill="#302C32"/><path d="M572.407 451.623h-.802v13.714h.802v-13.714z" fill="#756262"/><path d="M592.913 482.121c-.484 0-1.114-.096-1.906-.397-2.622-.994-5.828-3.728-9.529-8.131-4.457-5.299-8.839-7.406-11.731-8.24-3.127-.902-6.68-.734-6.702-.73l-.153-.864c.092-.015 3.734-.207 7.041.735 3.022.861 7.594 3.043 12.216 8.537 8.314 9.887 11.484 8.086 11.515 8.066l.495.723c-.063.045-.46.301-1.246.301z" fill="#A47953"/><path d="M572.407 455.574s10.715 6.988 11.727 6.988c1.011 0 4.047-2.127 4.047-2.127v1.236s-3.66 2.442-4.137 2.442c-.476 0-11.637-7.235-11.637-7.235v-1.304z" fill="#DAE2F2"/><path d="M573.605 452.226s9.055 6.656 10.34 6.656c1.286 0 5.013-3.328 5.013-3.328l-15.353-3.328z" fill="#B7975B"/><path d="M572.407 454.726s10.715 7.106 11.727 7.106c1.011 0 4.047-2.395 4.047-2.395v1.197s-3.66 2.368-4.137 2.368c-.476 0-11.637-7.012-11.637-7.012v-1.264z" fill="#B7975B"/><path d="M587.89 456.046s-.027 11.305 2.619 18.764c2.644 7.457 9.301 17.945 11.258 18.897l1.082-1.094s-4.685-3.861-11.388-18.354c-1.745-7.172-1.805-4.07-2.648-18.685-.843-14.615-.923.472-.923.472z" fill="#A47953"/><path d="M579.558 454.726s3.703 2.725 4.491 2.725c.787 0 2.467-1.533 2.467-1.533s-5.128-3.418-6.536-2.936c-1.41.48-.422 1.744-.422 1.744z" fill="#CED6E7"/><path d="M589.872 441.367s1.748 1.742 1.302 6.271c-.446 4.531-.823 9.067 2.49 7.684 3.314-1.385.449-4.914-1.55-3.053 0 0 .011-2.232.3-5.172.29-2.939.078-5.752-2.542-5.73z" fill="#CA834E"/><path d="M591.623 442.101s.486 2.725 0 3.279c-.486.557-.034 1.418 0 2.082.035.665.73 6.258-3.092 8.274-3.822 2.014-3.509-.77-8.2-2.539 0 0-.729-10.908 2.467-11.813 0 0 6.358-.547 8.825.717z" fill="#DAE2F2"/><path d="M576.012 442.8s-1.24 1.016-1.24 3.971c0 2.953-1.532 6.043-3.584 4.938-2.053-1.106.022-3.204 1.195-1.873 0 0 .136-1.444.136-3.36 0-1.918 1.071-4.152 3.493-3.676z" fill="#A36D48"/><path d="M577.19 442.115s-1.435 1.174-1.435 4.594c0 3.418-.771 7.005-3.146 5.726s.027-3.705 1.383-2.166c0 0 .158-1.67.158-3.889 0-2.216 1.083-4.474 3.04-4.265z" fill="#A76F49"/><path d="M578.74 441.744s-1.361 2.402-1.361 6.08c0 3.676-1.026 6.383-3.581 5.008-2.555-1.375.027-3.987 1.487-2.33 0 0 .169-1.797.169-4.182 0-2.387 1.181-4.803 3.286-4.576z" fill="#AC724A"/><path d="M579.98 441.558s-.969 1.633-.969 5.735c0 4.099-.815 7.976-3.664 6.443-2.849-1.533.031-4.445 1.659-2.598 0 0 .188-2.004.188-4.664 0-2.662.438-5.166 2.786-4.916z" fill="#B1754B"/><path d="M581.622 441.38s-1.838 1.504-1.838 5.879-.065 8.752-3.105 7.116c-3.04-1.637.033-4.745 1.769-2.774 0 0 .202-2.137.202-4.976 0-2.84.467-5.512 2.972-5.245z" fill="#B6784C"/><path d="M582.798 441.384s-1.911 1.565-1.911 6.116c0 4.552-.07 9.103-3.231 7.402-3.162-1.703.035-4.936 1.841-2.885 0 0 .208-2.223.208-5.178 0-2.953.487-5.732 3.093-5.455z" fill="#CA834E"/><path d="M573.165 444.019s7.176-3.959 18.845-1.437l.69-1.684s-9.045-3.543-19.984 1.32l.449 1.801z" fill="#444247"/><path d="M588.699 444.981s.731-.295 1.538-.303c.201-.013.407.02.599.04.187.065.349.162.483.236.229.239.318.415.318.415l-.028.023s-.208-.071-.427-.196a3.782 3.782 0 01-.437-.124c-.166-.026-.337-.096-.522-.114-.186-.013-.372-.039-.55-.027a5.383 5.383 0 00-.487.023c-.286.022-.477.06-.477.06l-.01-.033zm-3.196.033s-.19-.038-.477-.06a5.383 5.383 0 00-.487-.023c-.178-.012-.364.014-.55.027-.184.018-.355.088-.521.114a3.727 3.727 0 01-.437.124c-.219.125-.427.196-.427.196l-.028-.023s.089-.176.318-.415c.133-.074.296-.171.483-.236.191-.02.398-.053.598-.04a4.762 4.762 0 011.538.303l-.01.033z" fill="#CA834E"/><path d="M586.527 446.333s-.166.19-.487.393c-.164.09-.359.209-.589.275-.228.07-.476.143-.735.149a2.226 2.226 0 01-.756-.009 1.655 1.655 0 01-.625-.199c-.345-.175-.545-.329-.545-.329l.016-.031s.263.015.614.095c.172.059.379.079.599.104.215.051.447.099.684.089.239.021.472-.023.693-.065.114-.011.213-.056.311-.088.096-.035.195-.056.275-.099.333-.15.522-.311.522-.311l.023.026zm2.293-.026s.142.11.384.209c.119.051.266.095.419.136.158.023.321.071.492.055.168.004.332-.014.485-.053.152-.018.301-.008.426-.045.25-.039.451-.027.451-.027l.013.031s-.135.128-.386.264a1.142 1.142 0 01-.461.139c-.178.03-.367.007-.554-.03-.188-.012-.363-.09-.528-.141a2.327 2.327 0 01-.416-.221 1.81 1.81 0 01-.348-.291l.023-.026zm-.654-.542s-.036.513.03 1.276c.034.38.101.821.211 1.281.057.229.151.454.226.687.118.221.238.446.359.669.067.093.108.27.114.44l-.057.239a2.813 2.813 0 01-.129.199c-.208.229-.476.338-.728.406a2.114 2.114 0 01-.749.026 1.75 1.75 0 01-.636-.213 1.073 1.073 0 01-.42-.388c-.11-.135-.131-.289-.163-.402-.016-.236-.004-.364-.004-.364h.035s.021.131.086.333c.058.09.096.214.204.31.086.111.23.196.388.263.153.077.347.113.548.126.201.015.417.001.628-.046.211-.048.419-.135.565-.271.144-.157.176-.3.063-.54l-.329-.697c-.067-.25-.152-.492-.199-.731a7.722 7.722 0 01-.135-1.321c-.014-.774.057-1.286.057-1.286l.035.004zm-2.936 6.444s1.042-.078 2.085-.123c.521-.045 1.043-.059 1.433.001.391.045.652.122.652.122v.035s-.261.076-.652.121c-.39.06-.912.047-1.433.002a80.623 80.623 0 01-2.085-.123v-.035zm1.564.97s.374-.077.747-.123c.187-.045.373-.058.514.002.139.045.233.121.233.121v.035s-.094.077-.233.122c-.141.06-.327.046-.514.001-.373-.045-.747-.123-.747-.123v-.035z" fill="#454761"/><path d="M567.528 511.218l-3.857 5.006s7.524 4.994 9.042 5.082c1.519.088 18.673-5.219 18.673-5.219l-3.873-6.189-19.985 1.32z" fill="#444247"/><path d="M587.513 517.269s-2.125-6.803-2.676-7.254c-.55-.451-3.349.834-3.349.834s2.159 2.137 3.224 7.262l2.801-.842z" fill="#A64045"/><path d="M557.38 466.404v25.869s3.252 4.146 9.777 4.758c0 0 .122-26.201-9.777-30.627z" fill="#444247"/><path d="M576.472 495.611h3.328v-6.109h-3.328v6.109zm-6.672 2.109h3.328v-6.109H569.8v6.109z" fill="#302C32"/><path d="M579.825 498.039h3.328v-6.11h-3.328v6.11zm-6.681-1.995h3.328v-6.107h-3.328v6.107z" fill="#A64045"/><path d="M583.048 499.878h3.328v-6.109h-3.328v6.109z" fill="#302C32"/><path d="M586.401 500.002h3.328v-3.805h-3.328v3.805z" fill="#A64045"/><path d="M569.828 499.892l.761-2.723-2.558-.138 1.797 2.861z" fill="#A76F49"/><path d="M566.267 496.933s1.165-17.113-8.887-30.529l.019-1.781s5.916 2.781 9.282 14.505c3.366 11.725 1.841 17.805 1.841 17.805h-2.255z" fill="#302C32"/><path d="M567.804 496.552s.309-11.261-2.47-18.009c-2.78-6.75-4.715-11.35-7.954-13.891v-5.15s4.998 1.015 12.126 18.777c2.995 9.945 2.435 18.644 2.435 18.644l-4.137-.371z" fill="#454474"/><path d="M567.636 496.851c0-.424.856-.765 1.914-.765 1.057 0 1.914.341 1.914.765 0 .422-.857.764-1.914.764-1.058 0-1.914-.342-1.914-.764zm.141-1.683c-.022-.415.798-.793 1.832-.846 1.035-.055 1.89.234 1.912.648.022.412-.799.793-1.832.846-1.035.055-1.891-.234-1.912-.648zm.029-1.936c-.044-.404.741-.82 1.752-.928 1.01-.109 1.865.129 1.908.533.044.405-.74.821-1.751.928-1.011.11-1.865-.129-1.909-.533zm-.088-2.148c-.065-.395.683-.848 1.67-1.01.988-.164 1.842.023 1.907.418.064.394-.683.847-1.671 1.01-.987.164-1.841-.024-1.906-.418zm-.21-2.323c-.087-.384.624-.873 1.589-1.092.964-.216 1.816-.082 1.903.303.087.387-.624.875-1.589 1.094-.965.217-1.816.082-1.903-.305zm-.339-2.453c-.108-.377.566-.902 1.508-1.176.94-.271 1.792-.187 1.9.19.11.375-.565.9-1.507 1.174-.941.271-1.792.187-1.901-.188zm-.471-2.549c-.131-.367.508-.929 1.426-1.256.917-.326 1.768-.294 1.898.073.13.367-.508.929-1.425 1.256-.919.326-1.769.295-1.899-.073zm-.611-2.601c-.151-.358.45-.957 1.345-1.338.894-.381 1.744-.401 1.895-.043.153.357-.449.957-1.343 1.338-.895.381-1.745.4-1.897.043zm-.753-2.615c-.175-.35.391-.985 1.263-1.42.871-.436 1.719-.506 1.892-.159.174.348-.391.985-1.262 1.42-.871.436-1.72.506-1.893.159zm-.903-2.59c-.197-.34.333-1.012 1.181-1.502.848-.49 1.695-.612 1.89-.274.196.34-.333 1.012-1.181 1.502-.848.49-1.695.612-1.89.274zm-1.059-2.524c-.217-.33.276-1.039 1.101-1.584.825-.543 1.671-.718 1.887-.388.218.33-.274 1.039-1.1 1.584-.824.545-1.67.718-1.888.388zm-1.217-2.418c-.239-.32.217-1.066 1.02-1.664.801-.599 1.645-.826 1.885-.504.239.321-.217 1.065-1.019 1.664-.802.6-1.646.825-1.886.504zm-1.382-2.271c-.261-.311.158-1.094.937-1.748.779-.653 1.622-.93 1.883-.619.261.312-.159 1.093-.938 1.748-.778.652-1.622.929-1.882.619zm-1.553-2.086c-.283-.303.1-1.121.856-1.83.755-.707 1.597-1.037 1.88-.735.282.303-.1 1.122-.856 1.829-.756.709-1.598 1.037-1.88.736zm-1.729-1.861c-.304-.293.042-1.149.775-1.911.732-.761 1.572-1.144 1.878-.851.304.293-.043 1.148-.775 1.91-.732.764-1.573 1.145-1.878.852z" fill="#A64045"/><path d="M576.697 481.959h5.289v5.853h-5.289v-5.853z" fill="#495DA7"/><path d="M581.759 482.207h-5.062v-5.309l5.062 5.309zm.183.449h-5.335v4.346h5.335v-4.346zm0 4.728h-5.245v1.418l5.245 3.174v-4.592z" fill="#B7975B"/><path d="M575.675 476.39l.203 12.317-4.342 2.453s-.852-10.199-1.884-12.032c-1.031-1.832 6.023-2.738 6.023-2.738z" fill="#444247"/><path d="M575.599 476.353l1.29.639v12.605h-1.29v-13.244z" fill="#DAE2F2"/><path d="M575.183 475.871l1.289.638v12.606h-1.289v-13.244z" fill="#302C32"/><path d="M566.749 471.597c.438 1.104 1.179 2.125 1.727 3.18.89 1.717 1.526 3.535 1.817 5.428l.08.002a6.332 6.332 0 005.88-3.989c-.198-.224-.391-.453-.637-.662-.442-.373-.965-.666-1.426-1.021-1.123-.86-1.981-2.045-3.236-2.721-.945-.508-1.952-.861-2.959-1.227a12.113 12.113 0 00-1.32-.418c-.136.02-.272.042-.408.059.166.461.308.932.482 1.369z" fill="#302C32"/><path d="M566.749 471.597c.438 1.104 1.179 2.125 1.727 3.18.811 1.566 1.412 3.215 1.732 4.928.055.002.109.006.165.006a5.834 5.834 0 005.505-3.907 3.665 3.665 0 00-.262-.248c-.442-.373-.965-.666-1.426-1.021-1.123-.86-1.981-2.045-3.236-2.721-.945-.508-1.952-.861-2.959-1.227a12.113 12.113 0 00-1.32-.418c-.136.02-.272.042-.408.059.166.461.308.932.482 1.369z" fill="#B7975B"/><path d="M568.476 474.777c.357.687.672 1.392.941 2.111a3.157 3.157 0 004.11-2.916c-.828-.761-1.575-1.621-2.573-2.158a15.917 15.917 0 00-1.862-.824 3.165 3.165 0 00-1.713 1.883c.363.638.765 1.265 1.097 1.904z" fill="#495DA7"/><path d="M588.223 486.337l-5.179-2.988-.262 9.643 5.441 2.996v-9.651z" fill="#444247"/><path d="M581.759 482.798h1.289v9.758h-1.289v-9.758z" fill="#DAE2F2"/><path d="M593.151 498.921s-2.228 1.25-4.527 1.573l-.277-13.981s3.526 1.307 5.111 1.248l-.307 11.16z" fill="#B9C8E6"/><path d="M593.151 498.921l.802-.304v-10.76h-.802v11.064z" fill="#756262"/><path d="M593.953 498.617s1.189-.496 1.704-.893v-9.721h-1.704v10.614zm-11.716-15.385h1.289v9.76h-1.289v-9.76z" fill="#302C32"/><path d="M587.821 500.494h.803v-13.715h-.803v13.715z" fill="#756262"/><path d="M567.317 469.996c.483 0 1.114.097 1.905.396 2.622.994 5.828 3.729 9.529 8.131 4.458 5.299 8.84 7.406 11.731 8.24 3.127.903 6.526.487 6.546.483l.154.863c-.092.016-3.578.455-6.886-.486-3.022-.862-7.595-3.041-12.216-8.537-8.314-9.885-11.484-8.086-11.514-8.067l-.497-.723c.065-.044.46-.3 1.248-.3z" fill="#A47953"/><path d="M587.821 496.543s-10.714-6.989-11.725-6.989c-1.012 0-4.048 2.127-4.048 2.127v-1.236s3.66-2.442 4.137-2.442c.476 0 11.636 7.235 11.636 7.235v1.305z" fill="#DAE2F2"/><path d="M586.624 499.892s-9.056-6.658-10.341-6.658c-1.285 0-5.011 3.328-5.011 3.328l15.352 3.33z" fill="#B7975B"/><path d="M587.821 497.392s-10.714-7.107-11.725-7.107c-1.012 0-4.048 2.394-4.048 2.394v-1.197s3.66-2.367 4.137-2.367c.476 0 11.636 7.012 11.636 7.012v1.265z" fill="#B7975B"/><path d="M572.34 496.07s.024-11.305-2.62-18.764c-2.645-7.457-8.692-17.832-11.406-18.756l-.934.952c2.345 1.185 9.965 12.718 11.389 18.353 1.745 7.174 1.804 4.072 2.647 18.688.843 14.615.924-.473.924-.473z" fill="#A47953"/><path d="M580.671 497.392s-3.703-2.726-4.491-2.726c-.787 0-2.467 1.533-2.467 1.533s5.128 3.418 6.536 2.937c1.409-.482.422-1.744.422-1.744z" fill="#CED6E7"/><path d="M570.357 510.752s-1.748-1.745-1.302-6.274c.446-4.531.824-9.066-2.49-7.684-3.314 1.385-.45 4.915 1.549 3.051 0 0-.01 2.235-.299 5.174-.289 2.94-.079 5.752 2.542 5.733z" fill="#CA834E"/><path d="M568.606 510.015s-.487-2.722 0-3.279c.486-.557.034-1.418 0-2.082-.035-.662-.73-6.258 3.091-8.272 3.824-2.015 3.51.77 8.201 2.539 0 0 .73 10.907-2.467 11.811 0 0-6.359.547-8.825-.717z" fill="#DAE2F2"/><path d="M584.217 509.316s1.24-1.016 1.24-3.969c0-2.955 1.532-6.045 3.585-4.939 2.052 1.105-.023 3.203-1.195 1.873 0 0-.137 1.443-.137 3.359 0 1.918-1.071 4.154-3.493 3.676z" fill="#A36D48"/><path d="M583.039 510.002s1.436-1.174 1.436-4.592c0-3.42.769-7.008 3.145-5.729 2.374 1.28-.027 3.705-1.384 2.166 0 0-.157 1.67-.157 3.889s-1.082 4.475-3.04 4.266z" fill="#A76F49"/><path d="M581.488 510.375s1.362-2.405 1.362-6.082c0-3.676 1.026-6.383 3.582-5.008 2.553 1.375-.029 3.986-1.489 2.33 0 0-.167 1.797-.167 4.183 0 2.385-1.182 4.801-3.288 4.577z" fill="#AC724A"/><path d="M580.249 510.558s.969-1.633.969-5.732c0-4.102.815-7.979 3.665-6.446 2.848 1.536-.032 4.446-1.66 2.598 0 0-.188 2.004-.188 4.666 0 2.66-.438 5.164-2.786 4.914z" fill="#B1754B"/><path d="M578.607 510.736s1.836-1.502 1.836-5.879c0-4.375.068-8.752 3.108-7.113 3.039 1.634-.034 4.742-1.771 2.771 0 0-.201 2.139-.201 4.977 0 2.84-.467 5.511-2.972 5.244z" fill="#B6784C"/><path d="M577.431 510.732s1.911-1.564 1.911-6.115c0-4.553.069-9.104 3.231-7.401 3.162 1.702-.035 4.934-1.841 2.883 0 0-.209 2.225-.209 5.178s-.487 5.732-3.092 5.455z" fill="#CA834E"/><path d="M587.064 508.099s-7.176 3.957-18.845 1.436l-.691 1.683s9.045 3.543 19.985-1.32l-.449-1.799z" fill="#444247"/><path d="M571.529 507.135s-.73.295-1.538.303c-.2.014-.406-.019-.598-.04-.187-.064-.349-.162-.484-.235-.228-.24-.317-.415-.317-.415l.027-.024s.208.071.428.196c.136.032.283.07.437.124.166.026.336.096.522.115.186.012.372.039.55.026.178-.002.345-.008.487-.022.286-.023.477-.061.477-.061l.009.033zm3.197-.033s.19.038.476.061c.143.014.31.02.488.022.177.013.364-.014.549-.026.186-.019.357-.089.523-.115.152-.054.301-.092.436-.124.22-.125.428-.196.428-.196l.027.024s-.088.175-.317.415c-.135.073-.297.171-.483.235-.193.021-.399.054-.599.04a4.754 4.754 0 01-1.538-.303l.01-.033z" fill="#CA834E"/><path d="M573.701 505.786s.166-.191.488-.394c.164-.091.358-.209.587-.275.23-.071.478-.145.737-.15.258-.044.515-.034.756.008.243.029.456.103.625.199.344.175.545.329.545.329l-.016.032s-.264-.016-.614-.096c-.172-.059-.379-.078-.599-.103-.216-.05-.447-.1-.684-.088-.24-.023-.473.021-.694.064-.113.011-.212.057-.31.088-.097.036-.196.057-.275.1-.333.149-.522.311-.522.311l-.024-.025zm-2.293.025s-.14-.109-.383-.21a3.485 3.485 0 00-.418-.136c-.16-.023-.323-.071-.493-.055a1.82 1.82 0 00-.484.052c-.153.018-.303.008-.426.045-.252.039-.452.028-.452.028l-.014-.032s.136-.127.387-.263c.123-.075.283-.118.462-.14.177-.03.367-.007.553.03.189.013.364.091.529.142a2.281 2.281 0 01.763.514l-.024.025zm.654.54s.036-.513-.031-1.275a8.729 8.729 0 00-.21-1.282c-.057-.229-.15-.454-.225-.688l-.361-.668c-.065-.092-.107-.271-.112-.44l.058-.24.129-.198c.208-.228.475-.338.728-.406.258-.046.513-.068.748-.025.235.038.456.102.637.214.185.098.334.241.42.388.109.136.13.289.162.402.016.237.004.365.004.365h-.035s-.022-.131-.085-.333c-.059-.091-.096-.214-.205-.312-.085-.11-.229-.195-.387-.262a1.42 1.42 0 00-.548-.127 2.218 2.218 0 00-.629.045c-.21.048-.419.136-.564.272-.146.156-.176.301-.066.539l.329.697c.069.25.153.492.201.732.091.48.128.932.134 1.32.014.774-.057 1.286-.057 1.286l-.035-.004zm2.937-6.441s-1.042.077-2.085.123c-.521.045-1.043.058-1.433-.002-.391-.045-.652-.121-.652-.121v-.035s.261-.077.652-.122c.39-.06.912-.046 1.433-.001 1.043.045 2.085.123 2.085.123v.035zm-1.564-.971s-.374.077-.747.123c-.187.045-.373.059-.514-.002-.14-.045-.233-.121-.233-.121v-.035s.093-.076.233-.121c.141-.061.327-.047.514-.002.373.046.747.123.747.123v.035z" fill="#454761"/></svg>