<svg xmlns="http://www.w3.org/2000/svg" style="isolation:isolate" viewBox="219.83 530.406 69.122 103.683" width="92.163" height="138.244"><path d="M288.952 631.369a2.72 2.72 0 01-2.72 2.72h-63.68a2.72 2.72 0 01-2.722-2.72v-98.242a2.722 2.722 0 012.722-2.721h63.68a2.721 2.721 0 012.72 2.721v98.242z" fill="#EAE8E8"/><path d="M228.771 544.181c-.453-.373-.922-.756-1.281-1.181a.312.312 0 00-.242-.112h-.018a.316.316 0 00-.244.112c-.358.425-.828.808-1.28 1.181-.959.783-1.949 1.596-1.949 2.854 0 1.138.797 1.935 1.939 1.935.552 0 1.034-.324 1.361-.621-.157.67-.45 1.465-1.004 2.088h2.37c-.555-.625-.848-1.42-1.005-2.092.327.299.809.625 1.361.625 1.142 0 1.941-.797 1.941-1.935 0-1.256-.992-2.069-1.949-2.854z" fill="#444247"/><path d="M227.23 550.437v-7.549a.316.316 0 00-.244.112c-.358.425-.828.808-1.28 1.181-.959.783-1.949 1.596-1.949 2.854 0 1.138.797 1.935 1.939 1.935.552 0 1.034-.324 1.361-.621-.157.67-.45 1.465-1.004 2.088h1.177z" fill="#57565A"/><path d="M230.64 541.138a31.447 31.447 0 01-2.145-.468v-.044c1.219-.435 2.09-1.633 2.09-3.527 0-2.166-1.295-3.712-3.298-3.712-1.981 0-3.407 1.513-3.407 3.865 0 2.373 1.48 3.657 3.233 3.723.141 0 .283.054.446.108.849.294 1.818.588 2.809.85l.272-.795zm-3.407-.936c-1.503 0-2.352-1.404-2.352-2.972 0-1.589.784-3.07 2.384-3.07 1.557 0 2.319 1.513 2.319 2.994 0 1.665-.849 3.048-2.351 3.048zm52.779 80.112c.452.373.922.756 1.28 1.182.061.072.15.111.242.111h.019a.317.317 0 00.243-.111c.358-.426.828-.809 1.28-1.182.959-.783 1.95-1.596 1.95-2.853 0-1.141-.797-1.936-1.94-1.936-.552 0-1.033.324-1.36.621.157-.672.45-1.465 1.004-2.088h-2.371c.555.623.848 1.42 1.005 2.092-.327-.299-.808-.625-1.361-.625-1.142 0-1.94.795-1.94 1.936 0 1.255.992 2.068 1.949 2.853z" fill="#444247"/><path d="M281.553 614.058v7.549a.317.317 0 00.243-.111c.358-.426.828-.809 1.28-1.182.959-.783 1.95-1.596 1.95-2.853 0-1.141-.797-1.936-1.94-1.936-.552 0-1.033.324-1.36.621.157-.672.45-1.465 1.004-2.088h-1.177z" fill="#57565A"/><path d="M278.142 623.357c.621.109 1.415.283 2.145.468v.043c-1.22.436-2.091 1.633-2.091 3.527 0 2.167 1.296 3.712 3.299 3.712 1.981 0 3.407-1.513 3.407-3.864 0-2.373-1.48-3.658-3.233-3.723-.142 0-.283-.054-.446-.109a39.471 39.471 0 00-2.809-.849l-.272.795zm3.407.936c1.502 0 2.352 1.404 2.352 2.972 0 1.589-.784 3.07-2.384 3.07-1.557 0-2.319-1.514-2.319-2.994 0-1.666.849-3.048 2.351-3.048z" fill="#444247"/><path d="M253.813 576.259h-4.063v-1.375h4.063v1.375z" fill="#454474"/><path d="M254.166 574.884h-4.062v-1.375h4.062v1.375z" fill="#A64045"/><path d="M254.767 573.509h-4.063v-1.377h4.063v1.377z" fill="#454474"/><path d="M255.12 572.132h-4.062v-1.375h4.062v1.375z" fill="#A64045"/><path d="M255.721 570.757h-4.064v-1.375h4.064v1.375z" fill="#454474"/><path d="M256.074 569.382h-4.063v-1.375h4.063v1.375z" fill="#A64045"/><path d="M256.674 568.007h-4.063v-1.377h4.063v1.377z" fill="#454474"/><path d="M254.166 576.318l2.973-7.703 7.71-.545-4.415 8.824-6.268-.576zm-9.592-.494l-1.079-8.52 7.855.36.128 3.136-2.703 5.59-4.201-.566z" fill="#444247"/><path d="M253.525 567.144l-3.487 9.02-2.559-.34s3.583-4.715 3.023-6.506c-.56-1.791-4.702-.703-4.702-.703l-1.775-3.176 9.5 1.705zm-.561 9.246l3.407-9.15 8.701-.653-1.148 2.604s-4.737-.897-6.113.223c-1.375 1.121-2.687 6.845-2.687 6.845l-2.16.131z" fill="#302C32"/><path d="M261.359 579.625c-7.103.308-17.334-.618-17.334-.618v-3.183s10.231.926 17.334.617" fill="#302C32"/><path d="M244.025 575.824s10.231.926 17.334.617m-17.334 2.566s10.231.926 17.334.618" fill="none" vector-effect="non-scaling-stroke" stroke-width=".768" stroke="#A47953" stroke-miterlimit="10"/><path d="M238.393 569.431l4.892-4.492s3.862 1.994 3.398 5.965c-.465 3.969-2.606 5.355-2.606 5.355l-5.684-6.828z" fill="#CED6E7"/><path d="M238.393 569.433l4.351-3.994s3.434 1.773 3.021 5.305c-.412 3.529-2.317 4.763-2.317 4.763l-5.055-6.074z" fill="#302C32"/><path d="M238.393 569.439l3.632-3.334s2.866 1.481 2.521 4.428c-.345 2.945-1.934 3.974-1.934 3.974l-4.219-5.068zm16.577 18.797h4.062v1.375h-4.062v-1.375z" fill="#454474"/><path d="M254.616 589.611h4.064v1.375h-4.064v-1.375z" fill="#A64045"/><path d="M254.016 590.986h4.063v1.375h-4.063v-1.375z" fill="#454474"/><path d="M253.663 592.361h4.063v1.375h-4.063v-1.375z" fill="#A64045"/><path d="M253.063 593.736h4.062v1.377h-4.062v-1.377z" fill="#454474"/><path d="M252.709 595.113h4.063v1.375h-4.063v-1.375z" fill="#A64045"/><path d="M252.109 596.488h4.062v1.375h-4.062v-1.375z" fill="#454474"/><path d="M254.616 588.177l-2.972 7.703-7.709.543 4.414-8.824 6.267.578zm9.592.494l1.079 8.52-7.854-.359-.127-3.139 2.702-5.588 4.2.566z" fill="#444247"/><path d="M255.258 597.351l3.486-9.019 2.56.339s-3.583 4.713-3.023 6.504c.56 1.793 4.703.705 4.703.705l1.775 3.176-9.501-1.705zm.56-9.246l-3.407 9.15-8.701.651 1.149-2.602s4.737.897 6.113-.224c1.376-1.119 2.686-6.844 2.686-6.844l2.16-.131z" fill="#302C32"/><path d="M247.424 584.871c7.103-.309 17.335.617 17.335.617v3.183s-10.232-.925-17.335-.617" fill="#302C32"/><path d="M264.759 588.671s-10.232-.925-17.335-.617m17.335-2.566s-10.232-.926-17.335-.617" fill="none" vector-effect="non-scaling-stroke" stroke-width=".768" stroke="#A47953" stroke-miterlimit="10"/><path d="M229.11 601.548c1.405.454 2.89.698 4.428.698 8.633 0 15.631-7.655 15.631-17.1 0-9.443-6.998-17.098-15.631-17.098-1.538 0-3.023.245-4.428.696v32.804z" fill="#DAE2F2"/><path d="M229.11 600.804c1.4.473 2.886.727 4.428.727 8.273 0 14.978-7.334 14.978-16.385 0-9.049-6.705-16.385-14.978-16.385-1.542 0-3.028.256-4.428.729v31.314z" fill="#CED6E7"/><path d="M229.11 597.246c1.37.599 2.863.933 4.428.933 6.579 0 11.912-5.836 11.912-13.033 0-7.197-5.333-13.031-11.912-13.031-1.565 0-3.058.334-4.428.933v24.198z" fill="#A47953"/><path d="M229.11 595.867a9.925 9.925 0 004.428 1.045c5.94 0 10.754-5.268 10.754-11.766 0-6.496-4.814-11.764-10.754-11.764a9.95 9.95 0 00-4.428 1.043v21.442z" fill="#B7975B"/><path d="M229.11 591.875c1.247.984 2.775 1.564 4.428 1.564 4.187 0 7.58-3.713 7.58-8.293 0-4.578-3.393-8.291-7.58-8.291-1.653 0-3.181.58-4.428 1.563v13.457z" fill="#DAE2F2"/><path d="M229.11 591.347c1.221 1.045 2.758 1.67 4.428 1.67 3.974 0 7.195-3.523 7.195-7.871 0-4.346-3.221-7.869-7.195-7.869-1.67 0-3.207.625-4.428 1.67v12.4z" fill="#444247"/><path d="M229.11 586.345c.251.164.498.336.738.512.245.182.485.369.719.564h.001c.234.194.46.395.682.6l.005.006a15.795 15.795 0 01.653.644c.028-.224.06-.447.098-.668.006-.039.015-.076.021-.115a18.16 18.16 0 01.106-.543c.013-.062.029-.127.044-.189.031-.137.062-.272.097-.406l.021-.079c.016-.064.035-.127.053-.189.035-.129.071-.256.11-.383l.023-.076.062-.189c.042-.129.084-.258.129-.387.029-.082.062-.164.093-.246.045-.121.091-.244.139-.365l.106-.25c.05-.118.099-.235.152-.35.038-.084.079-.166.118-.25.054-.113.108-.227.163-.338l.131-.248a25.102 25.102 0 01.183-.338l.135-.234.143-.242.084-.135c.037-.061.074-.119.113-.18.055-.086.112-.172.169-.258.04-.06.082-.121.123-.179.023-.034.045-.069.07-.102a8.7 8.7 0 01.205-.287c.066-.092.134-.18.202-.27.065-.084.129-.168.195-.25l.096-.117c.057-.068.113-.139.171-.207l.148-.174.147-.166c.08-.09.162-.177.243-.265a12.607 12.607 0 01.708-.713l.127-.117a17.184 17.184 0 01.353-.319c.068-.06.138-.117.208-.176.107-.089.214-.179.325-.267.08-.065.162-.127.244-.19.078-.06.155-.119.234-.177.096-.071.194-.139.291-.207.078-.055.159-.112.239-.166.099-.067.201-.133.301-.198.081-.05.161-.103.244-.154.103-.064.209-.125.314-.187.081-.047.162-.096.245-.143.108-.061.218-.117.328-.176.081-.043.163-.088.246-.131l.344-.166c.081-.039.161-.078.242-.115.123-.057.246-.107.37-.16.078-.033.153-.068.23-.1.138-.054.276-.105.416-.158.065-.025.13-.051.195-.074a13.18 13.18 0 01.623-.207c.212-.067.424-.127.639-.184l.096-.021c.181-.047.364-.092.548-.131.067-.016.135-.025.202-.039.15-.031.3-.061.452-.088.079-.014.16-.023.239-.035a14.43 14.43 0 011.143-.135c-2.844-4.252-7.438-7.014-12.623-7.014-1.533 0-3.013.243-4.414.692v17.605z" fill="#A47953"/><path d="M229.11 585.166c.161.521.38.92.681 1.142.562.606 1.323 1.069 1.904 1.676.825-6.647 6.472-12.994 13.164-13.506-3.747-5.603-15.307-9.918-15.749-.846v11.534z" fill="#B7975B"/><path d="M257.782 616.546s5.178-11.443 4.376-15.13c-.8-3.688-8.171 6.748-8.171 6.748l3.795 8.382z" fill="#302C32"/><path d="M253.333 627.025s8.227-1.973 12.001-13.359c3.775-11.389 2.048-15.76 2.048-15.76l-5.734 4.012s.525 5.38-3.41 14.691c-3.934 9.309-4.905 8.457-4.905 8.457v1.959z" fill="#444247"/><path d="M248.619 626.027s8.227-1.973 12.001-13.359c3.775-11.389 1.963-13.446 1.963-13.446l-1.663.369s2.099 3.703-1.835 13.012c-3.934 9.309-10.466 11.467-10.466 11.467v1.957z" fill="#B7975B"/><path d="M229.11 585.679v11.158l5.745 5.319 5.848-3.338-11.593-13.139z" fill="#454474"/><path d="M241.959 598.55s-12.543-14.439-12.849-14.599v2.234l10.506 12.633 2.343-.268z" fill="#302C32"/><path d="M261.239 602.882l5.12-3.902s-14.843-5.404-32.181 1.246l4.149 5.119 22.912-2.463z" fill="#A47953"/><path d="M260.217 603.685l5.117-3.902s-13.818-5.112-31.156 1.539l4.149 5.119 21.89-2.756z" fill="#B7975B"/><path d="M256.59 608.115c0-.102.939-2.83 3.627-4.43 0 0-13.518-2.435-21.89 1.66 0 0 1.289 8.301 5.32 6.582 4.03-1.716 12.943-3.812 12.943-3.812z" fill="#CED6E7"/><path d="M258.091 618.712s.34-3.029 0-3.476c-.34-.449-.404-.801-.276-1.537.127-.738.127-4.293-.449-5.061-.576-.769-3.01-5.414-4.676-5.445-1.665-.033-8.681 2.85-8.777 6.598 0 0-.512-.672-1.184-.289-.674.384-.77 3.171-.77 3.171s5.739 12.524 11.374 11.979c0 0 4.777-3.424 4.758-5.94z" fill="#DAE2F2"/><path d="M253.333 627.025s-5.96 1.598-10.601-3.348c-4.642-4.947-9.741-16.818-13.622-18.111v-4.9s9.436 4.824 11.719 12.281c2.283 7.457 12.504 14.078 12.504 14.078z" fill="#302C32"/><path d="M253.333 624.404s-1.526-6.715-8.07-6.943c-1.826 1.75 4.181 6.943 4.181 6.943s1.24.986 3.889.662v-.662z" fill="#CA834E"/><path d="M253.333 625.066s-6.33-1.625-11.579-14.539c-8.914-14.402-12.644-13.69-12.644-13.69v3.829s6.468 5.205 10.425 12.357c3.957 7.154 6.593 14.002 13.798 14.002v-1.959z" fill="#444247"/><path d="M253.333 627.025s8.227-1.973 12.001-13.359c3.775-11.389 2.048-15.76 2.048-15.76l-1.513.912s1.865 5.475-2.07 14.783c-3.935 9.309-10.466 11.465-10.466 11.465v1.959z" fill="#B7975B"/><path d="M253.333 624.404s1.012-4.322 4.916-5.752c0 0 1.22 7.043-4.916 6.414v-.662z" fill="#B6784C"/><path d="M270.39 595.064l-4.893 4.492s-3.861-1.996-3.396-5.965c.464-3.968 2.604-5.355 2.604-5.355l5.685 6.828z" fill="#CED6E7"/><path d="M270.39 595.06l-4.352 3.996s-3.433-1.775-3.02-5.304c.413-3.532 2.316-4.764 2.316-4.764l5.056 6.072z" fill="#302C32"/><path d="M270.39 595.056l-3.632 3.334s-2.866-1.48-2.521-4.428c.344-2.947 1.934-3.976 1.934-3.976l4.219 5.07z" fill="#454474"/><path d="M258.121 615.72s-.176.095-.459.196a4.722 4.722 0 01-1.077.252c-.402.075-.823.054-1.113-.061-.292-.111-.462-.231-.462-.231l.01-.038s.215-.041.502-.032c.142.02.313-.013.488.006.176.029.366.036.558.049.77.028 1.539-.176 1.54-.176l.013.035zm-9.495.124c0-.001 1.004.193 2.005.157.25-.016.498-.027.729-.057.23-.019.451.017.637.001.375 0 .645.051.645.051l.009.043s-.231.13-.61.251a2.904 2.904 0 01-.66.109c-.245.017-.506-.024-.764-.049a7.696 7.696 0 01-1.395-.261 5.613 5.613 0 01-.609-.204l.013-.041z" fill="#CA834E"/><path d="M252.06 614.72s-.197-.045-.488-.08c-.291-.03-.675-.08-1.061-.059a3.197 3.197 0 00-.566.024c-.179.022-.353.015-.495.053-.29.045-.493.062-.493.062s.178-.086.461-.198a3.404 3.404 0 011.091-.188c.204-.007.405.026.593.045.188.026.358.084.503.126.286.103.455.215.455.215zm3.297 0s.123-.105.346-.204c.113-.042.246-.097.396-.124.151-.018.312-.053.475-.044.326.003.649.083.867.184.218.107.353.188.353.188s-.162-.022-.389-.07c-.11-.038-.248-.035-.389-.057a1.91 1.91 0 00-.444-.026c-.302-.021-.604.031-.833.066-.229.038-.382.087-.382.087z" fill="#454761"/><path d="M253.56 607.177s-.67-.416-1.62 0" fill="#DAE2F2"/><path d="M253.56 607.177s-.105-.029-.257-.05c-.153-.017-.351-.051-.55-.034-.198-.009-.399.028-.55.05-.153.026-.263.034-.263.034s.086-.06.231-.137c.144-.075.359-.134.579-.138.11-.005.219.016.321.032.101.017.189.062.265.09.147.075.224.153.224.153zm1.117 1.159s-.964.103-1.927.095c-.963.008-1.927-.095-1.927-.095s.964-.104 1.927-.096c.963-.008 1.927.096 1.927.096zm-.451 2.183s-.082-.125-.255-.233a1.234 1.234 0 00-.311-.152c-.11-.061-.254-.068-.383-.106-.131-.034-.272-.039-.4-.06-.128-.023-.252-.022-.357-.029-.211-.017-.357-.039-.357-.039s.139-.034.354-.069c.214-.047.508-.031.799.009.141.05.29.067.412.143.13.056.233.141.313.221a.683.683 0 01.185.315z" fill="#454761"/><path d="M279.673 562.945a14.453 14.453 0 00-4.428-.697c-8.633 0-15.631 7.656-15.631 17.099 0 9.446 6.998 17.1 15.631 17.1 1.537 0 3.024-.244 4.428-.697v-32.805z" fill="#DAE2F2"/><path d="M279.673 563.691a13.8 13.8 0 00-4.428-.729c-8.272 0-14.978 7.336-14.978 16.385 0 9.051 6.706 16.385 14.978 16.385a13.8 13.8 0 004.428-.729v-31.312z" fill="#CED6E7"/><path d="M279.673 567.25c-1.37-.6-2.862-.934-4.428-.934-6.58 0-11.913 5.834-11.913 13.031 0 7.197 5.333 13.031 11.913 13.031 1.566 0 3.058-.332 4.428-.933V567.25z" fill="#A47953"/><path d="M279.673 568.627a9.954 9.954 0 00-4.428-1.043c-5.94 0-10.756 5.267-10.756 11.763 0 6.498 4.816 11.766 10.756 11.766a9.928 9.928 0 004.428-1.045v-21.441z" fill="#B7975B"/><path d="M279.673 572.619c-1.247-.983-2.774-1.565-4.428-1.565-4.186 0-7.581 3.713-7.581 8.293 0 4.58 3.395 8.293 7.581 8.293 1.654 0 3.181-.58 4.428-1.564v-13.457z" fill="#DAE2F2"/><path d="M279.673 573.148c-1.222-1.047-2.758-1.67-4.428-1.67-3.974 0-7.194 3.524-7.194 7.869 0 4.348 3.22 7.871 7.194 7.871 1.67 0 3.206-.625 4.428-1.67v-12.4z" fill="#444247"/><path d="M279.673 578.148a14.273 14.273 0 01-.738-.512 13.887 13.887 0 01-.719-.562h-.001a16.996 16.996 0 01-.682-.6l-.006-.006a17.248 17.248 0 01-.652-.644c-.027.224-.06.447-.098.668-.006.039-.014.076-.021.113a16.393 16.393 0 01-.105.543c-.014.064-.031.127-.044.191-.033.135-.064.272-.098.405l-.021.08c-.016.064-.035.127-.052.189-.036.129-.072.256-.111.383l-.023.076c-.02.063-.041.127-.063.19-.042.129-.083.257-.129.384-.029.084-.06.165-.091.247a9.223 9.223 0 01-.246.615c-.049.117-.1.236-.152.351-.038.084-.079.166-.119.25-.054.114-.107.225-.163.338l-.131.248c-.05.094-.099.188-.151.282a1.41 1.41 0 00-.031.056c-.043.078-.089.156-.134.233a14.069 14.069 0 01-.228.378l-.113.178c-.055.086-.111.174-.168.258l-.124.182-.07.101a13.72 13.72 0 01-.603.807 9.753 9.753 0 01-.267.322 12.613 12.613 0 01-.538.608l-.043.046c-.065.069-.129.137-.195.204a17.72 17.72 0 01-.47.462c-.041.04-.084.079-.126.118-.093.086-.187.172-.283.256l-.07.062-.207.176c-.109.09-.216.179-.325.265a14.74 14.74 0 01-.245.192c-.079.058-.156.119-.234.178-.096.07-.193.138-.291.207l-.238.166-.304.197-.241.154-.315.188c-.082.047-.163.095-.246.14-.108.061-.217.119-.328.178-.081.043-.162.088-.245.129-.114.059-.229.113-.345.168-.081.039-.161.078-.242.115-.122.057-.246.108-.369.16-.077.033-.153.067-.23.098-.138.057-.277.107-.415.16-.067.024-.13.049-.197.074a15.58 15.58 0 01-.541.18c-.027.008-.053.02-.082.027-.211.065-.424.127-.638.182-.032.01-.065.016-.096.023-.182.047-.364.09-.548.131-.067.014-.135.026-.202.039a9.992 9.992 0 01-.692.123c-.377.059-.757.106-1.141.135 2.844 4.252 7.437 7.014 12.622 7.014a14.39 14.39 0 004.414-.692v-17.607z" fill="#A47953"/><path d="M279.673 579.328c-.161-.52-.381-.918-.682-1.141-.56-.605-1.322-1.068-1.904-1.676-.824 6.647-6.471 12.994-13.163 13.506 3.747 5.604 15.308 9.918 15.749.844v-11.533z" fill="#B7975B"/><path d="M279.673 578.814v-11.156l-5.744-5.319-5.85 3.338 11.594 13.137z" fill="#454474"/><path d="M266.823 565.943s12.543 14.441 12.85 14.601v-2.234l-10.506-12.633-2.344.266zM251 547.949s-5.177 11.443-4.376 15.131c.802 3.687 8.172-6.748 8.172-6.748L251 547.949z" fill="#302C32"/><path d="M255.45 537.47s-8.227 1.971-12.002 13.36c-3.774 11.386-2.047 15.757-2.047 15.757l5.735-4.009s-.527-5.383 3.408-14.692c3.935-9.308 4.906-8.459 4.906-8.459v-1.957z" fill="#444247"/><path d="M260.164 538.468s-8.226 1.971-12.002 13.36c-3.774 11.386-1.963 13.445-1.963 13.445l1.663-.369s-2.098-3.703 1.836-13.012c3.934-9.31 10.466-11.467 10.466-11.467v-1.957z" fill="#B7975B"/><path d="M247.543 561.613l-5.118 3.902s14.842 5.403 32.18-1.246l-4.15-5.119-22.912 2.463z" fill="#A47953"/><path d="M248.567 560.81l-5.119 3.902s13.819 5.112 31.157-1.539l-4.15-5.119-21.888 2.756z" fill="#B7975B"/><path d="M252.193 556.38c0 .102-.94 2.831-3.626 4.43 0 0 13.517 2.436 21.888-1.662 0 0-1.288-8.299-5.319-6.582-4.03 1.719-12.943 3.814-12.943 3.814z" fill="#CED6E7"/><path d="M250.692 545.783s-.34 3.027 0 3.476c.34.448.404.801.276 1.537-.128.737-.128 4.293.449 5.061.576.77 3.011 5.414 4.676 5.445 1.665.034 8.681-2.849 8.776-6.597 0 0 .513.672 1.186.287.673-.383.768-3.17.768-3.17s-5.738-12.526-11.373-11.981c0 0-4.778 3.426-4.758 5.942z" fill="#DAE2F2"/><path d="M255.45 537.47s5.959-1.597 10.602 3.348c4.641 4.947 9.739 16.818 13.621 18.111v4.901s-9.437-4.825-11.719-12.282c-2.283-7.459-12.504-14.078-12.504-14.078z" fill="#302C32"/><path d="M255.45 540.089s1.527 6.717 8.071 6.946c1.826-1.75-4.182-6.946-4.182-6.946s-1.24-.984-3.889-.662v.662z" fill="#CA834E"/><path d="M255.45 539.427s6.33 1.625 11.578 14.541c8.914 14.403 12.645 13.69 12.645 13.69v-3.828s-6.469-5.205-10.426-12.358c-3.957-7.154-6.593-14.002-13.797-14.002v1.957z" fill="#444247"/><path d="M255.45 537.47s-8.227 1.971-12.002 13.36c-3.774 11.386-2.047 15.757-2.047 15.757l1.512-.91s-1.864-5.474 2.071-14.783c3.934-9.31 10.466-11.467 10.466-11.467v-1.957z" fill="#B7975B"/><path d="M255.45 540.089s-1.011 4.325-4.917 5.754c0 0-1.219-7.043 4.917-6.416v.662z" fill="#B6784C"/><path d="M250.661 548.773s.177-.094.46-.195a4.779 4.779 0 011.077-.251c.402-.075.823-.054 1.112.061.292.112.463.232.463.232l-.011.037s-.215.041-.502.032c-.141-.02-.312.013-.487-.006-.176-.029-.366-.037-.559-.05-.77-.028-1.539.175-1.539.175l-.014-.035zm9.497-.122c0 .001-1.004-.193-2.006-.157-.25.014-.498.025-.729.055-.23.019-.451-.017-.636-.001-.375 0-.646-.05-.646-.05l-.009-.043s.232-.131.611-.251c.188-.064.415-.089.66-.11.245-.016.505.025.764.05a7.69 7.69 0 012.004.466l-.013.041z" fill="#CA834E"/><path d="M256.724 549.773s.196.045.487.08c.292.03.676.081 1.062.06.192.005.385.004.565-.025.18-.022.354-.014.495-.052.29-.045.493-.063.493-.063s-.178.086-.461.198a3.392 3.392 0 01-1.091.189c-.203.007-.404-.027-.593-.046-.188-.026-.358-.084-.502-.126-.287-.103-.455-.215-.455-.215zm-3.298 0s-.123.105-.346.204c-.113.042-.246.097-.396.124-.151.019-.312.053-.476.044a2.22 2.22 0 01-.866-.184c-.219-.107-.354-.188-.354-.188s.163.022.39.07c.109.038.248.035.388.057.141.028.293.032.444.026.303.021.605-.031.834-.066.228-.038.382-.087.382-.087z" fill="#454761"/><path d="M255.223 557.318s.67.416 1.62 0" fill="#DAE2F2"/><path d="M255.223 557.318s.105.029.257.051c.152.016.35.05.549.033.199.01.399-.027.551-.05.152-.025.263-.034.263-.034s-.087.06-.232.138a1.383 1.383 0 01-.579.137c-.11.005-.219-.015-.32-.032-.102-.017-.19-.061-.265-.09-.148-.075-.224-.153-.224-.153zm-1.117-1.158s.963-.104 1.926-.096c.964-.008 1.927.096 1.927.096s-.963.103-1.927.095c-.963.008-1.926-.095-1.926-.095zm.451-2.184s.082.125.255.234c.082.061.191.107.31.151.11.061.255.067.383.106.132.035.272.039.4.06.128.023.252.022.357.029.212.017.357.039.357.039s-.138.034-.354.07c-.214.046-.507.03-.799-.01-.14-.05-.289-.067-.412-.143a1.022 1.022 0 01-.312-.22.702.702 0 01-.185-.316z" fill="#454761"/></svg>