<svg xmlns="http://www.w3.org/2000/svg" style="isolation:isolate" viewBox="545.553 0 69.123 103.685" width="92.164" height="138.247"><path d="M614.676 100.963a2.722 2.722 0 01-2.722 2.722h-63.679a2.722 2.722 0 01-2.722-2.722V2.722A2.722 2.722 0 01548.275 0h63.679a2.722 2.722 0 012.722 2.722v98.241z" fill="#EAE8E8"/><path d="M598.817 22.526c-.874-.716-1.78-1.458-2.473-2.279a.608.608 0 00-.466-.216h-.036a.612.612 0 00-.47.216c-.692.821-1.599 1.563-2.472 2.279-1.852 1.514-3.762 3.083-3.762 5.51 0 2.201 1.537 3.739 3.744 3.739 1.065 0 1.994-.628 2.625-1.202-.303 1.296-.869 2.83-1.939 4.032h4.577c-1.07-1.204-1.636-2.74-1.94-4.037.631.575 1.562 1.207 2.63 1.207 2.203 0 3.744-1.538 3.744-3.739 0-2.424-1.914-3.992-3.762-5.51z" fill="#444247"/><path d="M595.842 34.605V20.031a.612.612 0 00-.47.216c-.692.821-1.599 1.563-2.472 2.279-1.852 1.514-3.762 3.083-3.762 5.51 0 2.201 1.537 3.739 3.744 3.739 1.065 0 1.994-.628 2.625-1.202-.303 1.296-.869 2.83-1.939 4.032h2.274z" fill="#57565A"/><path d="M567.327 71.574c-.873-.717-1.779-1.458-2.471-2.279a.608.608 0 00-.467-.217h-.036a.61.61 0 00-.47.217c-.692.821-1.599 1.562-2.473 2.279-1.85 1.514-3.761 3.083-3.761 5.509 0 2.201 1.537 3.739 3.744 3.739 1.065 0 1.994-.628 2.626-1.201-.304 1.296-.869 2.83-1.94 4.032h4.576c-1.069-1.205-1.635-2.74-1.938-4.038.63.576 1.56 1.207 2.629 1.207 2.203 0 3.745-1.538 3.745-3.739 0-2.423-1.915-3.991-3.764-5.509z" fill="#444247"/><path d="M564.353 83.653V69.078a.61.61 0 00-.47.217c-.692.821-1.599 1.562-2.473 2.279-1.85 1.514-3.761 3.083-3.761 5.509 0 2.201 1.537 3.739 3.744 3.739 1.065 0 1.994-.628 2.626-1.201-.304 1.296-.869 2.83-1.94 4.032h2.274z" fill="#57565A"/><path d="M583.072 47.05c-.873-.717-1.779-1.457-2.471-2.279a.61.61 0 00-.467-.216h-.036a.612.612 0 00-.47.216c-.692.822-1.599 1.562-2.473 2.279-1.85 1.514-3.762 3.083-3.762 5.51 0 2.201 1.539 3.739 3.745 3.739 1.065 0 1.994-.628 2.626-1.201-.304 1.295-.869 2.829-1.939 4.031h4.576c-1.07-1.204-1.636-2.74-1.939-4.037.63.575 1.561 1.207 2.629 1.207 2.203 0 3.745-1.538 3.745-3.739 0-2.424-1.915-3.993-3.764-5.51z" fill="#444247"/><path d="M580.099 59.129V44.555h-.001a.612.612 0 00-.47.216c-.692.822-1.599 1.562-2.473 2.279-1.85 1.514-3.762 3.083-3.762 5.51 0 2.201 1.539 3.739 3.745 3.739 1.065 0 1.994-.628 2.626-1.201-.304 1.295-.869 2.829-1.939 4.031h2.274z" fill="#57565A"/><path d="M554.478 13.774c-.453-.371-.922-.755-1.282-1.179a.311.311 0 00-.241-.113h-.018a.32.32 0 00-.245.113c-.358.424-.828.808-1.28 1.179-.958.784-1.948 1.598-1.948 2.854 0 1.14.796 1.937 1.939 1.937.552 0 1.034-.325 1.36-.622-.156.671-.45 1.465-1.004 2.088h2.37c-.554-.624-.847-1.419-1.004-2.091.326.298.809.625 1.361.625 1.142 0 1.941-.797 1.941-1.937 0-1.255-.992-2.068-1.949-2.854z" fill="#444247"/><path d="M552.937 20.031v-7.549a.32.32 0 00-.245.113c-.358.424-.828.808-1.28 1.179-.958.784-1.948 1.598-1.948 2.854 0 1.14.796 1.937 1.939 1.937.552 0 1.034-.325 1.36-.622-.156.671-.45 1.465-1.004 2.088h1.178z" fill="#57565A"/><path d="M605.719 89.909c.452.371.922.755 1.28 1.18.061.073.15.112.241.112h.02a.31.31 0 00.242-.112c.359-.425.829-.809 1.281-1.18.958-.784 1.949-1.596 1.949-2.853 0-1.141-.796-1.937-1.94-1.937-.552 0-1.032.324-1.359.621.157-.671.45-1.465 1.004-2.087h-2.37c.553.623.846 1.419 1.004 2.09-.327-.298-.808-.624-1.362-.624-1.142 0-1.939.796-1.939 1.937 0 1.255.991 2.067 1.949 2.853z" fill="#444247"/><path d="M607.259 83.653v7.548h.001a.31.31 0 00.242-.112c.359-.425.829-.809 1.281-1.18.958-.784 1.949-1.596 1.949-2.853 0-1.141-.796-1.937-1.94-1.937-.552 0-1.032.324-1.359.621.157-.671.45-1.465 1.004-2.087h-1.178z" fill="#57565A"/><path d="M550.627 10.091c.348.229 1.045.479 1.84.479 1.687 0 2.58-.99 2.58-2.122-.011-.991-.708-1.644-1.579-1.807v-.022c.86-.316 1.306-.936 1.306-1.676 0-.86-.631-1.688-2.024-1.688-.762 0-1.481.272-1.862.544l.262.697c.304-.218.849-.468 1.415-.468.881 0 1.241.501 1.241 1.067 0 .838-.882 1.197-1.579 1.197h-.533v.719h.533c.926 0 1.818.424 1.829 1.415.011.599-.381 1.371-1.6 1.371a3.301 3.301 0 01-1.568-.435l-.261.729zm58.976 83.503c-.349-.228-1.045-.479-1.84-.479-1.687 0-2.58.991-2.58 2.123.011.99.708 1.644 1.579 1.807v.022c-.86.315-1.307.936-1.307 1.676 0 .86.632 1.687 2.025 1.687.762 0 1.48-.272 1.861-.544l-.261-.697c-.305.218-.849.468-1.415.468-.882 0-1.241-.5-1.241-1.066 0-.839.882-1.198 1.579-1.198h.533v-.718h-.533c-.926 0-1.818-.425-1.829-1.415-.011-.599.381-1.372 1.6-1.372.675 0 1.295.272 1.567.435l.262-.729z" fill="#444247"/></svg>