<svg xmlns="http://www.w3.org/2000/svg" style="isolation:isolate" viewBox="219.83 212.812 69.122 103.683" width="92.163" height="138.244"><path d="M227.231 232.843v-7.549h-.001a.318.318 0 00-.243.112c-.359.425-.829.809-1.281 1.18-.959.784-1.949 1.597-1.949 2.854 0 1.14.797 1.936 1.94 1.936.552 0 1.033-.324 1.36-.622-.157.672-.45 1.466-1.004 2.089h1.178z" fill="#57565A"/><path d="M288.952 313.774a2.72 2.72 0 01-2.72 2.721h-63.68a2.722 2.722 0 01-2.722-2.721v-98.242a2.72 2.72 0 012.722-2.72h63.68a2.72 2.72 0 012.72 2.72v98.242z" fill="#EAE8E8"/><path d="M241.589 235.338c-.873-.717-1.779-1.458-2.472-2.279a.608.608 0 00-.466-.216h-.037a.608.608 0 00-.469.216c-.693.821-1.6 1.562-2.473 2.279-1.852 1.514-3.763 3.083-3.763 5.509 0 2.202 1.538 3.739 3.745 3.739 1.066 0 1.995-.627 2.625-1.201-.302 1.296-.869 2.83-1.938 4.032h4.576c-1.069-1.205-1.636-2.74-1.939-4.037.631.575 1.561 1.206 2.63 1.206 2.203 0 3.744-1.537 3.744-3.739 0-2.423-1.914-3.991-3.763-5.509z" fill="#444247"/><path d="M238.614 247.417v-14.574a.608.608 0 00-.469.216c-.693.821-1.6 1.562-2.473 2.279-1.852 1.514-3.763 3.083-3.763 5.509 0 2.202 1.538 3.739 3.745 3.739 1.066 0 1.995-.627 2.625-1.201-.302 1.296-.869 2.83-1.938 4.032h2.273z" fill="#57565A"/><path d="M228.771 226.586c-.453-.371-.922-.755-1.281-1.18a.316.316 0 00-.242-.112h-.018a.318.318 0 00-.243.112c-.359.425-.829.809-1.281 1.18-.959.784-1.949 1.597-1.949 2.854 0 1.14.797 1.936 1.94 1.936.552 0 1.033-.324 1.36-.622-.157.672-.45 1.466-1.004 2.089h2.37c-.555-.624-.848-1.42-1.005-2.092.327.299.809.625 1.362.625 1.141 0 1.94-.796 1.94-1.936 0-1.255-.992-2.068-1.949-2.854zm51.242 76.135c.452.371.921.755 1.28 1.18a.312.312 0 00.241.112h.019a.313.313 0 00.243-.112c.359-.425.828-.809 1.281-1.18.958-.784 1.949-1.597 1.949-2.854 0-1.14-.797-1.936-1.94-1.936-.552 0-1.033.325-1.359.622.156-.672.45-1.466 1.004-2.089h-2.371c.554.624.847 1.42 1.004 2.092-.326-.299-.807-.625-1.361-.625-1.142 0-1.94.796-1.94 1.936 0 1.255.992 2.068 1.95 2.854z" fill="#444247"/><path d="M281.553 296.464v7.549a.313.313 0 00.243-.112c.359-.425.828-.809 1.281-1.18.958-.784 1.949-1.597 1.949-2.854 0-1.14-.797-1.936-1.94-1.936-.552 0-1.033.325-1.359.622.156-.672.45-1.466 1.004-2.089h-1.178z" fill="#57565A"/><path d="M273.045 235.338c-.873-.717-1.779-1.458-2.472-2.279a.605.605 0 00-.466-.216h-.037a.607.607 0 00-.468.216c-.694.821-1.6 1.562-2.473 2.279-1.852 1.514-3.763 3.083-3.763 5.509 0 2.202 1.538 3.739 3.744 3.739 1.066 0 1.995-.627 2.626-1.201-.302 1.296-.869 2.83-1.938 4.032h4.575c-1.069-1.205-1.636-2.74-1.938-4.037.63.575 1.56 1.206 2.629 1.206 2.203 0 3.745-1.537 3.745-3.739 0-2.423-1.915-3.991-3.764-5.509z" fill="#444247"/><path d="M270.071 247.417v-14.574h-.001a.607.607 0 00-.468.216c-.694.821-1.6 1.562-2.473 2.279-1.852 1.514-3.763 3.083-3.763 5.509 0 2.202 1.538 3.739 3.744 3.739 1.066 0 1.995-.627 2.626-1.201-.302 1.296-.869 2.83-1.938 4.032h2.273z" fill="#57565A"/><path d="M241.589 259.861c-.873-.716-1.779-1.458-2.472-2.279a.61.61 0 00-.466-.216h-.037a.611.611 0 00-.469.216c-.693.821-1.6 1.563-2.473 2.279-1.852 1.514-3.763 3.083-3.763 5.509 0 2.202 1.538 3.74 3.745 3.74 1.066 0 1.995-.628 2.625-1.202-.302 1.296-.869 2.83-1.938 4.032h4.576c-1.069-1.205-1.636-2.74-1.939-4.037.631.576 1.561 1.207 2.63 1.207 2.203 0 3.744-1.538 3.744-3.74 0-2.423-1.914-3.991-3.763-5.509z" fill="#444247"/><path d="M238.614 271.94v-14.574a.611.611 0 00-.469.216c-.693.821-1.6 1.563-2.473 2.279-1.852 1.514-3.763 3.083-3.763 5.509 0 2.202 1.538 3.74 3.745 3.74 1.066 0 1.995-.628 2.625-1.202-.302 1.296-.869 2.83-1.938 4.032h2.273z" fill="#57565A"/><path d="M273.045 259.861c-.873-.716-1.779-1.458-2.472-2.279a.608.608 0 00-.466-.216h-.037a.61.61 0 00-.468.216c-.694.821-1.6 1.563-2.473 2.279-1.852 1.514-3.763 3.083-3.763 5.509 0 2.202 1.538 3.74 3.744 3.74 1.066 0 1.995-.628 2.626-1.202-.302 1.296-.869 2.83-1.938 4.032h4.575c-1.069-1.205-1.636-2.74-1.938-4.037.63.576 1.56 1.207 2.629 1.207 2.203 0 3.745-1.538 3.745-3.74 0-2.423-1.915-3.991-3.764-5.509z" fill="#444247"/><path d="M270.071 271.94v-14.574h-.001a.61.61 0 00-.468.216c-.694.821-1.6 1.563-2.473 2.279-1.852 1.514-3.763 3.083-3.763 5.509 0 2.202 1.538 3.74 3.744 3.74 1.066 0 1.995-.628 2.626-1.202-.302 1.296-.869 2.83-1.938 4.032h2.273z" fill="#57565A"/><path d="M241.589 284.386c-.873-.717-1.779-1.458-2.472-2.28a.61.61 0 00-.466-.216h-.037a.611.611 0 00-.469.216c-.693.822-1.6 1.563-2.473 2.28-1.852 1.513-3.763 3.082-3.763 5.509 0 2.201 1.538 3.739 3.745 3.739 1.066 0 1.995-.628 2.625-1.201-.302 1.296-.869 2.83-1.938 4.032h4.576c-1.069-1.205-1.636-2.741-1.939-4.038.631.576 1.561 1.207 2.63 1.207 2.203 0 3.744-1.538 3.744-3.739 0-2.423-1.914-3.992-3.763-5.509z" fill="#444247"/><path d="M238.614 296.465V281.89a.611.611 0 00-.469.216c-.693.822-1.6 1.563-2.473 2.28-1.852 1.513-3.763 3.082-3.763 5.509 0 2.201 1.538 3.739 3.745 3.739 1.066 0 1.995-.628 2.625-1.201-.302 1.296-.869 2.83-1.938 4.032h2.273z" fill="#57565A"/><path d="M273.045 284.386c-.873-.717-1.779-1.458-2.472-2.28a.608.608 0 00-.466-.216h-.037a.61.61 0 00-.468.216c-.694.822-1.6 1.563-2.473 2.28-1.852 1.513-3.763 3.082-3.763 5.509 0 2.201 1.538 3.739 3.744 3.739 1.066 0 1.995-.628 2.626-1.201-.302 1.296-.869 2.83-1.938 4.032h4.575c-1.069-1.205-1.636-2.741-1.938-4.038.63.576 1.56 1.207 2.629 1.207 2.203 0 3.745-1.538 3.745-3.739 0-2.423-1.915-3.992-3.764-5.509z" fill="#444247"/><path d="M270.071 296.465V281.89h-.001a.61.61 0 00-.468.216c-.694.822-1.6 1.563-2.473 2.28-1.852 1.513-3.763 3.082-3.763 5.509 0 2.201 1.538 3.739 3.744 3.739 1.066 0 1.995-.628 2.626-1.201-.302 1.296-.869 2.83-1.938 4.032h2.273z" fill="#57565A"/><path d="M228.974 216.076c-.174 0-.413.011-.696.055-.893.109-1.677.468-2.265 1.045-.707.696-1.197 1.796-1.197 3.189 0 1.84.991 3.016 2.493 3.016 1.48 0 2.362-1.198 2.362-2.504 0-1.372-.882-2.286-2.134-2.286-.783 0-1.382.37-1.72.827h-.021c.163-1.175.947-2.264 2.46-2.503a3.51 3.51 0 01.718-.055v-.784zm-1.643 6.564c-1.013 0-1.557-.87-1.568-2.035a.9.9 0 01.098-.414 1.574 1.574 0 011.383-.871c.881 0 1.458.61 1.458 1.622 0 1.013-.555 1.698-1.371 1.698zm52.477 90.589c.174 0 .413-.01.696-.054.893-.109 1.677-.468 2.264-1.045.708-.697 1.198-1.796 1.198-3.19 0-1.839-.991-3.015-2.493-3.015-1.48 0-2.362 1.198-2.362 2.504 0 1.371.882 2.286 2.133 2.286.784 0 1.383-.37 1.72-.827h.022c-.163 1.175-.947 2.264-2.46 2.503a3.515 3.515 0 01-.718.055v.783zm1.643-6.564c1.013 0 1.557.871 1.568 2.036a.9.9 0 01-.098.414c-.261.522-.806.87-1.383.87-.881 0-1.458-.609-1.458-1.621 0-1.013.555-1.699 1.371-1.699z" fill="#444247"/></svg>