<svg xmlns="http://www.w3.org/2000/svg" style="isolation:isolate" viewBox="610.151 507.33 64.898 137.303" width="64.898pt" height="137.303pt"><path d="M624.704 599.978c-7.198 0-13.053-5.855-13.053-13.054v-65.042c0-7.197 5.855-13.051 13.053-13.051h35.791c7.198 0 13.054 5.854 13.054 13.051v65.042c0 7.199-5.856 13.054-13.054 13.054h-35.791z" fill="#0D4925"/><path d="M660.496 507.33h-35.792c-8.037 0-14.553 6.516-14.553 14.553v65.041c0 8.038 6.516 14.553 14.553 14.553h35.792c8.037 0 14.553-6.515 14.553-14.553v-65.041c0-8.037-6.516-14.553-14.553-14.553zm0 3c6.37 0 11.553 5.183 11.553 11.553v65.041c0 6.371-5.183 11.553-11.553 11.553h-35.792c-6.37 0-11.553-5.182-11.553-11.553v-65.041c0-6.37 5.183-11.553 11.553-11.553h35.792z" fill="#FFB216"/><path d="M655.571 625.661c0-7.163-5.808-12.971-12.972-12.971-7.163 0-12.971 5.808-12.971 12.971 0 7.164 5.808 12.972 12.971 12.972 7.164 0 12.972-5.808 12.972-12.972z" fill="#0D4925"/><path d="M655.571 625.661c0-7.163-5.808-12.971-12.972-12.971-7.163 0-12.971 5.808-12.971 12.971 0 7.164 5.808 12.972 12.971 12.972 7.164 0 12.972-5.808 12.972-12.972z" fill="none" vector-effect="non-scaling-stroke" stroke-width="4" stroke="#FFB216" stroke-linecap="square" stroke-miterlimit="3"/></svg>