<?xml version="1.0" encoding="UTF-8" standalone="no"?><!-- Generator: Gravit.io --><svg xmlns="http://www.w3.org/2000/svg" xmlns:xlink="http://www.w3.org/1999/xlink" style="isolation:isolate" viewBox="31.5 902 414 414" width="414pt" height="414pt"><g><circle vector-effect="non-scaling-stroke" cx="238.49999999999997" cy="1109" r="207.00000000000006" fill="rgb(181,2,2)"/><clipPath id="_clipPath_U293zGrJ9nvc9GGExtNNMUyxJbuGd68a"><circle vector-effect="non-scaling-stroke" cx="238.49999999999997" cy="1109" r="203.25000000000017" fill="rgb(255,255,255)"/></clipPath><g clip-path="url(#_clipPath_U293zGrJ9nvc9GGExtNNMUyxJbuGd68a)"><g><g><path d=" M 213.683 857.638 L 263.317 857.638 C 272.652 857.638 279.525 865.183 278.656 874.477 L 271.985 945.86 C 271.116 955.154 262.833 962.699 253.498 962.699 L 223.502 962.699 C 214.167 962.699 205.884 955.154 205.015 945.86 L 198.344 874.477 C 197.475 865.183 204.348 857.638 213.683 857.638 Z " fill="rgb(255,255,255)"/></g><g><path d=" M 446.754 963.545 L 471.571 1006.529 C 476.238 1014.613 473.14 1024.339 464.657 1028.233 L 399.502 1058.147 C 391.019 1062.042 380.343 1058.641 375.675 1050.557 L 360.677 1024.579 C 356.01 1016.495 358.403 1005.549 366.017 1000.149 L 424.501 958.681 C 432.115 953.281 442.087 955.461 446.754 963.545 Z " fill="rgb(255,255,255)"/></g><g><path d=" M 471.571 1218.344 L 446.754 1261.328 C 442.087 1269.412 432.115 1271.592 424.501 1266.193 L 366.017 1224.724 C 358.403 1219.325 356.01 1208.378 360.677 1200.294 L 375.675 1174.316 C 380.343 1166.232 391.019 1162.831 399.502 1166.726 L 464.657 1196.64 C 473.14 1200.535 476.238 1210.26 471.571 1218.344 Z " fill="rgb(255,255,255)"/></g><g><path d=" M 263.317 1367.236 L 213.683 1367.236 C 204.348 1367.236 197.475 1359.69 198.344 1350.396 L 205.015 1279.013 C 205.884 1269.719 214.167 1262.174 223.502 1262.174 L 253.498 1262.174 C 262.833 1262.174 271.116 1269.719 271.985 1279.013 L 278.656 1350.396 C 279.525 1359.69 272.652 1367.236 263.317 1367.236 Z " fill="rgb(255,255,255)"/></g><g><path d=" M 30.246 1261.328 L 5.429 1218.344 C 0.762 1210.26 3.86 1200.535 12.343 1196.64 L 77.498 1166.726 C 85.981 1162.831 96.657 1166.232 101.325 1174.316 L 116.323 1200.294 C 120.99 1208.378 118.597 1219.325 110.983 1224.724 L 52.499 1266.193 C 44.885 1271.592 34.913 1269.412 30.246 1261.328 Z " fill="rgb(255,255,255)"/></g><g><path d=" M 5.429 1006.529 L 30.246 963.545 C 34.913 955.461 44.885 953.281 52.499 958.681 L 110.983 1000.149 C 118.597 1005.549 120.99 1016.495 116.323 1024.579 L 101.325 1050.557 C 96.657 1058.641 85.981 1062.042 77.498 1058.147 L 12.343 1028.233 C 3.86 1024.339 0.762 1014.613 5.429 1006.529 Z " fill="rgb(255,255,255)"/></g></g></g><defs><filter id="reCHuMG4ozOgVofDIhAwy8Ga0LtClgh6" x="-200%" y="-200%" width="400%" height="400%" filterUnits="objectBoundingBox" color-interpolation-filters="sRGB"><feOffset xmlns="http://www.w3.org/2000/svg" in="SourceGraphic" dx="0" dy="0"/><feGaussianBlur xmlns="http://www.w3.org/2000/svg" stdDeviation="10.73402265709757" result="pf_100_offsetBlur"/><feComposite xmlns="http://www.w3.org/2000/svg" in="SourceGraphic" in2="pf_100_offsetBlur" result="pf_100_inverse" operator="out"/><feFlood xmlns="http://www.w3.org/2000/svg" flood-color="#000000" flood-opacity="0.45" result="pf_100_color"/><feComposite xmlns="http://www.w3.org/2000/svg" in="pf_100_color" in2="pf_100_inverse" operator="in" result="pf_100_shadow"/><feComposite xmlns="http://www.w3.org/2000/svg" in="pf_100_shadow" in2="SourceGraphic" operator="over"/></filter></defs><g filter="url(#reCHuMG4ozOgVofDIhAwy8Ga0LtClgh6)"><mask id="_mask_IuMFEK1AqW5EmBXxC04A9WNqV0ZoE9N9"><path d=" M 173.25 1222.016 C 110.875 1186.004 89.471 1106.125 125.484 1043.75 C 161.496 981.375 241.375 959.971 303.75 995.984 C 366.125 1031.996 387.529 1111.875 351.516 1174.25 C 315.504 1236.625 235.625 1258.029 173.25 1222.016 Z " fill="white" stroke="none"/></mask><path d=" M 173.25 1222.016 C 110.875 1186.004 89.471 1106.125 125.484 1043.75 C 161.496 981.375 241.375 959.971 303.75 995.984 C 366.125 1031.996 387.529 1111.875 351.516 1174.25 C 315.504 1236.625 235.625 1258.029 173.25 1222.016 Z " fill="rgb(181,2,2)" mask="url(#_mask_IuMFEK1AqW5EmBXxC04A9WNqV0ZoE9N9)" vector-effect="non-scaling-stroke" stroke-width="20" stroke="rgb(0,0,0)" stroke-opacity="0.2" stroke-linejoin="miter" stroke-linecap="square" stroke-miterlimit="3"/><path d=" M 173.25 1222.016 C 110.875 1186.004 89.471 1106.125 125.484 1043.75 C 161.496 981.375 241.375 959.971 303.75 995.984 C 366.125 1031.996 387.529 1111.875 351.516 1174.25 C 315.504 1236.625 235.625 1258.029 173.25 1222.016 Z " fill="rgb(181,2,2)"/></g><path d=" M 171.5 1225.05 C 161.01 1219 151.4 1211.57 142.91 1202.94 C 134.7 1194.59 127.63 1185.2 121.88 1175.01 C 110.49 1154.82 104.5 1132.02 104.5 1108.84 C 104.5 1097.35 105.98 1085.91 108.91 1074.8 C 111.95 1063.31 116.51 1052.28 122.45 1042 C 128.5 1031.51 135.94 1021.9 144.56 1013.41 C 152.91 1005.2 162.3 998.13 172.49 992.38 C 192.68 980.99 215.48 975 238.66 975 C 250.15 975 261.59 976.48 272.7 979.41 C 284.19 982.45 295.22 987.01 305.5 992.95 C 315.99 999 325.6 1006.44 334.09 1015.06 C 342.3 1023.41 349.37 1032.8 355.12 1042.99 C 366.51 1063.18 372.5 1085.98 372.5 1109.16 C 372.5 1120.65 371.02 1132.09 368.09 1143.2 C 365.05 1154.69 360.49 1165.72 354.55 1176 C 348.5 1186.49 341.06 1196.1 332.44 1204.59 C 324.09 1212.8 314.7 1219.87 304.51 1225.62 C 284.32 1237.01 261.52 1243 238.34 1243 C 226.85 1243 215.41 1241.52 204.3 1238.59 C 192.81 1235.55 181.78 1230.99 171.5 1225.05 Z  M 175 1218.99 C 165.06 1213.26 155.94 1206.21 147.89 1198.03 C 140.12 1190.12 133.43 1181.22 127.98 1171.57 C 117.18 1152.43 111.5 1130.82 111.5 1108.84 C 111.5 1097.95 112.9 1087.11 115.68 1076.59 C 118.56 1065.7 122.88 1055.25 128.51 1045.5 C 134.24 1035.56 141.29 1026.44 149.47 1018.4 C 157.38 1010.62 166.28 1003.93 175.93 998.48 C 195.07 987.68 216.68 982 238.66 982 C 249.55 982 260.39 983.4 270.91 986.18 C 281.8 989.06 292.25 993.38 302 999.01 C 311.94 1004.74 321.06 1011.79 329.1 1019.97 C 336.88 1027.88 343.57 1036.78 349.02 1046.43 C 359.82 1065.57 365.5 1087.18 365.5 1109.16 C 365.5 1120.05 364.1 1130.89 361.32 1141.41 C 358.44 1152.3 354.12 1162.75 348.49 1172.5 C 342.76 1182.44 335.71 1191.56 327.53 1199.6 C 319.62 1207.38 310.72 1214.07 301.07 1219.52 C 281.93 1230.32 260.32 1236 238.34 1236 C 227.45 1236 216.61 1234.6 206.09 1231.82 C 195.2 1228.94 184.75 1224.62 175 1218.99 Z " fill-rule="evenodd" fill="rgb(255,255,255)"/><text transform="matrix(1,0,0,1,205.22,1138.82)" style="font-family:'Rokkitt';font-weight:700;font-size:120px;font-style:normal;fill:#ffffff;stroke:none;">5</text></g></svg>