<?xml version="1.0" encoding="UTF-8" standalone="no"?><!-- Generator: Gravit.io --><svg xmlns="http://www.w3.org/2000/svg" xmlns:xlink="http://www.w3.org/1999/xlink" style="isolation:isolate" viewBox="459 18 414 414" width="414pt" height="414pt"><g><circle vector-effect="non-scaling-stroke" cx="666" cy="225.00000000000006" r="207.00000000000003" fill="rgb(16,159,95)"/><clipPath id="_clipPath_JBD6dcKXBobTAhbLcXFRBrapa1GQBKVF"><circle vector-effect="non-scaling-stroke" cx="666" cy="225.00000000000009" r="203.2500000000001" fill="rgb(255,255,255)"/></clipPath><g clip-path="url(#_clipPath_JBD6dcKXBobTAhbLcXFRBrapa1GQBKVF)"><g><g><path d=" M 641.183 -26.362 L 690.817 -26.362 C 700.152 -26.362 707.025 -18.817 706.156 -9.523 L 699.485 61.86 C 698.616 71.154 690.333 78.699 680.998 78.699 L 651.002 78.699 C 641.667 78.699 633.384 71.154 632.515 61.86 L 625.844 -9.523 C 624.975 -18.817 631.848 -26.362 641.183 -26.362 Z " fill="rgb(255,255,255)"/></g><g><path d=" M 874.254 79.545 L 899.071 122.529 C 903.738 130.613 900.64 140.339 892.157 144.233 L 827.002 174.147 C 818.519 178.042 807.843 174.641 803.175 166.557 L 788.177 140.579 C 783.51 132.495 785.903 121.549 793.517 116.149 L 852.001 74.681 C 859.615 69.281 869.587 71.461 874.254 79.545 Z " fill="rgb(255,255,255)"/></g><g><path d=" M 899.071 334.344 L 874.254 377.328 C 869.587 385.412 859.615 387.592 852.001 382.193 L 793.517 340.724 C 785.903 335.325 783.51 324.378 788.177 316.294 L 803.175 290.316 C 807.843 282.232 818.519 278.831 827.002 282.726 L 892.157 312.64 C 900.64 316.535 903.738 326.26 899.071 334.344 Z " fill="rgb(255,255,255)"/></g><g><path d=" M 690.817 483.236 L 641.183 483.236 C 631.848 483.236 624.975 475.69 625.844 466.396 L 632.515 395.013 C 633.384 385.719 641.667 378.174 651.002 378.174 L 680.998 378.174 C 690.333 378.174 698.616 385.719 699.485 395.013 L 706.156 466.396 C 707.025 475.69 700.152 483.236 690.817 483.236 Z " fill="rgb(255,255,255)"/></g><g><path d=" M 457.746 377.328 L 432.929 334.344 C 428.262 326.26 431.36 316.535 439.843 312.64 L 504.998 282.726 C 513.481 278.831 524.157 282.232 528.825 290.316 L 543.823 316.294 C 548.49 324.378 546.097 335.325 538.483 340.724 L 479.999 382.193 C 472.385 387.592 462.413 385.412 457.746 377.328 Z " fill="rgb(255,255,255)"/></g><g><path d=" M 432.929 122.529 L 457.746 79.545 C 462.413 71.461 472.385 69.281 479.999 74.681 L 538.483 116.149 C 546.097 121.549 548.49 132.495 543.823 140.579 L 528.825 166.557 C 524.157 174.641 513.481 178.042 504.998 174.147 L 439.843 144.233 C 431.36 140.339 428.262 130.613 432.929 122.529 Z " fill="rgb(255,255,255)"/></g></g></g><defs><filter id="AvURymdkEp2idSQbUVqbiD6JeSBeaYKz" x="-200%" y="-200%" width="400%" height="400%" filterUnits="objectBoundingBox" color-interpolation-filters="sRGB"><feOffset xmlns="http://www.w3.org/2000/svg" in="SourceGraphic" dx="0" dy="0"/><feGaussianBlur xmlns="http://www.w3.org/2000/svg" stdDeviation="10.73402265709757" result="pf_100_offsetBlur"/><feComposite xmlns="http://www.w3.org/2000/svg" in="SourceGraphic" in2="pf_100_offsetBlur" result="pf_100_inverse" operator="out"/><feFlood xmlns="http://www.w3.org/2000/svg" flood-color="#000000" flood-opacity="0.45" result="pf_100_color"/><feComposite xmlns="http://www.w3.org/2000/svg" in="pf_100_color" in2="pf_100_inverse" operator="in" result="pf_100_shadow"/><feComposite xmlns="http://www.w3.org/2000/svg" in="pf_100_shadow" in2="SourceGraphic" operator="over"/></filter></defs><g filter="url(#AvURymdkEp2idSQbUVqbiD6JeSBeaYKz)"><mask id="_mask_rxvmrzRrmZsoM9li3bashQyEHoyrNaOD"><path d=" M 600.75 338.016 C 538.375 302.004 516.971 222.125 552.984 159.75 C 588.996 97.375 668.875 75.971 731.25 111.984 C 793.625 147.996 815.029 227.875 779.016 290.25 C 743.004 352.625 663.125 374.029 600.75 338.016 Z " fill="white" stroke="none"/></mask><path d=" M 600.75 338.016 C 538.375 302.004 516.971 222.125 552.984 159.75 C 588.996 97.375 668.875 75.971 731.25 111.984 C 793.625 147.996 815.029 227.875 779.016 290.25 C 743.004 352.625 663.125 374.029 600.75 338.016 Z " fill="rgb(16,159,95)" mask="url(#_mask_rxvmrzRrmZsoM9li3bashQyEHoyrNaOD)" vector-effect="non-scaling-stroke" stroke-width="20" stroke="rgb(0,0,0)" stroke-opacity="0.2" stroke-linejoin="miter" stroke-linecap="square" stroke-miterlimit="3"/><path d=" M 600.75 338.016 C 538.375 302.004 516.971 222.125 552.984 159.75 C 588.996 97.375 668.875 75.971 731.25 111.984 C 793.625 147.996 815.029 227.875 779.016 290.25 C 743.004 352.625 663.125 374.029 600.75 338.016 Z " fill="rgb(16,159,95)"/></g><path d=" M 599 341.05 C 588.51 335 578.9 327.57 570.41 318.94 C 562.2 310.59 555.13 301.2 549.38 291.01 C 537.99 270.82 532 248.02 532 224.84 C 532 213.35 533.48 201.91 536.41 190.8 C 539.45 179.31 544.01 168.28 549.95 158 C 556 147.51 563.44 137.9 572.06 129.41 C 580.41 121.2 589.8 114.13 599.99 108.38 C 620.18 96.99 642.98 91 666.16 91 C 677.65 91 689.09 92.48 700.2 95.41 C 711.69 98.45 722.72 103.01 733 108.95 C 743.49 115 753.1 122.44 761.59 131.06 C 769.8 139.41 776.87 148.8 782.62 158.99 C 794.01 179.18 800 201.98 800 225.16 C 800 236.65 798.52 248.09 795.59 259.2 C 792.55 270.69 787.99 281.72 782.05 292 C 776 302.49 768.56 312.1 759.94 320.59 C 751.59 328.8 742.2 335.87 732.01 341.62 C 711.82 353.01 689.02 359 665.84 359 C 654.35 359 642.91 357.52 631.8 354.59 C 620.31 351.55 609.28 346.99 599 341.05 Z  M 602.5 334.99 C 592.56 329.26 583.44 322.21 575.39 314.03 C 567.62 306.12 560.93 297.22 555.48 287.57 C 544.68 268.43 539 246.82 539 224.84 C 539 213.95 540.4 203.11 543.18 192.59 C 546.06 181.7 550.38 171.25 556.01 161.5 C 561.74 151.56 568.79 142.44 576.97 134.4 C 584.88 126.62 593.78 119.93 603.43 114.48 C 622.57 103.68 644.18 98 666.16 98 C 677.05 98 687.89 99.4 698.41 102.18 C 709.3 105.06 719.75 109.38 729.5 115.01 C 739.44 120.74 748.56 127.79 756.6 135.97 C 764.38 143.88 771.07 152.78 776.52 162.43 C 787.32 181.57 793 203.18 793 225.16 C 793 236.05 791.6 246.89 788.82 257.41 C 785.94 268.3 781.62 278.75 775.99 288.5 C 770.26 298.44 763.21 307.56 755.03 315.6 C 747.12 323.38 738.22 330.07 728.57 335.52 C 709.43 346.32 687.82 352 665.84 352 C 654.95 352 644.11 350.6 633.59 347.82 C 622.7 344.94 612.25 340.62 602.5 334.99 Z " fill-rule="evenodd" fill="rgb(255,255,255)"/><text transform="matrix(1,0,0,1,602,254.82)" style="font-family:'Rokkitt';font-weight:700;font-size:120px;font-style:normal;fill:#ffffff;stroke:none;">25</text></g></svg>