<?xml version="1.0" encoding="UTF-8" standalone="no"?><!-- Generator: Gravit.io --><svg xmlns="http://www.w3.org/2000/svg" xmlns:xlink="http://www.w3.org/1999/xlink" style="isolation:isolate" viewBox="454 448 414 414" width="414pt" height="414pt"><g><circle vector-effect="non-scaling-stroke" cx="661.0000000000001" cy="654.9999999999999" r="207.00000000000009" fill="rgb(255,255,255)"/><defs><filter id="DHdeEuwUT8Q1yAGpE970rbTpsTwlNhgR" x="-200%" y="-200%" width="400%" height="400%" filterUnits="objectBoundingBox" color-interpolation-filters="sRGB"><feOffset xmlns="http://www.w3.org/2000/svg" in="SourceGraphic" dx="0" dy="0"/><feGaussianBlur xmlns="http://www.w3.org/2000/svg" stdDeviation="10.73402265709757" result="pf_100_offsetBlur"/><feComposite xmlns="http://www.w3.org/2000/svg" in="SourceGraphic" in2="pf_100_offsetBlur" result="pf_100_inverse" operator="out"/><feFlood xmlns="http://www.w3.org/2000/svg" flood-color="#000000" flood-opacity="0.45" result="pf_100_color"/><feComposite xmlns="http://www.w3.org/2000/svg" in="pf_100_color" in2="pf_100_inverse" operator="in" result="pf_100_shadow"/><feComposite xmlns="http://www.w3.org/2000/svg" in="pf_100_shadow" in2="SourceGraphic" operator="over"/></filter></defs><g filter="url(#DHdeEuwUT8Q1yAGpE970rbTpsTwlNhgR)"><mask id="_mask_f50pzbwp0QsPbmt5paxQFLKtcZ8BZAnn"><path d=" M 595.75 768.016 C 533.375 732.004 511.971 652.125 547.984 589.75 C 583.996 527.375 663.875 505.971 726.25 541.984 C 788.625 577.996 810.029 657.875 774.016 720.25 C 738.004 782.625 658.125 804.029 595.75 768.016 Z " fill="white" stroke="none"/></mask><path d=" M 595.75 768.016 C 533.375 732.004 511.971 652.125 547.984 589.75 C 583.996 527.375 663.875 505.971 726.25 541.984 C 788.625 577.996 810.029 657.875 774.016 720.25 C 738.004 782.625 658.125 804.029 595.75 768.016 Z " fill="rgb(255,255,255)" mask="url(#_mask_f50pzbwp0QsPbmt5paxQFLKtcZ8BZAnn)" vector-effect="non-scaling-stroke" stroke-width="20" stroke="rgb(0,0,0)" stroke-opacity="0.2" stroke-linejoin="miter" stroke-linecap="square" stroke-miterlimit="3"/><path d=" M 595.75 768.016 C 533.375 732.004 511.971 652.125 547.984 589.75 C 583.996 527.375 663.875 505.971 726.25 541.984 C 788.625 577.996 810.029 657.875 774.016 720.25 C 738.004 782.625 658.125 804.029 595.75 768.016 Z " fill="rgb(255,255,255)"/></g><clipPath id="_clipPath_bviFileFlAAdrBPFArAMzBMzm93C2WVl"><circle vector-effect="non-scaling-stroke" cx="661.0000000000001" cy="654.9999999999999" r="203.2500000000001" fill="rgb(255,255,255)"/></clipPath><g clip-path="url(#_clipPath_bviFileFlAAdrBPFArAMzBMzm93C2WVl)"><g><g><path d=" M 636.183 403.638 L 685.817 403.638 C 695.152 403.638 702.025 411.183 701.156 420.477 L 694.485 491.86 C 693.616 501.154 685.333 508.699 675.998 508.699 L 646.002 508.699 C 636.667 508.699 628.384 501.154 627.515 491.86 L 620.844 420.477 C 619.975 411.183 626.848 403.638 636.183 403.638 Z " fill="rgb(16,126,159)"/></g><g><path d=" M 869.254 509.545 L 894.071 552.529 C 898.738 560.613 895.64 570.339 887.157 574.233 L 822.002 604.147 C 813.519 608.042 802.843 604.641 798.175 596.557 L 783.177 570.579 C 778.51 562.495 780.903 551.549 788.517 546.149 L 847.001 504.681 C 854.615 499.281 864.587 501.461 869.254 509.545 Z " fill="rgb(16,126,159)"/></g><g><path d=" M 894.071 764.344 L 869.254 807.328 C 864.587 815.412 854.615 817.592 847.001 812.193 L 788.517 770.724 C 780.903 765.325 778.51 754.378 783.177 746.294 L 798.175 720.316 C 802.843 712.232 813.519 708.831 822.002 712.726 L 887.157 742.64 C 895.64 746.535 898.738 756.26 894.071 764.344 Z " fill="rgb(16,126,159)"/></g><g><path d=" M 685.817 913.236 L 636.183 913.236 C 626.848 913.236 619.975 905.69 620.844 896.396 L 627.515 825.013 C 628.384 815.719 636.667 808.174 646.002 808.174 L 675.998 808.174 C 685.333 808.174 693.616 815.719 694.485 825.013 L 701.156 896.396 C 702.025 905.69 695.152 913.236 685.817 913.236 Z " fill="rgb(16,126,159)"/></g><g><path d=" M 452.746 807.328 L 427.929 764.344 C 423.262 756.26 426.36 746.535 434.843 742.64 L 499.998 712.726 C 508.481 708.831 519.157 712.232 523.825 720.316 L 538.823 746.294 C 543.49 754.378 541.097 765.325 533.483 770.724 L 474.999 812.193 C 467.385 817.592 457.413 815.412 452.746 807.328 Z " fill="rgb(16,126,159)"/></g><g><path d=" M 427.929 552.529 L 452.746 509.545 C 457.413 501.461 467.385 499.281 474.999 504.681 L 533.483 546.149 C 541.097 551.549 543.49 562.495 538.823 570.579 L 523.825 596.557 C 519.157 604.641 508.481 608.042 499.998 604.147 L 434.843 574.233 C 426.36 570.339 423.262 560.613 427.929 552.529 Z " fill="rgb(16,126,159)"/></g></g></g><path d=" M 594 771.05 C 583.51 765 573.9 757.57 565.41 748.94 C 557.2 740.59 550.13 731.2 544.38 721.01 C 532.99 700.82 527 678.02 527 654.84 C 527 643.35 528.48 631.91 531.41 620.8 C 534.45 609.31 539.01 598.28 544.95 588 C 551 577.51 558.44 567.9 567.06 559.41 C 575.41 551.2 584.8 544.13 594.99 538.38 C 615.18 526.99 637.98 521 661.16 521 C 672.65 521 684.09 522.48 695.2 525.41 C 706.69 528.45 717.72 533.01 728 538.95 C 738.49 545 748.1 552.44 756.59 561.06 C 764.8 569.41 771.87 578.8 777.62 588.99 C 789.01 609.18 795 631.98 795 655.16 C 795 666.65 793.52 678.09 790.59 689.2 C 787.55 700.69 782.99 711.72 777.05 722 C 771 732.49 763.56 742.1 754.94 750.59 C 746.59 758.8 737.2 765.87 727.01 771.62 C 706.82 783.01 684.02 789 660.84 789 C 649.35 789 637.91 787.52 626.8 784.59 C 615.31 781.55 604.28 776.99 594 771.05 Z  M 597.5 764.99 C 587.56 759.26 578.44 752.21 570.39 744.03 C 562.62 736.12 555.93 727.22 550.48 717.57 C 539.68 698.43 534 676.82 534 654.84 C 534 643.95 535.4 633.11 538.18 622.59 C 541.06 611.7 545.38 601.25 551.01 591.5 C 556.74 581.56 563.79 572.44 571.97 564.4 C 579.88 556.62 588.78 549.93 598.43 544.48 C 617.57 533.68 639.18 528 661.16 528 C 672.05 528 682.89 529.4 693.41 532.18 C 704.3 535.06 714.75 539.38 724.5 545.01 C 734.44 550.74 743.56 557.79 751.6 565.97 C 759.38 573.88 766.07 582.78 771.52 592.43 C 782.32 611.57 788 633.18 788 655.16 C 788 666.05 786.6 676.89 783.82 687.41 C 780.94 698.3 776.62 708.75 770.99 718.5 C 765.26 728.44 758.21 737.56 750.03 745.6 C 742.12 753.38 733.22 760.07 723.57 765.52 C 704.43 776.32 682.82 782 660.84 782 C 649.95 782 639.11 780.6 628.59 777.82 C 617.7 774.94 607.25 770.62 597.5 764.99 Z " fill-rule="evenodd" fill="rgb(16,126,159)"/><text transform="matrix(1,0,0,1,637.5,684.82)" style="font-family:'Rokkitt';font-weight:700;font-size:120px;font-style:normal;fill:#107e9f;stroke:none;">1</text></g></svg>