<?xml version="1.0" encoding="UTF-8" standalone="no"?><!-- Generator: Gravit.io --><svg xmlns="http://www.w3.org/2000/svg" xmlns:xlink="http://www.w3.org/1999/xlink" style="isolation:isolate" viewBox="18 18 414 414" width="414pt" height="414pt"><g><circle vector-effect="non-scaling-stroke" cx="225.00000000000006" cy="225.00000000000006" r="207.00000000000006" fill="rgb(70,70,70)"/><clipPath id="_clipPath_P1Ok7JbgyvqpMawv4LG7U6N8uWgRrPPW"><circle vector-effect="non-scaling-stroke" cx="225.00000000000003" cy="225.00000000000009" r="203.25000000000014" fill="rgb(255,255,255)"/></clipPath><g clip-path="url(#_clipPath_P1Ok7JbgyvqpMawv4LG7U6N8uWgRrPPW)"><g><g><path d=" M 200.183 -26.362 L 249.817 -26.362 C 259.152 -26.362 266.025 -18.817 265.156 -9.523 L 258.485 61.86 C 257.616 71.154 249.333 78.699 239.998 78.699 L 210.002 78.699 C 200.667 78.699 192.384 71.154 191.515 61.86 L 184.844 -9.523 C 183.975 -18.817 190.848 -26.362 200.183 -26.362 Z " fill="rgb(255,255,255)"/></g><g><path d=" M 433.254 79.545 L 458.071 122.529 C 462.738 130.613 459.64 140.339 451.157 144.233 L 386.002 174.147 C 377.519 178.042 366.843 174.641 362.175 166.557 L 347.177 140.579 C 342.51 132.495 344.903 121.549 352.517 116.149 L 411.001 74.681 C 418.615 69.281 428.587 71.461 433.254 79.545 Z " fill="rgb(255,255,255)"/></g><g><path d=" M 458.071 334.344 L 433.254 377.328 C 428.587 385.412 418.615 387.592 411.001 382.193 L 352.517 340.724 C 344.903 335.325 342.51 324.378 347.177 316.294 L 362.175 290.316 C 366.843 282.232 377.519 278.831 386.002 282.726 L 451.157 312.64 C 459.64 316.535 462.738 326.26 458.071 334.344 Z " fill="rgb(255,255,255)"/></g><g><path d=" M 249.817 483.236 L 200.183 483.236 C 190.848 483.236 183.975 475.69 184.844 466.396 L 191.515 395.013 C 192.384 385.719 200.667 378.174 210.002 378.174 L 239.998 378.174 C 249.333 378.174 257.616 385.719 258.485 395.013 L 265.156 466.396 C 266.025 475.69 259.152 483.236 249.817 483.236 Z " fill="rgb(255,255,255)"/></g><g><path d=" M 16.746 377.328 L -8.071 334.344 C -12.738 326.26 -9.64 316.535 -1.157 312.64 L 63.998 282.726 C 72.481 278.831 83.157 282.232 87.825 290.316 L 102.823 316.294 C 107.49 324.378 105.097 335.325 97.483 340.724 L 38.999 382.193 C 31.385 387.592 21.413 385.412 16.746 377.328 Z " fill="rgb(255,255,255)"/></g><g><path d=" M -8.071 122.529 L 16.746 79.545 C 21.413 71.461 31.385 69.281 38.999 74.681 L 97.483 116.149 C 105.097 121.549 107.49 132.495 102.823 140.579 L 87.825 166.557 C 83.157 174.641 72.481 178.042 63.998 174.147 L -1.157 144.233 C -9.64 140.339 -12.738 130.613 -8.071 122.529 Z " fill="rgb(255,255,255)"/></g></g></g><defs><filter id="OiKVkIIZPaVCE9We3OOCJAzZXNgbFbMh" x="-200%" y="-200%" width="400%" height="400%" filterUnits="objectBoundingBox" color-interpolation-filters="sRGB"><feOffset xmlns="http://www.w3.org/2000/svg" in="SourceGraphic" dx="0" dy="0"/><feGaussianBlur xmlns="http://www.w3.org/2000/svg" stdDeviation="10.73402265709757" result="pf_100_offsetBlur"/><feComposite xmlns="http://www.w3.org/2000/svg" in="SourceGraphic" in2="pf_100_offsetBlur" result="pf_100_inverse" operator="out"/><feFlood xmlns="http://www.w3.org/2000/svg" flood-color="#000000" flood-opacity="0.45" result="pf_100_color"/><feComposite xmlns="http://www.w3.org/2000/svg" in="pf_100_color" in2="pf_100_inverse" operator="in" result="pf_100_shadow"/><feComposite xmlns="http://www.w3.org/2000/svg" in="pf_100_shadow" in2="SourceGraphic" operator="over"/></filter></defs><g filter="url(#OiKVkIIZPaVCE9We3OOCJAzZXNgbFbMh)"><mask id="_mask_m0sufQpZ21d4T3j1l2s089vYyWwhmVVl"><path d=" M 159.75 338.016 C 97.375 302.004 75.971 222.125 111.984 159.75 C 147.996 97.375 227.875 75.971 290.25 111.984 C 352.625 147.996 374.029 227.875 338.016 290.25 C 302.004 352.625 222.125 374.029 159.75 338.016 Z " fill="white" stroke="none"/></mask><path d=" M 159.75 338.016 C 97.375 302.004 75.971 222.125 111.984 159.75 C 147.996 97.375 227.875 75.971 290.25 111.984 C 352.625 147.996 374.029 227.875 338.016 290.25 C 302.004 352.625 222.125 374.029 159.75 338.016 Z " fill="rgb(70,70,70)" mask="url(#_mask_m0sufQpZ21d4T3j1l2s089vYyWwhmVVl)" vector-effect="non-scaling-stroke" stroke-width="20" stroke="rgb(0,0,0)" stroke-opacity="0.28" stroke-linejoin="miter" stroke-linecap="square" stroke-miterlimit="3"/><path d=" M 159.75 338.016 C 97.375 302.004 75.971 222.125 111.984 159.75 C 147.996 97.375 227.875 75.971 290.25 111.984 C 352.625 147.996 374.029 227.875 338.016 290.25 C 302.004 352.625 222.125 374.029 159.75 338.016 Z " fill="rgb(70,70,70)"/></g><path d=" M 158 341.05 C 147.51 335 137.9 327.57 129.41 318.94 C 121.2 310.59 114.13 301.2 108.38 291.01 C 96.99 270.82 91 248.02 91 224.84 C 91 213.35 92.48 201.91 95.41 190.8 C 98.45 179.31 103.01 168.28 108.95 158 C 115 147.51 122.44 137.9 131.06 129.41 C 139.41 121.2 148.8 114.13 158.99 108.38 C 179.18 96.99 201.98 91 225.16 91 C 236.65 91 248.09 92.48 259.2 95.41 C 270.69 98.45 281.72 103.01 292 108.95 C 302.49 115 312.1 122.44 320.59 131.06 C 328.8 139.41 335.87 148.8 341.62 158.99 C 353.01 179.18 359 201.98 359 225.16 C 359 236.65 357.52 248.09 354.59 259.2 C 351.55 270.69 346.99 281.72 341.05 292 C 335 302.49 327.56 312.1 318.94 320.59 C 310.59 328.8 301.2 335.87 291.01 341.62 C 270.82 353.01 248.02 359 224.84 359 C 213.35 359 201.91 357.52 190.8 354.59 C 179.31 351.55 168.28 346.99 158 341.05 Z  M 161.5 334.99 C 151.56 329.26 142.44 322.21 134.39 314.03 C 126.62 306.12 119.93 297.22 114.48 287.57 C 103.68 268.43 98 246.82 98 224.84 C 98 213.95 99.4 203.11 102.18 192.59 C 105.06 181.7 109.38 171.25 115.01 161.5 C 120.74 151.56 127.79 142.44 135.97 134.4 C 143.88 126.62 152.78 119.93 162.43 114.48 C 181.57 103.68 203.18 98 225.16 98 C 236.05 98 246.89 99.4 257.41 102.18 C 268.3 105.06 278.75 109.38 288.5 115.01 C 298.44 120.74 307.56 127.79 315.6 135.97 C 323.38 143.88 330.07 152.78 335.52 162.43 C 346.32 181.57 352 203.18 352 225.16 C 352 236.05 350.6 246.89 347.82 257.41 C 344.94 268.3 340.62 278.75 334.99 288.5 C 329.26 298.44 322.21 307.56 314.03 315.6 C 306.12 323.38 297.22 330.07 287.57 335.52 C 268.43 346.32 246.82 352 224.84 352 C 213.95 352 203.11 350.6 192.59 347.82 C 181.7 344.94 171.25 340.62 161.5 334.99 Z " fill-rule="evenodd" fill="rgb(255,255,255)"/><text transform="matrix(1,0,0,1,134.06,254.82)" style="font-family:'Rokkitt';font-weight:700;font-size:120px;font-style:normal;fill:#ffffff;stroke:none;">100</text></g></svg>