<?xml version="1.0" encoding="UTF-8" standalone="no"?><!-- Generator: Gravit.io --><svg xmlns="http://www.w3.org/2000/svg" xmlns:xlink="http://www.w3.org/1999/xlink" style="isolation:isolate" viewBox="23 464.5 414 414" width="414pt" height="414pt"><g><circle vector-effect="non-scaling-stroke" cx="229.99999999999997" cy="671.5" r="207.00000000000006" fill="rgb(16,126,159)"/><clipPath id="_clipPath_wk5UyUqV0wtOdJHgHtbfkSFmKFw2ptyT"><circle vector-effect="non-scaling-stroke" cx="229.99999999999997" cy="671.5" r="203.25000000000014" fill="rgb(255,255,255)"/></clipPath><g clip-path="url(#_clipPath_wk5UyUqV0wtOdJHgHtbfkSFmKFw2ptyT)"><g><g><path d=" M 205.183 420.138 L 254.817 420.138 C 264.152 420.138 271.025 427.683 270.156 436.977 L 263.485 508.36 C 262.616 517.654 254.333 525.199 244.998 525.199 L 215.002 525.199 C 205.667 525.199 197.384 517.654 196.515 508.36 L 189.844 436.977 C 188.975 427.683 195.848 420.138 205.183 420.138 Z " fill="rgb(255,255,255)"/></g><g><path d=" M 438.254 526.045 L 463.071 569.029 C 467.738 577.113 464.64 586.839 456.157 590.733 L 391.002 620.647 C 382.519 624.542 371.843 621.141 367.175 613.057 L 352.177 587.079 C 347.51 578.995 349.903 568.049 357.517 562.649 L 416.001 521.181 C 423.615 515.781 433.587 517.961 438.254 526.045 Z " fill="rgb(255,255,255)"/></g><g><path d=" M 463.071 780.844 L 438.254 823.828 C 433.587 831.912 423.615 834.092 416.001 828.693 L 357.517 787.224 C 349.903 781.825 347.51 770.878 352.177 762.794 L 367.175 736.816 C 371.843 728.732 382.519 725.331 391.002 729.226 L 456.157 759.14 C 464.64 763.035 467.738 772.76 463.071 780.844 Z " fill="rgb(255,255,255)"/></g><g><path d=" M 254.817 929.736 L 205.183 929.736 C 195.848 929.736 188.975 922.19 189.844 912.896 L 196.515 841.513 C 197.384 832.219 205.667 824.674 215.002 824.674 L 244.998 824.674 C 254.333 824.674 262.616 832.219 263.485 841.513 L 270.156 912.896 C 271.025 922.19 264.152 929.736 254.817 929.736 Z " fill="rgb(255,255,255)"/></g><g><path d=" M 21.746 823.828 L -3.071 780.844 C -7.738 772.76 -4.64 763.035 3.843 759.14 L 68.998 729.226 C 77.481 725.331 88.157 728.732 92.825 736.816 L 107.823 762.794 C 112.49 770.878 110.097 781.825 102.483 787.224 L 43.999 828.693 C 36.385 834.092 26.413 831.912 21.746 823.828 Z " fill="rgb(255,255,255)"/></g><g><path d=" M -3.071 569.029 L 21.746 526.045 C 26.413 517.961 36.385 515.781 43.999 521.181 L 102.483 562.649 C 110.097 568.049 112.49 578.995 107.823 587.079 L 92.825 613.057 C 88.157 621.141 77.481 624.542 68.998 620.647 L 3.843 590.733 C -4.64 586.839 -7.738 577.113 -3.071 569.029 Z " fill="rgb(255,255,255)"/></g></g></g><defs><filter id="WJJarMZtraN1i1DBCY9pd2k1ARg2ARF6" x="-200%" y="-200%" width="400%" height="400%" filterUnits="objectBoundingBox" color-interpolation-filters="sRGB"><feOffset xmlns="http://www.w3.org/2000/svg" in="SourceGraphic" dx="0" dy="0"/><feGaussianBlur xmlns="http://www.w3.org/2000/svg" stdDeviation="10.73402265709757" result="pf_100_offsetBlur"/><feComposite xmlns="http://www.w3.org/2000/svg" in="SourceGraphic" in2="pf_100_offsetBlur" result="pf_100_inverse" operator="out"/><feFlood xmlns="http://www.w3.org/2000/svg" flood-color="#000000" flood-opacity="0.45" result="pf_100_color"/><feComposite xmlns="http://www.w3.org/2000/svg" in="pf_100_color" in2="pf_100_inverse" operator="in" result="pf_100_shadow"/><feComposite xmlns="http://www.w3.org/2000/svg" in="pf_100_shadow" in2="SourceGraphic" operator="over"/></filter></defs><g filter="url(#WJJarMZtraN1i1DBCY9pd2k1ARg2ARF6)"><mask id="_mask_LdRgJv1HWQZzPYZggc2f56lGPSXJsjID"><path d=" M 164.75 784.516 C 102.375 748.504 80.971 668.625 116.984 606.25 C 152.996 543.875 232.875 522.471 295.25 558.484 C 357.625 594.496 379.029 674.375 343.016 736.75 C 307.004 799.125 227.125 820.529 164.75 784.516 Z " fill="white" stroke="none"/></mask><path d=" M 164.75 784.516 C 102.375 748.504 80.971 668.625 116.984 606.25 C 152.996 543.875 232.875 522.471 295.25 558.484 C 357.625 594.496 379.029 674.375 343.016 736.75 C 307.004 799.125 227.125 820.529 164.75 784.516 Z " fill="rgb(16,126,159)" mask="url(#_mask_LdRgJv1HWQZzPYZggc2f56lGPSXJsjID)" vector-effect="non-scaling-stroke" stroke-width="20" stroke="rgb(0,0,0)" stroke-opacity="0.2" stroke-linejoin="miter" stroke-linecap="square" stroke-miterlimit="3"/><path d=" M 164.75 784.516 C 102.375 748.504 80.971 668.625 116.984 606.25 C 152.996 543.875 232.875 522.471 295.25 558.484 C 357.625 594.496 379.029 674.375 343.016 736.75 C 307.004 799.125 227.125 820.529 164.75 784.516 Z " fill="rgb(16,126,159)"/></g><path d=" M 163 787.55 C 152.51 781.5 142.9 774.07 134.41 765.44 C 126.2 757.09 119.13 747.7 113.38 737.51 C 101.99 717.32 96 694.52 96 671.34 C 96 659.85 97.48 648.41 100.41 637.3 C 103.45 625.81 108.01 614.78 113.95 604.5 C 120 594.01 127.44 584.4 136.06 575.91 C 144.41 567.7 153.8 560.63 163.99 554.88 C 184.18 543.49 206.98 537.5 230.16 537.5 C 241.65 537.5 253.09 538.98 264.2 541.91 C 275.69 544.95 286.72 549.51 297 555.45 C 307.49 561.5 317.1 568.94 325.59 577.56 C 333.8 585.91 340.87 595.3 346.62 605.49 C 358.01 625.68 364 648.48 364 671.66 C 364 683.15 362.52 694.59 359.59 705.7 C 356.55 717.19 351.99 728.22 346.05 738.5 C 340 748.99 332.56 758.6 323.94 767.09 C 315.59 775.3 306.2 782.37 296.01 788.12 C 275.82 799.51 253.02 805.5 229.84 805.5 C 218.35 805.5 206.91 804.02 195.8 801.09 C 184.31 798.05 173.28 793.49 163 787.55 Z  M 166.5 781.49 C 156.56 775.76 147.44 768.71 139.39 760.53 C 131.62 752.62 124.93 743.72 119.48 734.07 C 108.68 714.93 103 693.32 103 671.34 C 103 660.45 104.4 649.61 107.18 639.09 C 110.06 628.2 114.38 617.75 120.01 608 C 125.74 598.06 132.79 588.94 140.97 580.9 C 148.88 573.12 157.78 566.43 167.43 560.98 C 186.57 550.18 208.18 544.5 230.16 544.5 C 241.05 544.5 251.89 545.9 262.41 548.68 C 273.3 551.56 283.75 555.88 293.5 561.51 C 303.44 567.24 312.56 574.29 320.6 582.47 C 328.38 590.38 335.07 599.28 340.52 608.93 C 351.32 628.07 357 649.68 357 671.66 C 357 682.55 355.6 693.39 352.82 703.91 C 349.94 714.8 345.62 725.25 339.99 735 C 334.26 744.94 327.21 754.06 319.03 762.1 C 311.12 769.88 302.22 776.57 292.57 782.02 C 273.43 792.82 251.82 798.5 229.84 798.5 C 218.95 798.5 208.11 797.1 197.59 794.32 C 186.7 791.44 176.25 787.12 166.5 781.49 Z " fill-rule="evenodd" fill="rgb(255,255,255)"/><text transform="matrix(1,0,0,1,163,701.32)" style="font-family:'Rokkitt';font-weight:700;font-size:120px;font-style:normal;fill:#ffffff;stroke:none;">50</text></g></svg>