<svg xmlns="http://www.w3.org/2000/svg" style="isolation:isolate" viewBox="472.276 106.405 69.124 103.685" width="92.165" height="138.247"><path d="M541.4 207.368a2.722 2.722 0 01-2.722 2.722h-63.68a2.722 2.722 0 01-2.722-2.722v-98.241a2.722 2.722 0 012.722-2.722h63.68a2.722 2.722 0 012.722 2.722v98.241z" fill="#EAE8E8"/><path d="M498.599 134.697c0 2.343-2.105 3.655-4.159 3.349-1.06-.159-1.842-.811-2.474-1.595-.6-.738-.749-.262-.666.222.38 2.234 1.398 3.502 3.294 4.096.19.062.987.242.26.242h-7.55c-.729 0 .068-.18.257-.242 1.895-.594 2.913-1.862 3.295-4.096.081-.484-.066-.96-.664-.222-.636.784-1.416 1.436-2.477 1.595-2.053.303-4.158-1.006-4.158-3.349v-.003c0-1.681 1.357-3.55 3.127-3.422.121.01.959.19 1.219-.065.377-.367-.15-.64-.188-1.476v-.002c-.057-1.994 1.311-3.058 2.842-3.25v.002c0-.002.332-.044.48-.044.273-.002.489.039.564.044v-.002c1.527.192 2.898 1.259 2.839 3.25v.002c-.039.836-.564 1.109-.188 1.476.26.255 1.101.072 1.219.065 1.769-.128 3.128 1.741 3.128 3.422v.003z" fill="#444247"/><path d="M491.061 126.437h-.024c-.148 0-.48.042-.48.044v-.002c-1.531.192-2.899 1.256-2.842 3.25v.002c.038.836.565 1.109.188 1.476-.26.255-1.098.074-1.219.065-1.77-.129-3.127 1.741-3.127 3.422v.003c0 2.343 2.105 3.652 4.158 3.349 1.061-.16 1.841-.811 2.477-1.595.598-.738.745-.262.664.222-.382 2.234-1.4 3.502-3.295 4.096-.189.062-.986.242-.257.242h3.757v-14.574z" fill="#57565A"/><path d="M530.055 134.697c0 2.343-2.104 3.655-4.158 3.349-1.061-.159-1.842-.811-2.475-1.595-.599-.738-.748-.262-.666.222.381 2.234 1.399 3.502 3.295 4.096.189.062.987.242.26.242h-7.551c-.728 0 .069-.18.257-.242 1.895-.594 2.914-1.862 3.295-4.096.082-.484-.065-.96-.664-.222-.635.784-1.414 1.436-2.477 1.595-2.053.303-4.158-1.006-4.158-3.349v-.003c0-1.681 1.357-3.55 3.127-3.422.122.01.959.19 1.219-.065.378-.367-.149-.64-.188-1.476v-.002c-.057-1.994 1.313-3.058 2.842-3.25v.002c0-.002.332-.044.481-.044.272-.002.489.039.563.044v-.002c1.527.192 2.898 1.259 2.84 3.25v.002c-.039.836-.564 1.109-.188 1.476.259.255 1.1.072 1.219.065 1.768-.128 3.127 1.741 3.127 3.422v.003z" fill="#444247"/><path d="M522.518 126.437h-.024c-.149 0-.481.042-.481.044v-.002c-1.529.192-2.899 1.256-2.842 3.25v.002c.039.836.566 1.109.188 1.476-.26.255-1.097.074-1.219.065-1.77-.129-3.127 1.741-3.127 3.422v.003c0 2.343 2.105 3.652 4.158 3.349 1.063-.16 1.842-.811 2.477-1.595.599-.738.746-.262.664.222-.381 2.234-1.4 3.502-3.295 4.096-.188.062-.985.242-.257.242h3.758v-14.574z" fill="#57565A"/><path d="M498.599 183.745c0 2.343-2.105 3.654-4.159 3.349-1.06-.16-1.842-.811-2.474-1.595-.6-.738-.749-.263-.666.221.38 2.234 1.398 3.503 3.294 4.096.19.063.987.243.26.243h-7.55c-.729 0 .068-.18.257-.243 1.895-.593 2.913-1.862 3.295-4.096.081-.484-.066-.959-.664-.221-.636.784-1.416 1.435-2.477 1.595-2.053.304-4.158-1.006-4.158-3.349v-.003c0-1.681 1.357-3.552 3.127-3.423.121.01.959.191 1.219-.064.377-.368-.15-.64-.188-1.477v-.002c-.057-1.993 1.311-3.057 2.842-3.25v.002c0-.002.332-.044.48-.044.273-.003.489.039.564.044v-.002c1.527.193 2.898 1.26 2.839 3.25v.002c-.039.837-.564 1.109-.188 1.477.26.255 1.101.072 1.219.064 1.769-.129 3.128 1.742 3.128 3.423v.003z" fill="#444247"/><path d="M491.061 175.484h-.024c-.148 0-.48.042-.48.044v-.002c-1.531.193-2.899 1.257-2.842 3.25v.002c.038.837.565 1.109.188 1.477-.26.255-1.098.074-1.219.064-1.77-.129-3.127 1.742-3.127 3.423v.003c0 2.343 2.105 3.653 4.158 3.349 1.061-.16 1.841-.811 2.477-1.595.598-.738.745-.263.664.221-.382 2.234-1.4 3.503-3.295 4.096-.189.063-.986.243-.257.243h3.757v-14.575z" fill="#57565A"/><path d="M530.055 183.745c0 2.343-2.104 3.654-4.158 3.349-1.061-.16-1.842-.811-2.475-1.595-.599-.738-.748-.263-.666.221.381 2.234 1.399 3.503 3.295 4.096.189.063.987.243.26.243h-7.551c-.728 0 .069-.18.257-.243 1.895-.593 2.914-1.862 3.295-4.096.082-.484-.065-.959-.664-.221-.635.784-1.414 1.435-2.477 1.595-2.053.304-4.158-1.006-4.158-3.349v-.003c0-1.681 1.357-3.552 3.127-3.423.122.01.959.191 1.219-.064.378-.368-.149-.64-.188-1.477v-.002c-.057-1.993 1.313-3.057 2.842-3.25v.002c0-.002.332-.044.481-.044.272-.003.489.039.563.044v-.002c1.527.193 2.898 1.26 2.84 3.25v.002c-.039.837-.564 1.109-.188 1.477.259.255 1.1.072 1.219.064 1.768-.129 3.127 1.742 3.127 3.423v.003z" fill="#444247"/><path d="M522.518 175.484h-.024c-.149 0-.481.042-.481.044v-.002c-1.529.193-2.899 1.257-2.842 3.25v.002c.039.837.566 1.109.188 1.477-.26.255-1.097.074-1.219.064-1.77-.129-3.127 1.742-3.127 3.423v.003c0 2.343 2.105 3.653 4.158 3.349 1.063-.16 1.842-.811 2.477-1.595.599-.738.746-.263.664.221-.381 2.234-1.4 3.503-3.295 4.096-.188.063-.985.243-.257.243h3.758v-14.575z" fill="#57565A"/><path d="M530.105 193.329c0-1.214 1.089-1.893 2.153-1.734.549.082.954.419 1.281.825.311.383.389.136.346-.114-.197-1.158-.725-1.815-1.706-2.122-.099-.033-.512-.125-.135-.125h3.911c.376 0-.036.092-.134.125-.981.307-1.508.964-1.706 2.122-.043.25.034.497.344.114.329-.406.732-.743 1.282-.825 1.064-.158 2.155.52 2.155 1.734v.001c0 .871-.704 1.839-1.62 1.773-.063-.005-.498-.098-.632.034-.196.19.078.331.097.763v.002c.03 1.033-.679 1.583-1.471 1.684v-.001c0 .001-.172.022-.249.022-.142.001-.253-.02-.292-.022v.001c-.791-.101-1.501-.653-1.471-1.684v-.002c.02-.432.292-.573.098-.763-.135-.132-.571-.038-.631-.034-.917.066-1.62-.902-1.62-1.773v-.001z" fill="#444247"/><path d="M534.009 197.607h.012c.077 0 .249-.021.249-.022v.001c.792-.1 1.501-.651 1.471-1.684v-.002c-.019-.432-.293-.573-.097-.763.134-.132.569-.039.632-.034.916.066 1.62-.902 1.62-1.773v-.001c0-1.214-1.091-1.892-2.155-1.734-.55.082-.953.419-1.282.825-.31.383-.387.136-.344-.114.198-1.158.725-1.815 1.706-2.122.098-.033.51-.125.134-.125h-1.946v7.548z" fill="#57565A"/><path d="M483.571 123.167c0 1.213-1.089 1.893-2.154 1.734-.548-.083-.953-.42-1.281-.826-.311-.382-.388-.135-.345.115.197 1.158.725 1.814 1.706 2.122.099.032.512.125.135.125h-3.911c-.377 0 .036-.093.134-.125.981-.308 1.508-.964 1.706-2.122.043-.25-.034-.497-.344-.115-.329.406-.733.743-1.283.826-1.063.158-2.154-.521-2.154-1.734v-.002c0-.871.704-1.839 1.62-1.772.063.005.497.098.631-.034.197-.19-.077-.332-.097-.764v-.002c-.03-1.032.679-1.583 1.472-1.684v.002c0-.002.172-.023.249-.023.141-.001.253.02.291.023v-.002c.792.101 1.502.654 1.471 1.684v.002c-.019.432-.291.574-.097.764.134.132.571.038.631.034.917-.067 1.62.901 1.62 1.772v.002z" fill="#444247"/><path d="M479.667 118.888h-.012c-.077 0-.249.021-.249.023v-.002c-.793.1-1.502.652-1.472 1.684v.002c.02.432.294.574.097.764-.134.132-.568.039-.631.034-.916-.067-1.62.901-1.62 1.772v.002c0 1.213 1.091 1.892 2.154 1.734.55-.083.954-.42 1.283-.826.31-.382.387-.135.344.115-.198 1.158-.725 1.814-1.706 2.122-.098.032-.511.125-.134.125h1.946v-7.549z" fill="#57565A"/><path d="M481.606 109.78h-3.385l-.457 3.397c.261-.033.577-.066.99-.066 1.405 0 2.025.642 2.025 1.557.011.947-.773 1.535-1.665 1.535-.654 0-1.231-.218-1.524-.392l-.24.729c.348.218.991.436 1.764.436 1.534 0 2.634-1.035 2.634-2.417 0-.882-.457-1.502-1.012-1.807-.436-.272-.969-.381-1.524-.381-.262 0-.414.011-.577.033l.272-1.818h2.699v-.806zm50.463 96.936h3.386l.457-3.397a7.54 7.54 0 01-.991.066c-1.404 0-2.024-.643-2.024-1.557-.011-.947.773-1.535 1.665-1.535.653 0 1.23.218 1.524.392l.24-.729c-.349-.218-.991-.436-1.764-.436-1.535 0-2.634 1.034-2.634 2.417 0 .881.457 1.502 1.012 1.807.436.272.969.381 1.524.381.262 0 .414-.011.577-.033l-.272 1.818h-2.7v.806zm-17.693-48.025c0 2.343-2.104 3.655-4.159 3.349-1.06-.159-1.842-.81-2.475-1.595-.598-.738-.748-.262-.666.221.381 2.235 1.4 3.503 3.295 4.097.191.062.988.242.26.242h-7.55c-.728 0 .069-.18.256-.242 1.896-.594 2.914-1.862 3.295-4.097.082-.483-.065-.959-.663-.221-.636.785-1.415 1.436-2.477 1.595-2.052.303-4.159-1.006-4.159-3.349v-.002c0-1.682 1.358-3.552 3.127-3.423.122.009.96.19 1.221-.065.377-.368-.151-.639-.189-1.476v-.002c-.056-1.993 1.312-3.058 2.841-3.251v.003c0-.003.333-.044.482-.044.272-.002.488.038.563.044v-.003c1.527.193 2.898 1.26 2.839 3.251v.002c-.039.837-.564 1.108-.188 1.476.259.255 1.101.072 1.219.065 1.77-.129 3.128 1.741 3.128 3.423v.002z" fill="#444247"/><path d="M506.838 150.431h-.023c-.149 0-.482.041-.482.044v-.003c-1.529.193-2.897 1.258-2.841 3.251v.002c.038.837.566 1.108.189 1.476-.261.255-1.099.074-1.221.065-1.769-.129-3.127 1.741-3.127 3.423v.002c0 2.343 2.107 3.652 4.159 3.349 1.062-.16 1.841-.81 2.477-1.595.598-.738.745-.262.663.221-.381 2.235-1.399 3.503-3.295 4.097-.187.062-.984.242-.256.242h3.757v-14.574z" fill="#57565A"/></svg>