<svg xmlns="http://www.w3.org/2000/svg" style="isolation:isolate" viewBox="146.553 0 69.123 103.685" width="92.164" height="138.247"><path d="M215.676 100.963a2.722 2.722 0 01-2.721 2.722h-63.68a2.722 2.722 0 01-2.722-2.722V2.722A2.722 2.722 0 01149.275 0h63.68a2.72 2.72 0 012.721 2.722v98.241z" fill="#EAE8E8"/><path d="M156.177 10.45v-.795h-3.167v-.022l.555-.522c1.491-1.437 2.438-2.493 2.438-3.799 0-1.013-.642-2.058-2.166-2.058-.806 0-1.513.316-1.992.719l.305.675c.326-.272.86-.599 1.502-.599 1.056 0 1.393.664 1.393 1.382 0 1.067-.827 1.982-2.634 3.702l-.751.729v.588h4.517zm49.875 82.785v.795h3.167v.021l-.555.523c-1.491 1.437-2.438 2.493-2.438 3.799 0 1.012.642 2.057 2.166 2.057.805 0 1.513-.315 1.992-.718l-.305-.675c-.326.272-.86.599-1.502.599-1.056 0-1.393-.664-1.393-1.383 0-1.067.827-1.981 2.634-3.701l.751-.729v-.588h-4.517zm-1.713-6.312c0-1.214 1.089-1.893 2.153-1.734.549.083.954.419 1.282.826.31.382.388.135.345-.116-.197-1.157-.724-1.813-1.707-2.122-.097-.031-.511-.125-.134-.125h3.911c.377 0-.037.094-.133.125-.982.309-1.509.965-1.706 2.122-.043.251.033.498.343.116.33-.407.732-.743 1.283-.826 1.063-.158 2.154.52 2.154 1.734v.001c0 .871-.704 1.84-1.62 1.773-.063-.006-.497-.098-.632.034-.195.19.077.332.098.764v.001c.029 1.032-.68 1.584-1.472 1.684v-.001c0 .001-.172.022-.249.022-.142.002-.253-.019-.292-.022v.001c-.791-.1-1.501-.653-1.471-1.684v-.001c.021-.432.292-.574.098-.764-.135-.132-.57-.038-.632-.034-.916.067-1.619-.902-1.619-1.773v-.001z" fill="#444247"/><path d="M208.242 91.201h.013c.077 0 .249-.021.249-.022v.001c.792-.1 1.501-.652 1.472-1.684v-.001c-.021-.432-.293-.574-.098-.764.135-.132.569-.04.632-.034.916.067 1.62-.902 1.62-1.773v-.001c0-1.214-1.091-1.892-2.154-1.734-.551.083-.953.419-1.283.826-.31.382-.386.135-.343-.116.197-1.157.724-1.813 1.706-2.122.096-.031.51-.125.133-.125h-1.947v7.549z" fill="#57565A"/><path d="M157.806 16.761c0 1.214-1.09 1.892-2.155 1.734-.548-.083-.953-.42-1.281-.826-.31-.382-.387-.136-.344.115.197 1.157.724 1.814 1.706 2.122.098.032.511.125.134.125h-3.911c-.377 0 .036-.093.133-.125.982-.308 1.51-.965 1.707-2.122.043-.251-.033-.497-.344-.115-.329.406-.732.743-1.283.826-1.062.157-2.153-.52-2.153-1.734v-.001c0-.871.703-1.84 1.619-1.774.063.006.497.099.632-.033.195-.19-.077-.332-.098-.765-.029-1.033.68-1.584 1.473-1.684v.001c0-.001.172-.023.248-.023.141-.002.254.02.292.023v-.001c.792.1 1.502.652 1.47 1.684-.02.433-.292.575-.096.765.134.132.57.037.631.033.916-.066 1.62.903 1.62 1.774v.001z" fill="#444247"/><path d="M153.901 12.482h-.012c-.076 0-.248.022-.248.023v-.001c-.793.1-1.502.651-1.473 1.684.021.433.293.575.098.765-.135.132-.569.039-.632.033-.916-.066-1.619.903-1.619 1.774v.001c0 1.214 1.091 1.891 2.153 1.734.551-.083.954-.42 1.283-.826.311-.382.387-.136.344.115-.197 1.157-.725 1.814-1.707 2.122-.097.032-.51.125-.133.125h1.946v-7.549z" fill="#57565A"/><path d="M188.636 34.423c0 2.344-2.104 3.655-4.159 3.348-1.06-.159-1.841-.809-2.474-1.593-.6-.739-.748-.263-.666.22.381 2.235 1.398 3.503 3.294 4.097.19.062.988.242.26.242h-7.55c-.729 0 .069-.18.257-.242 1.895-.594 2.914-1.862 3.295-4.097.082-.483-.065-.959-.664-.22-.635.784-1.414 1.434-2.477 1.593-2.052.304-4.158-1.004-4.158-3.348v-.002c0-1.682 1.357-3.552 3.127-3.423.121.01.959.19 1.22-.065.376-.368-.15-.64-.189-1.476v-.002c-.057-1.993 1.313-3.058 2.842-3.251v.002c0-.002.332-.043.481-.043.272-.003.489.038.563.043v-.002c1.527.193 2.898 1.26 2.839 3.251v.002c-.038.836-.563 1.108-.188 1.476.26.255 1.101.073 1.219.065 1.769-.129 3.128 1.741 3.128 3.423v.002z" fill="#444247"/><path d="M181.098 26.163h-.023c-.149 0-.481.041-.481.043v-.002c-1.529.193-2.899 1.258-2.842 3.251v.002c.039.836.565 1.108.189 1.476-.261.255-1.099.075-1.22.065-1.77-.129-3.127 1.741-3.127 3.423v.002c0 2.344 2.106 3.652 4.158 3.348 1.063-.159 1.842-.809 2.477-1.593.599-.739.746-.263.664.22-.381 2.235-1.4 3.503-3.295 4.097-.188.062-.986.242-.257.242h3.757V26.163z" fill="#57565A"/><path d="M188.636 71.207c0 2.343-2.104 3.654-4.159 3.349-1.06-.159-1.841-.81-2.474-1.594-.6-.738-.748-.263-.666.221.381 2.234 1.398 3.503 3.294 4.096.19.062.988.242.26.242h-7.55c-.729 0 .069-.18.257-.242 1.895-.593 2.914-1.862 3.295-4.096.082-.484-.065-.959-.664-.221-.635.784-1.414 1.435-2.477 1.594-2.052.303-4.158-1.006-4.158-3.349v-.002c0-1.683 1.357-3.552 3.127-3.423.121.01.959.19 1.22-.064.376-.368-.15-.641-.189-1.477v-.002c-.057-1.993 1.313-3.057 2.842-3.251v.002c0-.002.332-.043.481-.043.272-.003.489.038.563.043v-.002c1.527.194 2.898 1.26 2.839 3.251v.002c-.038.836-.563 1.109-.188 1.477.26.254 1.101.072 1.219.064 1.769-.129 3.128 1.74 3.128 3.423v.002z" fill="#444247"/><path d="M181.098 62.947h-.023c-.149 0-.481.041-.481.043v-.002c-1.529.194-2.899 1.258-2.842 3.251v.002c.039.836.565 1.109.189 1.477-.261.254-1.099.074-1.22.064-1.77-.129-3.127 1.74-3.127 3.423v.002c0 2.343 2.106 3.652 4.158 3.349 1.063-.159 1.842-.811 2.477-1.594.599-.738.746-.263.664.221-.381 2.234-1.4 3.503-3.295 4.096-.188.062-.986.242-.257.242h3.757V62.947z" fill="#57565A"/></svg>