<svg xmlns="http://www.w3.org/2000/svg" style="isolation:isolate" viewBox="472.276 212.812 69.124 103.683" width="92.165" height="138.244"><path d="M541.4 313.774a2.722 2.722 0 01-2.722 2.721h-63.68a2.722 2.722 0 01-2.722-2.721v-98.242a2.72 2.72 0 012.722-2.72h63.68a2.72 2.72 0 012.722 2.72v98.242z" fill="#EAE8E8"/><path d="M498.599 241.103c0 2.342-2.105 3.654-4.159 3.348-1.06-.159-1.842-.809-2.474-1.594-.6-.738-.749-.262-.666.221.38 2.235 1.398 3.503 3.294 4.097.19.061.987.241.26.241h-7.55c-.729 0 .068-.18.257-.241 1.895-.594 2.913-1.862 3.295-4.097.081-.483-.066-.959-.664-.221-.636.785-1.416 1.435-2.477 1.594-2.053.304-4.158-1.006-4.158-3.348v-.002c0-1.683 1.357-3.552 3.127-3.423.121.01.959.189 1.219-.065.377-.368-.15-.64-.188-1.476v-.002c-.057-1.993 1.311-3.058 2.842-3.251v.002c0-.002.332-.043.48-.043.273-.003.489.038.564.043v-.002c1.527.193 2.898 1.26 2.839 3.251v.002c-.039.836-.564 1.108-.188 1.476.26.254 1.101.072 1.219.065 1.769-.129 3.128 1.74 3.128 3.423v.002z" fill="#444247"/><path d="M491.061 232.843h-.024c-.148 0-.48.041-.48.043v-.002c-1.531.193-2.899 1.258-2.842 3.251v.002c.038.836.565 1.108.188 1.476-.26.254-1.098.075-1.219.065-1.77-.129-3.127 1.74-3.127 3.423v.002c0 2.342 2.105 3.652 4.158 3.348 1.061-.159 1.841-.81 2.477-1.594.598-.738.745-.262.664.221-.382 2.235-1.4 3.503-3.295 4.097-.189.061-.986.241-.257.241h3.757v-14.573z" fill="#57565A"/><path d="M530.055 241.103c0 2.342-2.104 3.654-4.158 3.348-1.061-.159-1.842-.809-2.475-1.594-.599-.738-.748-.262-.666.221.381 2.235 1.399 3.503 3.295 4.097.189.061.987.241.26.241h-7.551c-.728 0 .069-.18.257-.241 1.895-.594 2.914-1.862 3.295-4.097.082-.483-.065-.959-.664-.221-.635.785-1.414 1.435-2.477 1.594-2.053.304-4.158-1.006-4.158-3.348v-.002c0-1.683 1.357-3.552 3.127-3.423.122.01.959.189 1.219-.065.378-.368-.149-.64-.188-1.476v-.002c-.057-1.993 1.313-3.058 2.842-3.251v.002c0-.002.332-.043.481-.043.272-.003.489.038.563.043v-.002c1.527.193 2.898 1.26 2.84 3.251v.002c-.039.836-.564 1.108-.188 1.476.259.254 1.1.072 1.219.065 1.768-.129 3.127 1.74 3.127 3.423v.002z" fill="#444247"/><path d="M522.518 232.843h-.024c-.149 0-.481.041-.481.043v-.002c-1.529.193-2.899 1.258-2.842 3.251v.002c.039.836.566 1.108.188 1.476-.26.254-1.097.075-1.219.065-1.77-.129-3.127 1.74-3.127 3.423v.002c0 2.342 2.105 3.652 4.158 3.348 1.063-.159 1.842-.81 2.477-1.594.599-.738.746-.262.664.221-.381 2.235-1.4 3.503-3.295 4.097-.188.061-.985.241-.257.241h3.758v-14.573z" fill="#57565A"/><path d="M498.599 265.627c0 2.343-2.105 3.654-4.159 3.349-1.06-.16-1.842-.811-2.474-1.595-.6-.738-.749-.263-.666.222.38 2.234 1.398 3.502 3.294 4.095.19.063.987.242.26.242h-7.55c-.729 0 .068-.179.257-.242 1.895-.593 2.913-1.861 3.295-4.095.081-.485-.066-.96-.664-.222-.636.784-1.416 1.435-2.477 1.595-2.053.302-4.158-1.006-4.158-3.349v-.003c0-1.682 1.357-3.552 3.127-3.423.121.01.959.191 1.219-.064.377-.367-.15-.64-.188-1.476v-.003c-.057-1.993 1.311-3.057 2.842-3.251v.003c0-.003.332-.044.48-.044.273-.002.489.039.564.044v-.003c1.527.194 2.898 1.261 2.839 3.251v.003c-.039.836-.564 1.109-.188 1.476.26.255 1.101.072 1.219.064 1.769-.129 3.128 1.741 3.128 3.423v.003z" fill="#444247"/><path d="M491.061 257.366h-.024c-.148 0-.48.041-.48.044v-.003c-1.531.194-2.899 1.258-2.842 3.251v.003c.038.836.565 1.109.188 1.476-.26.255-1.098.074-1.219.064-1.77-.129-3.127 1.741-3.127 3.423v.003c0 2.343 2.105 3.651 4.158 3.349 1.061-.161 1.841-.811 2.477-1.595.598-.738.745-.263.664.222-.382 2.234-1.4 3.502-3.295 4.095-.189.063-.986.242-.257.242h3.757v-14.574z" fill="#57565A"/><path d="M530.055 265.627c0 2.343-2.104 3.654-4.158 3.349-1.061-.16-1.842-.811-2.475-1.595-.599-.738-.748-.263-.666.222.381 2.234 1.399 3.502 3.295 4.095.189.063.987.242.26.242h-7.551c-.728 0 .069-.179.257-.242 1.895-.593 2.914-1.861 3.295-4.095.082-.485-.065-.96-.664-.222-.635.784-1.414 1.435-2.477 1.595-2.053.302-4.158-1.006-4.158-3.349v-.003c0-1.682 1.357-3.552 3.127-3.423.122.01.959.191 1.219-.064.378-.367-.149-.64-.188-1.476v-.003c-.057-1.993 1.313-3.057 2.842-3.251v.003c0-.003.332-.044.481-.044.272-.002.489.039.563.044v-.003c1.527.194 2.898 1.261 2.84 3.251v.003c-.039.836-.564 1.109-.188 1.476.259.255 1.1.072 1.219.064 1.768-.129 3.127 1.741 3.127 3.423v.003z" fill="#444247"/><path d="M522.518 257.366h-.024a4.45 4.45 0 00-.481.044v-.003c-1.529.194-2.899 1.258-2.842 3.251v.003c.039.836.566 1.109.188 1.476-.26.255-1.097.074-1.219.064-1.77-.129-3.127 1.741-3.127 3.423v.003c0 2.343 2.105 3.651 4.158 3.349 1.063-.161 1.842-.811 2.477-1.595.599-.738.746-.263.664.222-.381 2.234-1.4 3.502-3.295 4.095-.188.063-.985.242-.257.242h3.758v-14.574z" fill="#57565A"/><path d="M498.599 290.15c0 2.343-2.105 3.655-4.159 3.349-1.06-.159-1.842-.809-2.474-1.594-.6-.738-.749-.262-.666.221.38 2.234 1.398 3.502 3.294 4.097.19.061.987.241.26.241h-7.55c-.729 0 .068-.18.257-.241 1.895-.595 2.913-1.863 3.295-4.097.081-.483-.066-.959-.664-.221-.636.785-1.416 1.435-2.477 1.594-2.053.304-4.158-1.006-4.158-3.349v-.002c0-1.682 1.357-3.551 3.127-3.422.121.009.959.189 1.219-.065.377-.368-.15-.64-.188-1.476v-.002c-.057-1.993 1.311-3.058 2.842-3.251v.002c0-.002.332-.043.48-.043.273-.003.489.038.564.043v-.002c1.527.193 2.898 1.259 2.839 3.251v.002c-.039.836-.564 1.108-.188 1.476.26.254 1.101.071 1.219.065 1.769-.129 3.128 1.74 3.128 3.422v.002z" fill="#444247"/><path d="M491.061 281.891h-.024c-.148 0-.48.041-.48.043v-.002c-1.531.193-2.899 1.257-2.842 3.251v.002c.038.836.565 1.108.188 1.476-.26.254-1.098.074-1.219.065-1.77-.129-3.127 1.74-3.127 3.422v.002c0 2.343 2.105 3.653 4.158 3.349 1.061-.159 1.841-.81 2.477-1.594.598-.738.745-.262.664.221-.382 2.234-1.4 3.502-3.295 4.097-.189.061-.986.241-.257.241h3.757v-14.573z" fill="#57565A"/><path d="M530.055 290.15c0 2.343-2.104 3.655-4.158 3.349-1.061-.159-1.842-.809-2.475-1.594-.599-.738-.748-.262-.666.221.381 2.234 1.399 3.502 3.295 4.097.189.061.987.241.26.241h-7.551c-.728 0 .069-.18.257-.241 1.895-.595 2.914-1.863 3.295-4.097.082-.483-.065-.959-.664-.221-.635.785-1.414 1.435-2.477 1.594-2.053.304-4.158-1.006-4.158-3.349v-.002c0-1.682 1.357-3.551 3.127-3.422.122.009.959.189 1.219-.065.378-.368-.149-.64-.188-1.476v-.002c-.057-1.993 1.313-3.058 2.842-3.251v.002c0-.002.332-.043.481-.043.272-.003.489.038.563.043v-.002c1.527.193 2.898 1.259 2.84 3.251v.002c-.039.836-.564 1.108-.188 1.476.259.254 1.1.071 1.219.065 1.768-.129 3.127 1.74 3.127 3.422v.002z" fill="#444247"/><path d="M522.518 281.891h-.024c-.149 0-.481.041-.481.043v-.002c-1.529.193-2.899 1.257-2.842 3.251v.002c.039.836.566 1.108.188 1.476-.26.254-1.097.074-1.219.065-1.77-.129-3.127 1.74-3.127 3.422v.002c0 2.343 2.105 3.653 4.158 3.349 1.063-.159 1.842-.81 2.477-1.594.599-.738.746-.262.664.221-.381 2.234-1.4 3.502-3.295 4.097-.188.061-.985.241-.257.241h3.758v-14.573z" fill="#57565A"/><path d="M530.105 299.734c0-1.213 1.089-1.892 2.153-1.734.549.083.954.42 1.281.826.311.382.389.136.346-.114-.197-1.158-.725-1.814-1.706-2.122-.099-.032-.512-.126-.135-.126h3.911c.376 0-.036.094-.134.126-.981.308-1.508.964-1.706 2.122-.043.25.034.496.344.114.329-.406.732-.743 1.282-.826 1.064-.157 2.155.521 2.155 1.734v.001c0 .871-.704 1.84-1.62 1.774-.063-.006-.498-.099-.632.033-.196.19.078.332.097.765v.001c.03 1.032-.679 1.584-1.471 1.683v-.001c0 .001-.172.023-.249.023-.142.002-.253-.02-.292-.023v.001c-.791-.099-1.501-.652-1.471-1.683v-.001c.02-.433.292-.575.098-.765-.135-.132-.571-.037-.631-.033-.917.066-1.62-.903-1.62-1.774v-.001z" fill="#444247"/><path d="M534.009 304.013h.012c.077 0 .249-.022.249-.023v.001c.792-.099 1.501-.651 1.471-1.683v-.001c-.019-.433-.293-.575-.097-.765.134-.132.569-.039.632-.033.916.066 1.62-.903 1.62-1.774v-.001c0-1.213-1.091-1.891-2.155-1.734-.55.083-.953.42-1.282.826-.31.382-.387.136-.344-.114.198-1.158.725-1.814 1.706-2.122.098-.032.51-.126.134-.126h-1.946v7.549z" fill="#57565A"/><path d="M483.571 229.572c0 1.214-1.089 1.893-2.154 1.735-.548-.083-.953-.42-1.281-.826-.311-.382-.388-.136-.345.115.197 1.157.725 1.813 1.706 2.122.099.031.512.125.135.125h-3.911c-.377 0 .036-.094.134-.125.981-.309 1.508-.965 1.706-2.122.043-.251-.034-.497-.344-.115-.329.406-.733.743-1.283.826-1.063.157-2.154-.521-2.154-1.735v-.001c0-.871.704-1.84 1.62-1.773.063.006.497.099.631-.033.197-.191-.077-.332-.097-.765v-.001c-.03-1.032.679-1.584 1.472-1.684v.001c0-.001.172-.022.249-.022.141-.002.253.02.291.022v-.001c.792.1 1.502.653 1.471 1.684V227c-.019.433-.291.574-.097.765.134.132.571.037.631.033.917-.067 1.62.902 1.62 1.773v.001z" fill="#444247"/><path d="M479.667 225.294h-.012a2.54 2.54 0 00-.249.022v-.001c-.793.1-1.502.652-1.472 1.684V227c.02.433.294.574.097.765-.134.132-.568.039-.631.033-.916-.067-1.62.902-1.62 1.773v.001c0 1.214 1.091 1.892 2.154 1.735.55-.083.954-.42 1.283-.826.31-.382.387-.136.344.115-.198 1.157-.725 1.813-1.706 2.122-.098.031-.511.125-.134.125h1.946v-7.549z" fill="#57565A"/><path d="M477.513 216.185v.795h3.462v.022l-3.07 6.259h.991l3.08-6.444v-.632h-4.463zm36.846 36.01c0 2.343-2.104 3.655-4.159 3.349-1.059-.159-1.841-.81-2.474-1.594-.599-.738-.748-.262-.665.221.38 2.234 1.398 3.502 3.294 4.097.19.061.987.241.259.241h-7.55c-.728 0 .069-.18.256-.241 1.896-.595 2.914-1.863 3.295-4.097.082-.483-.064-.959-.663-.221-.635.784-1.415 1.435-2.476 1.594-2.053.304-4.159-1.006-4.159-3.349v-.002c0-1.682 1.357-3.551 3.126-3.422.123.009.96.189 1.22-.065.378-.368-.149-.641-.187-1.476v-.002c-.058-1.994 1.311-3.058 2.841-3.251v.002c0-.002.333-.043.481-.043.272-.003.488.038.563.043v-.002c1.528.193 2.898 1.259 2.839 3.251v.002c-.039.835-.563 1.108-.187 1.476.259.254 1.1.071 1.219.065 1.769-.129 3.127 1.74 3.127 3.422v.002z" fill="#444247"/><path d="M506.821 243.936h-.023a4.86 4.86 0 00-.481.043v-.002c-1.53.193-2.899 1.256-2.841 3.251v.002c.038.835.565 1.108.187 1.476-.26.254-1.097.074-1.22.065-1.769-.129-3.126 1.74-3.126 3.422v.002c0 2.343 2.106 3.653 4.159 3.349 1.061-.159 1.841-.811 2.476-1.594.599-.738.745-.262.663.221-.381 2.234-1.399 3.502-3.295 4.097-.187.061-.984.241-.256.241h3.757v-14.573z" fill="#57565A"/><path d="M536.162 313.121v-.795h-3.461v-.022l3.07-6.259h-.991l-3.081 6.444v.632h4.463z" fill="#444247"/></svg>