<svg xmlns="http://www.w3.org/2000/svg" style="isolation:isolate" viewBox="146.553 318.148 69.123 103.684" width="92.164" height="138.245"><path d="M215.676 419.111a2.72 2.72 0 01-2.721 2.721h-63.68a2.72 2.72 0 01-2.722-2.721v-98.242a2.722 2.722 0 012.722-2.721h63.68a2.72 2.72 0 012.721 2.721v98.242z" fill="#EAE8E8"/><path d="M172.875 346.44c0 2.342-2.103 3.654-4.158 3.348-1.061-.159-1.842-.81-2.475-1.595-.598-.738-.748-.262-.666.222.381 2.234 1.4 3.502 3.295 4.096.19.062.988.242.26.242h-7.551c-.727 0 .07-.18.257-.242 1.896-.594 2.914-1.862 3.295-4.096.082-.484-.065-.96-.664-.222-.635.785-1.414 1.436-2.476 1.595-2.052.304-4.159-1.006-4.159-3.348v-.003c0-1.682 1.358-3.551 3.127-3.423.122.01.96.19 1.22-.064.378-.368-.15-.64-.188-1.476v-.003c-.057-1.993 1.312-3.058 2.841-3.25v.002c0-.002.332-.043.482-.043.272-.003.488.038.562.043v-.002c1.528.192 2.899 1.26 2.84 3.25v.003c-.039.836-.564 1.108-.188 1.476.259.254 1.1.072 1.219.064 1.77-.128 3.127 1.741 3.127 3.423v.003z" fill="#444247"/><path d="M165.338 338.18h-.023c-.15 0-.482.041-.482.043v-.002c-1.529.192-2.898 1.257-2.841 3.25v.003c.038.836.566 1.108.188 1.476-.26.254-1.098.073-1.22.064-1.769-.129-3.127 1.741-3.127 3.423v.003c0 2.342 2.107 3.652 4.159 3.348 1.062-.159 1.841-.81 2.476-1.595.599-.738.746-.262.664.222-.381 2.234-1.399 3.502-3.295 4.096-.187.062-.984.242-.257.242h3.758V338.18z" fill="#57565A"/><path d="M204.332 346.44c0 2.342-2.104 3.654-4.159 3.348-1.06-.159-1.842-.81-2.474-1.595-.599-.738-.749-.262-.666.222.38 2.234 1.399 3.502 3.294 4.096.191.062.988.242.26.242h-7.55c-.728 0 .07-.18.257-.242 1.896-.594 2.913-1.862 3.295-4.096.081-.484-.065-.96-.664-.222-.636.785-1.414 1.436-2.477 1.595-2.052.304-4.158-1.006-4.158-3.348v-.003c0-1.682 1.358-3.551 3.127-3.423.121.01.959.19 1.22-.064.377-.368-.151-.64-.189-1.476v-.003c-.056-1.993 1.312-3.058 2.842-3.25v.002c0-.002.332-.043.481-.043.272-.003.489.038.563.043v-.002c1.527.192 2.899 1.26 2.839 3.25v.003c-.038.836-.564 1.108-.188 1.476.26.254 1.101.072 1.219.064 1.77-.128 3.128 1.741 3.128 3.423v.003z" fill="#444247"/><path d="M196.794 338.18h-.023c-.149 0-.481.041-.481.043v-.002c-1.53.192-2.898 1.257-2.842 3.25v.003c.038.836.566 1.108.189 1.476-.261.254-1.099.073-1.22.064-1.769-.129-3.127 1.741-3.127 3.423v.003c0 2.342 2.106 3.652 4.158 3.348 1.063-.159 1.841-.81 2.477-1.595.599-.738.745-.262.664.222-.382 2.234-1.399 3.502-3.295 4.096-.187.062-.985.242-.257.242h3.757V338.18z" fill="#57565A"/><path d="M172.875 370.964c0 2.343-2.103 3.654-4.158 3.348-1.061-.16-1.842-.81-2.475-1.594-.598-.738-.748-.263-.666.221.381 2.234 1.4 3.502 3.295 4.096.19.062.988.242.26.242h-7.551c-.727 0 .07-.18.257-.242 1.896-.594 2.914-1.862 3.295-4.096.082-.484-.065-.959-.664-.221-.635.784-1.414 1.434-2.476 1.594-2.052.303-4.159-1.005-4.159-3.348v-.003c0-1.682 1.358-3.552 3.127-3.423.122.01.96.191 1.22-.064.378-.368-.15-.641-.188-1.477v-.002c-.057-1.993 1.312-3.057 2.841-3.251v.002c0-.002.332-.043.482-.043.272-.003.488.038.562.043v-.002c1.528.194 2.899 1.26 2.84 3.251v.002c-.039.836-.564 1.109-.188 1.477.259.255 1.1.072 1.219.064 1.77-.129 3.127 1.741 3.127 3.423v.003z" fill="#444247"/><path d="M165.338 362.703h-.023c-.15 0-.482.041-.482.043v-.002c-1.529.194-2.898 1.258-2.841 3.251v.002c.038.836.566 1.109.188 1.477-.26.255-1.098.074-1.22.064-1.769-.129-3.127 1.741-3.127 3.423v.003c0 2.343 2.107 3.651 4.159 3.348 1.062-.16 1.841-.811 2.476-1.594.599-.738.746-.263.664.221-.381 2.234-1.399 3.502-3.295 4.096-.187.062-.984.242-.257.242h3.758v-14.574z" fill="#57565A"/><path d="M204.332 370.964c0 2.343-2.104 3.654-4.159 3.348-1.06-.16-1.842-.81-2.474-1.594-.599-.738-.749-.263-.666.221.38 2.234 1.399 3.502 3.294 4.096.191.062.988.242.26.242h-7.55c-.728 0 .07-.18.257-.242 1.896-.594 2.913-1.862 3.295-4.096.081-.484-.065-.959-.664-.221-.636.784-1.414 1.434-2.477 1.594-2.052.303-4.158-1.005-4.158-3.348v-.003c0-1.682 1.358-3.552 3.127-3.423.121.01.959.191 1.22-.064.377-.368-.151-.641-.189-1.477v-.002c-.056-1.993 1.312-3.057 2.842-3.251v.002c0-.002.332-.043.481-.043.272-.003.489.038.563.043v-.002c1.527.194 2.899 1.26 2.839 3.251v.002c-.038.836-.564 1.109-.188 1.477.26.255 1.101.072 1.219.064 1.77-.129 3.128 1.741 3.128 3.423v.003z" fill="#444247"/><path d="M196.794 362.703h-.023c-.149 0-.481.041-.481.043v-.002c-1.53.194-2.898 1.258-2.842 3.251v.002c.038.836.566 1.109.189 1.477-.261.255-1.099.074-1.22.064-1.769-.129-3.127 1.741-3.127 3.423v.003c0 2.343 2.106 3.651 4.158 3.348 1.063-.16 1.841-.811 2.477-1.594.599-.738.745-.263.664.221-.382 2.234-1.399 3.502-3.295 4.096-.187.062-.985.242-.257.242h3.757v-14.574z" fill="#57565A"/><path d="M172.875 395.488c0 2.342-2.103 3.654-4.158 3.348-1.061-.159-1.842-.809-2.475-1.594-.598-.739-.748-.264-.666.22.381 2.235 1.4 3.502 3.295 4.096.19.063.988.242.26.242h-7.551c-.727 0 .07-.179.257-.242 1.896-.594 2.914-1.861 3.295-4.096.082-.484-.065-.959-.664-.22-.635.785-1.414 1.435-2.476 1.594-2.052.304-4.159-1.006-4.159-3.348v-.004c0-1.682 1.358-3.551 3.127-3.422.122.01.96.19 1.22-.064.378-.368-.15-.641-.188-1.477v-.002c-.057-1.992 1.312-3.058 2.841-3.25v.002c0-.002.332-.045.482-.045.272-.002.488.039.562.045v-.002c1.528.192 2.899 1.26 2.84 3.25v.002c-.039.836-.564 1.109-.188 1.477.259.254 1.1.072 1.219.064 1.77-.129 3.127 1.74 3.127 3.422v.004z" fill="#444247"/><path d="M165.338 387.226h-.023c-.15 0-.482.043-.482.045v-.002c-1.529.192-2.898 1.256-2.841 3.25v.002c.038.836.566 1.109.188 1.477-.26.254-1.098.074-1.22.064-1.769-.129-3.127 1.74-3.127 3.422v.004c0 2.342 2.107 3.652 4.159 3.348 1.062-.159 1.841-.811 2.476-1.594.599-.739.746-.264.664.22-.381 2.235-1.399 3.502-3.295 4.096-.187.063-.984.242-.257.242h3.758v-14.574z" fill="#57565A"/><path d="M204.332 395.488c0 2.342-2.104 3.654-4.159 3.348-1.06-.159-1.842-.809-2.474-1.594-.599-.739-.749-.264-.666.22.38 2.235 1.399 3.502 3.294 4.096.191.063.988.242.26.242h-7.55c-.728 0 .07-.179.257-.242 1.896-.594 2.913-1.861 3.295-4.096.081-.484-.065-.959-.664-.22-.636.785-1.414 1.435-2.477 1.594-2.052.304-4.158-1.006-4.158-3.348v-.004c0-1.682 1.358-3.551 3.127-3.422.121.01.959.19 1.22-.064.377-.368-.151-.641-.189-1.477v-.002c-.056-1.992 1.312-3.058 2.842-3.25v.002c0-.002.332-.045.481-.045.272-.002.489.039.563.045v-.002c1.527.192 2.899 1.26 2.839 3.25v.002c-.038.836-.564 1.109-.188 1.477.26.254 1.101.072 1.219.064 1.77-.129 3.128 1.74 3.128 3.422v.004z" fill="#444247"/><path d="M196.794 387.226h-.023c-.149 0-.481.043-.481.045v-.002c-1.53.192-2.898 1.256-2.842 3.25v.002c.038.836.566 1.109.189 1.477-.261.254-1.099.074-1.22.064-1.769-.129-3.127 1.74-3.127 3.422v.004c0 2.342 2.106 3.652 4.158 3.348 1.063-.159 1.841-.811 2.477-1.594.599-.739.745-.264.664.22-.382 2.235-1.399 3.502-3.295 4.096-.187.063-.985.242-.257.242h3.757v-14.574z" fill="#57565A"/><path d="M204.381 405.072c0-1.215 1.09-1.893 2.154-1.735.549.082.954.418 1.282.827.31.38.387.134.345-.116-.197-1.158-.725-1.814-1.707-2.123-.098-.031-.511-.125-.135-.125h3.912c.377 0-.037.094-.133.125-.983.309-1.51.965-1.707 2.123-.042.25.034.496.344.116.33-.409.732-.745 1.283-.827 1.063-.158 2.154.52 2.154 1.735 0 .871-.704 1.84-1.62 1.773-.063-.006-.497-.097-.632.033-.195.192.077.333.098.766.029 1.033-.68 1.584-1.472 1.684 0 0-.172.021-.249.021-.142.002-.253-.019-.292-.021-.791-.1-1.501-.653-1.471-1.684.02-.433.292-.574.097-.766-.134-.13-.569-.037-.631-.033-.917.067-1.62-.902-1.62-1.773z" fill="#444247"/><path d="M208.285 409.349h.013c.077 0 .249-.021.249-.021.792-.1 1.501-.651 1.472-1.684-.021-.433-.293-.574-.098-.766.135-.13.569-.039.632-.033.916.067 1.62-.902 1.62-1.773 0-1.215-1.091-1.893-2.154-1.735-.551.082-.953.418-1.283.827-.31.38-.386.134-.344-.116.197-1.158.724-1.814 1.707-2.123.096-.031.51-.125.133-.125h-1.947v7.549z" fill="#57565A"/><path d="M157.848 334.909c0 1.213-1.089 1.893-2.154 1.735-.548-.083-.953-.42-1.281-.827-.31-.381-.387-.135-.346.115.198 1.158.725 1.814 1.708 2.122.098.032.511.126.134.126h-3.911c-.377 0 .036-.094.133-.126.981-.308 1.51-.964 1.707-2.122.042-.25-.033-.496-.344-.115-.329.407-.732.744-1.283.827-1.062.157-2.154-.522-2.154-1.735v-.001c0-.872.703-1.84 1.62-1.773.063.006.497.098.632-.033.195-.191-.078-.332-.098-.765v-.002c-.029-1.031.68-1.583 1.472-1.684v.002c0-.002.173-.023.249-.023.141-.001.254.02.292.023v-.002c.791.101 1.502.654 1.47 1.684v.002c-.02.433-.292.574-.097.765.135.131.57.037.632.033.916-.067 1.619.901 1.619 1.773v.001z" fill="#444247"/><path d="M153.944 330.63h-.012c-.076 0-.249.021-.249.023v-.002c-.792.101-1.501.653-1.472 1.684v.002c.02.433.293.574.098.765-.135.131-.569.039-.632.033-.917-.067-1.62.901-1.62 1.773v.001c0 1.213 1.092 1.892 2.154 1.735.551-.083.954-.42 1.283-.827.311-.381.386-.135.344.115-.197 1.158-.726 1.814-1.707 2.122-.097.032-.51.126-.133.126h1.946v-7.55z" fill="#57565A"/><path d="M152.977 324.908c-.871.37-1.404 1.012-1.404 1.905 0 1.034.892 1.905 2.373 1.905 1.35 0 2.405-.817 2.405-2.058 0-.849-.544-1.48-1.426-1.829v-.032c.871-.403 1.176-1.056 1.176-1.655 0-.892-.697-1.742-2.068-1.742-1.252 0-2.199.762-2.199 1.884 0 .609.337 1.219 1.132 1.589l.011.033zm.99 3.113c-.903 0-1.447-.631-1.415-1.339 0-.675.447-1.23 1.274-1.47.958.273 1.557.697 1.557 1.546 0 .73-.556 1.263-1.416 1.263zm.011-5.933c.86 0 1.198.588 1.198 1.154 0 .642-.468 1.078-1.078 1.285-.816-.218-1.361-.599-1.35-1.307 0-.609.436-1.132 1.23-1.132zm55.274 92.984c.871-.37 1.404-1.012 1.404-1.905 0-1.034-.892-1.905-2.373-1.905-1.35 0-2.406.817-2.406 2.058 0 .849.545 1.48 1.426 1.828v.033c-.87.403-1.175 1.056-1.175 1.655 0 .892.696 1.741 2.068 1.741 1.252 0 2.199-.762 2.199-1.883 0-.61-.338-1.219-1.132-1.589l-.011-.033zm-.991-3.113c.904 0 1.448.631 1.415 1.339 0 .675-.446 1.23-1.273 1.469-.958-.272-1.557-.696-1.557-1.545 0-.73.555-1.263 1.415-1.263zm-.011 5.932c-.86 0-1.197-.587-1.197-1.153 0-.643.468-1.078 1.078-1.285.816.218 1.36.599 1.349 1.306 0 .61-.435 1.132-1.23 1.132zm-19.614-60.359c0 2.343-2.104 3.655-4.159 3.349-1.06-.159-1.841-.81-2.474-1.595-.6-.738-.748-.263-.666.222.381 2.234 1.398 3.502 3.294 4.096.19.062.988.242.26.242h-7.55c-.729 0 .069-.18.257-.242 1.895-.594 2.914-1.862 3.295-4.096.082-.485-.065-.96-.664-.222-.635.785-1.414 1.436-2.477 1.595-2.052.304-4.158-1.006-4.158-3.349v-.003c0-1.681 1.357-3.551 3.127-3.423.121.01.959.191 1.22-.064.376-.367-.15-.64-.189-1.476v-.002c-.057-1.993 1.313-3.058 2.842-3.25v.001c0-.001.332-.043.481-.043.272-.002.489.039.563.043v-.001c1.527.192 2.898 1.259 2.839 3.25v.002c-.038.836-.563 1.109-.188 1.476.26.255 1.101.072 1.219.064 1.769-.128 3.128 1.742 3.128 3.423v.003z" fill="#444247"/><path d="M181.098 349.272h-.023c-.149 0-.481.042-.481.043v-.001c-1.529.192-2.899 1.256-2.842 3.25v.002c.039.836.565 1.109.189 1.476-.261.255-1.099.074-1.22.064-1.77-.128-3.127 1.742-3.127 3.423v.003c0 2.343 2.106 3.653 4.158 3.349 1.063-.159 1.842-.811 2.477-1.595.599-.738.746-.263.664.222-.381 2.234-1.4 3.502-3.295 4.096-.188.062-.986.242-.257.242h3.757v-14.574z" fill="#57565A"/><path d="M188.636 383.564c0 2.344-2.104 3.654-4.159 3.35-1.06-.161-1.841-.811-2.474-1.596-.6-.738-.748-.262-.666.221.381 2.234 1.398 3.504 3.294 4.097.19.063.988.242.26.242h-7.55c-.729 0 .069-.179.257-.242 1.895-.593 2.914-1.863 3.295-4.097.082-.483-.065-.959-.664-.221-.635.785-1.414 1.435-2.477 1.596-2.052.302-4.158-1.006-4.158-3.35v-.002c0-1.682 1.357-3.553 3.127-3.424.121.01.959.192 1.22-.064.376-.367-.15-.639-.189-1.475v-.004c-.057-1.992 1.313-3.056 2.842-3.25v.002c0-.002.332-.043.481-.043.272-.004.489.037.563.043v-.002c1.527.194 2.898 1.26 2.839 3.25v.004c-.038.836-.563 1.108-.188 1.475.26.256 1.101.072 1.219.064 1.769-.129 3.128 1.742 3.128 3.424v.002z" fill="#444247"/><path d="M181.098 375.304h-.023c-.149 0-.481.041-.481.043v-.002c-1.529.194-2.899 1.258-2.842 3.25v.004c.039.836.565 1.108.189 1.475-.261.256-1.099.074-1.22.064-1.77-.129-3.127 1.742-3.127 3.424v.002c0 2.344 2.106 3.652 4.158 3.35 1.063-.161 1.842-.811 2.477-1.596.599-.738.746-.262.664.221-.381 2.234-1.4 3.504-3.295 4.097-.188.063-.986.242-.257.242h3.757v-14.574z" fill="#57565A"/></svg>