<svg xmlns="http://www.w3.org/2000/svg" style="isolation:isolate" viewBox="472.276 530.132 69.124 103.686" width="92.165" height="138.248"><path d="M541.4 631.095a2.723 2.723 0 01-2.722 2.723h-63.681a2.722 2.722 0 01-2.721-2.723v-98.24a2.722 2.722 0 012.721-2.723h63.681a2.723 2.723 0 012.722 2.723v98.24z" fill="#EAE8E8"/><path d="M477.562 540.583h.947v-2.798l.708-.805 2.406 3.603h1.121l-2.863-4.224 2.656-3.113h-1.176L479.119 536c-.185.24-.381.501-.577.784h-.033v-3.538h-.947v7.337zm58.552 82.784h-.947v2.797l-.708.806-2.406-3.603h-1.121l2.863 4.223-2.656 3.114h1.176l2.242-2.754c.185-.24.381-.501.577-.784h.033v3.538h.947v-7.337zm-6.053-6.311c0-1.215 1.09-1.892 2.154-1.734.549.082.954.42 1.281.826.311.381.388.135.346-.115-.197-1.158-.726-1.815-1.707-2.121-.099-.034-.511-.125-.134-.125h3.91c.377 0-.036.091-.133.125-.982.306-1.509.963-1.707 2.121-.042.25.035.496.345.115.329-.406.732-.744 1.282-.826 1.064-.158 2.155.519 2.155 1.734v.002c0 .871-.704 1.838-1.62 1.772-.063-.006-.498-.098-.632.033-.196.191.077.332.097.765.03 1.034-.679 1.584-1.471 1.686v-.002c0 .002-.172.024-.249.024-.142 0-.253-.022-.292-.024v.002c-.791-.102-1.501-.654-1.471-1.686.02-.433.292-.574.097-.765-.134-.131-.57-.037-.631-.033-.916.066-1.62-.901-1.62-1.772v-.002z" fill="#444247"/><path d="M533.965 621.336h.013c.077 0 .249-.022.249-.024v.002c.792-.102 1.501-.652 1.471-1.686-.02-.433-.293-.574-.097-.765.134-.131.569-.039.632-.033.916.066 1.62-.901 1.62-1.772v-.002c0-1.215-1.091-1.892-2.155-1.734-.55.082-.953.42-1.282.826-.31.381-.387.135-.345-.115.198-1.158.725-1.815 1.707-2.121.097-.034.51-.125.133-.125h-1.946v7.549z" fill="#57565A"/><path d="M483.528 546.894c0 1.213-1.089 1.893-2.154 1.734-.549-.082-.953-.419-1.281-.826-.311-.383-.388-.134-.345.116.197 1.156.724 1.814 1.706 2.121.099.031.512.125.135.125h-3.911c-.377 0 .036-.094.133-.125.982-.307 1.509-.965 1.707-2.121.042-.25-.034-.499-.344-.116-.329.407-.732.744-1.283.826-1.063.157-2.154-.521-2.154-1.734v-.002c0-.871.704-1.84 1.62-1.773.063.006.497.099.631-.033.196-.19-.077-.333-.097-.764v-.002c-.03-1.031.679-1.584 1.472-1.684v.002c0-.002.172-.023.248-.023.142 0 .254.019.292.023v-.002c.792.1 1.502.653 1.471 1.684v.002c-.019.431-.292.574-.097.764.134.132.571.039.631.033.917-.067 1.62.902 1.62 1.773v.002z" fill="#444247"/><path d="M479.624 542.615h-.013c-.076 0-.248.021-.248.023v-.002c-.793.1-1.502.653-1.472 1.684v.002c.02.431.293.574.097.764-.134.132-.568.039-.631.033-.916-.067-1.62.902-1.62 1.773v.002c0 1.213 1.091 1.891 2.154 1.734.551-.082.954-.419 1.283-.826.31-.383.386-.134.344.116-.198 1.156-.725 1.814-1.707 2.121-.097.031-.51.125-.133.125h1.946v-7.549z" fill="#57565A"/><path d="M523.753 605.541s4.054-1.467 7.827-5.563v-5.017h-7.827v10.58zm7.827-13.075v-28.154s-3.539-4.512-10.641-5.18c0 0-.132 28.518 10.641 33.334z" fill="#444247"/><path d="M510.802 560.679h-3.622v6.649h3.622v-6.649zm7.262-2.295h-3.622v6.649h3.622v-6.649z" fill="#302C32"/><path d="M507.152 558.039h-3.621v6.648h3.621v-6.648zm7.272 2.168h-3.622v6.648h3.622v-6.648z" fill="#A64045"/><path d="M503.646 556.035h-3.623v6.648h3.623v-6.648z" fill="#302C32"/><path d="M499.996 555.902h-3.623v4.139h3.623v-4.139z" fill="#A64045"/><path d="M521.908 559.24s-1.267 18.625 9.672 33.226l-.02 1.94s-6.439-3.028-10.102-15.789c-3.663-12.76-2.003-19.377-2.003-19.377h2.453z" fill="#302C32"/><path d="M520.235 559.656s-.335 12.256 2.689 19.601c3.025 7.344 5.131 12.352 8.656 15.118v5.603s-9.938-9.609-13.197-20.434c-3.259-10.826-2.65-20.292-2.65-20.292l4.502.404z" fill="#EAE8E8"/><path d="M520.419 559.332c0 .459-.933.832-2.083.832-1.151 0-2.083-.373-2.083-.832 0-.461.932-.834 2.083-.834 1.15 0 2.083.373 2.083.834zm-.154 1.83c.023.451-.868.863-1.994.922-1.125.06-2.057-.258-2.08-.707-.025-.45.869-.862 1.995-.922 1.124-.059 2.055.257 2.079.707zm-.031 2.107c.046.44-.807.893-1.907 1.01-1.099.119-2.03-.141-2.077-.58-.048-.442.806-.893 1.905-1.012 1.1-.117 2.031.143 2.079.582zm.095 2.338c.072.43-.743.922-1.818 1.1-1.074.177-2.003-.026-2.074-.455-.072-.43.742-.922 1.818-1.1 1.074-.178 2.003.025 2.074.455zm.229 2.527c.094.42-.68.952-1.729 1.188-1.05.236-1.977.09-2.071-.33-.095-.418.679-.951 1.727-1.188 1.051-.238 1.979-.09 2.073.33zm.368 2.672c.119.408-.615.981-1.641 1.278-1.023.294-1.95.205-2.068-.206-.118-.41.616-.98 1.64-1.277 1.024-.297 1.951-.205 2.069.205zm.513 2.774c.142.398-.552 1.009-1.551 1.365-.999.355-1.924.32-2.066-.078-.142-.401.552-1.012 1.551-1.367.999-.356 1.925-.321 2.066.08zm.665 2.83c.165.388-.49 1.041-1.463 1.455-.974.416-1.899.437-2.064.047-.166-.389.49-1.039 1.463-1.455.974-.414 1.899-.436 2.064-.047zm.82 2.847c.19.379-.426 1.071-1.374 1.543-.949.475-1.871.553-2.061.174-.189-.379.426-1.07 1.375-1.545.949-.474 1.871-.551 2.06-.172zm.983 2.817c.213.369-.363 1.101-1.286 1.635-.924.533-1.845.666-2.057.296-.213-.367.363-1.099 1.285-1.632.924-.534 1.845-.666 2.058-.299zm1.152 2.748c.236.357-.299 1.129-1.198 1.722-.898.592-1.818.782-2.054.422-.238-.357.299-1.129 1.196-1.722.898-.592 1.818-.782 2.056-.422zm1.325 2.631c.26.347-.236 1.16-1.109 1.81-.874.653-1.792.899-2.053.551-.26-.35.236-1.162 1.109-1.812.873-.653 1.792-.899 2.053-.549zm1.504 2.472c.283.338-.172 1.19-1.02 1.901-.848.711-1.765 1.013-2.05.674-.284-.338.173-1.19 1.021-1.901.848-.711 1.765-1.013 2.049-.674zm1.69 2.27c.308.328-.109 1.221-.932 1.99-.822.772-1.739 1.129-2.045.801-.309-.328.108-1.221.93-1.99.824-.77 1.74-1.129 2.047-.801zm1.881 2.025c.332.319-.045 1.25-.843 2.08-.797.83-1.712 1.244-2.044.926-.331-.318.047-1.25.844-2.08.798-.83 1.712-1.244 2.043-.926z" fill="#A64045"/><path d="M510.557 575.539H504.8v-6.371h5.757v6.371z" fill="#495DA7"/><path d="M505.048 575.269h5.509v5.777l-5.509-5.777zm-.199-.49h5.806v-4.729h-5.806v4.729zm0-5.145h5.708v-1.545l-5.708-3.453v4.998z" fill="#B7975B"/><path d="M511.67 581.597l-.222-13.404 4.725-2.67s.929 11.102 2.051 13.094c1.122 1.996-6.554 2.98-6.554 2.98z" fill="#444247"/><path d="M511.752 581.638l-1.403-.695v-13.719h1.403v14.414z" fill="#DAE2F2"/><path d="M512.204 582.164l-1.402-.698V567.75h1.402v14.414z" fill="#302C32"/><path d="M521.383 586.814c-.476-1.199-1.282-2.312-1.878-3.459-.97-1.869-1.662-3.848-1.979-5.908l-.086-.002a6.892 6.892 0 00-6.4 4.34c.215.244.425.494.693.72.482.407 1.05.727 1.553 1.112 1.221.935 2.156 2.226 3.521 2.961 1.03.554 2.125.937 3.22 1.336.471.17.948.341 1.437.455.148-.024.296-.043.444-.065-.18-.502-.336-1.013-.525-1.49z" fill="#302C32"/><path d="M521.383 586.814c-.476-1.199-1.282-2.312-1.878-3.459-.884-1.705-1.537-3.5-1.887-5.365a6.351 6.351 0 00-6.17 4.246c.089.092.182.182.285.269.482.407 1.05.727 1.553 1.112 1.221.935 2.156 2.226 3.521 2.961 1.03.554 2.125.937 3.22 1.336.471.17.948.341 1.437.455.148-.024.297-.043.444-.065-.18-.502-.336-1.013-.525-1.49z" fill="#B7975B"/><path d="M519.505 583.355a21.067 21.067 0 01-1.024-2.299 3.435 3.435 0 00-4.474 3.172c.9.83 1.713 1.766 2.8 2.35.654.351 1.336.634 2.027.896a3.44 3.44 0 001.864-2.047c-.395-.695-.833-1.379-1.193-2.072z" fill="#495DA7"/><path d="M498.013 570.773l5.636 3.252.286-10.494-5.922-3.262v10.504z" fill="#444247"/><path d="M505.048 574.625h-1.402v-10.622h1.402v10.622z" fill="#DAE2F2"/><path d="M492.65 557.078s2.425-1.362 4.926-1.713l.302 15.217s-3.838-1.424-5.562-1.358l.334-12.146z" fill="#B9C8E6"/><path d="M492.65 557.078l-.874.332v11.709h.874v-12.041z" fill="#756262"/><path d="M491.776 557.41s-1.293.539-1.854.968v10.581h1.854V557.41z" fill="#302C32"/><path d="M489.922 558.378s-4.054 1.467-7.827 5.563v5.018h7.827v-10.581z" fill="#444247"/><path d="M504.527 574.152h-1.403v-10.621h1.403v10.621z" fill="#302C32"/><path d="M498.449 555.365h-.873v14.928h.873v-14.928z" fill="#756262"/><path d="M520.767 588.556c-.527 0-1.213-.103-2.075-.429-2.853-1.083-6.342-4.059-10.371-8.85-4.851-5.768-9.62-8.061-12.766-8.969-3.404-.982-7.272-.799-7.295-.795l-.166-.939c.099-.018 4.063-.227 7.662.801 3.29.937 8.267 3.31 13.296 9.289 9.049 10.759 12.499 8.802 12.532 8.781l.539.785c-.069.049-.501.326-1.356.326z" fill="#A47953"/><path d="M498.449 559.666s11.662 7.605 12.763 7.605c1.101 0 4.405-2.314 4.405-2.314v1.345s-3.984 2.657-4.503 2.657c-.517 0-12.665-7.872-12.665-7.872v-1.421z" fill="#DAE2F2"/><path d="M499.753 556.021s9.856 7.246 11.254 7.246c1.398 0 5.455-3.623 5.455-3.623l-16.709-3.623z" fill="#B7975B"/><path d="M498.449 558.742s11.662 7.736 12.763 7.736c1.101 0 4.405-2.607 4.405-2.607v1.302s-3.984 2.577-4.503 2.577c-.517 0-12.665-7.631-12.665-7.631v-1.377z" fill="#B7975B"/><path d="M515.299 560.179s-.027 12.305 2.851 20.422c2.877 8.115 10.123 19.529 12.253 20.567l1.177-1.19s-5.098-4.203-12.394-19.975c-1.899-7.806-1.964-4.431-2.882-20.337-.917-15.907-1.005.513-1.005.513z" fill="#A47953"/><path d="M482.095 571.453v28.154s3.54 4.512 10.641 5.18c0 0 .132-28.518-10.641-33.334z" fill="#444247"/><path d="M502.873 603.24h3.622v-6.649h-3.622v6.649zm-7.262 2.295h3.623v-6.649h-3.623v6.649z" fill="#302C32"/><path d="M506.523 605.88h3.622v-6.648h-3.622v6.648zm-7.272-2.168h3.622v-6.648h-3.622v6.648z" fill="#A64045"/><path d="M510.029 607.884h3.623v-6.648h-3.623v6.648z" fill="#302C32"/><path d="M513.679 608.017h3.623v-4.14h-3.623v4.14z" fill="#A64045"/><path d="M491.767 604.679s1.268-18.627-9.672-33.226c.014-1.287.019-1.94.019-1.94s6.44 3.028 10.103 15.787c3.664 12.762 2.003 19.379 2.003 19.379h-2.453z" fill="#302C32"/><path d="M493.441 604.263s.335-12.256-2.69-19.599c-3.024-7.346-5.131-12.354-8.656-15.12v-5.603s5.439 1.105 13.197 20.436c3.259 10.824 2.65 20.291 2.65 20.291l-4.501-.405z" fill="#EAE8E8"/><path d="M493.257 604.587c0-.459.932-.832 2.082-.832 1.151 0 2.084.373 2.084.832 0 .461-.933.832-2.084.832-1.15 0-2.082-.371-2.082-.832zm.153-1.83c-.023-.451.869-.863 1.994-.921 1.126-.059 2.057.257 2.081.707.024.449-.87.861-1.995.919-1.125.061-2.056-.255-2.08-.705zm.032-2.107c-.048-.439.806-.891 1.906-1.01 1.099-.119 2.03.141 2.078.58.047.44-.807.893-1.906 1.012-1.101.119-2.031-.143-2.078-.582zm-.096-2.338c-.07-.43.743-.922 1.818-1.1 1.074-.177 2.004.026 2.075.456.07.429-.743.921-1.818 1.099-1.075.178-2.004-.025-2.075-.455zm-.229-2.527c-.093-.42.68-.951 1.729-1.188 1.05-.238 1.977-.09 2.071.33.096.42-.678.951-1.727 1.188-1.05.238-1.978.09-2.073-.33zm-.368-2.672c-.118-.408.615-.981 1.64-1.277 1.024-.295 1.952-.204 2.069.205.119.41-.616.98-1.64 1.277-1.024.297-1.95.205-2.069-.205zm-.514-2.772c-.141-.4.553-1.011 1.552-1.367.999-.355 1.924-.32 2.067.078.141.401-.553 1.012-1.551 1.367-1 .356-1.925.321-2.068-.078zm-.664-2.832c-.165-.388.49-1.041 1.464-1.457.973-.414 1.898-.433 2.063-.047.166.391-.489 1.041-1.463 1.457-.974.415-1.899.436-2.064.047zm-.82-2.845c-.189-.381.426-1.073 1.375-1.547.948-.473 1.87-.551 2.06-.172.189.379-.426 1.072-1.375 1.545-.949.474-1.87.551-2.06.174zm-.983-2.821c-.213-.367.363-1.099 1.287-1.632.922-.534 1.844-.667 2.056-.297.213.369-.363 1.099-1.286 1.632-.923.534-1.843.668-2.057.297zm-1.152-2.744c-.236-.359.3-1.131 1.199-1.724.897-.592 1.817-.782 2.053-.422.238.359-.299 1.129-1.197 1.722-.897.592-1.817.782-2.055.424zm-1.324-2.633c-.261-.347.236-1.16 1.109-1.812.873-.651 1.791-.897 2.051-.547.261.348-.236 1.158-1.108 1.811-.872.652-1.792.898-2.052.548zm-1.505-2.472c-.284-.338.173-1.19 1.02-1.901.848-.711 1.765-1.013 2.05-.674.284.338-.173 1.19-1.021 1.901-.848.711-1.765 1.014-2.049.674zm-1.69-2.27c-.308-.33.109-1.221.931-1.99.823-.772 1.739-1.129 2.047-.801.307.33-.11 1.221-.931 1.99-.823.77-1.74 1.129-2.047.801zm-1.881-2.025c-.332-.321.046-1.25.843-2.08.797-.83 1.711-1.244 2.044-.926.331.318-.047 1.25-.844 2.08-.797.828-1.712 1.242-2.043.926z" fill="#A64045"/><path d="M503.118 588.38h5.757v6.372h-5.757v-6.372z" fill="#495DA7"/><path d="M508.627 588.65h-5.509v-5.777l5.509 5.777zm.199.49h-5.806v4.729h5.806v-4.729zm0 5.145h-5.708v1.543l5.708 3.455v-4.998z" fill="#B7975B"/><path d="M502.005 582.322l.222 13.404-4.725 2.67s-.928-11.102-2.051-13.096c-1.122-1.992 6.554-2.978 6.554-2.978z" fill="#444247"/><path d="M501.923 582.281l1.404.695v13.719h-1.404v-14.414z" fill="#DAE2F2"/><path d="M501.47 581.755l1.403.696v13.72h-1.403v-14.416z" fill="#302C32"/><path d="M492.292 577.105c.477 1.199 1.282 2.313 1.878 3.461.97 1.867 1.662 3.846 1.979 5.906l.086.002a6.89 6.89 0 006.4-4.34c-.215-.244-.425-.494-.693-.72-.482-.407-1.05-.727-1.553-1.112-1.221-.935-2.155-2.226-3.521-2.961-1.029-.552-2.124-.937-3.22-1.336-.471-.169-.948-.341-1.437-.455a16.96 16.96 0 01-.444.065c.18.502.336 1.013.525 1.49z" fill="#302C32"/><path d="M492.292 577.105c.477 1.199 1.282 2.313 1.878 3.461.884 1.703 1.537 3.498 1.887 5.363a6.35 6.35 0 006.17-4.246 4.328 4.328 0 00-.285-.269c-.482-.407-1.05-.727-1.553-1.112-1.221-.935-2.155-2.226-3.521-2.961-1.029-.552-2.124-.937-3.22-1.336-.471-.169-.948-.341-1.437-.455a16.96 16.96 0 01-.444.065c.18.502.336 1.013.525 1.49z" fill="#B7975B"/><path d="M494.17 580.566c.39.748.731 1.516 1.024 2.297a3.437 3.437 0 004.475-3.174c-.901-.828-1.715-1.764-2.801-2.348a17.41 17.41 0 00-2.026-.898 3.452 3.452 0 00-1.864 2.049c.394.695.832 1.379 1.192 2.074z" fill="#495DA7"/><path d="M515.662 593.146l-5.636-3.252-.285 10.494 5.921 3.262v-10.504z" fill="#444247"/><path d="M508.627 589.294h1.402v10.622h-1.402v-10.622z" fill="#DAE2F2"/><path d="M521.026 606.841s-2.425 1.362-4.926 1.711l-.303-15.215s3.839 1.422 5.563 1.358l-.334 12.146z" fill="#B9C8E6"/><path d="M521.026 606.841l.873-.33v-11.713h-.873v12.043z" fill="#756262"/><path d="M521.899 606.511s1.293-.539 1.854-.97v-10.58h-1.854v11.55zm-12.75-16.744h1.402v10.621h-1.402v-10.621z" fill="#302C32"/><path d="M515.226 608.552h.874v-14.925h-.874v14.925z" fill="#756262"/><path d="M492.909 575.363c.526 0 1.212.103 2.074.43 2.854 1.082 6.342 4.058 10.372 8.847 4.85 5.77 9.619 8.063 12.765 8.971 3.404.982 7.103.529 7.126.523l.167.94c-.1.017-3.894.496-7.494-.53-3.289-.937-8.267-3.308-13.295-9.289-9.049-10.759-12.499-8.8-12.533-8.781l-.539-.785c.069-.049.501-.326 1.357-.326z" fill="#A47953"/><path d="M515.226 604.253s-11.661-7.605-12.762-7.605c-1.102 0-4.406 2.314-4.406 2.314v-1.345s3.984-2.656 4.503-2.656c.518 0 12.665 7.871 12.665 7.871v1.421z" fill="#DAE2F2"/><path d="M513.923 607.898s-9.856-7.244-11.255-7.244c-1.398 0-5.454 3.621-5.454 3.621l16.709 3.623z" fill="#B7975B"/><path d="M515.226 605.177s-11.661-7.734-12.762-7.734c-1.102 0-4.406 2.605-4.406 2.605v-1.302s3.984-2.575 4.503-2.575c.518 0 12.665 7.629 12.665 7.629v1.377z" fill="#B7975B"/><path d="M498.376 603.74s.027-12.305-2.85-20.422c-2.879-8.115-9.46-19.408-12.415-20.412l-1.016 1.035c2.552 1.291 10.845 13.84 12.394 19.975 1.899 7.806 1.964 4.431 2.881 20.337.919 15.907 1.006-.513 1.006-.513z" fill="#A47953"/><path d="M516.727 543.121s-.627 5.834 0 7.031c.626 1.195 1.821 3.842 1.821 3.842s-2.591-.94-2.647 1.736c-.057 2.676 2.134 2.533 2.932 2.533.797 0 3.103-.937 1.594-4.638-1.509-3.702-1.777-2.221-2.014-4.897-.235-2.676 0-5.437 0-5.437l-1.686-.17z" fill="#DDDCDB"/><path d="M517.552 541.406s-.626 5.836 0 7.031c.626 1.195 1.821 3.842 1.821 3.842s-2.59-.938-2.647 1.738c-.057 2.676 2.134 2.533 2.932 2.533.797 0 3.103-.939 1.594-4.64-1.508-3.701-1.777-2.221-2.013-4.897s0-5.437 0-5.437l-1.687-.17z" fill="#EAE8E8"/><path d="M518.646 549.804s4.474 17.039-5.684 17.039c-10.158 0-8.952-13.002-5.777-17.58 3.174-4.578 11.461.541 11.461.541z" fill="#DDDCDB"/><path d="M518.425 542.703s.748 2.836.296 3.742c-.453.906.007 2.463-.075 3.359-.083.897-1.304 2.432-3.963.619 0 0-6.855 3.664-6.914-1.062-.059-4.729.276-7.248.276-7.248s8.272-.926 10.38.59z" fill="#DAE2F2"/><path d="M499.837 540.609s.627 5.836 0 7.031c-.626 1.196-1.821 3.842-1.821 3.842s2.591-.938 2.647 1.738c.058 2.676-2.135 2.533-2.932 2.533-.797 0-3.103-.939-1.594-4.64 1.509-3.701 1.777-2.221 2.014-4.897.235-2.675 0-5.437 0-5.437l1.686-.17z" fill="#6B6B6E"/><path d="M500.635 541.406s.626 5.836 0 7.031c-.626 1.195-1.822 3.842-1.822 3.842s2.59-.938 2.647 1.738c.058 2.676-2.135 2.533-2.932 2.533-.797 0-3.103-.939-1.594-4.64 1.508-3.701 1.778-2.221 2.013-4.897.236-2.676 0-5.437 0-5.437l1.688-.17z" fill="#828486"/><path d="M501.802 542.232s.626 5.834 0 7.031c-.626 1.196-1.822 3.842-1.822 3.842s2.59-.939 2.647 1.736c.058 2.676-2.135 2.534-2.932 2.534-.797 0-3.103-.938-1.593-4.639 1.508-3.701 1.777-2.221 2.012-4.897.236-2.675 0-5.437 0-5.437l1.688-.17z" fill="#95999A"/><path d="M503.499 542.488s.627 5.836 0 7.031c-.626 1.195-1.821 3.844-1.821 3.844s2.591-.942 2.647 1.736c.057 2.676-2.134 2.533-2.932 2.533-.797 0-3.103-.939-1.594-4.64 1.509-3.701 1.777-2.221 2.013-4.897.235-2.676 0-5.437 0-5.437l1.687-.17z" fill="#ABAEAF"/><path d="M505.151 542.232s.625 5.834 0 7.031c-.626 1.196-1.822 3.842-1.822 3.842s2.59-.939 2.647 1.736c.057 2.676-2.134 2.534-2.932 2.534-.797 0-3.102-.938-1.594-4.639 1.508-3.701 1.778-2.221 2.013-4.897.235-2.675 0-5.437 0-5.437l1.688-.17z" fill="#C4C4C3"/><path d="M506.83 542.003s.626 5.836 0 7.032c-.626 1.195-1.822 3.843-1.822 3.843s2.591-.939 2.648 1.737c.057 2.676-2.135 2.533-2.932 2.533-.798 0-3.104-.939-1.594-4.641 1.508-3.699 1.777-2.22 2.013-4.896.235-2.676 0-5.436 0-5.436l1.687-.172z" fill="#DDDCDB"/><path d="M508.339 541.691s.626 5.834 0 7.031c-.626 1.196-1.822 3.842-1.822 3.842s2.591-.939 2.647 1.736c.058 2.678-2.135 2.536-2.932 2.536-.797 0-3.102-.94-1.594-4.641 1.509-3.701 1.777-2.221 2.013-4.897.236-2.675 0-5.437 0-5.437l1.688-.17zm6.344 8.732s2.741.241 3.73 1.911c0 0-1.453 1.402-3.571.357 0 0-2.4.918-4.595.279 0 0 1.52-2.31 4.436-2.547z" fill="#EAE8E8"/><path d="M496.632 534.734l3.338-.695.674 3.246c.841-.198 1.73-.358 2.643-.489l-.378-3.093 3.539-.434.388 3.164a70.165 70.165 0 012.986-.133v-3.246h3.614v3.242c1.095.022 2.084.061 2.908.102l.548-3.256 3.886.654-1.313 7.811-.723-.121-.008.348-19.436.748-.034-.307-1.021.213-1.611-7.754z" fill="#B7975B"/><path d="M519.239 542.929s-10.004-1.527-20.986 1.067l-.102-1.764s13.767-3.215 21.369-.826l-.281 1.523z" fill="#302C32"/><path d="M515.782 545.357s.664-.269 1.4-.276c.181-.011.371.015.543.044.172.049.319.14.441.208.208.217.288.377.288.377l-.023.021s-.191-.065-.391-.179a2.11 2.11 0 01-.394-.12c-.155-.013-.309-.081-.478-.096a4.644 4.644 0 00-.943-.003c-.261.019-.435.055-.435.055l-.008-.031zm-2.911.031s-.174-.036-.434-.055a4.664 4.664 0 00-.945.003c-.169.015-.322.083-.476.096-.138.06-.273.092-.396.12-.2.114-.39.179-.39.179l-.024-.021s.08-.16.288-.377c.122-.068.271-.159.443-.208a2.44 2.44 0 01.543-.044c.735.007 1.399.276 1.399.276l-.008.031z" fill="#828486"/><path d="M513.804 546.586s-.152.172-.445.358c-.148.082-.326.19-.535.25-.209.064-.434.132-.67.137-.235.039-.47.034-.687-.016a1.352 1.352 0 01-.57-.173c-.315-.159-.496-.3-.496-.3l.013-.029s.24.015.56.087c.157.054.345.07.544.102.198.035.408.084.625.074.217.019.429-.021.631-.06.2-.037.378-.113.533-.171.303-.135.475-.283.475-.283l.022.024zm2.088-.024s.128.1.348.19c.221.086.522.185.829.175.155.004.302-.016.443-.041.138-.025.273-.014.387-.048.228-.036.41-.025.41-.025l.013.029s-.124.117-.352.24a.926.926 0 01-.421.12c-.16.038-.334.012-.503-.021-.172-.011-.331-.082-.481-.128a2.07 2.07 0 01-.695-.467l.022-.024zm-.597-.493s-.032.468.028 1.162c.031.348.092.748.193 1.167.051.209.136.414.205.626l.327.609c.061.084.099.246.103.402a.733.733 0 01-.169.398c-.189.209-.435.304-.665.362-.234.045-.464.072-.68.031a1.579 1.579 0 01-.58-.195.966.966 0 01-.382-.353c-.1-.123-.118-.264-.148-.366-.013-.216-.002-.332-.002-.332h.031s.02.119.078.302c.053.084.087.196.185.285.079.1.209.177.353.239.14.07.316.103.499.115.184.012.379.006.574-.035.193-.047.379-.132.513-.254.132-.143.159-.274.059-.491l-.3-.635c-.062-.228-.139-.448-.182-.666a7.058 7.058 0 01-.123-1.202c-.013-.706.052-1.171.052-1.171l.031.002z" fill="#454761"/><path d="M496.949 620.832s.626-5.836 0-7.034c-.627-1.195-1.822-3.841-1.822-3.841s2.591.939 2.648-1.739c.056-2.674-2.135-2.533-2.932-2.533-.798 0-3.104.94-1.595 4.641 1.509 3.701 1.778 2.22 2.013 4.896.236 2.676 0 5.438 0 5.438l1.688.172z" fill="#DDDCDB"/><path d="M496.123 622.544s.626-5.835 0-7.031c-.626-1.195-1.821-3.844-1.821-3.844s2.591.94 2.647-1.736c.057-2.676-2.134-2.533-2.932-2.533-.797 0-3.103.939-1.594 4.641 1.509 3.701 1.777 2.22 2.014 4.896.235 2.676 0 5.438 0 5.438l1.686.169z" fill="#EAE8E8"/><path d="M495.03 614.146s-4.475-17.039 5.683-17.039 8.952 13.002 5.778 17.58c-3.174 4.578-11.461-.541-11.461-.541z" fill="#DDDCDB"/><path d="M495.25 621.248s-.748-2.838-.295-3.743c.453-.906-.008-2.462.075-3.359.082-.894 1.303-2.432 3.962-.619 0 0 6.855-3.664 6.914 1.062.059 4.727-.276 7.248-.276 7.248s-8.272.926-10.38-.589z" fill="#DAE2F2"/><path d="M513.837 623.341s-.626-5.836 0-7.031c.627-1.195 1.823-3.842 1.823-3.842s-2.591.94-2.648-1.738c-.057-2.676 2.136-2.533 2.932-2.533.797 0 3.103.939 1.594 4.64-1.509 3.702-1.777 2.221-2.012 4.897-.236 2.676 0 5.437 0 5.437l-1.689.17z" fill="#6B6B6E"/><path d="M513.04 622.544s-.626-5.835 0-7.031c.627-1.195 1.822-3.844 1.822-3.844s-2.59.94-2.647-1.736c-.057-2.676 2.135-2.533 2.933-2.533.796 0 3.102.939 1.593 4.641-1.508 3.701-1.778 2.22-2.013 4.896-.236 2.676 0 5.438 0 5.438l-1.688.169z" fill="#828486"/><path d="M511.873 621.718s-.626-5.836 0-7.031c.627-1.195 1.822-3.842 1.822-3.842s-2.59.94-2.647-1.736c-.057-2.676 2.135-2.535 2.932-2.535.796 0 3.103.939 1.594 4.64-1.508 3.702-1.778 2.221-2.013 4.897-.236 2.676 0 5.437 0 5.437l-1.688.17z" fill="#95999A"/><path d="M510.176 621.462s-.626-5.835 0-7.031c.626-1.195 1.821-3.844 1.821-3.844s-2.59.942-2.647-1.736c-.057-2.676 2.134-2.533 2.932-2.533.797 0 3.103.939 1.594 4.641-1.509 3.701-1.777 2.22-2.013 4.896-.236 2.676 0 5.438 0 5.438l-1.687.169z" fill="#ABAEAF"/><path d="M508.525 621.718s-.626-5.836 0-7.031c.626-1.195 1.821-3.842 1.821-3.842s-2.59.94-2.647-1.736c-.057-2.676 2.135-2.535 2.932-2.535.798 0 3.103.939 1.594 4.64-1.509 3.702-1.778 2.221-2.013 4.897-.235 2.676 0 5.437 0 5.437l-1.687.17z" fill="#C4C4C3"/><path d="M506.845 621.947s-.626-5.836 0-7.031c.627-1.196 1.822-3.844 1.822-3.844s-2.591.939-2.647-1.736c-.058-2.676 2.134-2.534 2.932-2.534.797 0 3.103.94 1.594 4.641-1.509 3.699-1.778 2.221-2.014 4.896-.235 2.676 0 5.436 0 5.436l-1.687.172z" fill="#DDDCDB"/><path d="M505.336 622.259s-.626-5.836 0-7.031c.626-1.195 1.822-3.842 1.822-3.842s-2.591.938-2.647-1.736c-.057-2.676 2.135-2.533 2.931-2.533.798 0 3.104.937 1.595 4.638-1.509 3.702-1.778 2.221-2.013 4.897-.236 2.676 0 5.437 0 5.437l-1.688.17zm-6.344-8.732s-2.741-.24-3.731-1.91c0 0 1.454-1.403 3.572-.358 0 0 2.4-.918 4.595-.279 0 0-1.52 2.311-4.436 2.547z" fill="#EAE8E8"/><path d="M517.043 629.216l-3.337.694-.675-3.244c-.841.197-1.729.357-2.643.488l.379 3.094-3.54.433-.388-3.164c-1.008.069-2.012.11-2.986.133v3.246h-3.614v-3.242a98.594 98.594 0 01-2.908-.102l-.547 3.256-3.887-.654 1.313-7.811.723.123.009-.347 19.435-.75.034.306 1.021-.213 1.611 7.754z" fill="#B7975B"/><path d="M494.437 621.021s10.002 1.527 20.986-1.064l.103 1.761s-13.769 3.215-21.371.826l.282-1.523z" fill="#302C32"/><path d="M497.894 618.593s-.664.269-1.4.277a2.57 2.57 0 01-.543-.044c-.172-.05-.32-.141-.442-.208-.208-.218-.288-.377-.288-.377l.023-.022s.191.066.391.179c.123.028.258.061.395.12.154.013.308.081.477.097.337.037.685.028.944.003.261-.02.435-.056.435-.056l.008.031zm2.91-.031s.174.036.434.056c.26.025.608.034.945-.003.169-.016.323-.084.476-.097.138-.059.273-.092.396-.12.2-.113.39-.179.39-.179l.024.022s-.08.159-.288.377c-.122.067-.271.158-.443.208a2.559 2.559 0 01-.543.044c-.735-.008-1.399-.277-1.399-.277l.008-.031z" fill="#828486"/><path d="M499.871 617.365s.152-.173.445-.359c.148-.082.326-.19.535-.25.209-.064.434-.131.67-.136.235-.039.47-.034.687.015.223.017.417.085.57.173.315.159.497.3.497.3l-.014.029s-.24-.014-.56-.088c-.157-.052-.345-.069-.544-.1-.198-.036-.408-.085-.625-.074-.217-.02-.429.02-.631.059-.2.037-.378.113-.533.171-.303.136-.475.283-.475.283l-.022-.023zm-2.087.023s-.128-.099-.348-.19c-.221-.086-.523-.185-.83-.175a2.182 2.182 0 00-.442.041c-.138.025-.274.015-.387.048-.229.036-.411.025-.411.025l-.013-.029s.124-.116.353-.239a.894.894 0 01.42-.12c.16-.038.334-.013.504.02.171.011.331.082.481.128.146.061.276.132.378.202.208.14.317.266.317.266l-.022.023zm.596.493s.032-.467-.028-1.162a7.977 7.977 0 00-.192-1.167c-.051-.208-.136-.413-.205-.626l-.327-.609c-.061-.083-.099-.245-.103-.4a.729.729 0 01.168-.399c.189-.21.436-.304.666-.362.233-.045.464-.071.679-.03.213.034.415.091.58.194a.985.985 0 01.382.352c.1.123.119.264.148.367.014.215.003.332.003.332h-.031s-.02-.119-.078-.303c-.053-.084-.088-.195-.186-.283a.893.893 0 00-.353-.24 1.294 1.294 0 00-.499-.115 2.201 2.201 0 00-.574.034 1.186 1.186 0 00-.513.254c-.131.143-.159.275-.058.492.101.212.202.425.3.635.062.228.139.448.182.666.084.438.116.85.123 1.202a8.116 8.116 0 01-.053 1.17l-.031-.002z" fill="#454761"/></svg>