<svg xmlns="http://www.w3.org/2000/svg" style="isolation:isolate" viewBox="146.553 424.08 69.123 103.685" width="92.164" height="138.247"><path d="M215.676 525.043a2.722 2.722 0 01-2.721 2.722h-63.68a2.722 2.722 0 01-2.722-2.722V426.8a2.721 2.721 0 012.722-2.72h63.68a2.72 2.72 0 012.721 2.72v98.243z" fill="#EAE8E8"/><path d="M172.875 447.677c0 2.344-2.103 3.655-4.158 3.35-1.061-.16-1.842-.811-2.475-1.594-.598-.738-.748-.264-.666.221.381 2.234 1.4 3.502 3.295 4.096.19.062.988.242.26.242h-7.551c-.727 0 .07-.18.257-.242 1.896-.594 2.914-1.862 3.295-4.096.082-.485-.065-.959-.664-.221-.635.783-1.414 1.434-2.476 1.594-2.052.303-4.159-1.006-4.159-3.35v-.002c0-1.681 1.358-3.55 3.127-3.422.122.01.96.19 1.22-.064.378-.369-.15-.641-.188-1.477v-.001c-.057-1.995 1.312-3.059 2.841-3.252v.002c0-.002.332-.043.482-.043.272-.002.488.039.562.043v-.002c1.528.193 2.899 1.259 2.84 3.252v.001c-.039.836-.564 1.108-.188 1.477.259.254 1.1.072 1.219.064 1.77-.128 3.127 1.741 3.127 3.422v.002z" fill="#444247"/><path d="M165.338 439.418h-.023c-.15 0-.482.041-.482.043v-.002c-1.529.193-2.898 1.257-2.841 3.252v.001c.038.836.566 1.108.188 1.477-.26.254-1.098.074-1.22.064-1.769-.128-3.127 1.741-3.127 3.422v.002c0 2.344 2.107 3.653 4.159 3.35 1.062-.16 1.841-.811 2.476-1.594.599-.738.746-.264.664.221-.381 2.234-1.399 3.502-3.295 4.096-.187.062-.984.242-.257.242h3.758v-14.574z" fill="#57565A"/><path d="M204.332 447.677c0 2.344-2.104 3.655-4.159 3.35-1.06-.16-1.842-.811-2.474-1.594-.599-.738-.749-.264-.666.221.38 2.234 1.399 3.502 3.294 4.096.191.062.988.242.26.242h-7.55c-.728 0 .07-.18.257-.242 1.896-.594 2.913-1.862 3.295-4.096.081-.485-.065-.959-.664-.221-.636.783-1.414 1.434-2.477 1.594-2.052.303-4.158-1.006-4.158-3.35v-.002c0-1.681 1.358-3.55 3.127-3.422.121.01.959.19 1.22-.064.377-.369-.151-.641-.189-1.477v-.001c-.056-1.995 1.312-3.059 2.842-3.252v.002c0-.002.332-.043.481-.043.272-.002.489.039.563.043v-.002c1.527.193 2.899 1.259 2.839 3.252v.001c-.038.836-.564 1.108-.188 1.477.26.254 1.101.072 1.219.064 1.77-.128 3.128 1.741 3.128 3.422v.002z" fill="#444247"/><path d="M196.794 439.418h-.023c-.149 0-.481.041-.481.043v-.002c-1.53.193-2.898 1.257-2.842 3.252v.001c.038.836.566 1.108.189 1.477-.261.254-1.099.074-1.22.064-1.769-.128-3.127 1.741-3.127 3.422v.002c0 2.344 2.106 3.653 4.158 3.35 1.063-.16 1.841-.811 2.477-1.594.599-.738.745-.264.664.221-.382 2.234-1.399 3.502-3.295 4.096-.187.062-.985.242-.257.242h3.757v-14.574z" fill="#57565A"/><path d="M204.381 511.003c0-1.212 1.09-1.892 2.154-1.734.549.082.954.42 1.282.826.31.381.387.135.345-.115-.197-1.158-.725-1.814-1.707-2.121-.098-.033-.511-.127-.135-.127h3.912c.377 0-.037.094-.133.127-.983.307-1.51.963-1.707 2.121-.042.25.034.496.344.115.33-.406.732-.744 1.283-.826 1.063-.158 2.154.522 2.154 1.734 0 .872-.704 1.84-1.62 1.774-.063-.004-.497-.098-.632.033-.195.192.077.332.098.766v.002c.029 1.031-.68 1.582-1.472 1.681 0 0-.172.024-.249.024-.142 0-.253-.022-.292-.024-.791-.099-1.501-.652-1.471-1.681v-.002c.02-.434.292-.574.097-.766-.134-.131-.569-.037-.631-.033-.917.066-1.62-.902-1.62-1.774z" fill="#444247"/><path d="M208.285 515.283h.013c.077 0 .249-.024.249-.024.792-.097 1.501-.65 1.472-1.681v-.002c-.021-.434-.293-.574-.098-.766.135-.131.569-.037.632-.033.916.066 1.62-.902 1.62-1.774 0-1.212-1.091-1.892-2.154-1.734-.551.082-.953.42-1.283.826-.31.381-.386.135-.344-.115.197-1.158.724-1.814 1.707-2.121.096-.033.51-.127.133-.127h-1.947v7.551z" fill="#57565A"/><path d="M157.848 440.841c0 1.213-1.089 1.893-2.154 1.735-.548-.084-.953-.42-1.281-.826-.31-.383-.387-.137-.346.115.198 1.156.725 1.814 1.708 2.121.098.033.511.125.134.125h-3.911c-.377 0 .036-.092.133-.125.981-.307 1.51-.965 1.707-2.121.042-.252-.033-.498-.344-.115-.329.406-.732.742-1.283.826-1.062.158-2.154-.522-2.154-1.735v-.002c0-.871.703-1.839 1.62-1.771.063.004.497.098.632-.035.195-.19-.078-.33-.098-.764v-.002c-.029-1.031.68-1.584 1.472-1.683v.002c0-.002.173-.024.249-.024.141-.002.254.022.292.024v-.002c.791.099 1.502.652 1.47 1.683v.002c-.02.434-.292.574-.097.764.135.133.57.037.632.035.916-.068 1.619.9 1.619 1.771v.002z" fill="#444247"/><path d="M153.944 436.562h-.012c-.076 0-.249.022-.249.024v-.002c-.792.099-1.501.652-1.472 1.683v.002c.02.434.293.574.098.764-.135.133-.569.039-.632.035-.917-.068-1.62.9-1.62 1.771v.002c0 1.213 1.092 1.893 2.154 1.735.551-.084.954-.42 1.283-.826.311-.383.386-.137.344.115-.197 1.156-.726 1.814-1.707 2.121-.097.033-.51.125-.133.125h1.946v-7.549z" fill="#57565A"/><path d="M151.625 432.791h.717v-5.484h-.633l-1.198.641.144.566.953-.515h.017v4.792zm4.555-5.577c-1.113 0-1.915 1.004-1.915 2.852.017 1.814.751 2.818 1.822 2.818 1.207 0 1.907-1.03 1.907-2.894 0-1.746-.666-2.776-1.814-2.776zm-.05.574c.776 0 1.113.886 1.113 2.236 0 1.4-.362 2.286-1.113 2.286-.675 0-1.114-.81-1.114-2.236 0-1.493.473-2.286 1.114-2.286zm54.474 91.264h-.717v5.483h.633l1.198-.641-.144-.565-.953.515h-.017v-4.792zm-4.555 5.576c1.113 0 1.915-1.004 1.915-2.851-.017-1.814-.751-2.818-1.823-2.818-1.206 0-1.906 1.029-1.906 2.894 0 1.746.666 2.775 1.814 2.775zm.05-.573c-.776 0-1.113-.886-1.113-2.236 0-1.4.362-2.286 1.113-2.286.675 0 1.114.81 1.114 2.235 0 1.494-.473 2.287-1.114 2.287zm-17.463-66.268c0 2.343-2.104 3.654-4.159 3.349-1.06-.16-1.841-.81-2.474-1.595-.6-.739-.748-.262-.666.222.381 2.235 1.398 3.502 3.294 4.096.19.062.988.242.26.242h-7.55c-.729 0 .069-.18.257-.242 1.895-.594 2.914-1.861 3.295-4.096.082-.484-.065-.961-.664-.222-.635.785-1.414 1.435-2.477 1.595-2.052.303-4.158-1.006-4.158-3.349v-.002c0-1.682 1.357-3.551 3.127-3.424.121.012.959.191 1.22-.065.376-.367-.15-.638-.189-1.474v-.004c-.057-1.992 1.313-3.057 2.842-3.25v.002c0-.002.332-.043.481-.043.272-.002.489.039.563.043v-.002c1.527.193 2.898 1.26 2.839 3.25v.004c-.038.836-.563 1.107-.188 1.474.26.256 1.101.073 1.219.065 1.769-.127 3.128 1.742 3.128 3.424v.002z" fill="#444247"/><path d="M181.098 449.527h-.023c-.149 0-.481.041-.481.043v-.002c-1.529.193-2.899 1.258-2.842 3.25v.004c.039.836.565 1.107.189 1.474-.261.256-1.099.077-1.22.065-1.77-.127-3.127 1.742-3.127 3.424v.002c0 2.343 2.106 3.652 4.158 3.349 1.063-.16 1.842-.81 2.477-1.595.599-.739.746-.262.664.222-.381 2.235-1.4 3.502-3.295 4.096-.188.062-.986.242-.257.242h3.757v-14.574z" fill="#57565A"/><path d="M172.875 466.878c0 2.344-2.103 3.655-4.158 3.348-1.061-.158-1.842-.808-2.475-1.594-.598-.738-.748-.261-.666.221.381 2.234 1.4 3.504 3.295 4.098.19.06.988.24.26.24h-7.551c-.727 0 .07-.18.257-.24 1.896-.594 2.914-1.864 3.295-4.098.082-.482-.065-.959-.664-.221-.635.786-1.414 1.436-2.476 1.594-2.052.305-4.159-1.004-4.159-3.348v-.001c0-1.682 1.358-3.553 3.127-3.424.122.009.96.189 1.22-.065.378-.367-.15-.64-.188-1.476v-.002c-.057-1.992 1.312-3.057 2.841-3.25v.002c0-.002.332-.043.482-.043.272-.004.488.037.562.043v-.002c1.528.193 2.899 1.259 2.84 3.25v.002c-.039.836-.564 1.109-.188 1.476.259.254 1.1.073 1.219.065 1.77-.129 3.127 1.742 3.127 3.424v.001z" fill="#444247"/><path d="M165.338 458.619h-.023c-.15 0-.482.041-.482.043v-.002c-1.529.193-2.898 1.256-2.841 3.25v.002c.038.836.566 1.109.188 1.476-.26.254-1.098.074-1.22.065-1.769-.129-3.127 1.742-3.127 3.424v.001c0 2.344 2.107 3.653 4.159 3.348 1.062-.158 1.841-.81 2.476-1.594.599-.738.746-.261.664.221-.381 2.234-1.399 3.504-3.295 4.098-.187.06-.984.24-.257.24h3.758v-14.572z" fill="#57565A"/><path d="M204.332 466.878c0 2.344-2.104 3.655-4.159 3.348-1.06-.158-1.842-.808-2.474-1.594-.599-.738-.749-.261-.666.221.38 2.234 1.399 3.504 3.294 4.098.191.06.988.24.26.24h-7.55c-.728 0 .07-.18.257-.24 1.896-.594 2.913-1.864 3.295-4.098.081-.482-.065-.959-.664-.221-.636.786-1.414 1.436-2.477 1.594-2.052.305-4.158-1.004-4.158-3.348v-.001c0-1.682 1.358-3.553 3.127-3.424.121.009.959.189 1.22-.065.377-.367-.151-.64-.189-1.476v-.002c-.056-1.992 1.312-3.057 2.842-3.25v.002c0-.002.332-.043.481-.043.272-.004.489.037.563.043v-.002c1.527.193 2.899 1.259 2.839 3.25v.002c-.038.836-.564 1.109-.188 1.476.26.254 1.101.073 1.219.065 1.77-.129 3.128 1.742 3.128 3.424v.001z" fill="#444247"/><path d="M196.794 458.619h-.023c-.149 0-.481.041-.481.043v-.002c-1.53.193-2.898 1.256-2.842 3.25v.002c.038.836.566 1.109.189 1.476-.261.254-1.099.074-1.22.065-1.769-.129-3.127 1.742-3.127 3.424v.001c0 2.344 2.106 3.653 4.158 3.348 1.063-.158 1.841-.81 2.477-1.594.599-.738.745-.261.664.221-.382 2.234-1.399 3.504-3.295 4.098-.187.06-.985.24-.257.24h3.757v-14.572z" fill="#57565A"/><path d="M172.875 486.08c0 2.341-2.103 3.654-4.158 3.347-1.061-.158-1.842-.81-2.475-1.593-.598-.739-.748-.264-.666.22.381 2.235 1.4 3.502 3.295 4.096.19.062.988.242.26.242h-7.551c-.727 0 .07-.18.257-.242 1.896-.594 2.914-1.861 3.295-4.096.082-.484-.065-.959-.664-.22-.635.783-1.414 1.435-2.476 1.593-2.052.305-4.159-1.006-4.159-3.347v-.004c0-1.682 1.358-3.551 3.127-3.422.122.01.96.189 1.22-.065.378-.367-.15-.64-.188-1.476v-.002c-.057-1.992 1.312-3.059 2.841-3.25v.002c0-.002.332-.045.482-.045.272-.002.488.039.562.045v-.002c1.528.191 2.899 1.26 2.84 3.25v.002c-.039.836-.564 1.109-.188 1.476.259.254 1.1.073 1.219.065 1.77-.129 3.127 1.74 3.127 3.422v.004z" fill="#444247"/><path d="M165.338 477.818h-.023c-.15 0-.482.043-.482.045v-.002c-1.529.191-2.898 1.256-2.841 3.25v.002c.038.836.566 1.109.188 1.476-.26.254-1.098.075-1.22.065-1.769-.129-3.127 1.74-3.127 3.422v.004c0 2.341 2.107 3.652 4.159 3.347 1.062-.158 1.841-.81 2.476-1.593.599-.739.746-.264.664.22-.381 2.235-1.399 3.502-3.295 4.096-.187.062-.984.242-.257.242h3.758v-14.574z" fill="#57565A"/><path d="M204.332 486.08c0 2.341-2.104 3.654-4.159 3.347-1.06-.158-1.842-.81-2.474-1.593-.599-.739-.749-.264-.666.22.38 2.235 1.399 3.502 3.294 4.096.191.062.988.242.26.242h-7.55c-.728 0 .07-.18.257-.242 1.896-.594 2.913-1.861 3.295-4.096.081-.484-.065-.959-.664-.22-.636.783-1.414 1.435-2.477 1.593-2.052.305-4.158-1.006-4.158-3.347v-.004c0-1.682 1.358-3.551 3.127-3.422.121.01.959.189 1.22-.065.377-.367-.151-.64-.189-1.476v-.002c-.056-1.992 1.312-3.059 2.842-3.25v.002c0-.002.332-.045.481-.045.272-.002.489.039.563.045v-.002c1.527.191 2.899 1.26 2.839 3.25v.002c-.038.836-.564 1.109-.188 1.476.26.254 1.101.073 1.219.065 1.77-.129 3.128 1.74 3.128 3.422v.004z" fill="#444247"/><path d="M196.794 477.818h-.023c-.149 0-.481.043-.481.045v-.002c-1.53.191-2.898 1.256-2.842 3.25v.002c.038.836.566 1.109.189 1.476-.261.254-1.099.075-1.22.065-1.769-.129-3.127 1.74-3.127 3.422v.004c0 2.341 2.106 3.652 4.158 3.347 1.063-.158 1.841-.81 2.477-1.593.599-.739.745-.264.664.22-.382 2.235-1.399 3.502-3.295 4.096-.187.062-.985.242-.257.242h3.757v-14.574z" fill="#57565A"/><path d="M172.875 505.279c0 2.344-2.103 3.654-4.158 3.349-1.061-.16-1.842-.81-2.475-1.595-.598-.739-.748-.262-.666.222.381 2.235 1.4 3.502 3.295 4.096.19.063.988.242.26.242h-7.551c-.727 0 .07-.179.257-.242 1.896-.594 2.914-1.861 3.295-4.096.082-.484-.065-.961-.664-.222-.635.785-1.414 1.435-2.476 1.595-2.052.303-4.159-1.005-4.159-3.349v-.002c0-1.682 1.358-3.553 3.127-3.424.122.01.96.191 1.22-.064.378-.368-.15-.639-.188-1.475v-.004c-.057-1.992 1.312-3.057 2.841-3.25v.002c0-.002.332-.043.482-.043.272-.002.488.039.562.043v-.002c1.528.193 2.899 1.26 2.84 3.25v.004c-.039.836-.564 1.107-.188 1.475.259.255 1.1.072 1.219.064 1.77-.129 3.127 1.742 3.127 3.424v.002z" fill="#444247"/><path d="M165.338 497.019h-.023c-.15 0-.482.041-.482.043v-.002c-1.529.193-2.898 1.258-2.841 3.25v.004c.038.836.566 1.107.188 1.475-.26.255-1.098.074-1.22.064-1.769-.129-3.127 1.742-3.127 3.424v.002c0 2.344 2.107 3.652 4.159 3.349 1.062-.16 1.841-.81 2.476-1.595.599-.739.746-.262.664.222-.381 2.235-1.399 3.502-3.295 4.096-.187.063-.984.242-.257.242h3.758v-14.574z" fill="#57565A"/><path d="M204.332 505.279c0 2.344-2.104 3.654-4.159 3.349-1.06-.16-1.842-.81-2.474-1.595-.599-.739-.749-.262-.666.222.38 2.235 1.399 3.502 3.294 4.096.191.063.988.242.26.242h-7.55c-.728 0 .07-.179.257-.242 1.896-.594 2.913-1.861 3.295-4.096.081-.484-.065-.961-.664-.222-.636.785-1.414 1.435-2.477 1.595-2.052.303-4.158-1.005-4.158-3.349v-.002c0-1.682 1.358-3.553 3.127-3.424.121.01.959.191 1.22-.064.377-.368-.151-.639-.189-1.475v-.004c-.056-1.992 1.312-3.057 2.842-3.25v.002c0-.002.332-.043.481-.043.272-.002.489.039.563.043v-.002c1.527.193 2.899 1.26 2.839 3.25v.004c-.038.836-.564 1.107-.188 1.475.26.255 1.101.072 1.219.064 1.77-.129 3.128 1.742 3.128 3.424v.002z" fill="#444247"/><path d="M196.794 497.019h-.023c-.149 0-.481.041-.481.043v-.002c-1.53.193-2.898 1.258-2.842 3.25v.004c.038.836.566 1.107.189 1.475-.261.255-1.099.074-1.22.064-1.769-.129-3.127 1.742-3.127 3.424v.002c0 2.344 2.106 3.652 4.158 3.349 1.063-.16 1.841-.81 2.477-1.595.599-.739.745-.262.664.222-.382 2.235-1.399 3.502-3.295 4.096-.187.063-.985.242-.257.242h3.757v-14.574z" fill="#57565A"/><path d="M188.636 496.16c0 2.342-2.104 3.654-4.159 3.347-1.06-.16-1.841-.81-2.474-1.593-.6-.739-.748-.264-.666.22.381 2.235 1.398 3.502 3.294 4.096.19.063.988.242.26.242h-7.55c-.729 0 .069-.179.257-.242 1.895-.594 2.914-1.861 3.295-4.096.082-.484-.065-.959-.664-.22-.635.783-1.414 1.433-2.477 1.593-2.052.303-4.158-1.005-4.158-3.347v-.004c0-1.682 1.357-3.551 3.127-3.422.121.01.959.189 1.22-.065.376-.369-.15-.64-.189-1.476v-.002c-.057-1.994 1.313-3.059 2.842-3.25v.002c0-.002.332-.045.481-.045.272-.002.489.039.563.045v-.002c1.527.191 2.898 1.258 2.839 3.25v.002c-.038.836-.563 1.107-.188 1.476.26.254 1.101.073 1.219.065 1.769-.129 3.128 1.74 3.128 3.422v.004z" fill="#444247"/><path d="M181.098 487.898h-.023c-.149 0-.481.043-.481.045v-.002c-1.529.191-2.899 1.256-2.842 3.25v.002c.039.836.565 1.107.189 1.476-.261.254-1.099.075-1.22.065-1.77-.129-3.127 1.74-3.127 3.422v.004c0 2.342 2.106 3.65 4.158 3.347 1.063-.16 1.842-.81 2.477-1.593.599-.739.746-.264.664.22-.381 2.235-1.4 3.502-3.295 4.096-.188.063-.986.242-.257.242h3.757v-14.574z" fill="#57565A"/></svg>