<svg xmlns="http://www.w3.org/2000/svg" style="isolation:isolate" viewBox="472.276 0 69.124 103.685" width="92.165" height="138.247"><path d="M541.4 100.963a2.722 2.722 0 01-2.722 2.722h-63.68a2.722 2.722 0 01-2.722-2.722V2.722A2.722 2.722 0 01474.998 0h63.68a2.722 2.722 0 012.722 2.722v98.241z" fill="#EAE8E8"/><path d="M530.105 86.923c0-1.214 1.089-1.893 2.153-1.734.549.083.954.419 1.281.826.311.382.389.135.346-.116-.197-1.157-.725-1.813-1.706-2.122-.099-.031-.512-.125-.135-.125h3.911c.376 0-.036.094-.134.125-.981.309-1.508.965-1.706 2.122-.043.251.034.498.344.116.329-.407.732-.743 1.282-.826 1.064-.158 2.155.52 2.155 1.734v.001c0 .871-.704 1.84-1.62 1.773-.063-.006-.498-.098-.632.034-.196.19.078.332.097.764v.001c.03 1.032-.679 1.584-1.471 1.684v-.001c0 .001-.172.022-.249.022-.142.002-.253-.019-.292-.022v.001c-.791-.1-1.501-.653-1.471-1.684v-.001c.02-.432.292-.574.098-.764-.135-.132-.571-.038-.631-.034-.917.067-1.62-.902-1.62-1.773v-.001z" fill="#444247"/><path d="M534.009 91.201h.012c.077 0 .249-.021.249-.022v.001c.792-.1 1.501-.652 1.471-1.684v-.001c-.019-.432-.293-.574-.097-.764.134-.132.569-.04.632-.034.916.067 1.62-.902 1.62-1.773v-.001c0-1.214-1.091-1.892-2.155-1.734-.55.083-.953.419-1.282.826-.31.382-.387.135-.344-.116.198-1.157.725-1.813 1.706-2.122.098-.031.51-.125.134-.125h-1.946v7.549z" fill="#57565A"/><path d="M483.571 16.761c0 1.214-1.089 1.892-2.154 1.734-.548-.083-.953-.42-1.281-.826-.311-.382-.388-.136-.345.115.197 1.157.725 1.814 1.706 2.122.099.032.512.125.135.125h-3.911c-.377 0 .036-.093.134-.125.981-.308 1.508-.965 1.706-2.122.043-.251-.034-.497-.344-.115-.329.406-.733.743-1.283.826-1.063.157-2.154-.52-2.154-1.734v-.001c0-.871.704-1.84 1.62-1.774.063.006.497.099.631-.033.197-.19-.077-.332-.097-.765-.03-1.033.679-1.584 1.472-1.684v.001c0-.001.172-.023.249-.023.141-.002.253.02.291.023v-.001c.792.1 1.502.652 1.471 1.684-.019.433-.291.575-.097.765.134.132.571.037.631.033.917-.066 1.62.903 1.62 1.774v.001z" fill="#444247"/><path d="M479.667 12.482h-.012c-.077 0-.249.022-.249.023v-.001c-.793.1-1.502.651-1.472 1.684.02.433.294.575.097.765-.134.132-.568.039-.631.033-.916-.066-1.62.903-1.62 1.774v.001c0 1.214 1.091 1.891 2.154 1.734.55-.083.954-.42 1.283-.826.31-.382.387-.136.344.115-.198 1.157-.725 1.814-1.706 2.122-.098.032-.511.125-.134.125h1.946v-7.549z" fill="#57565A"/><path d="M477.349 10.091c.348.229 1.045.479 1.84.479 1.687 0 2.58-.99 2.58-2.122-.011-.991-.708-1.644-1.579-1.807v-.022c.86-.316 1.307-.936 1.307-1.676 0-.86-.632-1.688-2.025-1.688-.762 0-1.481.272-1.862.544l.262.697c.304-.218.849-.468 1.415-.468.881 0 1.241.501 1.241 1.067 0 .838-.882 1.197-1.579 1.197h-.533v.719h.533c.926 0 1.818.424 1.829 1.415.011.599-.381 1.371-1.6 1.371-.675 0-1.295-.272-1.568-.435l-.261.729zm58.977 83.503c-.349-.228-1.045-.479-1.84-.479-1.687 0-2.58.991-2.58 2.123.011.99.708 1.644 1.579 1.807v.022c-.86.315-1.307.936-1.307 1.676 0 .86.632 1.687 2.025 1.687.762 0 1.48-.272 1.861-.544l-.261-.697c-.305.218-.849.468-1.415.468-.882 0-1.241-.5-1.241-1.066 0-.839.882-1.198 1.579-1.198h.533v-.718h-.533c-.926 0-1.818-.425-1.829-1.415-.011-.599.381-1.372 1.6-1.372.675 0 1.295.272 1.567.435l.262-.729zm-6.222-65.303c0 2.343-2.105 3.655-4.16 3.349-1.058-.16-1.841-.81-2.473-1.594-.6-.738-.749-.263-.666.221.381 2.234 1.398 3.502 3.294 4.096.191.062.987.242.26.242h-7.55c-.729 0 .069-.18.257-.242 1.895-.594 2.914-1.862 3.294-4.096.082-.484-.064-.959-.664-.221-.635.784-1.414 1.434-2.476 1.594-2.052.303-4.158-1.006-4.158-3.349v-.002c0-1.683 1.357-3.552 3.127-3.423.121.01.959.191 1.219-.064.377-.369-.149-.641-.188-1.477v-.002c-.057-1.993 1.311-3.057 2.842-3.251v.002c0-.002.332-.043.48-.043.274-.003.488.038.564.043v-.002c1.528.194 2.898 1.26 2.838 3.251v.002c-.038.836-.563 1.108-.187 1.477.26.255 1.101.072 1.219.064 1.769-.129 3.128 1.74 3.128 3.423v.002z" fill="#444247"/><path d="M522.566 20.031h-.024c-.148 0-.48.041-.48.043v-.002c-1.531.194-2.899 1.258-2.842 3.251v.002c.039.836.565 1.108.188 1.477-.26.255-1.098.074-1.219.064-1.77-.129-3.127 1.74-3.127 3.423v.002c0 2.343 2.106 3.652 4.158 3.349 1.062-.16 1.841-.81 2.476-1.594.6-.738.746-.263.664.221-.38 2.234-1.399 3.502-3.294 4.096-.188.062-.986.242-.257.242h3.757V20.031z" fill="#57565A"/><path d="M514.376 52.815c0 2.343-2.104 3.655-4.159 3.348-1.06-.158-1.842-.809-2.475-1.594-.598-.738-.748-.262-.666.221.381 2.234 1.4 3.503 3.295 4.097.191.062.988.242.26.242h-7.55c-.728 0 .069-.18.256-.242 1.896-.594 2.914-1.863 3.295-4.097.082-.483-.065-.959-.663-.221-.636.785-1.415 1.436-2.477 1.594-2.052.304-4.159-1.005-4.159-3.348v-.002c0-1.682 1.358-3.552 3.127-3.423.122.009.96.19 1.221-.065.377-.367-.151-.64-.189-1.476v-.002c-.056-1.993 1.312-3.058 2.841-3.251v.003c0-.003.333-.044.482-.044.272-.003.488.038.563.044v-.003c1.527.193 2.898 1.26 2.839 3.251v.002c-.039.836-.564 1.109-.188 1.476.259.255 1.101.072 1.219.065 1.77-.129 3.128 1.741 3.128 3.423v.002z" fill="#444247"/><path d="M506.838 44.555h-.023c-.149 0-.482.041-.482.044v-.003c-1.529.193-2.897 1.258-2.841 3.251v.002c.038.836.566 1.109.189 1.476-.261.255-1.099.074-1.221.065-1.769-.129-3.127 1.741-3.127 3.423v.002c0 2.343 2.107 3.652 4.159 3.348 1.062-.159 1.841-.809 2.477-1.594.598-.738.745-.262.663.221-.381 2.234-1.399 3.503-3.295 4.097-.187.062-.984.242-.256.242h3.757V44.555z" fill="#57565A"/><path d="M498.631 77.339c0 2.343-2.104 3.654-4.159 3.349-1.059-.16-1.842-.81-2.474-1.595-.599-.738-.749-.262-.666.222.381 2.234 1.399 3.501 3.294 4.096.191.062.988.241.26.241h-7.55c-.728 0 .069-.179.257-.241 1.895-.595 2.914-1.862 3.295-4.096.082-.484-.065-.96-.664-.222-.635.785-1.414 1.435-2.477 1.595-2.052.303-4.158-1.006-4.158-3.349v-.002c0-1.683 1.357-3.552 3.127-3.424.121.011.959.191 1.22-.063.377-.369-.15-.641-.189-1.477v-.003c-.056-1.992 1.313-3.057 2.842-3.25v.002c0-.002.332-.043.48-.043.274-.003.49.038.564.043v-.002c1.528.193 2.898 1.26 2.839 3.25v.003c-.038.836-.563 1.108-.188 1.477.26.254 1.102.071 1.219.063 1.77-.128 3.128 1.741 3.128 3.424v.002z" fill="#444247"/><path d="M491.093 69.079h-.024c-.148 0-.48.041-.48.043v-.002c-1.529.193-2.898 1.257-2.842 3.25v.003c.039.836.566 1.108.189 1.477-.261.254-1.099.073-1.22.063-1.77-.129-3.127 1.741-3.127 3.424v.002c0 2.343 2.106 3.652 4.158 3.349 1.063-.16 1.842-.811 2.477-1.595.599-.738.746-.262.664.222-.381 2.234-1.4 3.501-3.295 4.096-.188.062-.985.241-.257.241h3.757V69.079z" fill="#57565A"/></svg>