<svg xmlns="http://www.w3.org/2000/svg" style="isolation:isolate" viewBox="73.276 212.812 69.124 103.683" width="92.165" height="138.244"><path d="M142.4 313.774a2.722 2.722 0 01-2.722 2.721h-63.68a2.722 2.722 0 01-2.722-2.721v-98.242a2.72 2.72 0 012.722-2.72h63.68a2.72 2.72 0 012.722 2.72v98.242z" fill="#EAE8E8"/><path d="M92.094 247.298l-5.271-7.168 5.271-7.168 5.269 7.168-5.269 7.168z" fill="#7D3C40"/><path d="M92.077 232.984l-5.254 7.146 5.254 7.145v-14.291z" fill="#934348"/><path d="M123.55 247.298l-5.271-7.168 5.271-7.168 5.27 7.168-5.27 7.168z" fill="#7D3C40"/><path d="M123.533 232.984l-5.254 7.146 5.254 7.145v-14.291z" fill="#934348"/><path d="M92.094 271.821l-5.271-7.168 5.271-7.168 5.269 7.168-5.269 7.168z" fill="#7D3C40"/><path d="M92.077 257.508l-5.254 7.145 5.254 7.146v-14.291z" fill="#934348"/><path d="M123.55 271.821l-5.271-7.168 5.271-7.168 5.27 7.168-5.27 7.168z" fill="#7D3C40"/><path d="M123.533 257.508l-5.254 7.145 5.254 7.146v-14.291z" fill="#934348"/><path d="M92.094 296.346l-5.271-7.168 5.271-7.169 5.269 7.169-5.269 7.168z" fill="#7D3C40"/><path d="M92.077 282.032l-5.254 7.146 5.254 7.145v-14.291z" fill="#934348"/><path d="M123.55 296.346l-5.271-7.168 5.271-7.169 5.27 7.169-5.27 7.168z" fill="#7D3C40"/><path d="M123.533 282.032l-5.254 7.146 5.254 7.145v-14.291z" fill="#934348"/><path d="M82.421 216.076c-.174 0-.413.011-.696.055-.893.109-1.677.468-2.265 1.045-.707.696-1.197 1.796-1.197 3.189 0 1.84.991 3.016 2.493 3.016 1.48 0 2.362-1.198 2.362-2.504 0-1.372-.882-2.286-2.134-2.286-.783 0-1.382.37-1.72.827h-.021c.163-1.175.947-2.264 2.46-2.503a3.51 3.51 0 01.718-.055v-.784zm-1.643 6.564c-1.013 0-1.557-.87-1.568-2.035a.9.9 0 01.098-.414 1.574 1.574 0 011.382-.871c.882 0 1.459.61 1.459 1.622 0 1.013-.555 1.698-1.371 1.698zm52.475 90.589c.175 0 .414-.01.697-.054.893-.109 1.677-.468 2.264-1.045.708-.697 1.198-1.796 1.198-3.19 0-1.839-.991-3.015-2.493-3.015-1.48 0-2.362 1.198-2.362 2.504 0 1.371.882 2.286 2.133 2.286.784 0 1.383-.37 1.72-.827h.022c-.163 1.175-.947 2.264-2.46 2.503a3.52 3.52 0 01-.719.055v.783zm1.644-6.564c1.013 0 1.557.871 1.568 2.036a.9.9 0 01-.098.414c-.261.522-.806.87-1.383.87-.881 0-1.458-.609-1.458-1.621 0-1.013.555-1.699 1.371-1.699zm.094-10.321l2.789 3.795-2.789 3.794-2.79-3.794 2.79-3.795z" fill="#7D3C40"/><path d="M134.999 303.921l2.781-3.782-2.781-3.783v7.565z" fill="#934348"/><path d="M80.684 232.782l-2.789-3.795 2.789-3.794 2.79 3.794-2.79 3.795z" fill="#7D3C40"/><path d="M80.675 225.205l-2.78 3.782 2.78 3.784v-7.566z" fill="#934348"/></svg>