<svg xmlns="http://www.w3.org/2000/svg" style="isolation:isolate" viewBox="73.276 424.08 69.124 103.685" width="92.165" height="138.247"><path d="M142.4 525.043a2.722 2.722 0 01-2.722 2.722h-63.68a2.722 2.722 0 01-2.722-2.722V426.8a2.721 2.721 0 012.722-2.72h63.68a2.721 2.721 0 012.722 2.72v98.243z" fill="#EAE8E8"/><path d="M92.094 453.753l-5.271-7.167 5.271-7.168 5.269 7.168-5.269 7.167z" fill="#7D3C40"/><path d="M92.077 439.441l-5.254 7.145 5.254 7.146v-14.291z" fill="#934348"/><path d="M123.55 453.753l-5.271-7.167 5.271-7.168 5.27 7.168-5.27 7.167z" fill="#7D3C40"/><path d="M123.533 439.441l-5.254 7.145 5.254 7.146v-14.291z" fill="#934348"/><path d="M92.094 473.281l-5.271-7.168 5.271-7.168 5.269 7.168-5.269 7.168z" fill="#7D3C40"/><path d="M92.077 458.968l-5.254 7.145 5.254 7.146v-14.291z" fill="#934348"/><path d="M123.55 473.281l-5.271-7.168 5.271-7.168 5.27 7.168-5.27 7.168z" fill="#7D3C40"/><path d="M123.533 458.968l-5.254 7.145 5.254 7.146v-14.291z" fill="#934348"/><path d="M92.094 492.81l-5.271-7.168 5.271-7.168 5.269 7.168-5.269 7.168z" fill="#7D3C40"/><path d="M92.077 478.496l-5.254 7.146 5.254 7.145v-14.291z" fill="#934348"/><path d="M123.55 492.81l-5.271-7.168 5.271-7.168 5.27 7.168-5.27 7.168z" fill="#7D3C40"/><path d="M123.533 478.496l-5.254 7.146 5.254 7.145v-14.291z" fill="#934348"/><path d="M92.094 512.337l-5.271-7.168 5.271-7.167 5.269 7.167-5.269 7.168z" fill="#7D3C40"/><path d="M92.077 498.025l-5.254 7.144 5.254 7.147v-14.291z" fill="#934348"/><path d="M123.55 512.337l-5.271-7.168 5.271-7.167 5.27 7.167-5.27 7.168z" fill="#7D3C40"/><path d="M123.533 498.025l-5.254 7.144 5.254 7.147v-14.291z" fill="#934348"/><path d="M78.348 432.791h.717v-5.484h-.633l-1.198.641.144.566.953-.515h.017v4.792zm4.555-5.577c-1.113 0-1.915 1.004-1.915 2.852.017 1.814.751 2.818 1.822 2.818 1.207 0 1.907-1.03 1.907-2.894 0-1.746-.666-2.776-1.814-2.776zm-.05.574c.776 0 1.113.886 1.113 2.236 0 1.4-.362 2.286-1.113 2.286-.675 0-1.114-.81-1.114-2.236 0-1.493.473-2.286 1.114-2.286zm54.473 91.264h-.717v5.483h.633l1.198-.641-.144-.565-.953.515h-.017v-4.792zm-4.555 5.576c1.113 0 1.915-1.004 1.915-2.851-.017-1.814-.751-2.818-1.823-2.818-1.206 0-1.906 1.029-1.906 2.894 0 1.746.666 2.775 1.814 2.775zm.05-.573c-.776 0-1.113-.886-1.113-2.236 0-1.4.362-2.286 1.113-2.286.675 0 1.114.81 1.114 2.235 0 1.494-.473 2.287-1.114 2.287zm2.17-16.442l2.789 3.795-2.789 3.795-2.79-3.795 2.79-3.795z" fill="#7D3C40"/><path d="M134.999 515.189l2.781-3.781-2.781-3.783v7.564z" fill="#934348"/><path d="M80.684 444.05l-2.789-3.793 2.789-3.795 2.79 3.795-2.79 3.793z" fill="#7D3C40"/><path d="M80.675 436.474l-2.78 3.783 2.78 3.782v-7.565z" fill="#934348"/><path d="M107.838 463.982l-5.271-7.168 5.271-7.168 5.271 7.168-5.271 7.168z" fill="#7D3C40"/><path d="M107.822 449.669l-5.255 7.145 5.255 7.147v-14.292z" fill="#934348"/><path d="M107.838 502.353l-5.271-7.168 5.271-7.168 5.271 7.168-5.271 7.168z" fill="#7D3C40"/><path d="M107.822 488.041l-5.255 7.144 5.255 7.147v-14.291z" fill="#934348"/></svg>