<svg xmlns="http://www.w3.org/2000/svg" style="isolation:isolate" viewBox="399 423.943 69.122 103.685" width="92.163" height="138.247"><path d="M468.122 524.906a2.722 2.722 0 01-2.721 2.722h-63.68a2.72 2.72 0 01-2.721-2.722v-98.24a2.722 2.722 0 012.721-2.723h63.68a2.722 2.722 0 012.721 2.723v98.24z" fill="#EAE8E8"/><path d="M460.671 507.576l2.789 3.795-2.789 3.795-2.79-3.795 2.79-3.795z" fill="#7D3C40"/><path d="M460.679 515.154l2.781-3.783-2.781-3.784v7.567z" fill="#934348"/><path d="M406.713 431.89c0 1.437-.49 1.818-1.339 1.818-.327 0-.61-.065-.806-.141l-.131.772c.229.098.654.175 1.013.175 1.263 0 2.22-.599 2.22-2.548v-4.909h-.957v4.833zm53.696 87.792c0-1.437.49-1.818 1.339-1.818.327 0 .61.065.806.141l.13-.773c-.228-.098-.653-.174-1.012-.174-1.263 0-2.221.599-2.221 2.547v4.91h.958v-4.833zm-54.046-75.667l-2.789-3.795 2.789-3.795 2.79 3.795-2.79 3.795z" fill="#7D3C40"/><path d="M406.355 436.437l-2.781 3.783 2.781 3.783v-7.566z" fill="#934348"/><path d="M418.019 497.453s-3.725-1.348-7.192-5.112v-4.609h7.192v9.721zm2.956-56.826l-3.858-5.006s7.526-4.996 9.043-5.082c1.518-.088 18.672 5.218 18.672 5.218l-3.872 6.19-19.985-1.32z" fill="#A64045"/><path d="M440.96 434.574s-2.126 6.803-2.676 7.256c-.55.451-3.348-.836-3.348-.836s2.158-2.135 3.222-7.26l2.802.84z" fill="#454474"/><path d="M410.827 485.441v-25.869s3.252-4.147 9.778-4.76c0 0 .122 26.203-9.778 30.629z" fill="#A64045"/><path d="M429.919 456.234h3.328v6.109h-3.328v-6.109zm-6.673-2.109h3.328v6.107h-3.328v-6.107z" fill="#302C32"/><path d="M433.272 453.806h3.328v6.11h-3.328v-6.11zm-6.681 1.992h3.328v6.11h-3.328v-6.11z" fill="#A64045"/><path d="M436.494 451.966h3.328v6.108h-3.328v-6.108z" fill="#302C32"/><path d="M439.847 451.843h3.329v3.803h-3.329v-3.803z" fill="#A64045"/><path d="M423.275 451.953l.761 2.722-2.558.137 1.797-2.859z" fill="#A76F49"/><path d="M419.714 454.91s1.165 17.115-8.887 30.531l.018 1.781s5.916-2.781 9.282-14.506c3.366-11.726 1.841-17.806 1.841-17.806h-2.254z" fill="#302C32"/><path d="M421.251 455.293s.309 11.261-2.471 18.009c-2.78 6.748-4.713 11.35-7.953 13.891v5.148s9.132-8.83 12.126-18.775c2.994-9.947 2.435-18.647 2.435-18.647l-4.137.374z" fill="#454474"/><path d="M421.082 454.994c0 .422.858.765 1.914.765 1.058 0 1.914-.343 1.914-.765s-.856-.764-1.914-.764c-1.056 0-1.914.342-1.914.764zm.142 1.683c-.022.412.799.791 1.832.846 1.034.055 1.89-.236 1.911-.648.022-.414-.798-.793-1.832-.848-1.033-.055-1.89.236-1.911.65zm.028 1.936c-.043.402.741.818 1.752.928 1.011.109 1.865-.131 1.909-.534.043-.404-.741-.82-1.752-.929-1.01-.11-1.864.131-1.909.535zm-.087 2.148c-.065.395.682.846 1.67 1.01.987.164 1.841-.023 1.906-.418.065-.394-.682-.848-1.671-1.012-.986-.162-1.839.026-1.905.42zm-.211 2.321c-.087.386.625.875 1.589 1.093.964.217 1.816.082 1.903-.304.087-.385-.624-.873-1.587-1.092-.965-.217-1.818-.082-1.905.303zm-.338 2.455c-.109.377.566.902 1.508 1.174.941.273 1.792.189 1.901-.188.108-.375-.567-.902-1.507-1.174-.942-.273-1.792-.187-1.902.188zm-.471 2.549c-.131.367.507.927 1.425 1.255.918.327 1.768.293 1.898-.072.131-.367-.507-.93-1.425-1.256-.918-.328-1.768-.295-1.898.073zm-.611 2.601c-.152.357.45.957 1.345 1.338.894.381 1.743.4 1.896.043.152-.357-.45-.957-1.345-1.338-.895-.381-1.744-.4-1.896-.043zm-.754 2.615c-.173.348.392.985 1.263 1.42.872.436 1.719.506 1.894.158.173-.347-.392-.984-1.264-1.419-.871-.436-1.719-.506-1.893-.159zm-.903 2.59c-.196.338.333 1.012 1.182 1.5.848.49 1.694.613 1.89.274.197-.338-.334-1.01-1.181-1.5-.849-.491-1.695-.614-1.891-.274zm-1.058 2.524c-.217.33.275 1.039 1.1 1.582.826.545 1.671.718 1.889.388.218-.33-.276-1.037-1.101-1.582-.825-.545-1.67-.718-1.888-.388zm-1.217 2.416c-.24.322.216 1.066 1.019 1.666.802.599 1.646.824 1.886.504.239-.321-.218-1.067-1.02-1.665-.801-.599-1.646-.826-1.885-.505zm-1.382 2.273c-.262.311.158 1.092.936 1.746.78.654 1.622.932 1.884.619.261-.31-.159-1.092-.938-1.746-.779-.654-1.621-.93-1.882-.619zm-1.554 2.086c-.282.303.101 1.121.857 1.828.754.709 1.597 1.037 1.879.736.284-.302-.1-1.121-.855-1.83-.756-.707-1.598-1.037-1.881-.734zm-1.728 1.861c-.305.293.042 1.149.774 1.91.732.762 1.573 1.143 1.878.85.305-.291-.042-1.146-.774-1.91-.733-.762-1.574-1.143-1.878-.85z" fill="#A64045"/><path d="M430.144 469.886h5.29v-5.853h-5.29v5.853z" fill="#495DA7"/><path d="M435.205 469.638h-5.061v5.309l5.061-5.309zm.183-.451h-5.334v-4.344h5.334v4.344zm0-4.726h-5.244v-1.418l5.244-3.174v4.592z" fill="#B7975B"/><path d="M429.121 475.453l.203-12.317-4.34-2.453s-.854 10.201-1.884 12.033c-1.032 1.83 6.021 2.737 6.021 2.737z" fill="#A64045"/><path d="M429.046 475.49l1.289-.639v-12.605h-1.289v13.244z" fill="#DAE2F2"/><path d="M428.63 475.972l1.289-.638v-12.606h-1.289v13.244z" fill="#302C32"/><path d="M420.196 480.248c.438-1.104 1.179-2.127 1.726-3.18.891-1.717 1.526-3.535 1.818-5.428l.079-.002a6.331 6.331 0 015.88 3.987c-.197.224-.389.455-.635.662-.444.373-.966.668-1.428 1.021-1.122.861-1.98 2.047-3.235 2.721-.946.51-1.952.861-2.959 1.226-.432.159-.871.315-1.32.42a28.65 28.65 0 00-.408-.06c.166-.461.309-.932.482-1.367z" fill="#302C32"/><path d="M420.196 480.248c.438-1.104 1.179-2.127 1.726-3.18.812-1.566 1.412-3.217 1.733-4.93.055 0 .11-.004.164-.004a5.834 5.834 0 015.505 3.905 3.608 3.608 0 01-.26.248c-.444.373-.966.668-1.428 1.021-1.122.861-1.98 2.047-3.235 2.721-.946.51-1.952.861-2.959 1.226-.432.159-.871.315-1.32.42a30.923 30.923 0 00-.408-.06c.166-.461.309-.932.482-1.367z" fill="#B7975B"/><path d="M421.922 477.068c.356-.69.672-1.395.941-2.113a3.16 3.16 0 014.112 2.916c-.828.761-1.575 1.621-2.574 2.158-.601.324-1.227.584-1.862.824a3.166 3.166 0 01-1.714-1.881c.364-.638.766-1.267 1.097-1.904z" fill="#495DA7"/><path d="M441.67 465.507l-5.179 2.989-.262-9.643 5.441-2.996v9.65z" fill="#A64045"/><path d="M435.205 469.046h1.289v-9.757h-1.289v9.757z" fill="#DAE2F2"/><path d="M446.598 452.923s-2.229-1.252-4.527-1.572l-.277 13.981s3.526-1.307 5.11-1.248l-.306-11.161z" fill="#B9C8E6"/><path d="M446.598 452.923l.803.305v10.76h-.803v-11.065z" fill="#756262"/><path d="M447.401 453.228s1.188.494 1.703.891v9.72h-1.703v-10.611z" fill="#302C32"/><path d="M449.104 454.119s3.724 1.347 7.191 5.111v4.609h-7.191v-9.72z" fill="#A64045"/><path d="M435.684 468.611h1.29v-9.758h-1.29v9.758z" fill="#302C32"/><path d="M441.269 451.351h.802v13.715h-.802v-13.715z" fill="#756262"/><path d="M420.763 481.847c.483 0 1.114-.095 1.905-.394 2.622-.994 5.828-3.731 9.529-8.131 4.458-5.301 8.84-7.406 11.731-8.24 3.127-.903 6.681-.735 6.703-.733l.153-.861c-.092-.018-3.734-.209-7.041.734-3.022.862-7.595 3.041-12.216 8.535-8.314 9.887-11.484 8.088-11.515 8.069l-.495.722c.063.045.46.299 1.246.299z" fill="#A47953"/><path d="M441.269 455.302s-10.715 6.989-11.727 6.989c-1.012 0-4.048-2.127-4.048-2.127v1.234s3.661 2.441 4.137 2.441c.477 0 11.638-7.232 11.638-7.232v-1.305z" fill="#DAE2F2"/><path d="M440.071 451.953s-9.055 6.656-10.34 6.656c-1.286 0-5.013-3.328-5.013-3.328l15.353-3.328z" fill="#B7975B"/><path d="M441.269 454.453s-10.715 7.107-11.727 7.107c-1.012 0-4.048-2.396-4.048-2.396v1.199s3.661 2.365 4.137 2.365c.477 0 11.638-7.01 11.638-7.01v-1.265z" fill="#B7975B"/><path d="M425.786 455.773s.026 11.307-2.619 18.764c-2.644 7.459-9.302 17.945-11.259 18.898l-1.081-1.094s4.685-3.861 11.388-18.353c1.745-7.174 1.805-4.07 2.648-18.686.843-14.617.923.471.923.471z" fill="#A47953"/><path d="M434.118 454.453s-3.704 2.724-4.491 2.724c-.788 0-2.467-1.533-2.467-1.533s5.127-3.418 6.536-2.935c1.409.482.422 1.744.422 1.744z" fill="#CED6E7"/><path d="M423.804 441.093s-1.748 1.744-1.303 6.274c.447 4.529.824 9.066-2.489 7.681-3.314-1.384-.449-4.914 1.55-3.05 0 0-.011-2.233-.3-5.172-.29-2.94-.078-5.754 2.542-5.733z" fill="#CA834E"/><path d="M422.053 441.83s-.486 2.722 0 3.279c.486.555.034 1.416 0 2.08-.035.664-.731 6.258 3.092 8.273 3.822 2.016 3.508-.769 8.2-2.539 0 0 .728-10.908-2.467-11.81 0 0-6.358-.549-8.825.717z" fill="#DAE2F2"/><path d="M437.664 442.529s1.24 1.015 1.24 3.969c0 2.955 1.532 6.043 3.584 4.939 2.052-1.107-.022-3.203-1.195-1.873 0 0-.136-1.443-.136-3.361 0-1.916-1.072-4.153-3.493-3.674z" fill="#A36D48"/><path d="M436.485 441.841s1.436 1.176 1.436 4.594.771 7.008 3.145 5.729c2.375-1.28-.026-3.707-1.383-2.166 0 0-.157-1.672-.157-3.889 0-2.219-1.083-4.477-3.041-4.268z" fill="#A76F49"/><path d="M434.936 441.47s1.361 2.403 1.361 6.08c0 3.678 1.026 6.385 3.581 5.01 2.555-1.377-.028-3.988-1.487-2.332 0 0-.169-1.795-.169-4.182 0-2.386-1.181-4.8-3.286-4.576z" fill="#AC724A"/><path d="M433.696 441.287s.969 1.631.969 5.732c0 4.102.815 7.979 3.664 6.443 2.849-1.533-.032-4.443-1.659-2.597 0 0-.188-2.004-.188-4.664 0-2.66-.438-5.164-2.786-4.914z" fill="#B1754B"/><path d="M432.054 441.107s1.837 1.504 1.837 5.879c0 4.377.066 8.752 3.106 7.115 3.04-1.637-.033-4.744-1.769-2.771 0 0-.202-2.139-.202-4.979 0-2.838-.467-5.51-2.972-5.244z" fill="#B6784C"/><path d="M430.878 441.113s1.91 1.562 1.91 6.115c0 4.551.07 9.104 3.232 7.4 3.162-1.703-.035-4.933-1.841-2.882 0 0-.209-2.225-.209-5.178s-.486-5.732-3.092-5.455z" fill="#CA834E"/><path d="M440.511 443.746s-7.176-3.959-18.846-1.438l-.69-1.681s9.045-3.545 19.985 1.32l-.449 1.799z" fill="#444247"/><path d="M424.966 444.743s-.19-.038-.477-.061a5.805 5.805 0 00-.487-.022c-.178-.013-.364.013-.55.026-.184.019-.355.089-.521.114a3.782 3.782 0 01-.437.124c-.219.125-.427.197-.427.197l-.028-.024s.089-.176.318-.415c.133-.073.295-.171.483-.235.191-.021.397-.054.598-.04.808.008 1.538.303 1.538.303l-.01.033zm3.196-.033s.731-.295 1.538-.303c.201-.014.407.019.599.04.186.064.349.162.483.235.229.239.318.415.318.415l-.028.024s-.208-.072-.427-.197a3.727 3.727 0 01-.437-.124c-.166-.025-.337-.095-.522-.114-.186-.013-.372-.039-.55-.026a5.805 5.805 0 00-.487.022c-.287.023-.477.061-.477.061l-.01-.033z" fill="#CA834E"/><path d="M427.172 446.034s.189.162.522.311c.08.043.178.064.275.1.098.031.197.076.31.088.222.042.455.086.694.064.237.011.469-.039.684-.089.22-.025.427-.045.599-.104.351-.08.614-.096.614-.096l.016.031s-.2.155-.545.33c-.169.097-.382.17-.625.2-.24.042-.498.051-.756.008-.259-.005-.507-.079-.736-.149-.229-.066-.424-.184-.588-.275-.321-.203-.487-.394-.487-.394l.023-.025zm-2.294.025a2.31 2.31 0 01-.763.513c-.165.051-.339.129-.528.14a1.513 1.513 0 01-.554.031 1.158 1.158 0 01-.461-.14c-.251-.136-.386-.264-.386-.264l.013-.031s.201-.012.452.028c.124.037.273.027.425.044.153.039.317.057.485.053.17.017.333-.031.492-.055.152-.041.299-.084.418-.135.243-.1.384-.209.384-.209l.023.025zm.666-.571s.071.512.057 1.286c-.007.388-.042.84-.135 1.321-.047.24-.132.482-.2.732l-.329.697c-.111.238-.08.383.064.54.147.136.355.224.566.271.211.047.426.06.628.045.201-.011.395-.048.548-.126.158-.067.301-.152.387-.262.109-.098.146-.22.205-.312.064-.202.085-.333.085-.333h.035s.012.128-.004.364c-.032.114-.052.268-.162.403a1.073 1.073 0 01-.42.388c-.18.112-.402.176-.636.213-.237.044-.491.022-.749-.024-.253-.069-.521-.179-.728-.407-.045-.065-.091-.131-.13-.198l-.057-.24c.006-.17.047-.347.114-.44l.359-.669c.075-.234.168-.458.226-.688.11-.46.177-.9.211-1.281.066-.764.03-1.276.03-1.276l.035-.004zm2.901 6.482s-1.043.077-2.085.123c-.521.045-1.042.059-1.433-.002a4.317 4.317 0 01-.651-.121v-.035s.26-.076.651-.121c.391-.061.912-.047 1.433-.002 1.042.046 2.085.123 2.085.123v.035zm-1.563.971s-.374.077-.747.123c-.187.045-.373.059-.514-.002-.139-.045-.233-.121-.233-.121v-.035s.094-.076.233-.121c.141-.061.327-.047.514-.002.373.046.747.123.747.123v.035z" fill="#454761"/><path d="M446.148 510.947l3.857 5.006s-7.525 4.994-9.043 5.082c-1.518.088-18.672-5.221-18.672-5.221l3.873-6.189 19.985 1.322z" fill="#A64045"/><path d="M426.163 516.998s2.125-6.803 2.675-7.256c.551-.451 3.349.836 3.349.836s-2.158 2.136-3.223 7.259l-2.801-.839z" fill="#454474"/><path d="M456.295 466.132v25.87s-3.252 4.144-9.777 4.757c0 0-.121-26.203 9.777-30.627z" fill="#A64045"/><path d="M437.203 495.337h-3.327v-6.107h3.327v6.107zm6.673 2.112h-3.328v-6.11h3.328v6.11z" fill="#302C32"/><path d="M433.851 497.765h-3.328v-6.109h3.328v6.109zm6.681-1.992h-3.329v-6.109h3.329v6.109z" fill="#A64045"/><path d="M430.628 499.607H427.3v-6.109h3.328v6.109z" fill="#302C32"/><path d="M427.276 499.728h-3.33v-3.803h3.33v3.803z" fill="#A64045"/><path d="M443.848 499.619l-.762-2.721 2.559-.139-1.797 2.86z" fill="#A76F49"/><path d="M447.408 496.662s-1.165-17.116 8.887-30.53l-.018-1.783s-5.917 2.781-9.283 14.508c-3.365 11.725-1.84 17.805-1.84 17.805h2.254z" fill="#302C32"/><path d="M445.871 496.279s-.308-11.262 2.471-18.01c2.779-6.748 4.714-11.35 7.953-13.891v-5.148s-4.997 1.016-12.125 18.775c-2.995 9.948-2.436 18.647-2.436 18.647l4.137-.373z" fill="#454474"/><path d="M446.04 496.578c0-.422-.857-.766-1.914-.766-1.058 0-1.914.344-1.914.766 0 .422.856.765 1.914.765 1.057 0 1.914-.343 1.914-.765zm-.141-1.684c.021-.412-.798-.791-1.832-.846-1.035-.054-1.89.237-1.913.649-.021.414.799.793 1.833.847 1.034.055 1.89-.236 1.912-.65zm-.029-1.933c.043-.405-.742-.821-1.752-.93-1.01-.11-1.865.131-1.909.535-.043.402.741.818 1.752.928 1.01.109 1.864-.131 1.909-.533zm.088-2.149c.065-.396-.682-.848-1.671-1.012-.987-.164-1.841.026-1.906.42-.064.395.683.846 1.67 1.01.988.164 1.842-.023 1.907-.418zm.209-2.322c.088-.387-.623-.875-1.588-1.092-.964-.219-1.816-.082-1.903.303-.087.385.624.875 1.588 1.092.965.218 1.817.082 1.903-.303zm.339-2.455c.109-.377-.565-.903-1.507-1.174-.941-.272-1.793-.188-1.901.187-.109.377.566.903 1.507 1.174.941.274 1.793.19 1.901-.187zm.472-2.549c.131-.367-.508-.928-1.426-1.256-.918-.326-1.768-.293-1.898.072-.13.367.507.93 1.425 1.258.918.326 1.769.293 1.899-.074zm.61-2.602c.152-.357-.449-.955-1.345-1.338-.893-.38-1.743-.398-1.895-.043-.153.36.45.958 1.344 1.338.895.381 1.745.401 1.896.043zm.754-2.615c.175-.348-.391-.984-1.263-1.418-.872-.437-1.719-.508-1.893-.158-.174.348.391.982 1.263 1.418.871.435 1.719.506 1.893.158zm.903-2.59c.197-.338-.333-1.01-1.181-1.5-.849-.49-1.695-.613-1.891-.273-.195.338.334 1.01 1.182 1.5.848.49 1.695.613 1.89.273zm1.059-2.523c.217-.33-.276-1.037-1.102-1.582-.824-.545-1.67-.719-1.886-.389-.219.33.274 1.037 1.099 1.582.825.545 1.67.719 1.889.389zm1.217-2.416c.239-.322-.217-1.067-1.02-1.666-.802-.6-1.645-.824-1.885-.504-.24.32.217 1.066 1.019 1.666.802.598 1.646.824 1.886.504zm1.382-2.274c.261-.31-.159-1.091-.937-1.746-.779-.652-1.622-.929-1.883-.619-.262.311.158 1.094.938 1.746.778.655 1.621.932 1.882.619zm1.553-2.086c.283-.302-.1-1.121-.856-1.828-.755-.707-1.597-1.037-1.88-.734-.283.301.1 1.119.855 1.828.756.707 1.598 1.037 1.881.734zm1.729-1.861c.304-.293-.042-1.148-.775-1.91-.732-.762-1.573-1.143-1.878-.85-.304.293.043 1.149.775 1.91.732.762 1.573 1.143 1.878.85z" fill="#A64045"/><path d="M436.979 481.687h-5.29v5.852h5.29v-5.852z" fill="#495DA7"/><path d="M431.917 481.933h5.062v-5.308l-5.062 5.308zm-.183.451h5.335v4.344h-5.335v-4.344zm0 4.727h5.245v1.418l-5.245 3.174v-4.592z" fill="#B7975B"/><path d="M438.001 476.119l-.203 12.316 4.341 2.453s.852-10.201 1.884-12.031c1.031-1.832-6.022-2.738-6.022-2.738z" fill="#A64045"/><path d="M438.077 476.082l-1.29.638v12.606h1.29v-13.244z" fill="#DAE2F2"/><path d="M438.493 475.599l-1.29.639v12.605h1.29v-13.244z" fill="#302C32"/><path d="M446.926 471.326c-.438 1.101-1.179 2.125-1.726 3.179-.89 1.717-1.526 3.536-1.818 5.426l-.079.002a6.33 6.33 0 01-5.88-3.986c.197-.225.391-.455.637-.662.442-.373.965-.668 1.426-1.022 1.123-.859 1.98-2.045 3.235-2.72.946-.508 1.952-.862 2.96-1.227.431-.158.87-.314 1.319-.42.137.022.273.041.408.061-.165.461-.308.931-.482 1.369z" fill="#302C32"/><path d="M446.926 471.326c-.438 1.101-1.179 2.125-1.726 3.179-.812 1.565-1.412 3.215-1.732 4.928-.055.002-.11.004-.165.004a5.834 5.834 0 01-5.505-3.904c.082-.086.167-.168.262-.248.442-.373.965-.668 1.426-1.022 1.123-.859 1.98-2.045 3.235-2.72.946-.508 1.952-.862 2.96-1.227.431-.158.87-.314 1.319-.42.137.022.273.041.408.061-.165.461-.308.931-.482 1.369z" fill="#B7975B"/><path d="M445.2 474.505a19.179 19.179 0 00-.941 2.112 3.157 3.157 0 01-4.11-2.916c.827-.762 1.574-1.621 2.572-2.158a15.364 15.364 0 011.863-.825 3.167 3.167 0 011.713 1.881c-.364.641-.765 1.268-1.097 1.906z" fill="#495DA7"/><path d="M425.452 486.064l5.179-2.988.263 9.642-5.442 2.996v-9.65z" fill="#A64045"/><path d="M431.917 482.525h-1.289v9.758h1.289v-9.758z" fill="#DAE2F2"/><path d="M420.525 498.648s2.228 1.252 4.526 1.572l.278-13.98s-3.526 1.308-5.111 1.248l.307 11.16z" fill="#B9C8E6"/><path d="M420.525 498.648l-.803-.305v-10.759h.803v11.064z" fill="#756262"/><path d="M419.722 498.343s-1.189-.494-1.703-.89v-9.721h1.703v10.611zm11.716-15.382h-1.288v9.757h1.288v-9.757z" fill="#302C32"/><path d="M425.854 500.22h-.803v-13.713h.803v13.713z" fill="#756262"/><path d="M446.359 469.724c-.483 0-1.114.096-1.905.397-2.623.992-5.828 3.728-9.53 8.129-4.457 5.3-8.839 7.408-11.73 8.242-3.127.902-6.526.484-6.547.48l-.154.864c.092.017 3.579.457 6.887-.487 3.021-.861 7.595-3.041 12.215-8.535 8.314-9.887 11.484-8.086 11.515-8.068l.496-.723c-.064-.045-.46-.299-1.247-.299z" fill="#A47953"/><path d="M425.854 496.269s10.714-6.988 11.726-6.988c1.012 0 4.048 2.127 4.048 2.127v-1.237s-3.661-2.439-4.137-2.439c-.476 0-11.637 7.232-11.637 7.232v1.305z" fill="#DAE2F2"/><path d="M427.052 499.619s9.055-6.657 10.34-6.657c1.285 0 5.012 3.329 5.012 3.329l-15.352 3.328z" fill="#B7975B"/><path d="M425.854 497.119s10.714-7.108 11.726-7.108c1.012 0 4.048 2.397 4.048 2.397v-1.199s-3.661-2.366-4.137-2.366c-.476 0-11.637 7.01-11.637 7.01v1.266z" fill="#B7975B"/><path d="M441.336 495.798s-.025-11.306 2.619-18.763c2.646-7.457 8.693-17.832 11.406-18.758l.934.953c-2.344 1.186-9.964 12.717-11.388 18.354-1.745 7.173-1.804 4.07-2.647 18.685-.844 14.617-.924-.471-.924-.471z" fill="#A47953"/><path d="M433.004 497.119s3.704-2.725 4.492-2.725c.787 0 2.467 1.533 2.467 1.533s-5.128 3.418-6.536 2.936c-1.409-.483-.423-1.744-.423-1.744z" fill="#CED6E7"/><path d="M443.318 510.478s1.749-1.744 1.303-6.273c-.447-4.53-.824-9.067 2.49-7.682 3.314 1.385.449 4.914-1.549 3.051 0 0 .009 2.232.298 5.172.291 2.939.079 5.754-2.542 5.732z" fill="#CA834E"/><path d="M445.07 509.742s.487-2.723 0-3.278c-.486-.556-.035-1.418 0-2.082.035-.664.73-6.257-3.092-8.273-3.823-2.016-3.509.769-8.201 2.539 0 0-.729 10.908 2.467 11.811 0 0 6.36.548 8.826-.717z" fill="#DAE2F2"/><path d="M429.459 509.043s-1.24-1.014-1.24-3.969-1.532-6.043-3.585-4.938c-2.052 1.106.023 3.203 1.195 1.871 0 0 .137 1.444.137 3.362 0 1.916 1.071 4.152 3.493 3.674z" fill="#A36D48"/><path d="M430.637 509.73s-1.436-1.176-1.436-4.594-.77-7.006-3.145-5.728c-2.374 1.279.026 3.707 1.384 2.166 0 0 .156 1.67.156 3.888 0 2.219 1.083 4.477 3.041 4.268z" fill="#A76F49"/><path d="M432.187 510.101s-1.362-2.402-1.362-6.08-1.026-6.385-3.581-5.008c-2.554 1.375.029 3.987 1.488 2.33 0 0 .169 1.795.169 4.182 0 2.387 1.18 4.801 3.286 4.576z" fill="#AC724A"/><path d="M433.427 510.287s-.97-1.633-.97-5.735c0-4.101-.814-7.978-3.664-6.443-2.849 1.533.031 4.445 1.659 2.598 0 0 .189 2.004.189 4.664 0 2.66.438 5.166 2.786 4.916z" fill="#B1754B"/><path d="M435.068 510.464s-1.836-1.503-1.836-5.878c0-4.377-.067-8.752-3.107-7.116-3.04 1.637.033 4.744 1.771 2.772 0 0 .2 2.138.2 4.978 0 2.838.468 5.512 2.972 5.244z" fill="#B6784C"/><path d="M436.244 510.459s-1.91-1.563-1.91-6.116c0-4.55-.07-9.103-3.231-7.4-3.162 1.703.034 4.934 1.84 2.885 0 0 .209 2.222.209 5.175 0 2.956.487 5.735 3.092 5.456z" fill="#CA834E"/><path d="M426.611 507.826s7.176 3.959 18.846 1.437l.691 1.684s-9.045 3.543-19.985-1.322l.448-1.799z" fill="#444247"/><path d="M442.156 506.829s.191.038.477.06a5.4 5.4 0 00.487.023c.178.013.364-.014.55-.027.186-.017.356-.088.522-.113.153-.055.301-.093.437-.124.22-.124.428-.195.428-.195l.027.023s-.089.176-.318.414c-.134.073-.296.172-.484.236-.191.02-.397.052-.597.04-.809-.009-1.538-.304-1.538-.304l.009-.033zm-3.196.033s-.729.295-1.538.304c-.2.012-.406-.02-.598-.04-.187-.064-.349-.163-.483-.236-.23-.238-.318-.414-.318-.414l.027-.023s.208.071.429.195c.134.031.283.069.435.124.167.025.337.096.523.113.185.013.372.04.549.027.178-.002.345-.008.488-.023.286-.022.476-.06.476-.06l.01.033z" fill="#CA834E"/><path d="M439.951 505.538s-.189-.161-.522-.311c-.08-.043-.179-.064-.276-.1-.098-.031-.197-.077-.31-.087-.221-.042-.454-.086-.693-.065a2.484 2.484 0 00-.685.089c-.219.024-.427.045-.599.104-.35.08-.614.095-.614.095l-.016-.031s.201-.154.545-.329c.169-.097.382-.17.625-.199.241-.043.498-.052.756-.009.26.006.507.079.737.149.229.066.424.185.587.275.323.203.489.393.489.393l-.024.026zm2.293-.026a2.281 2.281 0 01.763-.512c.165-.051.34-.129.528-.141.187-.038.377-.061.554-.03.178.02.338.065.461.139.251.136.387.264.388.264l-.016.031c.001 0-.199.012-.45-.027-.124-.037-.274-.027-.426-.045a1.78 1.78 0 00-.484-.053c-.17-.016-.333.031-.493.055a3.315 3.315 0 00-.418.136c-.243.099-.383.209-.383.209l-.024-.026zm-.666.572s-.071-.512-.056-1.287c.006-.387.042-.839.134-1.32.047-.24.132-.481.2-.731l.33-.699c.11-.238.08-.381-.065-.539a1.248 1.248 0 00-.565-.271 2.216 2.216 0 00-.629-.046c-.2.013-.395.049-.548.127-.157.066-.301.151-.387.262-.109.097-.146.22-.205.311a2.8 2.8 0 00-.085.333h-.035s-.012-.128.004-.364c.032-.113.053-.267.162-.402.086-.148.236-.29.42-.388.181-.112.402-.176.638-.213.235-.044.489-.021.747.024.254.069.521.179.728.407.045.065.091.131.13.199l.057.239c-.006.17-.047.348-.113.44l-.36.669c-.075.233-.168.459-.225.687-.111.46-.178.9-.211 1.282-.067.763-.031 1.276-.031 1.276l-.035.004zm-2.901-6.483s1.042-.077 2.085-.123c.521-.045 1.043-.059 1.433.002.391.045.652.121.652.121v.035s-.261.076-.652.121c-.39.061-.912.047-1.433.002-1.043-.046-2.085-.123-2.085-.123v-.035zm1.563-.971s.373-.077.747-.123c.187-.045.374-.058.514.002.14.045.233.121.233.121v.036s-.093.076-.233.121c-.14.06-.327.047-.514.002a10.7 10.7 0 01-.747-.123v-.036z" fill="#454761"/></svg>