<svg xmlns="http://www.w3.org/2000/svg" style="isolation:isolate" viewBox="398.999 212.812 69.123 103.683" width="92.164" height="138.244"><path d="M468.122 313.774a2.721 2.721 0 01-2.721 2.721h-63.68a2.722 2.722 0 01-2.722-2.721v-98.242c0-1.503 1.22-2.72 2.722-2.72h63.68a2.72 2.72 0 012.721 2.72v98.242z" fill="#EAE8E8"/><path d="M417.817 247.298l-5.271-7.168 5.271-7.168 5.27 7.168-5.27 7.168z" fill="#7D3C40"/><path d="M417.8 232.984l-5.254 7.146 5.254 7.145v-14.291z" fill="#934348"/><path d="M449.274 247.298l-5.271-7.168 5.271-7.168 5.269 7.168-5.269 7.168z" fill="#7D3C40"/><path d="M449.257 232.984l-5.254 7.146 5.254 7.145v-14.291z" fill="#934348"/><path d="M417.817 271.821l-5.271-7.168 5.271-7.168 5.27 7.168-5.27 7.168z" fill="#7D3C40"/><path d="M417.8 257.508l-5.254 7.145 5.254 7.146v-14.291z" fill="#934348"/><path d="M449.274 271.821l-5.271-7.168 5.271-7.168 5.269 7.168-5.269 7.168z" fill="#7D3C40"/><path d="M449.257 257.508l-5.254 7.145 5.254 7.146v-14.291z" fill="#934348"/><path d="M417.817 296.346l-5.271-7.168 5.271-7.169 5.27 7.169-5.27 7.168z" fill="#7D3C40"/><path d="M417.8 282.032l-5.254 7.146 5.254 7.145v-14.291z" fill="#934348"/><path d="M449.274 296.346l-5.271-7.168 5.271-7.169 5.269 7.169-5.269 7.168z" fill="#7D3C40"/><path d="M449.257 282.032l-5.254 7.146 5.254 7.145v-14.291z" fill="#934348"/><path d="M404.235 216.185v.795h3.462v.022l-3.07 6.259h.991l3.08-6.444v-.632h-4.463zm58.651 96.936v-.795h-3.461v-.022l3.07-6.259h-.991l-3.081 6.444v.632h4.463zm-2.172-16.777l2.79 3.795-2.79 3.794-2.79-3.794 2.79-3.795z" fill="#7D3C40"/><path d="M460.723 303.921l2.781-3.782-2.781-3.783v7.565z" fill="#934348"/><path d="M406.407 232.782l-2.79-3.795 2.79-3.794 2.789 3.794-2.789 3.795z" fill="#7D3C40"/><path d="M406.399 225.205l-2.782 3.782 2.782 3.784v-7.566z" fill="#934348"/><path d="M433.561 258.39l-5.27-7.168 5.27-7.168 5.27 7.168-5.27 7.168z" fill="#7D3C40"/><path d="M433.545 244.076l-5.254 7.146 5.254 7.145v-14.291z" fill="#934348"/></svg>