<svg xmlns="http://www.w3.org/2000/svg" style="isolation:isolate" viewBox="398.999 0 69.123 103.685" width="92.164" height="138.247"><path d="M468.122 100.963a2.722 2.722 0 01-2.721 2.722h-63.68a2.723 2.723 0 01-2.722-2.722V2.722A2.722 2.722 0 01401.721 0h63.68a2.72 2.72 0 012.721 2.722v98.241z" fill="#EAE8E8"/><path d="M433.578 59.01l-5.27-7.168 5.27-7.168 5.27 7.168-5.27 7.168z" fill="#7D3C40"/><path d="M433.562 44.696l-5.254 7.146 5.254 7.145V44.696z" fill="#934348"/><path d="M449.289 34.486l-5.27-7.168 5.27-7.168 5.271 7.168-5.271 7.168z" fill="#7D3C40"/><path d="M449.274 20.173l-5.255 7.145 5.255 7.146V20.173z" fill="#934348"/><path d="M417.817 83.534l-5.27-7.168 5.27-7.169 5.27 7.169-5.27 7.168z" fill="#7D3C40"/><path d="M417.801 69.22l-5.254 7.146 5.254 7.145V69.22z" fill="#934348"/><path d="M404.072 10.091c.348.229 1.045.479 1.84.479 1.687 0 2.58-.99 2.58-2.122-.011-.991-.708-1.644-1.579-1.807v-.022c.86-.316 1.307-.936 1.307-1.676 0-.86-.632-1.688-2.025-1.688-.762 0-1.481.272-1.862.544l.262.697c.304-.218.849-.468 1.415-.468.881 0 1.241.501 1.241 1.067 0 .838-.882 1.197-1.579 1.197h-.533v.719h.533c.926 0 1.818.424 1.829 1.415.011.599-.381 1.371-1.6 1.371a3.301 3.301 0 01-1.568-.435l-.261.729zm58.978 83.503c-.349-.228-1.045-.479-1.84-.479-1.687 0-2.58.991-2.58 2.123.011.99.708 1.644 1.579 1.807v.022c-.86.315-1.307.936-1.307 1.676 0 .86.632 1.687 2.025 1.687.762 0 1.48-.272 1.861-.544l-.261-.697c-.305.218-.849.468-1.415.468-.882 0-1.241-.5-1.241-1.066 0-.839.882-1.198 1.579-1.198h.533v-.718h-.533c-.926 0-1.818-.425-1.829-1.415-.011-.599.381-1.372 1.6-1.372.675 0 1.295.272 1.567.435l.262-.729zm-2.318-9.972l2.789 3.795-2.789 3.794-2.79-3.794 2.79-3.795z" fill="#7D3C40"/><path d="M460.739 91.199l2.782-3.782-2.782-3.783v7.565z" fill="#934348"/><path d="M406.424 20.06l-2.789-3.793 2.789-3.795 2.79 3.795-2.79 3.793z" fill="#7D3C40"/><path d="M406.415 12.483l-2.78 3.784 2.78 3.782v-7.566z" fill="#934348"/></svg>