<svg xmlns="http://www.w3.org/2000/svg" style="isolation:isolate" viewBox="398.999 530.132 69.123 103.686" width="92.164" height="138.248"><path d="M468.122 631.095a2.722 2.722 0 01-2.721 2.723h-63.68a2.723 2.723 0 01-2.722-2.723v-98.24a2.723 2.723 0 012.722-2.723h63.68a2.722 2.722 0 012.721 2.723v98.24z" fill="#EAE8E8"/><path d="M460.671 613.765l2.789 3.795-2.789 3.795-2.79-3.795 2.79-3.795z" fill="#7D3C40"/><path d="M460.679 621.343l2.781-3.783-2.781-3.783v7.566z" fill="#934348"/><path d="M404.285 540.583h.947v-2.798l.708-.805 2.406 3.603h1.121l-2.863-4.224 2.656-3.113h-1.176L405.842 536c-.185.24-.381.501-.577.784h-.033v-3.538h-.947v7.337zm58.552 82.784h-.947v2.797l-.708.806-2.406-3.603h-1.121l2.863 4.223-2.656 3.114h1.176l2.242-2.754c.185-.24.381-.501.577-.784h.033v3.538h.947v-7.337zm-56.474-73.162l-2.789-3.795 2.789-3.795 2.79 3.795-2.79 3.795z" fill="#7D3C40"/><path d="M406.355 542.627l-2.781 3.783 2.781 3.783v-7.566z" fill="#934348"/><path d="M450.477 605.541s4.052-1.467 7.827-5.563v-5.017h-7.827v10.58zm7.827-13.075v-28.154s-3.54-4.512-10.643-5.18c0 0-.132 28.518 10.643 33.334z" fill="#A64045"/><path d="M437.526 560.679h-3.623v6.649h3.623v-6.649zm7.261-2.295h-3.622v6.649h3.622v-6.649z" fill="#302C32"/><path d="M433.876 558.039h-3.621v6.648h3.621v-6.648zm7.272 2.168h-3.622v6.648h3.622v-6.648z" fill="#A64045"/><path d="M430.368 556.035h-3.622v6.648h3.622v-6.648z" fill="#302C32"/><path d="M426.72 555.902h-3.623v4.139h3.623v-4.139z" fill="#A64045"/><path d="M448.632 559.24s-1.268 18.625 9.672 33.226l-.021 1.94s-6.438-3.028-10.101-15.789c-3.664-12.76-2.003-19.377-2.003-19.377h2.453z" fill="#302C32"/><path d="M446.958 559.656s-.335 12.256 2.69 19.601c3.025 7.344 5.13 12.352 8.656 15.118v5.603s-9.939-9.609-13.198-20.434c-3.258-10.826-2.65-20.292-2.65-20.292l4.502.404z" fill="#EAE8E8"/><path d="M447.143 559.332c0 .459-.933.832-2.083.832-1.152 0-2.084-.373-2.084-.832 0-.461.932-.834 2.084-.834 1.15 0 2.083.373 2.083.834zm-.155 1.83c.024.451-.869.863-1.994.922-1.126.06-2.056-.258-2.08-.707-.024-.45.869-.862 1.995-.922 1.124-.059 2.056.257 2.079.707zm-.031 2.107c.047.44-.806.893-1.907 1.01-1.1.119-2.029-.141-2.076-.58-.048-.442.805-.893 1.905-1.012 1.1-.117 2.03.143 2.078.582zm.096 2.338c.071.43-.743.922-1.819 1.1-1.074.177-2.002-.026-2.074-.455-.071-.43.742-.922 1.819-1.1 1.073-.178 2.003.025 2.074.455zm.228 2.527c.095.42-.679.952-1.728 1.188-1.05.236-1.978.09-2.071-.33-.096-.418.678-.951 1.727-1.188 1.05-.238 1.978-.09 2.072.33zm.369 2.672c.118.408-.616.981-1.641 1.278-1.024.294-1.951.205-2.068-.206-.12-.41.616-.98 1.639-1.277 1.025-.297 1.95-.205 2.07.205zm.512 2.774c.143.398-.552 1.009-1.551 1.365-.999.355-1.923.32-2.065-.078-.143-.401.552-1.012 1.551-1.367.999-.356 1.924-.321 2.065.08zm.665 2.83c.165.388-.489 1.041-1.463 1.455-.973.416-1.898.437-2.063.047-.166-.389.489-1.039 1.463-1.455.973-.414 1.898-.436 2.063-.047zm.821 2.847c.189.379-.426 1.071-1.375 1.543-.949.475-1.871.553-2.06.174-.189-.379.426-1.07 1.375-1.545.948-.474 1.87-.551 2.06-.172zm.983 2.817c.213.369-.363 1.101-1.286 1.635-.924.533-1.845.666-2.058.296-.213-.367.363-1.099 1.285-1.632.924-.534 1.845-.666 2.059-.299zm1.151 2.748c.237.357-.298 1.129-1.197 1.722-.898.592-1.818.782-2.055.422-.237-.357.299-1.129 1.197-1.722.898-.592 1.818-.782 2.055-.422zm1.325 2.631c.26.347-.237 1.16-1.11 1.81-.872.653-1.791.899-2.052.551-.26-.35.237-1.162 1.11-1.812.872-.653 1.792-.899 2.052-.549zm1.504 2.472c.284.338-.171 1.19-1.019 1.901-.849.711-1.767 1.013-2.05.674-.284-.338.173-1.19 1.021-1.901.847-.711 1.764-1.013 2.048-.674zm1.691 2.27c.307.328-.11 1.221-.933 1.99-.821.772-1.738 1.129-2.046.801-.307-.328.11-1.221.932-1.99.822-.77 1.739-1.129 2.047-.801zm1.881 2.025c.332.319-.045 1.25-.843 2.08-.797.83-1.712 1.244-2.044.926-.331-.318.047-1.25.844-2.08.797-.83 1.712-1.244 2.043-.926z" fill="#A64045"/><path d="M437.28 575.539h-5.756v-6.371h5.756v6.371z" fill="#495DA7"/><path d="M431.772 575.269h5.508v5.777l-5.508-5.777zm-.2-.49h5.806v-4.729h-5.806v4.729zm0-5.145h5.708v-1.545l-5.708-3.453v4.998z" fill="#B7975B"/><path d="M438.394 581.597l-.222-13.404 4.725-2.67s.928 11.102 2.05 13.094c1.122 1.996-6.553 2.98-6.553 2.98z" fill="#A64045"/><path d="M438.476 581.638l-1.405-.695v-13.719h1.405v14.414z" fill="#DAE2F2"/><path d="M438.928 582.164l-1.402-.698V567.75h1.402v14.414z" fill="#302C32"/><path d="M448.107 586.814c-.477-1.199-1.283-2.312-1.878-3.459-.971-1.869-1.662-3.848-1.979-5.908l-.087-.002a6.89 6.89 0 00-6.399 4.34c.215.244.425.494.692.72.483.407 1.051.727 1.554 1.112 1.221.935 2.154 2.226 3.52 2.961 1.03.554 2.124.937 3.221 1.336.471.17.947.341 1.437.455.147-.024.296-.043.444-.065-.181-.502-.337-1.013-.525-1.49z" fill="#302C32"/><path d="M448.107 586.814c-.477-1.199-1.283-2.312-1.878-3.459-.884-1.705-1.537-3.5-1.887-5.365-.06-.002-.119-.004-.179-.004a6.35 6.35 0 00-5.991 4.25c.089.092.182.182.284.269.483.407 1.051.727 1.554 1.112 1.221.935 2.154 2.226 3.52 2.961 1.03.554 2.124.937 3.221 1.336.471.17.947.341 1.437.455.147-.024.296-.043.444-.065-.181-.502-.337-1.013-.525-1.49z" fill="#B7975B"/><path d="M446.229 583.355a21.075 21.075 0 01-1.025-2.299 3.435 3.435 0 00-4.474 3.172c.901.83 1.713 1.766 2.8 2.35.655.351 1.335.634 2.028.896a3.446 3.446 0 001.864-2.047c-.396-.695-.833-1.379-1.193-2.072z" fill="#495DA7"/><path d="M424.736 570.773l5.636 3.252.286-10.494-5.922-3.262v10.504z" fill="#A64045"/><path d="M431.772 574.625h-1.404v-10.622h1.404v10.622z" fill="#DAE2F2"/><path d="M419.373 557.078s2.425-1.362 4.926-1.713l.302 15.217s-3.837-1.424-5.563-1.358l.335-12.146z" fill="#B9C8E6"/><path d="M419.373 557.078l-.874.332v11.709h.874v-12.041z" fill="#756262"/><path d="M418.499 557.41s-1.293.539-1.853.968v10.581h1.853V557.41z" fill="#302C32"/><path d="M416.646 558.378s-4.054 1.467-7.828 5.563v5.018h7.828v-10.581z" fill="#A64045"/><path d="M431.251 574.152h-1.403v-10.621h1.403v10.621z" fill="#302C32"/><path d="M425.173 555.365h-.874v14.928h.874v-14.928z" fill="#756262"/><path d="M447.489 588.556c-.526 0-1.212-.103-2.073-.429-2.854-1.083-6.343-4.059-10.371-8.85-4.852-5.768-9.62-8.061-12.767-8.969-3.403-.982-7.271-.799-7.294-.795l-.167-.939c.1-.018 4.064-.227 7.663.801 3.29.937 8.266 3.31 13.295 9.289 9.048 10.759 12.499 8.802 12.533 8.781l.539.785c-.071.049-.501.326-1.358.326z" fill="#A47953"/><path d="M425.173 559.666s11.661 7.605 12.763 7.605c1.1 0 4.405-2.314 4.405-2.314v1.345s-3.984 2.657-4.503 2.657c-.519 0-12.665-7.872-12.665-7.872v-1.421z" fill="#DAE2F2"/><path d="M426.476 556.021s9.856 7.246 11.254 7.246c1.399 0 5.455-3.623 5.455-3.623l-16.709-3.623z" fill="#B7975B"/><path d="M425.173 558.742s11.661 7.736 12.763 7.736c1.1 0 4.405-2.607 4.405-2.607v1.302s-3.984 2.577-4.503 2.577c-.519 0-12.665-7.631-12.665-7.631v-1.377z" fill="#B7975B"/><path d="M442.023 560.179s-.028 12.305 2.85 20.422c2.878 8.115 10.123 19.529 12.254 20.567l1.177-1.19s-5.099-4.203-12.395-19.975c-1.899-7.806-1.964-4.431-2.882-20.337-.918-15.907-1.004.513-1.004.513z" fill="#A47953"/><path d="M408.818 571.453v28.154s3.54 4.512 10.642 5.18c0 0 .132-28.518-10.642-33.334z" fill="#A64045"/><path d="M429.597 603.24h3.622v-6.649h-3.622v6.649zm-7.262 2.295h3.622v-6.649h-3.622v6.649z" fill="#302C32"/><path d="M433.246 605.88h3.621v-6.648h-3.621v6.648zm-7.271-2.168h3.622v-6.648h-3.622v6.648z" fill="#A64045"/><path d="M436.753 607.884h3.623v-6.648h-3.623v6.648z" fill="#302C32"/><path d="M440.402 608.017h3.623v-4.14h-3.623v4.14z" fill="#A64045"/><path d="M418.49 604.679s1.268-18.627-9.672-33.226l.02-1.94s6.439 3.028 10.103 15.787c3.663 12.762 2.002 19.379 2.002 19.379h-2.453z" fill="#302C32"/><path d="M420.163 604.263s.336-12.256-2.688-19.599c-3.026-7.346-5.131-12.354-8.657-15.12v-5.603s5.439 1.105 13.198 20.436c3.259 10.824 2.649 20.291 2.649 20.291l-4.502-.405z" fill="#EAE8E8"/><path d="M419.98 604.587c0-.459.932-.832 2.083-.832 1.151 0 2.083.373 2.083.832 0 .461-.932.832-2.083.832-1.151 0-2.083-.371-2.083-.832zm.154-1.83c-.024-.451.869-.863 1.994-.921 1.125-.059 2.057.257 2.08.707.025.449-.869.861-1.994.919-1.125.061-2.057-.255-2.08-.705zm.031-2.107c-.048-.439.807-.891 1.906-1.01 1.1-.119 2.031.141 2.078.58.047.44-.806.893-1.906 1.012-1.1.119-2.03-.143-2.078-.582zm-.096-2.338c-.07-.43.744-.922 1.819-1.1 1.074-.177 2.003.026 2.074.456.07.429-.742.921-1.817 1.099-1.076.178-2.004-.025-2.076-.455zm-.228-2.527c-.095-.42.68-.951 1.728-1.188 1.05-.238 1.978-.09 2.072.33.094.42-.678.951-1.728 1.188-1.051.238-1.977.09-2.072-.33zm-.368-2.672c-.119-.408.615-.981 1.639-1.277 1.025-.295 1.952-.204 2.07.205.118.41-.616.98-1.64 1.277-1.024.297-1.951.205-2.069-.205zm-.514-2.772c-.142-.4.553-1.011 1.552-1.367.999-.355 1.924-.32 2.065.078.143.401-.551 1.012-1.55 1.367-1 .356-1.924.321-2.067-.078zm-.664-2.832c-.165-.388.489-1.041 1.463-1.457.974-.414 1.898-.433 2.063-.047.166.391-.49 1.041-1.462 1.457-.974.415-1.899.436-2.064.047zm-.82-2.845c-.191-.381.426-1.073 1.374-1.547.949-.473 1.871-.551 2.06-.172.19.379-.425 1.072-1.375 1.545-.948.474-1.87.551-2.059.174zm-.984-2.821c-.213-.367.364-1.099 1.286-1.632.923-.534 1.845-.667 2.058-.297.213.369-.363 1.099-1.286 1.632-.923.534-1.845.668-2.058.297zm-1.151-2.744c-.236-.359.3-1.131 1.198-1.724.898-.592 1.818-.782 2.054-.422.237.359-.299 1.129-1.197 1.722-.898.592-1.818.782-2.055.424zm-1.325-2.633c-.26-.347.236-1.16 1.11-1.812.872-.651 1.79-.897 2.051-.547.261.348-.236 1.158-1.109 1.811-.873.652-1.791.898-2.052.548zm-1.504-2.472c-.284-.338.172-1.19 1.019-1.901.849-.711 1.766-1.013 2.05-.674.284.338-.173 1.19-1.02 1.901-.848.711-1.766 1.014-2.049.674zm-1.691-2.27c-.307-.33.11-1.221.932-1.99.822-.772 1.738-1.129 2.046-.801.308.33-.109 1.221-.931 1.99-.823.77-1.739 1.129-2.047.801zm-1.88-2.025c-.332-.321.044-1.25.842-2.08.797-.83 1.711-1.244 2.043-.926.332.318-.046 1.25-.842 2.08-.797.828-1.712 1.242-2.043.926z" fill="#A64045"/><path d="M429.842 588.38h5.757v6.372h-5.757v-6.372z" fill="#495DA7"/><path d="M435.351 588.65h-5.509v-5.777l5.509 5.777zm.199.49h-5.807v4.729h5.807v-4.729zm0 5.145h-5.708v1.543l5.708 3.455v-4.998z" fill="#B7975B"/><path d="M428.729 582.322l.221 13.404-4.724 2.67s-.928-11.102-2.051-13.096c-1.122-1.992 6.554-2.978 6.554-2.978z" fill="#A64045"/><path d="M428.647 582.281l1.403.695v13.719h-1.403v-14.414z" fill="#DAE2F2"/><path d="M428.193 581.755l1.404.696v13.72h-1.404v-14.416z" fill="#302C32"/><path d="M419.016 577.105c.476 1.199 1.282 2.313 1.878 3.461.969 1.867 1.662 3.846 1.978 5.906l.087.002a6.89 6.89 0 006.4-4.34c-.215-.244-.425-.494-.693-.72-.482-.407-1.051-.727-1.554-1.112-1.22-.935-2.155-2.226-3.52-2.961-1.03-.552-2.125-.937-3.221-1.336-.47-.169-.947-.341-1.436-.455-.149.024-.296.045-.445.065.18.502.336 1.013.526 1.49z" fill="#302C32"/><path d="M419.016 577.105c.476 1.199 1.282 2.313 1.878 3.461.883 1.703 1.537 3.498 1.886 5.363a6.348 6.348 0 006.17-4.246 4.308 4.308 0 00-.284-.269c-.482-.407-1.051-.727-1.554-1.112-1.22-.935-2.155-2.226-3.52-2.961-1.03-.552-2.125-.937-3.221-1.336-.47-.169-.947-.341-1.436-.455-.149.024-.296.045-.445.065.18.502.336 1.013.526 1.49z" fill="#B7975B"/><path d="M420.894 580.566c.388.748.731 1.516 1.024 2.297a3.436 3.436 0 004.474-3.174c-.902-.828-1.714-1.764-2.8-2.348a17.424 17.424 0 00-2.027-.898 3.46 3.46 0 00-1.865 2.049c.396.695.833 1.379 1.194 2.074z" fill="#495DA7"/><path d="M442.386 593.146l-5.636-3.252-.285 10.494 5.921 3.262v-10.504z" fill="#A64045"/><path d="M435.351 589.294h1.402v10.622h-1.402v-10.622z" fill="#DAE2F2"/><path d="M447.749 606.841s-2.425 1.362-4.926 1.711l-.302-15.215s3.838 1.422 5.562 1.358l-.334 12.146z" fill="#B9C8E6"/><path d="M447.749 606.841l.873-.33v-11.713h-.873v12.043z" fill="#756262"/><path d="M448.622 606.511s1.294-.539 1.855-.97v-10.58h-1.855v11.55zm-12.75-16.744h1.403v10.621h-1.403v-10.621z" fill="#302C32"/><path d="M441.949 608.552h.874v-14.925h-.874v14.925z" fill="#756262"/><path d="M419.632 575.363c.526 0 1.213.103 2.074.43 2.855 1.082 6.343 4.058 10.371 8.847 4.852 5.77 9.62 8.063 12.767 8.971 3.403.982 7.102.529 7.126.523l.167.94c-.101.017-3.895.496-7.495-.53-3.289-.937-8.266-3.308-13.295-9.289-9.049-10.759-12.498-8.8-12.532-8.781l-.539-.785c.069-.049.5-.326 1.356-.326z" fill="#A47953"/><path d="M441.949 604.253s-11.661-7.605-12.762-7.605c-1.101 0-4.406 2.314-4.406 2.314v-1.345s3.985-2.656 4.503-2.656c.519 0 12.665 7.871 12.665 7.871v1.421z" fill="#DAE2F2"/><path d="M440.646 607.898s-9.856-7.244-11.254-7.244c-1.399 0-5.455 3.621-5.455 3.621l16.709 3.623z" fill="#B7975B"/><path d="M441.949 605.177s-11.661-7.734-12.762-7.734c-1.101 0-4.406 2.605-4.406 2.605v-1.302s3.985-2.575 4.503-2.575c.519 0 12.665 7.629 12.665 7.629v1.377z" fill="#B7975B"/><path d="M425.1 603.74s.027-12.305-2.851-20.422c-2.879-8.115-9.46-19.408-12.415-20.412l-1.016 1.035c2.552 1.291 10.845 13.84 12.395 19.975 1.898 7.806 1.964 4.431 2.881 20.337.919 15.907 1.006-.513 1.006-.513z" fill="#A47953"/><path d="M443.449 543.121s-.626 5.834 0 7.031c.627 1.195 1.823 3.842 1.823 3.842s-2.591-.94-2.648 1.736c-.057 2.676 2.135 2.533 2.932 2.533.798 0 3.103-.937 1.595-4.638-1.509-3.702-1.779-2.221-2.014-4.897-.236-2.676 0-5.437 0-5.437l-1.688-.17z" fill="#DDDCDB"/><path d="M444.275 541.406s-.625 5.836 0 7.031c.626 1.195 1.822 3.842 1.822 3.842s-2.591-.938-2.648 1.738c-.056 2.676 2.135 2.533 2.932 2.533.798 0 3.103-.939 1.595-4.64-1.509-3.701-1.779-2.221-2.013-4.897-.236-2.676 0-5.437 0-5.437l-1.688-.17z" fill="#EAE8E8"/><path d="M445.368 549.804s4.476 17.039-5.682 17.039c-10.16 0-8.952-13.002-5.779-17.58 3.175-4.578 11.461.541 11.461.541z" fill="#DDDCDB"/><path d="M445.149 542.703s.748 2.836.294 3.742c-.453.906.008 2.463-.075 3.359-.082.897-1.303 2.432-3.962.619 0 0-6.854 3.664-6.914-1.062-.058-4.729.277-7.248.277-7.248s8.272-.926 10.38.59z" fill="#DAE2F2"/><path d="M426.561 540.609s.627 5.836 0 7.031c-.626 1.196-1.822 3.842-1.822 3.842s2.591-.938 2.648 1.738c.056 2.676-2.136 2.533-2.933 2.533-.797 0-3.102-.939-1.594-4.64 1.509-3.701 1.778-2.221 2.013-4.897.236-2.675 0-5.437 0-5.437l1.688-.17z" fill="#6B6B6E"/><path d="M427.358 541.406s.626 5.836 0 7.031c-.626 1.195-1.822 3.842-1.822 3.842s2.591-.938 2.648 1.738c.057 2.676-2.135 2.533-2.933 2.533-.797 0-3.102-.939-1.594-4.64 1.509-3.701 1.778-2.221 2.014-4.897.235-2.676 0-5.437 0-5.437l1.687-.17z" fill="#828486"/><path d="M428.525 542.232s.626 5.834 0 7.031c-.625 1.196-1.822 3.842-1.822 3.842s2.591-.939 2.648 1.736c.056 2.676-2.135 2.534-2.932 2.534-.798 0-3.103-.938-1.595-4.639 1.509-3.701 1.778-2.221 2.014-4.897.235-2.675 0-5.437 0-5.437l1.687-.17z" fill="#95999A"/><path d="M430.223 542.488s.626 5.836 0 7.031c-.626 1.195-1.822 3.844-1.822 3.844s2.59-.942 2.648 1.736c.057 2.676-2.136 2.533-2.933 2.533-.797 0-3.102-.939-1.593-4.64 1.508-3.701 1.777-2.221 2.012-4.897.236-2.676 0-5.437 0-5.437l1.688-.17z" fill="#ABAEAF"/><path d="M431.874 542.232s.626 5.834 0 7.031c-.627 1.196-1.822 3.842-1.822 3.842s2.591-.939 2.647 1.736c.058 2.676-2.134 2.534-2.931 2.534-.798 0-3.104-.938-1.595-4.639 1.509-3.701 1.778-2.221 2.014-4.897.235-2.675 0-5.437 0-5.437l1.687-.17z" fill="#C4C4C3"/><path d="M433.554 542.003s.626 5.836 0 7.032c-.627 1.195-1.822 3.843-1.822 3.843s2.59-.939 2.647 1.737c.058 2.676-2.135 2.533-2.933 2.533-.796 0-3.102-.939-1.593-4.641 1.508-3.699 1.777-2.22 2.013-4.896.236-2.676 0-5.436 0-5.436l1.688-.172z" fill="#DDDCDB"/><path d="M435.062 541.691s.627 5.834 0 7.031c-.625 1.196-1.822 3.842-1.822 3.842s2.591-.939 2.648 1.736c.056 2.678-2.135 2.536-2.933 2.536-.797 0-3.102-.94-1.594-4.641 1.509-3.701 1.778-2.221 2.014-4.897.235-2.675 0-5.437 0-5.437l1.687-.17zm6.344 8.732s2.742.241 3.731 1.911c0 0-1.453 1.402-3.571.357 0 0-2.4.918-4.595.279 0 0 1.519-2.31 4.435-2.547z" fill="#EAE8E8"/><path d="M423.356 534.734l3.336-.695.675 3.246c.842-.198 1.73-.358 2.644-.489l-.379-3.093 3.54-.434.388 3.164a70.019 70.019 0 012.986-.133v-3.246h3.613v3.242a98.47 98.47 0 012.908.102l.547-3.256 3.888.654-1.313 7.811-.723-.121-.009.348-19.435.748-.035-.307-1.02.213-1.611-7.754z" fill="#B7975B"/><path d="M445.963 542.929s-10.004-1.527-20.987 1.067l-.103-1.764s13.768-3.215 21.37-.826l-.28 1.523z" fill="#302C32"/><path d="M442.505 545.357s.664-.269 1.399-.276c.182-.011.372.015.543.044.172.049.321.14.443.208.208.217.288.377.288.377l-.024.021s-.19-.065-.39-.179a2.173 2.173 0 01-.396-.12c-.153-.013-.307-.081-.476-.096a4.664 4.664 0 00-.945-.003c-.26.019-.434.055-.434.055l-.008-.031zm-2.91.031s-.174-.036-.435-.055a4.654 4.654 0 00-.944.003c-.169.015-.323.083-.477.096-.137.06-.272.092-.395.12-.2.114-.391.179-.391.179l-.023-.021s.08-.16.288-.377c.122-.068.27-.159.442-.208.172-.029.362-.055.543-.044a4.32 4.32 0 011.4.276l-.008.031z" fill="#828486"/><path d="M440.527 546.586s-.151.172-.444.358c-.148.082-.326.19-.535.25-.209.064-.435.132-.67.137a1.777 1.777 0 01-.687-.016 1.361 1.361 0 01-.571-.173c-.314-.159-.496-.3-.496-.3l.014-.029s.24.015.559.087c.158.054.346.07.544.102.199.035.409.084.625.074.218.019.43-.021.631-.06.2-.037.379-.113.533-.171.304-.135.476-.283.476-.283l.021.024zm2.088-.024s.128.1.349.19c.221.086.521.185.829.175.154.005.302-.016.442-.041.138-.025.274-.014.387-.048.229-.036.41-.025.41-.025l.014.029s-.124.117-.353.24a.922.922 0 01-.42.12c-.161.038-.334.012-.503-.021-.172-.011-.331-.082-.482-.128a2.138 2.138 0 01-.378-.202c-.208-.14-.316-.265-.316-.265l.021-.024zm-.596-.493s-.033.468.028 1.163c.03.347.092.747.192 1.166.052.209.137.414.205.627l.329.608c.059.084.097.247.101.402a.716.716 0 01-.169.398c-.188.209-.435.304-.665.362-.233.045-.465.072-.68.031a1.579 1.579 0 01-.58-.195.956.956 0 01-.381-.353c-.101-.123-.12-.264-.149-.366-.014-.216-.003-.332-.003-.332h.031s.021.119.079.302c.052.084.086.196.186.285.078.1.209.177.352.239.14.07.317.103.5.115.182.012.379.006.574-.035.192-.047.379-.132.513-.254.131-.143.159-.273.058-.49l-.3-.636c-.061-.228-.138-.448-.181-.666a7.058 7.058 0 01-.123-1.202c-.013-.706.051-1.171.051-1.171l.032.002z" fill="#454761"/><path d="M423.672 620.832s.627-5.836 0-7.034c-.626-1.195-1.821-3.841-1.821-3.841s2.59.939 2.647-1.739c.057-2.674-2.135-2.533-2.932-2.533-.797 0-3.103.94-1.594 4.641 1.509 3.701 1.777 2.22 2.012 4.896.237 2.676 0 5.438 0 5.438l1.688.172z" fill="#DDDCDB"/><path d="M422.847 622.544s.626-5.835 0-7.031c-.626-1.195-1.821-3.844-1.821-3.844s2.589.94 2.647-1.736c.057-2.676-2.135-2.533-2.933-2.533-.797 0-3.102.939-1.593 4.641 1.508 3.701 1.777 2.22 2.012 4.896.236 2.676 0 5.438 0 5.438l1.688.169z" fill="#EAE8E8"/><path d="M421.754 614.146s-4.476-17.039 5.683-17.039c10.158 0 8.952 13.002 5.777 17.58-3.174 4.578-11.46-.541-11.46-.541z" fill="#DDDCDB"/><path d="M421.974 621.248s-.748-2.838-.295-3.743c.453-.906-.008-2.462.075-3.359.082-.894 1.303-2.432 3.962-.619 0 0 6.854-3.664 6.914 1.062.059 4.727-.276 7.248-.276 7.248s-8.273.926-10.38-.589z" fill="#DAE2F2"/><path d="M440.561 623.341s-.626-5.836 0-7.031c.627-1.195 1.822-3.842 1.822-3.842s-2.591.94-2.648-1.738c-.056-2.676 2.135-2.533 2.933-2.533.797 0 3.103.939 1.594 4.64-1.509 3.702-1.778 2.221-2.014 4.897-.235 2.676 0 5.437 0 5.437l-1.687.17z" fill="#6B6B6E"/><path d="M439.764 622.544s-.626-5.835 0-7.031c.627-1.195 1.822-3.844 1.822-3.844s-2.591.94-2.647-1.736c-.058-2.676 2.134-2.533 2.931-2.533.798 0 3.104.939 1.595 4.641-1.509 3.701-1.778 2.22-2.014 4.896-.235 2.676 0 5.438 0 5.438l-1.687.169z" fill="#828486"/><path d="M438.597 621.718s-.626-5.836 0-7.031c.626-1.195 1.822-3.842 1.822-3.842s-2.591.94-2.647-1.736c-.058-2.676 2.134-2.535 2.931-2.535.797 0 3.104.939 1.594 4.64-1.508 3.702-1.777 2.221-2.013 4.897-.235 2.676 0 5.437 0 5.437l-1.687.17z" fill="#95999A"/><path d="M436.9 621.462s-.627-5.835 0-7.031c.626-1.195 1.821-3.844 1.821-3.844s-2.591.942-2.648-1.736c-.056-2.676 2.135-2.533 2.933-2.533.797 0 3.103.939 1.594 4.641-1.509 3.701-1.779 2.22-2.013 4.896-.236 2.676 0 5.438 0 5.438l-1.687.169z" fill="#ABAEAF"/><path d="M435.248 621.718s-.626-5.836 0-7.031c.626-1.195 1.821-3.842 1.821-3.842s-2.589.94-2.647-1.736c-.057-2.676 2.136-2.535 2.933-2.535.796 0 3.102.939 1.593 4.64-1.508 3.702-1.777 2.221-2.013 4.897-.235 2.676 0 5.437 0 5.437l-1.687.17z" fill="#C4C4C3"/><path d="M433.568 621.947s-.626-5.836 0-7.031c.626-1.196 1.823-3.844 1.823-3.844s-2.591.939-2.648-1.736c-.057-2.676 2.135-2.534 2.932-2.534.797 0 3.103.94 1.595 4.641-1.509 3.699-1.779 2.221-2.014 4.896-.235 2.676 0 5.436 0 5.436l-1.688.172z" fill="#DDDCDB"/><path d="M432.06 622.259s-.626-5.836 0-7.031c.626-1.195 1.822-3.842 1.822-3.842s-2.591.938-2.648-1.736c-.057-2.676 2.135-2.533 2.932-2.533.798 0 3.104.937 1.595 4.638-1.509 3.702-1.778 2.221-2.014 4.897-.235 2.676 0 5.437 0 5.437l-1.687.17zm-6.344-8.732s-2.741-.24-3.732-1.91c0 0 1.455-1.403 3.573-.358 0 0 2.399-.918 4.594-.279 0 0-1.519 2.311-4.435 2.547z" fill="#EAE8E8"/><path d="M443.767 629.216l-3.337.694-.675-3.244c-.842.197-1.729.357-2.644.488l.378 3.094-3.539.433-.387-3.164c-1.008.069-2.012.11-2.988.133v3.246h-3.612v-3.242a98.47 98.47 0 01-2.908-.102l-.548 3.256-3.887-.654 1.313-7.811.723.123.009-.347 19.436-.75.034.306 1.02-.213 1.612 7.754z" fill="#B7975B"/><path d="M421.159 621.021s10.003 1.527 20.987-1.064l.102 1.761s-13.767 3.215-21.369.826l.28-1.523z" fill="#302C32"/><path d="M424.616 618.593s-.664.269-1.399.277a2.564 2.564 0 01-.543-.044c-.172-.05-.32-.141-.442-.208a1.81 1.81 0 01-.289-.377l.024-.022s.19.066.391.179c.123.028.257.061.395.12.153.013.308.081.477.097.337.037.684.028.944.003.261-.02.435-.056.435-.056l.007.031zm2.911-.031s.174.036.435.056c.26.025.607.034.944-.003.169-.016.323-.084.477-.097.138-.059.272-.092.395-.12.201-.113.391-.179.391-.179l.023.022s-.08.159-.288.377c-.122.067-.27.158-.442.208a2.564 2.564 0 01-.543.044c-.735-.008-1.399-.277-1.399-.277l.007-.031z" fill="#828486"/><path d="M426.595 617.365s.151-.173.444-.359c.149-.082.326-.19.535-.25.209-.064.435-.131.67-.136.236-.039.471-.034.688.015.222.017.417.085.57.173.315.159.496.3.496.3l-.014.029s-.24-.014-.559-.087c-.157-.053-.346-.07-.544-.101-.198-.035-.408-.085-.625-.074-.218-.02-.43.02-.631.059-.2.037-.379.113-.533.171-.304.136-.476.283-.476.283l-.021-.023zm-2.088.023s-.128-.099-.349-.19c-.22-.086-.521-.185-.829-.175a2.256 2.256 0 00-.442.041c-.138.025-.274.015-.387.048-.228.036-.41.025-.41.025l-.014-.029s.124-.116.353-.239a.902.902 0 01.421-.12c.16-.038.334-.013.503.02.172.011.331.082.481.128.146.061.275.132.378.202.208.14.316.266.316.266l-.021.023zm.597.493s.032-.467-.029-1.162a7.999 7.999 0 00-.192-1.167c-.052-.208-.137-.413-.205-.626l-.327-.608c-.061-.084-.098-.246-.104-.401a.731.731 0 01.17-.399c.188-.21.435-.304.664-.362.234-.045.465-.071.68-.03.213.034.415.091.58.194a.985.985 0 01.382.352c.099.124.119.264.147.367.015.215.004.332.004.332h-.031s-.021-.119-.078-.303c-.053-.084-.088-.195-.187-.283a.879.879 0 00-.352-.24 1.298 1.298 0 00-.499-.115 2.214 2.214 0 00-.575.034 1.18 1.18 0 00-.511.255c-.132.143-.16.274-.059.491l.3.635c.061.228.139.448.182.666.084.438.117.85.123 1.202.012.706-.052 1.17-.052 1.17l-.031-.002z" fill="#454761"/></svg>