<svg xmlns="http://www.w3.org/2000/svg" style="isolation:isolate" viewBox="73.276 530.132 69.124 103.686" width="92.165" height="138.248"><path d="M142.4 631.095a2.723 2.723 0 01-2.722 2.723h-63.68a2.723 2.723 0 01-2.722-2.723v-98.24a2.723 2.723 0 012.722-2.723h63.68a2.723 2.723 0 012.722 2.723v98.24z" fill="#EAE8E8"/><path d="M134.947 613.765l2.79 3.795-2.79 3.795-2.79-3.795 2.79-3.795z" fill="#7D3C40"/><path d="M134.956 621.343l2.781-3.783-2.781-3.783v7.566z" fill="#934348"/><path d="M84.087 540.867a31.447 31.447 0 01-2.145-.468v-.044c1.219-.435 2.09-1.633 2.09-3.527 0-2.166-1.295-3.712-3.298-3.712-1.981 0-3.407 1.513-3.407 3.865 0 2.373 1.48 3.657 3.233 3.723.141 0 .283.054.446.108.849.294 1.818.588 2.809.85l.272-.795zm-3.407-.936c-1.503 0-2.352-1.404-2.352-2.972 0-1.589.784-3.07 2.384-3.07 1.557 0 2.319 1.513 2.319 2.994 0 1.665-.849 3.048-2.351 3.048zm50.908 83.154c.621.109 1.415.283 2.145.468v.043c-1.22.436-2.091 1.633-2.091 3.527 0 2.167 1.296 3.712 3.299 3.712 1.981 0 3.407-1.513 3.407-3.864 0-2.373-1.48-3.658-3.233-3.723-.142 0-.283-.054-.446-.109a39.471 39.471 0 00-2.809-.849l-.272.795zm3.407.936c1.502 0 2.352 1.404 2.352 2.972 0 1.589-.784 3.07-2.384 3.07-1.557 0-2.319-1.514-2.319-2.994 0-1.666.849-3.048 2.351-3.048zm-54.354-73.816l-2.79-3.795 2.79-3.795 2.789 3.795-2.789 3.795z" fill="#7D3C40"/><path d="M80.632 542.627l-2.781 3.783 2.781 3.783v-7.566z" fill="#934348"/><path d="M108.417 575.988h4.063v-1.377h-4.063v1.377z" fill="#454474"/><path d="M108.064 574.611h4.062v-1.375h-4.062v1.375z" fill="#A64045"/><path d="M107.463 573.236h4.063v-1.375h-4.063v1.375z" fill="#454474"/><path d="M107.109 571.861h4.063v-1.375h-4.063v1.375z" fill="#A64045"/><path d="M106.509 570.486h4.063v-1.377h-4.063v1.377z" fill="#454474"/><path d="M106.155 569.109h4.064v-1.375h-4.064v1.375z" fill="#A64045"/><path d="M105.556 567.734h4.062v-1.375h-4.062v1.375z" fill="#454474"/><path d="M108.064 576.044l-2.974-7.703-7.709-.543 4.414 8.825 6.269-.579zm9.591-.492l1.079-8.519-7.854.357-.128 3.139 2.703 5.588 4.2-.565z" fill="#A64045"/><path d="M108.705 566.871l3.487 9.021 2.559-.34s-3.583-4.715-3.023-6.506c.559-1.791 4.702-.705 4.702-.705l1.775-3.175-9.5 1.705zm.561 9.246l-3.408-9.151-8.702-.65 1.15 2.602s4.737-.895 6.112.224c1.376 1.119 2.688 6.846 2.688 6.846l2.16.129z" fill="#302C32"/><path d="M100.87 579.353c7.104.309 17.335-.617 17.335-.617v-3.184s-10.231.924-17.335.616" fill="#302C32"/><path d="M118.205 575.552s-10.231.924-17.335.616m17.335 2.568s-10.231.926-17.335.617" fill="none" vector-effect="non-scaling-stroke" stroke-width=".768" stroke="#A47953" stroke-miterlimit="10"/><path d="M123.837 569.158l-4.893-4.492s-3.861 1.996-3.397 5.964c.464 3.971 2.604 5.358 2.604 5.358l5.686-6.83z" fill="#CED6E7"/><path d="M123.837 569.162l-4.352-3.996s-3.434 1.775-3.021 5.304c.413 3.532 2.317 4.766 2.317 4.766l5.056-6.074z" fill="#302C32"/><path d="M123.837 569.168l-3.633-3.336s-2.865 1.482-2.52 4.427c.344 2.948 1.933 3.977 1.933 3.977l4.22-5.068zm-16.578 18.794h-4.063v1.375h4.063v-1.375z" fill="#454474"/><path d="M107.612 589.337h-4.062v1.377h4.062v-1.377z" fill="#A64045"/><path d="M108.213 590.714h-4.062v1.375h4.062v-1.375z" fill="#454474"/><path d="M108.567 592.089h-4.063v1.375h4.063v-1.375z" fill="#A64045"/><path d="M109.167 593.464h-4.062v1.375h4.062v-1.375z" fill="#454474"/><path d="M109.521 594.839h-4.063v1.375h4.063v-1.375z" fill="#A64045"/><path d="M110.12 596.214h-4.062v1.377h4.062v-1.377z" fill="#454474"/><path d="M107.612 587.906l2.974 7.701 7.709.545-4.414-8.824-6.269.578zm-9.591.492l-1.079 8.52 7.854-.36.128-3.137-2.703-5.587-4.2.564z" fill="#A64045"/><path d="M106.971 597.08l-3.487-9.022-2.559.34s3.583 4.715 3.023 6.506c-.559 1.791-4.702.703-4.702.703l-1.775 3.176 9.5-1.703zm-.561-9.246l3.407 9.148 8.702.652-1.149-2.601s-4.737.894-6.112-.225c-1.376-1.119-2.688-6.846-2.688-6.846l-2.16-.128z" fill="#302C32"/><path d="M114.806 584.597c-7.104-.308-17.335.617-17.335.617v3.184s10.231-.926 17.335-.617" fill="#302C32"/><path d="M97.471 588.398s10.231-.926 17.335-.617m-17.335-2.567s10.231-.925 17.335-.617" fill="none" vector-effect="non-scaling-stroke" stroke-width=".768" stroke="#A47953" stroke-miterlimit="10"/><path d="M133.119 601.277a14.381 14.381 0 01-4.427.697c-8.633 0-15.631-7.656-15.631-17.099 0-9.444 6.998-17.1 15.631-17.1 1.538 0 3.023.244 4.427.697v32.805z" fill="#DAE2F2"/><path d="M133.119 600.531a13.817 13.817 0 01-4.427.728c-8.273 0-14.978-7.336-14.978-16.384 0-9.049 6.705-16.385 14.978-16.385 1.541 0 3.028.256 4.427.728v31.313z" fill="#CED6E7"/><path d="M133.119 596.972a10.96 10.96 0 01-4.427.934c-6.58 0-11.914-5.834-11.914-13.031 0-7.198 5.334-13.032 11.914-13.032 1.565 0 3.057.332 4.427.934v24.195z" fill="#A47953"/><path d="M133.119 595.595a9.918 9.918 0 01-4.427 1.045c-5.94 0-10.755-5.267-10.755-11.765s4.815-11.766 10.755-11.766c1.579 0 3.077.375 4.427 1.045v21.441z" fill="#B7975B"/><path d="M133.119 591.603c-1.246.983-2.774 1.565-4.427 1.565-4.187 0-7.582-3.713-7.582-8.293 0-4.581 3.395-8.293 7.582-8.293 1.653 0 3.181.582 4.427 1.564v13.457z" fill="#DAE2F2"/><path d="M133.119 591.076c-1.22 1.045-2.758 1.67-4.427 1.67-3.974 0-7.195-3.526-7.195-7.871 0-4.346 3.221-7.872 7.195-7.872 1.669 0 3.207.625 4.427 1.67v12.403z" fill="#A64045"/><path d="M133.119 586.074c-.251.164-.497.334-.738.512-.244.181-.484.369-.719.562l-.001.002c-.233.193-.46.393-.681.6l-.006.003c-.218.206-.431.415-.638.631l-.015.014a13.515 13.515 0 00-.097-.666l-.022-.115a17.012 17.012 0 00-.101-.528l-.004-.015c-.013-.065-.03-.127-.044-.192a18.282 18.282 0 00-.098-.404l-.02-.08-.053-.189a13.768 13.768 0 00-.11-.383c-.007-.026-.016-.051-.024-.074-.019-.065-.041-.127-.062-.192a12.396 12.396 0 00-.128-.385l-.093-.246a14.484 14.484 0 00-.14-.365c-.034-.084-.07-.168-.105-.25a21.78 21.78 0 00-.153-.35c-.038-.086-.079-.168-.118-.252a12.909 12.909 0 00-.446-.865c-.01-.019-.019-.039-.031-.056-.043-.08-.089-.157-.134-.235a14.069 14.069 0 00-.145-.242c-.027-.045-.054-.092-.083-.135l-.112-.179c-.056-.088-.112-.172-.169-.258l-.123-.182-.07-.101c-.068-.096-.136-.192-.205-.286a11.123 11.123 0 00-.203-.269 9.448 9.448 0 00-.196-.252c-.031-.039-.063-.076-.094-.117l-.171-.205a25.174 25.174 0 00-.295-.342 15.37 15.37 0 00-.244-.266l-.043-.047c-.065-.068-.129-.136-.196-.203-.1-.103-.203-.205-.306-.306-.055-.051-.108-.106-.163-.157-.041-.039-.084-.076-.126-.117l-.284-.256c-.023-.019-.046-.041-.07-.062a11.21 11.21 0 00-.207-.174c-.107-.092-.216-.18-.325-.268-.081-.064-.163-.129-.245-.191-.077-.059-.155-.119-.234-.176-.095-.07-.193-.14-.291-.207-.079-.056-.158-.113-.238-.166-.099-.068-.201-.133-.303-.199-.08-.051-.161-.104-.242-.152a10.013 10.013 0 00-.314-.188 12.992 12.992 0 00-.574-.32l-.246-.129c-.113-.059-.229-.111-.343-.168-.081-.037-.161-.078-.244-.115a17.117 17.117 0 00-.369-.16 9.063 9.063 0 00-.645-.256c-.066-.026-.13-.053-.196-.075-.178-.064-.36-.123-.54-.181-.028-.008-.055-.018-.083-.028a17.218 17.218 0 00-.638-.181l-.097-.024a16.192 16.192 0 00-.548-.13l-.201-.04c-.15-.029-.301-.06-.453-.085-.078-.014-.159-.024-.239-.038a15.886 15.886 0 00-1.142-.132c2.844-4.254 7.438-7.016 12.623-7.016 1.532 0 3.013.242 4.413.693v17.606z" fill="#A47953"/><path d="M133.119 584.894c-.161.52-.38.92-.68 1.141-.562.607-1.324 1.07-1.905 1.677-.825-6.646-6.471-12.994-13.164-13.507 3.747-5.602 15.308-9.918 15.749-.844v11.533z" fill="#B7975B"/><path d="M104.447 616.273s-5.177-11.443-4.377-15.131c.802-3.685 8.172 6.75 8.172 6.75l-3.795 8.381z" fill="#302C32"/><path d="M108.897 626.752s-8.227-1.971-12.001-13.36c-3.776-11.387-2.048-15.758-2.048-15.758l5.734 4.012s-.525 5.381 3.409 14.69c3.934 9.308 4.906 8.458 4.906 8.458v1.958z" fill="#A64045"/><path d="M113.61 625.753s-8.226-1.97-12.001-13.359c-3.774-11.387-1.962-13.443-1.962-13.443l1.663.367s-2.1 3.703 1.835 13.014c3.934 9.308 10.465 11.464 10.465 11.464v1.957z" fill="#B7975B"/><path d="M133.119 585.408v11.156l-5.744 5.318-5.849-3.338 11.593-13.136z" fill="#454474"/><path d="M120.27 598.279s12.544-14.442 12.849-14.602v2.235l-10.506 12.632-2.343-.265z" fill="#302C32"/><path d="M100.989 602.609l-5.118-3.902s14.842-5.403 32.18 1.248l-4.15 5.117-22.912-2.463z" fill="#A47953"/><path d="M102.013 603.414l-5.117-3.905s13.817-5.109 31.155 1.539l-4.15 5.12-21.888-2.754z" fill="#B7975B"/><path d="M105.64 607.841c0-.101-.94-2.83-3.627-4.427 0 0 13.517-2.438 21.888 1.66 0 0-1.288 8.299-5.319 6.582-4.029-1.717-12.942-3.815-12.942-3.815z" fill="#CED6E7"/><path d="M104.139 618.439s-.34-3.027 0-3.477c.34-.447.404-.798.276-1.537-.129-.736-.129-4.291.448-5.06.577-.768 3.011-5.412 4.677-5.446 1.665-.031 8.68 2.852 8.777 6.6 0 0 .511-.674 1.184-.289.673.385.769 3.17.769 3.17s-5.739 12.525-11.373 11.98c0 0-4.778-3.425-4.758-5.941z" fill="#DAE2F2"/><path d="M108.897 626.752s5.959 1.597 10.601-3.348c4.642-4.945 9.74-16.817 13.621-18.11v-4.902s-9.435 4.824-11.718 12.283c-2.284 7.457-12.504 14.077-12.504 14.077z" fill="#302C32"/><path d="M108.897 624.132s1.526-6.714 8.07-6.943c1.826 1.75-4.182 6.943-4.182 6.943s-1.239.985-3.888.662v-.662z" fill="#CA834E"/><path d="M108.897 624.794s6.33-1.625 11.578-14.541c8.914-14.4 12.644-13.689 12.644-13.689v3.828s-6.468 5.205-10.425 12.36c-3.957 7.152-6.593 14-13.797 14v-1.958z" fill="#A64045"/><path d="M108.897 626.752s-8.227-1.971-12.001-13.36c-3.776-11.387-2.048-15.758-2.048-15.758l1.511.91s-1.863 5.475 2.072 14.786c3.934 9.308 10.466 11.464 10.466 11.464v1.958z" fill="#B7975B"/><path d="M108.897 624.132s-1.012-4.324-4.916-5.754c0 0-1.221 7.043 4.916 6.416v-.662z" fill="#B6784C"/><path d="M91.84 594.791l4.893 4.494s3.86-1.996 3.396-5.965c-.464-3.971-2.604-5.358-2.604-5.358l-5.685 6.829z" fill="#CED6E7"/><path d="M91.84 594.789l4.352 3.994s3.433-1.774 3.02-5.305c-.413-3.529-2.316-4.764-2.316-4.764l-5.056 6.075z" fill="#302C32"/><path d="M91.84 594.783l3.632 3.334s2.865-1.481 2.52-4.426c-.344-2.947-1.933-3.977-1.933-3.977l-4.219 5.069z" fill="#454474"/><path d="M104.121 615.414c.001 0 .769.203 1.54.174.192-.012.382-.02.558-.049.175-.019.346.013.488-.006.287-.009.502.032.502.032l.01.037s-.171.12-.463.232c-.289.115-.71.135-1.111.061a4.776 4.776 0 01-1.078-.251c-.283-.101-.459-.195-.459-.195l.013-.035zm9.496.2s-.237.098-.609.204c-.37.111-.878.21-1.395.261-.258.024-.519.065-.764.048a2.798 2.798 0 01-.66-.109 3.487 3.487 0 01-.61-.251l.009-.043s.27-.051.645-.051c.186.017.407-.019.637-.001.23.031.479.041.729.057a10.223 10.223 0 002.005-.157l.013.042z" fill="#CA834E"/><path d="M110.17 614.449s.168-.113.455-.215c.145-.042.315-.101.503-.126.188-.02.389-.053.592-.046.406.004.809.084 1.092.189.282.112.461.198.461.198s-.204-.018-.494-.063c-.141-.038-.315-.03-.495-.052a3.088 3.088 0 00-.565-.025c-.386-.021-.77.029-1.062.06-.291.035-.487.08-.487.08zm-3.298 0s-.153-.049-.382-.087c-.229-.035-.53-.087-.833-.067a1.968 1.968 0 00-.444.027c-.141.021-.278.018-.388.056a6.507 6.507 0 01-.389.071s.134-.081.353-.189c.218-.1.54-.18.866-.183.163-.009.325.025.475.044.15.027.284.082.396.124.223.098.346.204.346.204z" fill="#454761"/><path d="M108.67 606.904s.67-.416 1.619 0" fill="#DAE2F2"/><path d="M108.67 606.904s.077-.078.224-.153c.075-.029.163-.074.265-.09.101-.017.21-.037.32-.033.22.004.436.063.579.138.144.077.231.138.231.138s-.111-.009-.263-.034c-.151-.023-.352-.06-.55-.05-.199-.018-.397.016-.549.033-.152.022-.257.051-.257.051zm-1.117 1.16s.963-.103 1.927-.096c.963-.007 1.926.096 1.926.096s-.963.104-1.926.096a19.086 19.086 0 01-1.927-.096zm.451 2.184s.006-.036.033-.094a.68.68 0 01.152-.222.995.995 0 01.312-.221c.122-.077.271-.093.412-.143.145-.029.292-.025.428-.039.137-.018.263.02.371.028.215.035.354.07.354.07s-.146.022-.357.039c-.105.006-.229.005-.357.029-.128.02-.269.026-.401.06-.128.039-.273.045-.383.107a1.28 1.28 0 00-.31.152c-.172.109-.254.234-.254.234z" fill="#454761"/><path d="M82.557 562.673a14.381 14.381 0 014.427-.697c8.633 0 15.631 7.656 15.631 17.1 0 9.443-6.998 17.099-15.631 17.099-1.538 0-3.023-.244-4.427-.697v-32.805z" fill="#DAE2F2"/><path d="M82.557 563.419a13.762 13.762 0 014.427-.728c8.273 0 14.979 7.336 14.979 16.385 0 9.049-6.706 16.385-14.979 16.385a13.79 13.79 0 01-4.427-.729v-31.313z" fill="#CED6E7"/><path d="M82.557 566.978a10.977 10.977 0 014.427-.935c6.58 0 11.913 5.835 11.913 13.033 0 7.197-5.333 13.031-11.913 13.031-1.565 0-3.057-.334-4.427-.934v-24.195z" fill="#A47953"/><path d="M82.557 568.355a9.921 9.921 0 014.427-1.045c5.94 0 10.755 5.268 10.755 11.766s-4.815 11.765-10.755 11.765a9.948 9.948 0 01-4.427-1.045v-21.441z" fill="#B7975B"/><path d="M82.557 572.347c1.246-.982 2.774-1.564 4.427-1.564 4.187 0 7.582 3.713 7.582 8.293 0 4.58-3.395 8.291-7.582 8.291-1.653 0-3.181-.58-4.427-1.563v-13.457z" fill="#DAE2F2"/><path d="M82.557 572.875c1.22-1.045 2.758-1.67 4.427-1.67 3.974 0 7.195 3.523 7.195 7.871 0 4.345-3.221 7.869-7.195 7.869-1.669 0-3.207-.623-4.427-1.668v-12.402z" fill="#A64045"/><path d="M82.557 577.877c.251-.165.497-.334.738-.512.244-.182.484-.369.719-.563l.001-.002c.233-.193.46-.392.681-.599l.006-.006c.218-.203.431-.414.638-.629l.015-.014c.027.223.059.446.097.666l.022.116c.032.175.064.353.101.527l.004.016.044.189c.031.137.064.271.098.406l.02.08.053.188a12.159 12.159 0 00.134.459c.019.064.041.127.062.191.041.129.083.256.128.385l.093.246c.045.121.092.244.14.365.034.084.07.166.105.25.05.117.101.235.153.35.038.084.079.168.118.25.054.113.107.226.164.338.042.084.087.166.131.248.049.094.099.189.151.281.01.02.019.039.031.057.043.078.089.156.134.234a14.069 14.069 0 00.228.377l.112.18.169.258.123.179.07.104c.068.095.136.191.205.285.067.092.134.182.203.269.064.084.129.168.196.25.031.041.063.079.094.118l.171.207c.05.058.099.117.149.173a12.46 12.46 0 00.39.434l.043.047c.065.068.129.137.196.203.1.104.203.205.306.305l.163.158c.041.039.084.076.126.115a11.307 11.307 0 00.354.319c.068.06.138.117.207.175.107.092.216.18.325.268l.245.191a14.28 14.28 0 00.525.383c.079.057.158.111.238.166.1.069.201.133.303.197.08.053.161.106.242.155.103.064.209.125.314.187l.245.143c.109.06.218.119.329.176.082.045.163.087.246.13.113.057.229.112.343.166.081.04.161.081.244.118.122.054.246.107.369.16.077.031.153.066.23.097.138.055.276.108.415.159l.196.074c.178.064.36.123.54.182.028.007.055.017.084.027.21.064.423.125.638.182.031.007.064.013.096.023.182.045.364.09.548.131l.201.039c.15.029.301.06.452.086.079.013.16.023.24.035.377.059.757.105 1.142.135-2.844 4.252-7.438 7.015-12.623 7.015a14.42 14.42 0 01-4.413-.693v-17.605z" fill="#A47953"/><path d="M82.557 579.056c.16-.519.38-.92.68-1.14.562-.608 1.324-1.071 1.905-1.678.825 6.646 6.471 12.994 13.164 13.506-3.747 5.603-15.308 9.92-15.749.845v-11.533z" fill="#B7975B"/><path d="M82.557 578.543v-11.159l5.744-5.318 5.85 3.34-11.594 13.137z" fill="#454474"/><path d="M95.406 565.671s-12.544 14.44-12.849 14.602v-2.236l10.506-12.631 2.343.265zm15.823-17.996s5.177 11.446 4.377 15.131c-.802 3.688-8.172-6.748-8.172-6.748l3.795-8.383z" fill="#302C32"/><path d="M106.779 537.197s8.228 1.972 12.002 13.359c3.775 11.389 2.047 15.76 2.047 15.76l-5.734-4.012s.525-5.381-3.408-14.689c-3.935-9.311-4.907-8.459-4.907-8.459v-1.959z" fill="#A64045"/><path d="M102.066 538.195s8.226 1.973 12.001 13.359c3.775 11.389 1.962 13.446 1.962 13.446l-1.663-.368s2.1-3.705-1.835-13.013c-3.934-9.309-10.465-11.465-10.465-11.465v-1.959z" fill="#B7975B"/><path d="M114.687 561.341l5.118 3.903s-14.842 5.402-32.18-1.248l4.15-5.118 22.912 2.463z" fill="#A47953"/><path d="M113.663 560.537l5.118 3.902s-13.818 5.111-31.156-1.539l4.15-5.117 21.888 2.754z" fill="#B7975B"/><path d="M110.036 556.109c0 .102.94 2.828 3.627 4.428 0 0-13.517 2.437-21.888-1.66 0 0 1.288-8.299 5.319-6.583 4.029 1.717 12.942 3.815 12.942 3.815z" fill="#CED6E7"/><path d="M111.537 545.509s.34 3.03 0 3.477c-.34.449-.403.801-.276 1.539.129.736.129 4.291-.448 5.061-.577.767-3.011 5.412-4.676 5.445-1.666.031-8.681-2.852-8.778-6.6 0 0-.511.674-1.184.289-.673-.384-.769-3.172-.769-3.172s5.739-12.523 11.373-11.978c0 0 4.779 3.424 4.758 5.939z" fill="#DAE2F2"/><path d="M106.779 537.197s-5.959-1.598-10.601 3.349c-4.642 4.946-9.74 16.817-13.621 18.11v4.902s9.435-4.826 11.719-12.283c2.283-7.457 12.503-14.078 12.503-14.078z" fill="#302C32"/><path d="M106.779 539.818s-1.526 6.715-8.07 6.943c-1.826-1.75 4.182-6.943 4.182-6.943s1.239-.984 3.888-.662v.662z" fill="#CA834E"/><path d="M106.779 539.156s-6.33 1.625-11.578 14.541c-8.914 14.4-12.644 13.687-12.644 13.687v-3.826s6.468-5.207 10.425-12.359c3.957-7.153 6.593-14.002 13.797-14.002v1.959z" fill="#A64045"/><path d="M106.779 537.197s8.228 1.972 12.002 13.359c3.775 11.389 2.047 15.76 2.047 15.76l-1.512-.91s1.865-5.477-2.07-14.785c-3.934-9.309-10.467-11.465-10.467-11.465v-1.959z" fill="#B7975B"/><path d="M106.779 539.818s1.012 4.322 4.917 5.752c0 0 1.22-7.043-4.917-6.414v.662z" fill="#B6784C"/><path d="M111.555 548.537s-.769-.203-1.54-.175c-.192.013-.382.02-.558.05-.175.018-.346-.014-.488.006-.287.008-.502-.033-.502-.033l-.01-.037s.171-.12.463-.231c.289-.115.71-.136 1.111-.062a4.83 4.83 0 011.078.251c.283.102.459.196.459.196l-.013.035zm-9.496-.201s.237-.098.609-.204c.37-.111.878-.21 1.395-.26.258-.025.519-.066.764-.049.244.019.471.046.66.109.379.12.61.251.61.251l-.009.043s-.27.051-.645.051c-.186-.017-.407.019-.637.001-.23-.03-.479-.041-.729-.057-1.001-.036-2.005.157-2.005.156l-.013-.041z" fill="#CA834E"/><path d="M105.506 549.502s-.168.112-.455.214c-.145.042-.315.101-.503.126-.188.02-.389.053-.592.046a3.433 3.433 0 01-1.092-.188c-.282-.113-.461-.198-.461-.198s.204.017.494.062c.141.038.315.03.495.053.179.028.372.029.565.024.386.022.77-.029 1.062-.059.291-.036.487-.08.487-.08zm3.298 0s.153.048.382.086c.229.036.53.087.833.067.152.006.303.002.444-.027.141-.021.278-.018.388-.056.227-.048.389-.07.389-.07s-.134.081-.353.188a2.22 2.22 0 01-.866.184c-.163.008-.325-.026-.475-.044-.15-.028-.284-.082-.396-.124-.223-.099-.346-.204-.346-.204z" fill="#454761"/><path d="M107.006 557.044s-.67.418-1.619 0" fill="#DAE2F2"/><path d="M107.006 557.044s-.076.079-.224.154c-.075.029-.163.074-.264.091-.102.015-.211.037-.321.032a1.383 1.383 0 01-.579-.138c-.144-.078-.231-.139-.231-.139s.111.009.263.036c.151.022.352.059.55.049.199.018.397-.016.549-.034.152-.021.257-.051.257-.051zm1.117-1.158s-.963.104-1.927.096c-.963.008-1.926-.096-1.926-.096s.963-.103 1.926-.095c.964-.008 1.927.095 1.927.095zm-.451-2.183s-.006.035-.033.093a.68.68 0 01-.152.222c-.08.081-.182.165-.312.222-.122.076-.271.093-.412.142-.145.03-.292.026-.428.039-.137.018-.263-.02-.371-.028-.215-.035-.354-.069-.354-.069s.146-.023.357-.039c.105-.007.229-.006.357-.03.128-.02.269-.026.401-.06.128-.038.273-.045.383-.107.119-.044.227-.09.31-.152a.886.886 0 00.254-.233z" fill="#454761"/></svg>