<svg xmlns="http://www.w3.org/2000/svg" style="isolation:isolate" viewBox="398.999 318.148 69.123 103.684" width="92.164" height="138.245"><path d="M468.122 419.111a2.72 2.72 0 01-2.721 2.721h-63.68a2.722 2.722 0 01-2.722-2.721v-98.242a2.722 2.722 0 012.722-2.721h63.68a2.721 2.721 0 012.721 2.721v98.242z" fill="#EAE8E8"/><path d="M417.817 347.822l-5.271-7.169 5.271-7.168 5.27 7.168-5.27 7.169z" fill="#7D3C40"/><path d="M417.8 333.508l-5.254 7.145 5.254 7.147v-14.292z" fill="#934348"/><path d="M449.274 347.822l-5.271-7.169 5.271-7.168 5.269 7.168-5.269 7.169z" fill="#7D3C40"/><path d="M449.257 333.508l-5.254 7.145 5.254 7.147v-14.292z" fill="#934348"/><path d="M417.817 367.35l-5.271-7.168 5.271-7.168 5.27 7.168-5.27 7.168z" fill="#7D3C40"/><path d="M417.8 353.036l-5.254 7.146 5.254 7.145v-14.291z" fill="#934348"/><path d="M449.274 367.35l-5.271-7.168 5.271-7.168 5.269 7.168-5.269 7.168z" fill="#7D3C40"/><path d="M449.257 353.036l-5.254 7.146 5.254 7.145v-14.291z" fill="#934348"/><path d="M417.817 386.878l-5.271-7.169 5.271-7.168 5.27 7.168-5.27 7.169z" fill="#7D3C40"/><path d="M417.8 372.565l-5.254 7.144 5.254 7.146v-14.29z" fill="#934348"/><path d="M449.274 386.878l-5.271-7.169 5.271-7.168 5.269 7.168-5.269 7.169z" fill="#7D3C40"/><path d="M449.257 372.565l-5.254 7.144 5.254 7.146v-14.29z" fill="#934348"/><path d="M417.817 406.406l-5.271-7.168 5.271-7.168 5.27 7.168-5.27 7.168z" fill="#7D3C40"/><path d="M417.8 392.091l-5.254 7.147 5.254 7.144v-14.291z" fill="#934348"/><path d="M449.274 406.406l-5.271-7.168 5.271-7.168 5.269 7.168-5.269 7.168z" fill="#7D3C40"/><path d="M449.257 392.091l-5.254 7.147 5.254 7.144v-14.291z" fill="#934348"/><path d="M404.66 328.707c.229.011.533 0 .882-.055.762-.087 1.513-.413 2.057-.947.697-.675 1.219-1.763 1.219-3.309 0-1.829-.892-2.994-2.34-2.994s-2.417 1.176-2.417 2.515c0 1.208.817 2.166 2.079 2.166.719 0 1.285-.272 1.677-.751h.032c-.13.828-.468 1.448-.936 1.873-.403.391-.925.609-1.48.685-.327.033-.566.055-.773.033v.784zm1.731-6.575c1.012 0 1.458.925 1.458 2.133a.67.67 0 01-.087.36c-.25.424-.751.74-1.393.74-.827 0-1.361-.621-1.361-1.502 0-1.013.577-1.731 1.383-1.731zm56.071 89.141a4.48 4.48 0 00-.882.054c-.762.088-1.513.414-2.057.948-.697.674-1.219 1.763-1.219 3.309 0 1.829.892 2.993 2.34 2.993s2.417-1.175 2.417-2.514c0-1.209-.817-2.167-2.08-2.167-.718 0-1.284.273-1.676.752h-.033c.131-.828.468-1.448.937-1.873.402-.392.925-.609 1.48-.686.327-.032.566-.054.773-.032v-.784zm-1.731 6.575c-1.012 0-1.459-.925-1.459-2.134 0-.163.033-.261.088-.359.25-.424.751-.74 1.393-.74.827 0 1.361.62 1.361 1.502 0 1.012-.577 1.731-1.383 1.731zm-.017-16.167l2.79 3.795-2.79 3.793-2.79-3.793 2.79-3.795z" fill="#7D3C40"/><path d="M460.723 409.257l2.781-3.781-2.781-3.783v7.564z" fill="#934348"/><path d="M406.407 338.119l-2.79-3.795 2.79-3.794 2.789 3.794-2.789 3.795z" fill="#7D3C40"/><path d="M406.399 330.542l-2.782 3.782 2.782 3.783v-7.565z" fill="#934348"/><path d="M433.561 377.158l-5.27-7.169 5.27-7.168 5.27 7.168-5.27 7.169z" fill="#7D3C40"/><path d="M433.545 362.845l-5.254 7.144 5.254 7.145v-14.289z" fill="#934348"/></svg>