<svg xmlns="http://www.w3.org/2000/svg" style="isolation:isolate" viewBox="73.276 106.73 69.124 103.683" width="92.165" height="138.244"><path d="M142.4 207.692a2.722 2.722 0 01-2.722 2.721h-63.68a2.722 2.722 0 01-2.722-2.721V109.45a2.721 2.721 0 012.722-2.72h63.68a2.721 2.721 0 012.722 2.72v98.242z" fill="#EAE8E8"/><path d="M92.094 141.216l-5.271-7.168 5.271-7.168 5.269 7.168-5.269 7.168z" fill="#7D3C40"/><path d="M92.077 126.902l-5.254 7.146 5.254 7.145v-14.291z" fill="#934348"/><path d="M123.55 141.216l-5.271-7.168 5.271-7.168 5.27 7.168-5.27 7.168z" fill="#7D3C40"/><path d="M123.533 126.902l-5.254 7.146 5.254 7.145v-14.291z" fill="#934348"/><path d="M92.094 190.264l-5.271-7.168 5.271-7.168 5.269 7.168-5.269 7.168z" fill="#7D3C40"/><path d="M92.077 175.95l-5.254 7.146 5.254 7.145V175.95z" fill="#934348"/><path d="M123.55 190.264l-5.271-7.168 5.271-7.168 5.27 7.168-5.27 7.168z" fill="#7D3C40"/><path d="M123.533 175.95l-5.254 7.146 5.254 7.145V175.95z" fill="#934348"/><path d="M82.247 117.179v-1.938h.991v-.74h-.991v-4.398h-1.034l-3.157 4.518v.62h3.288v1.938h.903zm-3.222-2.678v-.022l1.731-2.405c.196-.327.37-.632.588-1.045h.032c-.021.37-.032.74-.032 1.11v2.362h-2.319zm54.403 85.461v1.938h-.991v.74h.991v4.398h1.034l3.157-4.518v-.62h-3.288v-1.938h-.903zm3.222 2.678v.021l-1.731 2.406c-.196.327-.37.632-.588 1.045h-.032c.021-.37.032-.74.032-1.11v-2.362h2.319zm-1.659-12.377l2.789 3.794-2.789 3.794-2.79-3.794 2.79-3.794z" fill="#7D3C40"/><path d="M134.999 197.839l2.781-3.782-2.781-3.783v7.565z" fill="#934348"/><path d="M80.684 126.7l-2.789-3.794 2.789-3.795 2.79 3.795-2.79 3.794z" fill="#7D3C40"/><path d="M80.675 119.124l-2.78 3.782 2.78 3.783v-7.565z" fill="#934348"/></svg>