<svg xmlns="http://www.w3.org/2000/svg" style="isolation:isolate" viewBox="0 318.148 69.123 103.684" width="92.164" height="138.245"><path d="M69.123 419.111a2.72 2.72 0 01-2.722 2.721H2.721A2.72 2.72 0 010 419.111v-98.242a2.721 2.721 0 012.721-2.721h63.68a2.722 2.722 0 012.722 2.721v98.242z" fill="#EAE8E8"/><path d="M50.274 352.554l-1.081-1.076c-4.006-3.543-6.625-5.932-6.625-8.864 0-2.383 1.852-4.235 4.236-4.235 1.315 0 2.623 1.401 3.47 2.401.846-1 2.155-2.401 3.467-2.401 2.385 0 4.237 1.852 4.237 4.235 0 2.932-2.619 5.321-6.625 8.864l-1.079 1.076z" fill="#7D3C40"/><path d="M50.257 340.77c-.848-.999-2.147-2.382-3.453-2.382-2.384 0-4.236 1.85-4.236 4.235 0 2.931 2.619 5.318 6.625 8.862l1.064 1.06V340.77z" fill="#934348"/><path d="M18.817 401.601l-1.08-1.076c-4.006-3.543-6.625-5.932-6.625-8.863 0-2.383 1.851-4.235 4.236-4.235 1.314 0 2.622 1.401 3.469 2.401.846-1 2.155-2.401 3.468-2.401 2.385 0 4.237 1.852 4.237 4.235 0 2.931-2.619 5.32-6.625 8.863l-1.08 1.076z" fill="#7D3C40"/><path d="M18.8 389.818c-.847-1-2.147-2.383-3.452-2.383-2.385 0-4.236 1.852-4.236 4.236 0 2.93 2.619 5.319 6.625 8.862l1.063 1.06v-11.775z" fill="#934348"/><path d="M18.817 352.554l-1.08-1.076c-4.006-3.543-6.625-5.932-6.625-8.864 0-2.383 1.851-4.235 4.236-4.235 1.314 0 2.622 1.401 3.469 2.401.846-1 2.155-2.401 3.468-2.401 2.385 0 4.237 1.852 4.237 4.235 0 2.932-2.619 5.321-6.625 8.864l-1.08 1.076z" fill="#7D3C40"/><path d="M18.8 340.77c-.847-.999-2.147-2.382-3.452-2.382-2.385 0-4.236 1.85-4.236 4.235 0 2.931 2.619 5.318 6.625 8.862l1.063 1.06V340.77z" fill="#934348"/><path d="M50.274 377.078l-1.081-1.076c-4.006-3.544-6.625-5.933-6.625-8.864 0-2.384 1.852-4.236 4.236-4.236 1.315 0 2.623 1.402 3.47 2.402.846-1 2.155-2.402 3.467-2.402 2.385 0 4.237 1.852 4.237 4.236 0 2.931-2.619 5.32-6.625 8.864l-1.079 1.076z" fill="#7D3C40"/><path d="M50.257 365.293c-.848-.999-2.147-2.382-3.453-2.382-2.384 0-4.236 1.851-4.236 4.236 0 2.93 2.619 5.319 6.625 8.862l1.064 1.061v-11.777z" fill="#934348"/><path d="M18.817 377.078l-1.08-1.076c-4.006-3.544-6.625-5.933-6.625-8.864 0-2.384 1.851-4.236 4.236-4.236 1.314 0 2.622 1.402 3.469 2.402.846-1 2.155-2.402 3.468-2.402 2.385 0 4.237 1.852 4.237 4.236 0 2.931-2.619 5.32-6.625 8.864l-1.08 1.076z" fill="#7D3C40"/><path d="M18.8 365.293c-.847-.999-2.147-2.382-3.452-2.382-2.385 0-4.236 1.851-4.236 4.236 0 2.93 2.619 5.319 6.625 8.862l1.063 1.061v-11.777z" fill="#934348"/><path d="M50.274 401.601l-1.081-1.076c-4.006-3.543-6.625-5.932-6.625-8.863 0-2.383 1.852-4.235 4.236-4.235 1.315 0 2.623 1.401 3.47 2.401.846-1 2.155-2.401 3.467-2.401 2.385 0 4.237 1.852 4.237 4.235 0 2.931-2.619 5.32-6.625 8.863l-1.079 1.076z" fill="#7D3C40"/><path d="M50.257 389.818c-.848-1-2.147-2.383-3.453-2.383-2.384 0-4.236 1.852-4.236 4.236 0 2.93 2.619 5.319 6.625 8.862l1.064 1.06v-11.775z" fill="#934348"/><path d="M6.423 324.908c-.871.37-1.405 1.012-1.405 1.905 0 1.034.893 1.905 2.374 1.905 1.349 0 2.405-.817 2.405-2.058 0-.849-.544-1.48-1.426-1.829v-.032c.871-.403 1.176-1.056 1.176-1.655 0-.892-.697-1.742-2.068-1.742-1.252 0-2.199.762-2.199 1.884 0 .609.337 1.219 1.132 1.589l.011.033zm.99 3.113c-.903 0-1.447-.631-1.415-1.339 0-.675.446-1.23 1.274-1.47.958.273 1.556.697 1.556 1.546 0 .73-.555 1.263-1.415 1.263zm.011-5.933c.86 0 1.198.588 1.198 1.154 0 .642-.468 1.078-1.078 1.285-.816-.218-1.361-.599-1.35-1.307 0-.609.436-1.132 1.23-1.132zm55.274 92.984c.871-.37 1.404-1.012 1.404-1.905 0-1.034-.892-1.905-2.373-1.905-1.35 0-2.406.817-2.406 2.058 0 .849.545 1.48 1.426 1.828v.033c-.87.403-1.175 1.056-1.175 1.655 0 .892.696 1.741 2.068 1.741 1.252 0 2.199-.762 2.199-1.883 0-.61-.338-1.219-1.132-1.589l-.011-.033zm-.991-3.113c.904 0 1.448.631 1.415 1.339 0 .675-.446 1.23-1.273 1.469-.958-.272-1.557-.696-1.557-1.545 0-.73.555-1.263 1.415-1.263zm-.011 5.932c-.86 0-1.197-.587-1.197-1.153 0-.643.468-1.078 1.078-1.285.816.218 1.36.599 1.349 1.306 0 .61-.435 1.132-1.23 1.132zM7.417 338.109l-.578-.576c-2.144-1.895-3.545-3.174-3.545-4.741 0-1.275.99-2.267 2.267-2.267.703 0 1.403.75 1.856 1.286.453-.536 1.153-1.286 1.857-1.286 1.275 0 2.265.992 2.265 2.267 0 1.567-1.4 2.846-3.545 4.741l-.577.576z" fill="#7D3C40"/><path d="M7.408 331.805c-.454-.534-1.148-1.275-1.847-1.275a2.236 2.236 0 00-2.267 2.266c0 1.568 1.401 2.847 3.545 4.742l.569.568v-6.301z" fill="#934348"/><path d="M61.706 401.871l.577.576c2.144 1.894 3.545 3.174 3.545 4.742 0 1.275-.99 2.266-2.265 2.266-.704 0-1.405-.75-1.857-1.286-.453.536-1.153 1.286-1.856 1.286a2.236 2.236 0 01-2.266-2.266c0-1.568 1.4-2.848 3.545-4.742l.577-.576z" fill="#7D3C40"/><path d="M61.715 408.175c.453.536 1.148 1.276 1.848 1.276a2.237 2.237 0 002.265-2.268c0-1.568-1.401-2.846-3.545-4.742l-.568-.566v6.3z" fill="#934348"/><path d="M34.562 363.646l-1.079-1.076c-4.008-3.543-6.626-5.931-6.626-8.863 0-2.384 1.851-4.235 4.235-4.235 1.315 0 2.623 1.401 3.47 2.401.846-1 2.155-2.401 3.467-2.401 2.386 0 4.237 1.851 4.237 4.235 0 2.932-2.618 5.32-6.625 8.863l-1.079 1.076z" fill="#7D3C40"/><path d="M34.545 351.862c-.848-.999-2.146-2.381-3.453-2.381-2.384 0-4.235 1.85-4.235 4.235 0 2.931 2.618 5.318 6.626 8.862l1.062 1.06v-11.776z" fill="#934348"/><path d="M34.562 389.677l-1.079-1.076c-4.008-3.543-6.626-5.932-6.626-8.861 0-2.385 1.851-4.237 4.235-4.237 1.315 0 2.623 1.403 3.47 2.403.846-1 2.155-2.403 3.467-2.403 2.386 0 4.237 1.852 4.237 4.237 0 2.929-2.618 5.318-6.625 8.861l-1.079 1.076z" fill="#7D3C40"/><path d="M34.545 377.894c-.848-.998-2.146-2.381-3.453-2.381-2.384 0-4.235 1.85-4.235 4.235 0 2.929 2.618 5.318 6.626 8.863l1.062 1.058v-11.775z" fill="#934348"/></svg>