<svg xmlns="http://www.w3.org/2000/svg" style="isolation:isolate" viewBox="325.723 318.148 69.123 103.684" width="92.164" height="138.245"><path d="M394.846 419.111a2.72 2.72 0 01-2.722 2.721h-63.68a2.72 2.72 0 01-2.721-2.721v-98.242a2.721 2.721 0 012.721-2.721h63.68a2.722 2.722 0 012.722 2.721v98.242z" fill="#EAE8E8"/><path d="M376.013 347.66l-1.079-1.076c-4.008-3.543-6.626-5.932-6.626-8.863 0-2.384 1.851-4.236 4.235-4.236 1.316 0 2.623 1.402 3.47 2.402.846-1 2.155-2.402 3.469-2.402 2.384 0 4.235 1.852 4.235 4.236 0 2.931-2.618 5.32-6.624 8.863l-1.08 1.076z" fill="#7D3C40"/><path d="M375.996 335.876c-.847-.999-2.146-2.382-3.453-2.382-2.384 0-4.235 1.851-4.235 4.236 0 2.93 2.618 5.318 6.626 8.862l1.062 1.059v-11.775z" fill="#934348"/><path d="M344.556 347.66l-1.079-1.076c-4.007-3.543-6.625-5.932-6.625-8.863 0-2.384 1.85-4.236 4.235-4.236 1.314 0 2.623 1.402 3.469 2.402.847-1 2.156-2.402 3.469-2.402 2.384 0 4.236 1.852 4.236 4.236 0 2.931-2.618 5.32-6.625 8.863l-1.08 1.076z" fill="#7D3C40"/><path d="M344.54 335.876c-.848-.999-2.147-2.382-3.453-2.382-2.385 0-4.235 1.851-4.235 4.236 0 2.93 2.618 5.318 6.625 8.862l1.063 1.059v-11.775z" fill="#934348"/><path d="M376.013 367.269l-1.079-1.077c-4.008-3.543-6.626-5.931-6.626-8.862 0-2.384 1.851-4.235 4.235-4.235 1.316 0 2.623 1.401 3.47 2.401.846-1 2.155-2.401 3.469-2.401 2.384 0 4.235 1.851 4.235 4.235 0 2.931-2.618 5.319-6.624 8.862l-1.08 1.077z" fill="#7D3C40"/><path d="M375.996 355.485c-.847-.999-2.146-2.381-3.453-2.381-2.384 0-4.235 1.85-4.235 4.234 0 2.931 2.618 5.319 6.626 8.863l1.062 1.06v-11.776z" fill="#934348"/><path d="M344.556 367.269l-1.079-1.077c-4.007-3.543-6.625-5.931-6.625-8.862 0-2.384 1.85-4.235 4.235-4.235 1.314 0 2.623 1.401 3.469 2.401.847-1 2.156-2.401 3.469-2.401 2.384 0 4.236 1.851 4.236 4.235 0 2.931-2.618 5.319-6.625 8.862l-1.08 1.077z" fill="#7D3C40"/><path d="M344.54 355.485c-.848-.999-2.147-2.381-3.453-2.381-2.385 0-4.235 1.85-4.235 4.234 0 2.931 2.618 5.319 6.625 8.863l1.063 1.06v-11.776z" fill="#934348"/><path d="M344.556 386.878l-1.079-1.076c-4.007-3.543-6.625-5.931-6.625-8.863 0-2.384 1.85-4.236 4.235-4.236 1.314 0 2.623 1.402 3.469 2.402.847-1 2.156-2.402 3.469-2.402 2.384 0 4.236 1.852 4.236 4.236 0 2.932-2.618 5.32-6.625 8.863l-1.08 1.076z" fill="#7D3C40"/><path d="M344.54 375.093c-.848-.998-2.147-2.381-3.453-2.381-2.385 0-4.235 1.851-4.235 4.235 0 2.931 2.618 5.318 6.625 8.863l1.063 1.059v-11.776z" fill="#934348"/><path d="M376.013 386.878l-1.079-1.076c-4.008-3.543-6.626-5.931-6.626-8.863 0-2.384 1.851-4.236 4.235-4.236 1.316 0 2.623 1.402 3.47 2.402.846-1 2.155-2.402 3.469-2.402 2.384 0 4.235 1.852 4.235 4.236 0 2.932-2.618 5.32-6.624 8.863l-1.08 1.076z" fill="#7D3C40"/><path d="M375.996 375.093c-.847-.998-2.146-2.381-3.453-2.381-2.384 0-4.235 1.851-4.235 4.235 0 2.931 2.618 5.318 6.626 8.863l1.062 1.059v-11.776z" fill="#934348"/><path d="M344.556 406.494l-1.079-1.075c-4.007-3.544-6.625-5.933-6.625-8.863 0-2.385 1.85-4.236 4.235-4.236 1.314 0 2.623 1.402 3.469 2.402.847-1 2.156-2.402 3.469-2.402 2.384 0 4.236 1.851 4.236 4.236 0 2.93-2.618 5.319-6.625 8.863l-1.08 1.075z" fill="#7D3C40"/><path d="M344.54 394.711c-.848-.999-2.147-2.381-3.453-2.381-2.385 0-4.235 1.849-4.235 4.234 0 2.932 2.618 5.318 6.625 8.863l1.063 1.059v-11.775z" fill="#934348"/><path d="M376.013 406.494l-1.079-1.075c-4.008-3.544-6.626-5.933-6.626-8.863 0-2.385 1.851-4.236 4.235-4.236 1.316 0 2.623 1.402 3.47 2.402.846-1 2.155-2.402 3.469-2.402 2.384 0 4.235 1.851 4.235 4.236 0 2.93-2.618 5.319-6.624 8.863l-1.08 1.075z" fill="#7D3C40"/><path d="M375.996 394.711c-.847-.999-2.146-2.381-3.453-2.381-2.384 0-4.235 1.849-4.235 4.234 0 2.932 2.618 5.318 6.626 8.863l1.062 1.059v-11.775z" fill="#934348"/><path d="M331.383 328.707c.229.011.533 0 .882-.055.762-.087 1.513-.413 2.057-.947.697-.675 1.219-1.763 1.219-3.309 0-1.829-.892-2.994-2.34-2.994s-2.417 1.176-2.417 2.515c0 1.208.817 2.166 2.079 2.166.719 0 1.285-.272 1.677-.751h.032c-.13.828-.468 1.448-.936 1.873-.403.391-.925.609-1.48.685-.327.033-.566.055-.773.033v.784zm1.731-6.575c1.012 0 1.458.925 1.458 2.133a.67.67 0 01-.087.36c-.25.424-.751.74-1.393.74-.827 0-1.361-.621-1.361-1.502 0-1.013.577-1.731 1.383-1.731zm56.071 89.141a4.48 4.48 0 00-.882.054c-.762.088-1.513.414-2.057.948-.697.674-1.219 1.763-1.219 3.309 0 1.829.892 2.993 2.34 2.993s2.417-1.175 2.417-2.514c0-1.209-.817-2.167-2.08-2.167-.718 0-1.284.273-1.676.752h-.033c.131-.828.468-1.448.937-1.873.402-.392.925-.609 1.48-.686.327-.032.566-.054.773-.032v-.784zm-1.731 6.575c-1.012 0-1.459-.925-1.459-2.134 0-.163.033-.261.087-.359.251-.424.752-.74 1.394-.74.827 0 1.361.62 1.361 1.502 0 1.012-.577 1.731-1.383 1.731zm-54.314-79.739l-.577-.576c-2.144-1.895-3.545-3.174-3.545-4.741 0-1.275.99-2.267 2.265-2.267.704 0 1.405.75 1.857 1.286.453-.536 1.153-1.286 1.856-1.286 1.276 0 2.266.992 2.266 2.267 0 1.567-1.401 2.846-3.545 4.741l-.577.576z" fill="#7D3C40"/><path d="M333.131 331.805c-.453-.534-1.148-1.275-1.848-1.275a2.236 2.236 0 00-2.265 2.266c0 1.568 1.401 2.847 3.545 4.742l.568.568v-6.301z" fill="#934348"/><path d="M387.429 401.871l.578.576c2.144 1.894 3.545 3.174 3.545 4.742 0 1.275-.99 2.266-2.267 2.266-.703 0-1.403-.75-1.856-1.286-.453.536-1.153 1.286-1.856 1.286a2.236 2.236 0 01-2.266-2.266c0-1.568 1.4-2.848 3.545-4.742l.577-.576z" fill="#7D3C40"/><path d="M387.438 408.175c.454.536 1.148 1.276 1.847 1.276 1.277 0 2.267-.99 2.267-2.266 0-1.568-1.401-2.848-3.545-4.742l-.569-.568v6.3z" fill="#934348"/><path d="M360.284 377.078l-1.079-1.076c-4.007-3.544-6.626-5.933-6.626-8.864 0-2.384 1.852-4.236 4.236-4.236 1.315 0 2.623 1.402 3.469 2.402.847-1 2.156-2.402 3.469-2.402 2.385 0 4.236 1.852 4.236 4.236 0 2.931-2.618 5.32-6.625 8.864l-1.08 1.076z" fill="#7D3C40"/><path d="M360.269 365.293c-.849-.999-2.148-2.382-3.454-2.382-2.384 0-4.236 1.851-4.236 4.236 0 2.93 2.619 5.318 6.626 8.862l1.064 1.059v-11.775z" fill="#934348"/></svg>