<svg xmlns="http://www.w3.org/2000/svg" style="isolation:isolate" viewBox="325.723 106.405 69.123 103.685" width="92.164" height="138.247"><path d="M394.846 207.368a2.722 2.722 0 01-2.722 2.722h-63.68a2.722 2.722 0 01-2.721-2.722v-98.241a2.722 2.722 0 012.721-2.722h63.68a2.722 2.722 0 012.722 2.722v98.241z" fill="#EAE8E8"/><path d="M375.996 140.811l-1.079-1.076c-4.008-3.543-6.626-5.931-6.626-8.863 0-2.384 1.852-4.235 4.235-4.235 1.316 0 2.624 1.401 3.47 2.401.847-1 2.155-2.401 3.469-2.401 2.385 0 4.236 1.851 4.236 4.235 0 2.932-2.619 5.32-6.625 8.863l-1.08 1.076z" fill="#7D3C40"/><path d="M375.98 129.027c-.848-.999-2.147-2.381-3.454-2.381-2.383 0-4.235 1.85-4.235 4.235 0 2.931 2.618 5.318 6.626 8.862l1.063 1.06v-11.776z" fill="#934348"/><path d="M344.539 189.858l-1.079-1.076c-4.007-3.543-6.625-5.931-6.625-8.862 0-2.384 1.852-4.235 4.235-4.235 1.315 0 2.623 1.4 3.469 2.401.848-1.001 2.156-2.401 3.469-2.401 2.385 0 4.236 1.851 4.236 4.235 0 2.931-2.618 5.319-6.625 8.862l-1.08 1.076z" fill="#7D3C40"/><path d="M344.524 178.074c-.848-.998-2.148-2.382-3.454-2.382-2.383 0-4.235 1.852-4.235 4.236 0 2.93 2.618 5.319 6.625 8.863l1.064 1.06v-11.777z" fill="#934348"/><path d="M344.539 140.811l-1.079-1.076c-4.007-3.543-6.625-5.931-6.625-8.863 0-2.384 1.852-4.235 4.235-4.235 1.315 0 2.623 1.401 3.469 2.401.848-1 2.156-2.401 3.469-2.401 2.385 0 4.236 1.851 4.236 4.235 0 2.932-2.618 5.32-6.625 8.863l-1.08 1.076z" fill="#7D3C40"/><path d="M344.524 129.027c-.848-.999-2.148-2.381-3.454-2.381-2.383 0-4.235 1.85-4.235 4.235 0 2.931 2.618 5.318 6.625 8.862l1.064 1.06v-11.776z" fill="#934348"/><path d="M375.996 189.858l-1.079-1.076c-4.008-3.543-6.626-5.931-6.626-8.862 0-2.384 1.852-4.235 4.235-4.235 1.316 0 2.624 1.4 3.47 2.401.847-1.001 2.155-2.401 3.469-2.401 2.385 0 4.236 1.851 4.236 4.235 0 2.931-2.619 5.319-6.625 8.862l-1.08 1.076z" fill="#7D3C40"/><path d="M375.98 178.074c-.848-.998-2.147-2.382-3.454-2.382-2.383 0-4.235 1.852-4.235 4.236 0 2.93 2.618 5.319 6.626 8.863l1.063 1.06v-11.777z" fill="#934348"/><path d="M335.051 109.78h-3.385l-.457 3.397c.261-.033.577-.066.99-.066 1.405 0 2.025.642 2.025 1.557.011.947-.773 1.535-1.665 1.535-.654 0-1.231-.218-1.524-.392l-.24.729c.348.218.991.436 1.764.436 1.534 0 2.634-1.035 2.634-2.417 0-.882-.457-1.502-1.012-1.807-.436-.272-.969-.381-1.524-.381-.262 0-.414.011-.577.033l.272-1.818h2.699v-.806zm50.465 96.936h3.386l.457-3.397a7.54 7.54 0 01-.991.066c-1.404 0-2.024-.643-2.024-1.557-.011-.947.773-1.535 1.665-1.535.653 0 1.23.218 1.524.392l.24-.729c-.349-.218-.991-.436-1.764-.436-1.535 0-2.634 1.034-2.634 2.417 0 .881.457 1.502 1.012 1.807.436.272.969.381 1.524.381.262 0 .414-.011.577-.033l-.272 1.818h-2.7v.806zm-52.376-80.349l-.578-.576c-2.144-1.895-3.544-3.174-3.544-4.741 0-1.277.99-2.267 2.265-2.267.704 0 1.404.75 1.857 1.285.453-.535 1.153-1.285 1.856-1.285 1.276 0 2.266.99 2.266 2.267 0 1.567-1.401 2.846-3.545 4.741l-.577.576z" fill="#7D3C40"/><path d="M333.131 120.063c-.453-.536-1.148-1.275-1.848-1.275-1.275 0-2.265.99-2.265 2.266 0 1.568 1.4 2.846 3.544 4.742l.569.567v-6.3z" fill="#934348"/><path d="M387.429 190.128l.578.575c2.144 1.897 3.545 3.174 3.545 4.743 0 1.276-.99 2.266-2.267 2.266-.703 0-1.403-.75-1.856-1.285-.453.535-1.153 1.285-1.856 1.285a2.235 2.235 0 01-2.266-2.266c0-1.569 1.4-2.846 3.545-4.743l.577-.575z" fill="#7D3C40"/><path d="M387.438 196.433c.454.535 1.148 1.274 1.847 1.274 1.277 0 2.267-.99 2.267-2.266 0-1.568-1.401-2.846-3.545-4.742l-.569-.567v6.301z" fill="#934348"/><path d="M360.284 165.063l-1.079-1.077c-4.007-3.543-6.626-5.931-6.626-8.863 0-2.384 1.852-4.234 4.236-4.234 1.315 0 2.623 1.4 3.469 2.401.847-1.001 2.156-2.401 3.469-2.401 2.385 0 4.235 1.85 4.235 4.234 0 2.932-2.617 5.32-6.624 8.863l-1.08 1.077z" fill="#7D3C40"/><path d="M360.268 153.278c-.848-.998-2.147-2.381-3.453-2.381-2.384 0-4.236 1.85-4.236 4.235 0 2.931 2.619 5.319 6.626 8.862l1.063 1.061v-11.777z" fill="#934348"/></svg>