<svg xmlns="http://www.w3.org/2000/svg" style="isolation:isolate" viewBox="0 530.406 69.123 103.683" width="92.164" height="138.244"><path d="M69.123 631.369a2.72 2.72 0 01-2.722 2.72H2.721A2.72 2.72 0 010 631.369v-98.242a2.721 2.721 0 012.721-2.721h63.68a2.722 2.722 0 012.722 2.721v98.242z" fill="#EAE8E8"/><path d="M7.372 550.281l-.577-.576c-2.144-1.897-3.545-3.174-3.545-4.743 0-1.275.99-2.265 2.266-2.265.704 0 1.404.748 1.856 1.285.453-.537 1.154-1.285 1.857-1.285 1.275 0 2.265.99 2.265 2.265 0 1.569-1.4 2.846-3.544 4.743l-.578.576z" fill="#7D3C40"/><path d="M7.363 543.976c-.453-.535-1.147-1.275-1.847-1.275-1.276 0-2.266.99-2.266 2.265 0 1.569 1.401 2.846 3.545 4.743l.568.566v-6.299z" fill="#934348"/><path d="M61.662 614.041l.577.576c2.144 1.896 3.545 3.174 3.545 4.742 0 1.275-.99 2.266-2.265 2.266-.704 0-1.405-.75-1.857-1.286-.453.536-1.154 1.286-1.856 1.286a2.236 2.236 0 01-2.266-2.266c0-1.568 1.401-2.846 3.544-4.742l.578-.576z" fill="#7D3C40"/><path d="M61.671 620.345c.453.535 1.147 1.276 1.848 1.276a2.236 2.236 0 002.265-2.266c0-1.568-1.401-2.848-3.545-4.742l-.568-.569v6.301z" fill="#934348"/><path d="M10.81 541.138a31.317 31.317 0 01-2.145-.468v-.044c1.219-.435 2.09-1.633 2.09-3.527 0-2.166-1.295-3.712-3.298-3.712-1.981 0-3.407 1.513-3.407 3.865 0 2.373 1.48 3.657 3.233 3.723.141 0 .283.054.446.108.849.294 1.818.588 2.808.85l.273-.795zm-3.408-.936c-1.502 0-2.351-1.404-2.351-2.972 0-1.589.784-3.07 2.384-3.07 1.557 0 2.319 1.513 2.319 2.994 0 1.665-.849 3.048-2.352 3.048zm50.91 83.155c.621.109 1.415.283 2.145.468v.043c-1.22.436-2.091 1.633-2.091 3.527 0 2.167 1.296 3.712 3.299 3.712 1.981 0 3.407-1.513 3.407-3.864 0-2.373-1.48-3.658-3.233-3.723-.142 0-.283-.054-.446-.109a39.471 39.471 0 00-2.809-.849l-.272.795zm3.407.936c1.502 0 2.352 1.404 2.352 2.972 0 1.589-.784 3.07-2.384 3.07-1.557 0-2.319-1.514-2.319-2.994 0-1.666.849-3.048 2.351-3.048z" fill="#7D3C40"/><path d="M35.14 588.236h4.062v1.375H35.14v-1.375z" fill="#454474"/><path d="M34.786 589.611h4.064v1.375h-4.064v-1.375z" fill="#A64045"/><path d="M34.186 590.986h4.063v1.375h-4.063v-1.375z" fill="#454474"/><path d="M33.833 592.361h4.063v1.377h-4.063v-1.377z" fill="#A64045"/><path d="M33.233 593.738h4.062v1.375h-4.062v-1.375z" fill="#454474"/><path d="M32.879 595.113h4.063v1.375h-4.063v-1.375z" fill="#A64045"/><path d="M32.279 596.488h4.062v1.375h-4.062v-1.375z" fill="#454474"/><path d="M34.786 588.177l-2.972 7.703-7.709.543 4.414-8.824 6.267.578zm9.592.494l1.079 8.52-7.854-.359-.127-3.139 2.702-5.588 4.2.566z" fill="#A64045"/><path d="M35.428 597.351l3.486-9.019 2.56.339s-3.583 4.715-3.023 6.506c.56 1.791 4.702.703 4.702.703l1.776 3.176-9.501-1.705zm.56-9.246l-3.407 9.15-8.701.653 1.149-2.604s4.737.897 6.113-.224c1.376-1.119 2.686-6.844 2.686-6.844l2.16-.131z" fill="#302C32"/><path d="M27.594 584.871c7.102-.309 17.335.617 17.335.617v3.183s-10.233-.925-17.335-.617" fill="#302C32"/><path d="M44.929 588.671s-10.233-.925-17.335-.617m17.335-2.566s-10.233-.926-17.335-.617" fill="none" vector-effect="non-scaling-stroke" stroke-width=".768" stroke="#A47953" stroke-miterlimit="10"/><path d="M50.56 595.064l-4.893 4.492s-3.861-1.994-3.396-5.965c.463-3.968 2.604-5.355 2.604-5.355l5.685 6.828z" fill="#CED6E7"/><path d="M50.56 595.06l-4.352 3.996s-3.433-1.775-3.02-5.304c.413-3.53 2.317-4.764 2.317-4.764l5.055 6.072z" fill="#302C32"/><path d="M50.56 595.056l-3.632 3.334s-2.866-1.48-2.521-4.428c.344-2.945 1.934-3.974 1.934-3.974l4.219 5.068zm-16.577-18.797H29.92v-1.375h4.063v1.375z" fill="#454474"/><path d="M34.336 574.884h-4.062v-1.375h4.062v1.375z" fill="#A64045"/><path d="M34.937 573.509h-4.063v-1.375h4.063v1.375z" fill="#454474"/><path d="M35.29 572.134h-4.062v-1.377h4.062v1.377z" fill="#A64045"/><path d="M35.891 570.757h-4.063v-1.375h4.063v1.375z" fill="#454474"/><path d="M36.244 569.382h-4.063v-1.375h4.063v1.375z" fill="#A64045"/><path d="M36.844 568.007h-4.063v-1.375h4.063v1.375z" fill="#454474"/><path d="M34.336 576.318l2.973-7.703 7.71-.543-4.415 8.824-6.268-.578zm-9.592-.494l-1.079-8.518 7.855.358.128 3.138-2.704 5.588-4.2-.566z" fill="#A64045"/><path d="M33.694 567.144l-3.486 9.02-2.559-.34s3.583-4.713 3.023-6.506c-.561-1.791-4.702-.703-4.702-.703l-1.776-3.176 9.5 1.705zm-.56 9.246l3.407-9.15 8.701-.653-1.149 2.604s-4.736-.897-6.112.225c-1.375 1.119-2.687 6.843-2.687 6.843l-2.16.131z" fill="#302C32"/><path d="M41.529 579.625c-7.103.308-17.335-.616-17.335-.616v-3.185s10.232.926 17.335.617" fill="#302C32"/><path d="M24.194 575.824s10.232.926 17.335.617m-17.335 2.568s10.232.924 17.335.616" fill="none" vector-effect="non-scaling-stroke" stroke-width=".768" stroke="#A47953" stroke-miterlimit="10"/><path d="M59.842 562.945a14.445 14.445 0 00-4.427-.695c-8.633 0-15.631 7.654-15.631 17.097 0 9.446 6.998 17.1 15.631 17.1 1.537 0 3.023-.244 4.427-.697v-32.805z" fill="#DAE2F2"/><path d="M59.842 563.693a13.741 13.741 0 00-4.427-.731c-8.272 0-14.977 7.336-14.977 16.385 0 9.051 6.705 16.387 14.977 16.387 1.541 0 3.027-.256 4.427-.729v-31.312z" fill="#CED6E7"/><path d="M59.842 567.252a10.954 10.954 0 00-4.427-.936c-6.58 0-11.913 5.834-11.913 13.031 0 7.197 5.333 13.033 11.913 13.033 1.566 0 3.058-.334 4.427-.933v-24.195z" fill="#A47953"/><path d="M59.842 568.627a9.946 9.946 0 00-4.427-1.043c-5.94 0-10.755 5.267-10.755 11.763 0 6.498 4.815 11.766 10.755 11.766a9.921 9.921 0 004.427-1.045v-21.441z" fill="#B7975B"/><path d="M59.842 572.619c-1.246-.983-2.774-1.563-4.427-1.563-4.186 0-7.581 3.713-7.581 8.291 0 4.58 3.395 8.293 7.581 8.293 1.653 0 3.181-.58 4.427-1.564v-13.457z" fill="#DAE2F2"/><path d="M59.842 573.148c-1.221-1.045-2.757-1.67-4.427-1.67-3.973 0-7.194 3.524-7.194 7.869 0 4.348 3.221 7.871 7.194 7.871 1.67 0 3.206-.625 4.427-1.67v-12.4z" fill="#A64045"/><path d="M59.842 578.15c-.25-.164-.496-.336-.737-.514a13.472 13.472 0 01-.719-.562h-.001a16.33 16.33 0 01-.682-.6l-.006-.006c-.218-.203-.43-.414-.638-.629l-.014-.015c-.027.224-.061.447-.098.668-.006.039-.014.076-.021.115a23.329 23.329 0 01-.106.543c-.013.062-.03.127-.044.189-.032.137-.063.272-.097.407l-.021.078c-.016.064-.035.127-.052.189-.037.129-.072.258-.111.383a2.196 2.196 0 01-.023.076c-.02.065-.042.127-.063.19-.042.129-.083.257-.129.384-.029.084-.06.165-.091.247a8.9 8.9 0 01-.247.617c-.049.117-.099.234-.151.349-.038.084-.079.166-.119.25a11.72 11.72 0 01-.163.338c-.043.082-.086.166-.131.248l-.151.282-.032.056-.133.233-.145.244-.083.134a29.427 29.427 0 01-.281.438l-.124.18-.07.101a13.72 13.72 0 01-.603.807l-.095.117a23.03 23.03 0 01-.319.381 15.314 15.314 0 01-.391.432c-.014.015-.028.033-.043.046-.065.071-.13.137-.195.206-.101.103-.203.205-.307.304-.054.053-.107.106-.163.156-.041.041-.084.079-.126.118-.093.086-.187.172-.283.256l-.07.062c-.069.061-.138.117-.207.176-.109.09-.216.179-.325.267-.081.065-.164.127-.246.19l-.233.178c-.096.07-.193.138-.291.207a20.16 20.16 0 01-.238.166c-.101.066-.201.132-.303.197l-.242.154c-.104.065-.209.125-.315.188l-.246.142c-.108.061-.217.117-.327.176-.082.043-.164.088-.246.129-.114.059-.229.113-.345.168-.081.039-.161.078-.242.115-.122.057-.246.108-.369.16l-.23.1c-.137.055-.277.107-.416.158-.066.024-.129.051-.196.074a16.32 16.32 0 01-.623.207 11.87 11.87 0 01-.638.182c-.032.01-.065.016-.096.023-.182.047-.364.092-.548.131-.067.014-.135.026-.202.039-.151.032-.301.061-.452.088l-.24.035c-.378.059-.757.106-1.141.135 2.844 4.252 7.437 7.014 12.622 7.014 1.532 0 3.013-.242 4.413-.692V578.15z" fill="#A47953"/><path d="M59.842 579.33c-.16-.522-.38-.92-.681-1.143-.56-.605-1.322-1.068-1.904-1.676-.824 6.647-6.471 12.994-13.164 13.506 3.748 5.604 15.308 9.918 15.749.844V579.33z" fill="#B7975B"/><path d="M31.17 547.949s-5.177 11.443-4.376 15.131c.802 3.687 8.172-6.748 8.172-6.748l-3.796-8.383z" fill="#302C32"/><path d="M35.62 537.47s-8.227 1.971-12.002 13.36c-3.774 11.388-2.047 15.757-2.047 15.757l5.735-4.009s-.527-5.383 3.408-14.692c3.935-9.308 4.906-8.459 4.906-8.459v-1.957z" fill="#A64045"/><path d="M40.334 538.468s-8.227 1.973-12.001 13.36c-3.775 11.386-1.964 13.445-1.964 13.445l1.663-.369s-2.098-3.703 1.836-13.012c3.934-9.308 10.466-11.467 10.466-11.467v-1.957z" fill="#B7975B"/><path d="M59.842 578.816v-11.158l-5.743-5.319-5.85 3.34 11.593 13.137z" fill="#454474"/><path d="M46.993 565.945s12.543 14.439 12.849 14.601v-2.236l-10.505-12.631-2.344.266z" fill="#302C32"/><path d="M27.713 561.613l-5.118 3.904s14.842 5.402 32.18-1.248l-4.15-5.119-22.912 2.463z" fill="#A47953"/><path d="M28.736 560.81l-5.118 3.902s13.819 5.112 31.157-1.539l-4.15-5.119-21.889 2.756z" fill="#B7975B"/><path d="M32.363 556.38c0 .104-.94 2.831-3.627 4.43 0 0 13.517 2.436 21.889-1.66 0 0-1.288-8.301-5.319-6.582-4.03 1.717-12.943 3.812-12.943 3.812z" fill="#CED6E7"/><path d="M30.861 545.783s-.339 3.027 0 3.476c.341.45.405.801.277 1.537-.128.737-.128 4.293.449 5.061.576.77 3.011 5.414 4.676 5.445 1.665.034 8.68-2.849 8.776-6.597 0 0 .513.672 1.186.289.673-.385.768-3.172.768-3.172s-5.738-12.526-11.373-11.981c0 0-4.778 3.426-4.759 5.942z" fill="#DAE2F2"/><path d="M35.62 537.47s5.959-1.597 10.602 3.348c4.641 4.947 9.739 16.818 13.62 18.111v4.903s-9.436-4.827-11.718-12.284c-2.283-7.457-12.504-14.078-12.504-14.078z" fill="#302C32"/><path d="M35.62 540.089s1.527 6.717 8.071 6.946c1.826-1.75-4.182-6.946-4.182-6.946s-1.24-.984-3.889-.662v.662z" fill="#CA834E"/><path d="M35.62 539.427s6.33 1.627 11.578 14.541c8.914 14.403 12.644 13.69 12.644 13.69v-3.826s-6.468-5.207-10.425-12.36c-3.957-7.152-6.593-14.002-13.797-14.002v1.957z" fill="#A64045"/><path d="M35.62 537.47s-8.227 1.971-12.002 13.36c-3.774 11.388-2.047 15.757-2.047 15.757l1.512-.908s-1.863-5.476 2.07-14.785c3.935-9.31 10.467-11.467 10.467-11.467v-1.957z" fill="#B7975B"/><path d="M35.62 540.089s-1.011 4.325-4.916 5.754c0 0-1.22-7.043 4.916-6.416v.662z" fill="#B6784C"/><path d="M18.564 569.431l4.892-4.492s3.861 1.996 3.397 5.965c-.465 3.969-2.606 5.355-2.606 5.355l-5.683-6.828z" fill="#CED6E7"/><path d="M18.564 569.435l4.35-3.996s3.434 1.775 3.021 5.305c-.412 3.531-2.317 4.763-2.317 4.763l-5.054-6.072z" fill="#302C32"/><path d="M18.564 569.439l3.63-3.334s2.867 1.482 2.522 4.428c-.345 2.945-1.934 3.976-1.934 3.976l-4.218-5.07z" fill="#454474"/><path d="M30.831 548.775s.176-.095.459-.195a4.68 4.68 0 011.078-.252c.402-.076.822-.055 1.112.06.292.112.463.232.463.232l-.011.037s-.215.041-.502.032c-.141-.02-.312.014-.488-.006-.175-.029-.365-.036-.558-.049a6.021 6.021 0 00-1.539.176l-.014-.035zm9.497-.124c0 .001-1.004-.193-2.006-.157-.25.015-.498.026-.728.056-.231.02-.452-.017-.637 0-.375 0-.646-.05-.646-.05l-.009-.043s.232-.131.61-.251a2.9 2.9 0 01.66-.111c.245-.016.506.025.765.049.516.051 1.024.15 1.395.262.371.105.608.203.608.204l-.012.041z" fill="#CA834E"/><path d="M36.894 549.775s.196.045.487.08c.291.03.676.081 1.061.06.193.004.386.004.566-.025.18-.022.353-.014.495-.053.29-.044.493-.062.493-.062s-.178.086-.461.198a3.392 3.392 0 01-1.091.189c-.203.007-.404-.027-.593-.046-.188-.026-.358-.084-.502-.126-.287-.103-.455-.215-.455-.215zm-3.298 0s-.123.105-.346.204c-.113.042-.246.097-.396.124-.151.019-.312.053-.476.044a2.22 2.22 0 01-.866-.184 5.165 5.165 0 01-.354-.188s.162.022.389.07c.11.038.249.035.389.057.141.028.293.032.444.026.303.021.604-.031.833-.066.229-.038.383-.087.383-.087z" fill="#454761"/><path d="M35.393 557.318s.67.416 1.62 0" fill="#DAE2F2"/><path d="M35.393 557.318s.105.029.257.051c.152.016.35.05.549.033.199.01.399-.027.551-.05.152-.025.263-.034.263-.034s-.087.06-.232.138a1.383 1.383 0 01-.579.137c-.11.005-.219-.015-.321-.032-.101-.017-.189-.061-.264-.09-.148-.075-.224-.153-.224-.153zm-1.117-1.158s.963-.104 1.926-.096c.964-.008 1.927.096 1.927.096s-.963.103-1.927.095c-.963.008-1.926-.095-1.926-.095zm.451-2.184s.082.125.255.234c.082.061.19.107.31.151.11.061.254.067.383.106.132.035.272.039.4.06.128.023.252.022.357.029.212.017.357.039.357.039s-.138.034-.354.07c-.214.046-.507.03-.799-.01-.14-.05-.289-.067-.412-.143a1.022 1.022 0 01-.312-.22.702.702 0 01-.152-.222c-.027-.059-.033-.094-.033-.094z" fill="#454761"/><path d="M9.28 601.55c1.405.453 2.89.696 4.428.696 8.633 0 15.631-7.655 15.631-17.098 0-9.445-6.998-17.1-15.631-17.1-1.538 0-3.023.245-4.428.698v32.804z" fill="#DAE2F2"/><path d="M9.28 600.804c1.4.473 2.886.729 4.428.729 8.273 0 14.978-7.336 14.978-16.385 0-9.049-6.705-16.387-14.978-16.387-1.542 0-3.028.256-4.428.731v31.312z" fill="#CED6E7"/><path d="M9.28 597.246c1.37.599 2.863.933 4.428.933 6.579 0 11.912-5.834 11.912-13.031 0-7.197-5.333-13.033-11.912-13.033-1.565 0-3.058.334-4.428.935v24.196z" fill="#A47953"/><path d="M9.28 595.869a9.952 9.952 0 004.428 1.045c5.94 0 10.755-5.27 10.755-11.766 0-6.498-4.815-11.766-10.755-11.766a9.925 9.925 0 00-4.428 1.045v21.442z" fill="#B7975B"/><path d="M9.28 591.877c1.246.982 2.775 1.562 4.428 1.562 4.187 0 7.58-3.713 7.58-8.291 0-4.58-3.393-8.293-7.58-8.293-1.653 0-3.182.58-4.428 1.564v13.458z" fill="#DAE2F2"/><path d="M9.28 591.347c1.221 1.047 2.758 1.67 4.428 1.67 3.974 0 7.194-3.523 7.194-7.869 0-4.348-3.22-7.871-7.194-7.871-1.67 0-3.207.625-4.428 1.67v12.4z" fill="#A64045"/><path d="M9.28 586.345c.251.164.497.336.738.514.245.18.485.367.719.562h.001c.233.194.46.395.682.6l.005.006c.219.203.432.414.639.629.004.006.009.01.014.015.028-.224.06-.447.098-.668.006-.039.015-.076.021-.115.032-.176.065-.351.102-.527l.004-.014.044-.191c.031-.137.062-.272.096-.406l.022-.079c.016-.064.035-.127.053-.189a15.398 15.398 0 01.133-.459l.062-.189c.042-.129.084-.258.129-.385.029-.084.061-.164.093-.246.045-.123.091-.246.139-.367l.106-.249c.05-.119.099-.234.152-.351.038-.084.079-.166.118-.25.054-.113.108-.227.163-.338l.131-.248.152-.281.031-.057c.044-.078.09-.156.135-.232.047-.082.095-.162.143-.243a16.208 16.208 0 01.196-.314c.056-.088.113-.174.169-.26.04-.06.082-.119.123-.179.024-.034.046-.069.071-.102.067-.096.135-.191.204-.287l.203-.27c.064-.084.129-.168.195-.25l.096-.117c.057-.068.113-.139.171-.205l.148-.176.147-.166c.08-.09.162-.177.243-.265l.044-.047a12.479 12.479 0 01.502-.51 7.9 7.9 0 01.162-.156l.127-.117c.093-.086.187-.172.283-.256.024-.02.046-.041.07-.063l.208-.176c.107-.089.214-.179.325-.267.08-.065.162-.127.244-.19.078-.06.155-.119.234-.175.096-.073.194-.141.291-.209.078-.055.158-.112.239-.166.099-.067.201-.131.302-.198l.242-.154a9.97 9.97 0 01.315-.185c.082-.049.162-.098.245-.145.108-.061.218-.117.328-.176.081-.043.163-.088.246-.129.114-.058.229-.113.344-.168.081-.039.161-.078.242-.115.123-.057.246-.107.37-.16l.23-.098c.137-.056.276-.107.416-.16.065-.023.13-.051.195-.074.179-.063.359-.123.541-.18l.082-.027c.212-.065.424-.127.639-.182.032-.01.064-.015.096-.023.181-.047.364-.092.548-.131.067-.014.134-.025.202-.039.15-.031.3-.061.452-.086.079-.014.16-.025.239-.037a14.43 14.43 0 011.143-.135c-2.844-4.252-7.438-7.014-12.624-7.014-1.532 0-3.012.243-4.413.694v17.603z" fill="#A47953"/><path d="M9.28 585.168c.161.519.38.918.681 1.14.562.606 1.323 1.069 1.904 1.676.825-6.647 6.472-12.994 13.164-13.506-3.747-5.603-15.307-9.918-15.749-.844v11.534z" fill="#B7975B"/><path d="M9.28 585.679v11.158l5.745 5.319 5.848-3.338L9.28 585.679z" fill="#454474"/><path d="M22.129 598.552S9.586 584.111 9.28 583.951v2.234l10.506 12.633 2.343-.266zm15.823 17.994s5.178-11.443 4.376-15.13c-.801-3.688-8.172 6.748-8.172 6.748l3.796 8.382z" fill="#302C32"/><path d="M33.503 627.025s8.228-1.971 12.002-13.359c3.774-11.389 2.047-15.758 2.047-15.758l-5.735 4.01s.526 5.382-3.409 14.691c-3.934 9.309-4.905 8.459-4.905 8.459v1.957z" fill="#A64045"/><path d="M28.789 626.027s8.227-1.971 12.002-13.359c3.775-11.387 1.962-13.446 1.962-13.446l-1.663.369s2.099 3.703-1.835 13.012c-3.935 9.311-10.466 11.467-10.466 11.467v1.957z" fill="#B7975B"/><path d="M41.409 602.882l5.119-3.902s-14.842-5.402-32.18 1.246l4.149 5.119 22.912-2.463z" fill="#A47953"/><path d="M40.387 603.685l5.118-3.902s-13.819-5.112-31.157 1.539l4.149 5.119 21.89-2.756z" fill="#B7975B"/><path d="M36.76 608.115c0-.102.939-2.83 3.627-4.43 0 0-13.518-2.435-21.89 1.662 0 0 1.289 8.299 5.32 6.58 4.03-1.716 12.943-3.812 12.943-3.812z" fill="#CED6E7"/><path d="M38.261 618.712s.34-3.027 0-3.476c-.34-.447-.404-.801-.277-1.537.128-.737.128-4.293-.448-5.061-.576-.769-3.01-5.414-4.677-5.445-1.665-.033-8.68 2.85-8.776 6.598 0 0-.513-.672-1.184-.289-.674.384-.77 3.171-.77 3.171s5.739 12.526 11.374 11.981c0 0 4.778-3.426 4.758-5.942z" fill="#DAE2F2"/><path d="M33.503 627.025s-5.96 1.598-10.602-3.348c-4.641-4.947-9.74-16.816-13.621-18.111v-4.9s9.436 4.824 11.719 12.281c2.283 7.459 12.504 14.078 12.504 14.078z" fill="#302C32"/><path d="M33.503 624.406s-1.526-6.717-8.07-6.945c-1.827 1.75 4.181 6.945 4.181 6.945s1.24.984 3.889.662v-.662z" fill="#CA834E"/><path d="M33.503 625.068s-6.33-1.625-11.579-14.541c-8.914-14.402-12.644-13.69-12.644-13.69v3.829s6.468 5.205 10.425 12.357c3.957 7.154 6.593 14.002 13.798 14.002v-1.957z" fill="#A64045"/><path d="M33.503 627.025s8.228-1.971 12.002-13.359c3.774-11.389 2.047-15.758 2.047-15.758l-1.513.91s1.864 5.475-2.07 14.783c-3.934 9.311-10.466 11.467-10.466 11.467v1.957z" fill="#B7975B"/><path d="M33.503 624.406s1.012-4.324 4.916-5.754c0 0 1.22 7.043-4.916 6.416v-.662z" fill="#B6784C"/><path d="M38.291 615.72s-.176.095-.459.196a4.735 4.735 0 01-1.077.252c-.402.075-.823.054-1.113-.061-.292-.111-.463-.231-.463-.231l.011-.038s.215-.041.502-.032c.142.02.313-.013.488.006.176.029.366.036.558.049.77.028 1.539-.176 1.539-.176l.014.035zm-9.495.124c0-.001 1.003.194 2.005.158.25-.015.498-.026.729-.056.23-.019.451.017.637.001.375 0 .645.051.645.051l.009.043s-.232.13-.61.251c-.189.063-.416.088-.661.109-.245.017-.505-.024-.763-.05a7.69 7.69 0 01-2.004-.466l.013-.041z" fill="#CA834E"/><path d="M32.23 614.722s-.197-.046-.488-.081c-.291-.03-.676-.08-1.062-.059a3.184 3.184 0 00-.565.025c-.18.021-.354.015-.496.052-.289.046-.493.063-.493.063s.178-.087.461-.198a3.351 3.351 0 011.092-.188c.203-.008.405.025.593.044.188.026.358.085.503.126.286.104.455.216.455.216zm3.296 0s.124-.105.347-.205c.112-.041.246-.097.396-.123.151-.019.312-.054.475-.045.326.003.649.083.867.185.218.107.353.188.353.188s-.162-.022-.389-.07c-.11-.038-.248-.036-.389-.058a1.966 1.966 0 00-.444-.026c-.303-.02-.604.032-.833.066-.229.039-.383.088-.383.088z" fill="#454761"/><path d="M33.73 607.177s-.67-.416-1.621 0" fill="#DAE2F2"/><path d="M33.73 607.177s-.105-.029-.257-.05c-.153-.017-.351-.051-.55-.034-.198-.009-.399.028-.55.05-.153.026-.264.034-.264.034s.087-.06.232-.137c.143-.075.359-.134.579-.138.11-.005.219.016.321.032.101.017.189.062.264.09a.93.93 0 01.225.153zm1.117 1.159s-.964.103-1.927.095c-.963.008-1.927-.095-1.927-.095s.964-.104 1.927-.096a19.11 19.11 0 011.927.096zm-.451 2.183s-.082-.125-.255-.233a1.234 1.234 0 00-.311-.152c-.11-.061-.254-.068-.383-.106-.131-.034-.272-.039-.4-.06-.128-.023-.251-.022-.357-.029-.211-.017-.357-.039-.357-.039s.139-.034.354-.069c.214-.047.507-.031.799.009.141.05.29.067.412.143.13.056.232.141.313.221a.683.683 0 01.185.315z" fill="#454761"/></svg>