<svg xmlns="http://www.w3.org/2000/svg" style="isolation:isolate" viewBox="325.723 424.216 69.123 103.684" width="92.164" height="138.245"><path d="M394.846 525.179a2.722 2.722 0 01-2.721 2.721h-63.681a2.722 2.722 0 01-2.721-2.721v-98.242a2.722 2.722 0 012.721-2.721h63.681a2.722 2.722 0 012.721 2.721v98.242z" fill="#EAE8E8"/><path d="M333.096 444.091l-.577-.576c-2.144-1.896-3.545-3.174-3.545-4.742 0-1.275.99-2.266 2.265-2.266.704 0 1.405.75 1.857 1.286.453-.536 1.153-1.286 1.856-1.286 1.276 0 2.266.991 2.266 2.266 0 1.568-1.401 2.846-3.545 4.742l-.577.576z" fill="#7D3C40"/><path d="M333.087 437.787c-.453-.535-1.148-1.276-1.848-1.276a2.236 2.236 0 00-2.265 2.266c0 1.568 1.401 2.848 3.545 4.742l.568.568v-6.3z" fill="#934348"/><path d="M387.385 507.851l.578.576c2.144 1.897 3.545 3.174 3.545 4.742 0 1.276-.99 2.266-2.267 2.266-.703 0-1.403-.748-1.856-1.283-.452.535-1.153 1.283-1.856 1.283a2.235 2.235 0 01-2.266-2.266c0-1.568 1.4-2.845 3.545-4.742l.577-.576z" fill="#7D3C40"/><path d="M387.394 514.158c.454.533 1.148 1.273 1.847 1.273 1.277 0 2.267-.99 2.267-2.265 0-1.569-1.401-2.846-3.545-4.743l-.569-.566v6.301z" fill="#934348"/><path d="M333.436 432.163c0 1.437-.49 1.818-1.339 1.818-.327 0-.61-.065-.806-.141l-.131.772c.229.098.654.175 1.013.175 1.263 0 2.22-.599 2.22-2.548v-4.909h-.957v4.833zm53.696 87.79c0-1.437.49-1.818 1.339-1.818.327 0 .61.065.806.141l.13-.773c-.228-.098-.653-.174-1.012-.174-1.263 0-2.221.599-2.221 2.547v4.91h.958v-4.833z" fill="#7D3C40"/><path d="M375.827 497.726s3.725-1.348 7.192-5.111v-4.612h-7.192v9.723zm-2.956-56.828l3.858-5.006s-7.526-4.994-9.043-5.082c-1.518-.088-18.672 5.219-18.672 5.219l3.872 6.189 19.985-1.32z" fill="#A64045"/><path d="M352.886 434.847s2.126 6.803 2.676 7.254c.55.453 3.348-.834 3.348-.834s-2.158-2.137-3.222-7.26l-2.802.84z" fill="#454474"/><path d="M383.019 485.712v-25.869s-3.252-4.144-9.779-4.757c0 0-.121 26.201 9.779 30.626z" fill="#A64045"/><path d="M363.927 456.505h-3.328v6.11h3.328v-6.11zm6.673-2.109h-3.328v6.109h3.328v-6.109z" fill="#302C32"/><path d="M360.574 454.08h-3.328v6.107h3.328v-6.107zm6.681 1.992h-3.328v6.109h3.328v-6.109z" fill="#A64045"/><path d="M357.352 452.238h-3.329v6.109h3.329v-6.109z" fill="#302C32"/><path d="M353.998 452.117h-3.328v3.802h3.328v-3.802z" fill="#A64045"/><path d="M370.571 452.226l-.761 2.721 2.558.139-1.797-2.86z" fill="#A76F49"/><path d="M374.132 455.183s-1.165 17.113 8.887 30.529l-.019 1.782s-5.915-2.78-9.281-14.506c-3.366-11.725-1.841-17.805-1.841-17.805h2.254z" fill="#302C32"/><path d="M372.595 455.564s-.309 11.264 2.471 18.012c2.779 6.748 4.713 11.347 7.953 13.888v5.151s-9.132-8.83-12.126-18.776c-2.994-9.947-2.435-18.646-2.435-18.646l4.137.371z" fill="#454474"/><path d="M372.764 455.267c0 .422-.858.764-1.914.764-1.058 0-1.914-.342-1.914-.764 0-.424.856-.765 1.914-.765 1.056 0 1.914.341 1.914.765zm-.142 1.682c.022.414-.799.793-1.832.847-1.034.055-1.89-.236-1.911-.65-.022-.412.798-.791 1.832-.846 1.033-.054 1.89.237 1.911.649zm-.029 1.935c.044.405-.74.821-1.751.93-1.011.107-1.865-.131-1.909-.535-.044-.404.741-.818 1.751-.928 1.01-.109 1.865.129 1.909.533zm.088 2.149c.065.394-.683.847-1.67 1.011-.987.163-1.841-.025-1.906-.419-.066-.395.682-.846 1.67-1.01.987-.164 1.84.023 1.906.418zm.211 2.322c.087.385-.625.875-1.589 1.092-.964.219-1.817.082-1.903-.303-.087-.385.624-.875 1.587-1.092.965-.218 1.818-.082 1.905.303zm.338 2.455c.109.375-.566.902-1.508 1.174-.941.271-1.792.187-1.901-.188-.109-.377.567-.902 1.507-1.173.942-.274 1.792-.19 1.902.187zm.471 2.547c.131.367-.508.93-1.425 1.256-.918.326-1.768.295-1.899-.072-.13-.368.508-.928 1.426-1.256.918-.326 1.767-.293 1.898.072zm.611 2.602c.152.359-.45.957-1.345 1.337-.894.383-1.743.401-1.896.043-.152-.357.45-.955 1.345-1.336.895-.382 1.743-.4 1.896-.044zm.754 2.617c.173.347-.392.982-1.263 1.418-.872.435-1.719.508-1.894.158-.174-.348.392-.983 1.264-1.418.871-.436 1.719-.508 1.893-.158zm.903 2.59c.196.337-.334 1.009-1.182 1.5-.848.49-1.694.613-1.89.273-.197-.338.334-1.012 1.181-1.502.849-.488 1.695-.611 1.891-.271zm1.057 2.521c.218.33-.274 1.039-1.099 1.584-.826.545-1.671.719-1.889.389-.218-.33.276-1.039 1.1-1.584.826-.543 1.671-.717 1.888-.389zm1.218 2.418c.24.32-.217 1.066-1.019 1.666-.802.598-1.646.824-1.886.504-.239-.32.218-1.066 1.02-1.666.801-.598 1.646-.824 1.885-.504zm1.382 2.272c.262.312-.158 1.093-.936 1.748-.78.652-1.623.929-1.884.619-.261-.311.159-1.094.938-1.746.779-.655 1.621-.932 1.882-.621zm1.554 2.087c.282.301-.101 1.12-.857 1.829-.756.707-1.597 1.037-1.88.734-.283-.301.101-1.121.856-1.828.756-.709 1.598-1.037 1.881-.735zm1.728 1.862c.305.291-.042 1.146-.774 1.91-.733.762-1.573 1.142-1.878.85-.305-.293.042-1.149.774-1.911.733-.761 1.574-1.142 1.878-.849z" fill="#A64045"/><path d="M363.702 470.158h-5.29v-5.852h5.29v5.852z" fill="#495DA7"/><path d="M358.641 469.912h5.061v5.306l-5.061-5.306zm-.184-.451h5.335v-4.344h-5.335v4.344zm0-4.727h5.245v-1.418l-5.245-3.174v4.592z" fill="#B7975B"/><path d="M364.725 475.726l-.203-12.316 4.34-2.453s.854 10.199 1.884 12.031c1.031 1.832-6.021 2.738-6.021 2.738z" fill="#A64045"/><path d="M364.8 475.763l-1.289-.638v-12.606h1.289v13.244z" fill="#DAE2F2"/><path d="M365.216 476.246l-1.289-.639v-12.605h1.289v13.244z" fill="#302C32"/><path d="M373.65 480.519c-.438-1.103-1.179-2.125-1.726-3.18-.892-1.716-1.526-3.535-1.818-5.427l-.08-.002a6.329 6.329 0 00-5.879 3.988c.197.225.389.455.635.662.444.373.966.668 1.428 1.022 1.122.859 1.98 2.045 3.234 2.72.947.508 1.953.862 2.96 1.227.432.156.871.314 1.32.418l.408-.059c-.166-.461-.309-.931-.482-1.369z" fill="#302C32"/><path d="M373.65 480.519c-.438-1.103-1.179-2.125-1.726-3.18-.812-1.564-1.412-3.214-1.733-4.927-.055-.002-.11-.004-.165-.004a5.833 5.833 0 00-5.504 3.904c.082.084.166.168.26.248.444.373.966.668 1.428 1.022 1.122.859 1.98 2.045 3.234 2.72.947.508 1.953.862 2.96 1.227.432.156.871.314 1.32.418l.408-.059c-.166-.461-.309-.931-.482-1.369z" fill="#B7975B"/><path d="M371.924 477.339a19.08 19.08 0 01-.941-2.111 3.156 3.156 0 00-4.112 2.916c.828.762 1.575 1.621 2.573 2.158.602.323 1.228.584 1.863.825a3.178 3.178 0 001.714-1.881c-.364-.641-.766-1.268-1.097-1.907z" fill="#495DA7"/><path d="M352.176 465.779l5.179 2.99.262-9.642-5.441-2.999v9.651z" fill="#A64045"/><path d="M358.641 469.318h-1.289v-9.758h1.289v9.758z" fill="#DAE2F2"/><path d="M347.248 453.197s2.229-1.252 4.527-1.574l.277 13.982s-3.526-1.309-5.111-1.248l.307-11.16z" fill="#B9C8E6"/><path d="M347.248 453.197l-.803.305v10.759h.803v-11.064z" fill="#756262"/><path d="M346.445 453.502s-1.188.494-1.703.89v9.721h1.703v-10.611z" fill="#302C32"/><path d="M344.742 454.392s-3.724 1.346-7.191 5.111v4.61h7.191v-9.721z" fill="#A64045"/><path d="M358.162 468.884h-1.29v-9.757h1.29v9.757z" fill="#302C32"/><path d="M352.577 451.623h-.802v13.714h.802v-13.714z" fill="#756262"/><path d="M373.083 482.121c-.484 0-1.114-.096-1.905-.397-2.622-.994-5.829-3.728-9.529-8.129-4.458-5.301-8.84-7.408-11.732-8.242-3.127-.902-6.681-.734-6.702-.73l-.153-.864c.092-.015 3.734-.207 7.041.735 3.022.863 7.595 3.043 12.215 8.537 8.315 9.887 11.485 8.086 11.516 8.066l.495.723c-.063.047-.46.301-1.246.301z" fill="#A47953"/><path d="M352.577 455.574s10.715 6.988 11.727 6.988c1.012 0 4.048-2.127 4.048-2.127v1.236s-3.661 2.442-4.138 2.442c-.476 0-11.637-7.233-11.637-7.233v-1.306z" fill="#DAE2F2"/><path d="M353.775 452.226s9.055 6.656 10.34 6.656c1.286 0 5.013-3.328 5.013-3.328l-15.353-3.328z" fill="#B7975B"/><path d="M352.577 454.726s10.715 7.108 11.727 7.108c1.012 0 4.048-2.397 4.048-2.397v1.197s-3.661 2.368-4.138 2.368c-.476 0-11.637-7.012-11.637-7.012v-1.264z" fill="#B7975B"/><path d="M368.06 456.046s-.026 11.305 2.619 18.764c2.644 7.457 9.302 17.945 11.259 18.897l1.081-1.092s-4.685-3.863-11.388-18.354c-1.745-7.174-1.805-4.072-2.648-18.687-.843-14.615-.923.472-.923.472z" fill="#A47953"/><path d="M359.728 454.726s3.704 2.725 4.491 2.725c.787 0 2.467-1.533 2.467-1.533s-5.127-3.418-6.536-2.936c-1.409.48-.422 1.744-.422 1.744z" fill="#CED6E7"/><path d="M370.042 441.367s1.748 1.742 1.302 6.271c-.446 4.531-.823 9.069 2.49 7.684 3.314-1.385.449-4.914-1.55-3.051 0 0 .011-2.234.3-5.172.29-2.939.078-5.754-2.542-5.732z" fill="#CA834E"/><path d="M371.793 442.101s.486 2.725 0 3.279c-.486.557-.034 1.418 0 2.082.035.665.731 6.258-3.092 8.274-3.822 2.016-3.509-.77-8.2-2.539 0 0-.729-10.908 2.467-11.811 0 0 6.358-.549 8.825.715z" fill="#DAE2F2"/><path d="M356.182 442.802s-1.24 1.014-1.24 3.969c0 2.953-1.532 6.043-3.584 4.938-2.053-1.106.022-3.204 1.195-1.872 0 0 .136-1.443.136-3.361 0-1.916 1.072-4.152 3.493-3.674z" fill="#A36D48"/><path d="M357.359 442.115s-1.434 1.174-1.434 4.594c0 3.418-.771 7.005-3.146 5.726-2.374-1.277.027-3.705 1.384-2.166 0 0 .156-1.67.156-3.889 0-2.216 1.083-4.474 3.04-4.265z" fill="#A76F49"/><path d="M358.91 441.744s-1.361 2.402-1.361 6.08c0 3.676-1.026 6.383-3.581 5.008-2.555-1.375.028-3.987 1.487-2.33 0 0 .169-1.797.169-4.182 0-2.387 1.181-4.801 3.286-4.576z" fill="#AC724A"/><path d="M360.15 441.558s-.969 1.633-.969 5.735c0 4.099-.815 7.976-3.664 6.443-2.849-1.533.032-4.445 1.659-2.598 0 0 .188-2.004.188-4.664 0-2.662.438-5.166 2.786-4.916z" fill="#B1754B"/><path d="M361.792 441.38s-1.837 1.504-1.837 5.879-.066 8.752-3.106 7.116c-3.04-1.637.033-4.745 1.769-2.774 0 0 .201-2.137.201-4.976 0-2.84.468-5.512 2.973-5.245z" fill="#B6784C"/><path d="M362.968 441.386s-1.911 1.563-1.911 6.116c0 4.55-.069 9.103-3.231 7.4-3.162-1.703.034-4.934 1.841-2.885 0 0 .209-2.223.209-5.176 0-2.955.486-5.734 3.092-5.455z" fill="#CA834E"/><path d="M353.335 444.019s7.176-3.959 18.846-1.437l.69-1.684s-9.045-3.543-19.985 1.32l.449 1.801z" fill="#444247"/><path d="M368.87 444.983s.73-.295 1.537-.304c.201-.012.407.02.599.04.186.064.349.162.482.236.23.239.319.414.319.414l-.028.023s-.208-.071-.427-.195a3.931 3.931 0 01-.437-.124c-.166-.026-.337-.096-.522-.113-.185-.013-.372-.041-.549-.027a5.383 5.383 0 00-.487.023c-.287.022-.477.06-.477.06l-.01-.033zm-3.197.033s-.19-.038-.477-.06a5.383 5.383 0 00-.487-.023c-.177-.014-.364.014-.549.027-.185.017-.356.087-.522.113a3.993 3.993 0 01-.437.124 2.832 2.832 0 01-.427.195l-.028-.023s.089-.175.319-.414c.133-.074.295-.172.482-.236.192-.02.398-.052.599-.04a4.776 4.776 0 011.537.304l-.01.033z" fill="#CA834E"/><path d="M366.697 446.333s-.166.19-.487.393c-.164.09-.359.209-.589.275-.228.07-.476.143-.735.149a2.226 2.226 0 01-.756-.009 1.655 1.655 0 01-.625-.199c-.345-.175-.545-.329-.545-.329l.016-.031s.263.015.614.095c.172.059.379.079.599.104.215.051.447.099.684.089.239.021.472-.023.693-.065.114-.011.212-.056.311-.088.096-.035.195-.056.274-.099.333-.15.523-.311.523-.311l.023.026zm2.293-.026s.142.11.384.209c.119.051.266.095.419.136.158.023.321.071.492.055.168.004.332-.014.485-.053.152-.018.301-.008.425-.045.251-.039.452-.027.452-.027l.013.031s-.135.128-.386.264a1.142 1.142 0 01-.461.139c-.178.03-.368.007-.554-.03-.189-.012-.363-.09-.528-.141a2.293 2.293 0 01-.416-.221 1.81 1.81 0 01-.348-.291l.023-.026zm-.654-.542s-.035.513.03 1.276c.034.381.102.821.211 1.282.058.228.151.453.226.687l.359.669c.067.092.108.27.114.44l-.057.239a2.583 2.583 0 01-.129.198c-.208.229-.476.339-.729.407-.257.046-.511.069-.748.025a1.714 1.714 0 01-.636-.213 1.073 1.073 0 01-.42-.388c-.11-.135-.13-.289-.162-.402-.016-.236-.004-.364-.004-.364h.035s.021.131.085.333c.058.09.096.214.205.31.086.112.229.197.387.263.153.078.347.114.548.127.201.014.416.001.628-.046.211-.048.419-.136.565-.272.144-.157.176-.3.064-.539l-.329-.698c-.068-.25-.152-.491-.2-.731a7.814 7.814 0 01-.135-1.321 9.332 9.332 0 01.057-1.286l.035.004zm-2.935 6.444s1.042-.078 2.084-.123c.522-.045 1.042-.059 1.434.001.391.045.651.122.651.122v.035s-.26.076-.651.121c-.392.06-.912.047-1.434.002-1.042-.046-2.084-.123-2.084-.123v-.035zm1.563.97s.374-.077.747-.123c.187-.045.373-.058.514.002a.797.797 0 01.233.121v.035s-.094.077-.233.122c-.141.06-.327.046-.514.001-.373-.045-.747-.123-.747-.123v-.035z" fill="#454761"/><path d="M347.698 511.218l-3.857 5.006s7.525 4.994 9.043 5.082c1.517.088 18.672-5.219 18.672-5.219l-3.873-6.189-19.985 1.32z" fill="#A64045"/><path d="M367.683 517.269s-2.125-6.803-2.675-7.254c-.551-.451-3.349.836-3.349.836s2.158 2.135 3.223 7.26l2.801-.842z" fill="#454474"/><path d="M337.551 466.404v25.869s3.252 4.146 9.777 4.76c0 0 .121-26.203-9.777-30.629z" fill="#A64045"/><path d="M356.643 495.611h3.327v-6.109h-3.327v6.109zm-6.673 2.109h3.328v-6.109h-3.328v6.109z" fill="#302C32"/><path d="M359.995 498.039h3.328v-6.11h-3.328v6.11zm-6.681-1.993h3.329v-6.109h-3.329v6.109z" fill="#A64045"/><path d="M363.218 499.878h3.328v-6.107h-3.328v6.107z" fill="#302C32"/><path d="M366.57 500.002h3.33v-3.805h-3.33v3.805z" fill="#A64045"/><path d="M349.998 499.892l.762-2.723-2.559-.136 1.797 2.859z" fill="#A76F49"/><path d="M346.438 496.935s1.165-17.115-8.887-30.531l.017-1.781s5.917 2.781 9.284 14.505c3.365 11.725 1.84 17.807 1.84 17.807h-2.254z" fill="#302C32"/><path d="M347.975 496.552s.308-11.261-2.471-18.009c-2.779-6.749-4.714-11.35-7.953-13.891v-5.149s4.997 1.014 12.125 18.776c2.995 9.945 2.435 18.644 2.435 18.644l-4.136-.371z" fill="#454474"/><path d="M347.806 496.851c0-.424.856-.765 1.914-.765 1.057 0 1.914.341 1.914.765 0 .422-.857.764-1.914.764-1.058 0-1.914-.342-1.914-.764zm.141-1.683c-.022-.413.798-.791 1.832-.846 1.035-.055 1.89.236 1.913.648.021.414-.799.793-1.833.848-1.035.053-1.89-.236-1.912-.65zm.029-1.936c-.043-.404.742-.818 1.752-.928 1.01-.109 1.865.129 1.909.533.043.405-.741.821-1.752.928-1.01.11-1.865-.129-1.909-.533zm-.088-2.148c-.065-.395.682-.848 1.671-1.01.987-.164 1.841.023 1.906.418.064.394-.683.847-1.67 1.01-.988.164-1.842-.024-1.907-.418zm-.21-2.321c-.087-.386.624-.875 1.589-1.094.964-.216 1.816-.082 1.903.305.087.385-.624.873-1.589 1.092-.964.217-1.816.082-1.903-.303zm-.338-2.455c-.109-.377.565-.902 1.507-1.174.941-.273 1.793-.189 1.901.188.109.375-.566.902-1.507 1.174-.941.271-1.793.187-1.901-.188zm-.472-2.549c-.131-.367.508-.929 1.426-1.256.918-.326 1.768-.294 1.898.073.13.367-.507.929-1.425 1.256-.918.326-1.769.295-1.899-.073zm-.61-2.601c-.152-.358.449-.957 1.345-1.338.893-.381 1.743-.401 1.894-.043.154.357-.449.957-1.344 1.338-.894.381-1.744.4-1.895.043zm-.754-2.615c-.175-.35.391-.985 1.263-1.42.872-.436 1.718-.506 1.893-.159.174.348-.391.985-1.263 1.42-.871.436-1.719.506-1.893.159zm-.903-2.59c-.197-.34.333-1.012 1.181-1.502.849-.489 1.695-.612 1.89-.274.196.34-.333 1.012-1.181 1.502-.848.49-1.695.614-1.89.274zm-1.059-2.524c-.217-.33.275-1.039 1.102-1.582.824-.545 1.67-.72 1.886-.39.219.33-.274 1.039-1.099 1.584-.825.545-1.67.718-1.889.388zm-1.217-2.418c-.239-.32.217-1.066 1.02-1.664.802-.599 1.645-.826 1.885-.504.239.321-.217 1.065-1.019 1.664-.802.6-1.646.825-1.886.504zm-1.383-2.271c-.26-.311.16-1.094.938-1.746.779-.655 1.622-.932 1.883-.621.262.312-.158 1.093-.938 1.748-.778.652-1.621.929-1.883.619zm-1.552-2.086c-.283-.303.1-1.121.856-1.828.755-.709 1.597-1.037 1.88-.737.282.303-.1 1.122-.855 1.829-.756.709-1.598 1.037-1.881.736zm-1.729-1.861c-.304-.293.042-1.149.775-1.911.732-.761 1.573-1.142 1.878-.849.304.291-.043 1.146-.775 1.908-.732.764-1.573 1.145-1.878.852z" fill="#A64045"/><path d="M356.867 481.959h5.29v5.853h-5.29v-5.853z" fill="#495DA7"/><path d="M361.929 482.207h-5.062v-5.309l5.062 5.309zm.182.449h-5.335v4.346h5.335v-4.346zm0 4.728h-5.244v1.418l5.244 3.174v-4.592z" fill="#B7975B"/><path d="M355.845 476.39l.203 12.317-4.342 2.453s-.851-10.199-1.883-12.032c-1.031-1.832 6.022-2.738 6.022-2.738z" fill="#A64045"/><path d="M355.769 476.353l1.29.641v12.603h-1.29v-13.244z" fill="#DAE2F2"/><path d="M355.353 475.873l1.29.638v12.606h-1.29v-13.244z" fill="#302C32"/><path d="M346.92 471.597c.438 1.104 1.178 2.125 1.726 3.18.89 1.717 1.526 3.535 1.817 5.428l.08.002a6.332 6.332 0 005.88-3.989c-.198-.222-.391-.453-.637-.66-.442-.375-.965-.668-1.427-1.021-1.122-.862-1.979-2.047-3.234-2.723-.946-.508-1.953-.861-2.96-1.225a11.686 11.686 0 00-1.319-.42c-.137.022-.273.042-.408.061.165.461.308.932.482 1.367z" fill="#302C32"/><path d="M346.92 471.597c.438 1.104 1.178 2.125 1.726 3.18.812 1.566 1.412 3.215 1.732 4.93.055 0 .109.004.165.004a5.834 5.834 0 005.505-3.905 2.944 2.944 0 00-.262-.248c-.442-.375-.965-.668-1.427-1.021-1.122-.862-1.979-2.047-3.234-2.723-.946-.508-1.953-.861-2.96-1.225a11.686 11.686 0 00-1.319-.42 12.15 12.15 0 01-.408.059c.165.461.308.932.482 1.369z" fill="#B7975B"/><path d="M348.646 474.777c.357.687.671 1.392.941 2.111a3.156 3.156 0 004.11-2.916c-.828-.76-1.574-1.621-2.572-2.158a15.662 15.662 0 00-1.863-.822 3.16 3.16 0 00-1.713 1.881c.363.638.765 1.265 1.097 1.904z" fill="#495DA7"/><path d="M368.394 486.337l-5.179-2.988-.263 9.643 5.442 2.996v-9.651z" fill="#A64045"/><path d="M361.929 482.798h1.289v9.758h-1.289v-9.758z" fill="#DAE2F2"/><path d="M373.321 498.921s-2.228 1.25-4.526 1.573l-.278-13.981s3.526 1.307 5.111 1.248l-.307 11.16z" fill="#B9C8E6"/><path d="M373.321 498.921l.802-.304v-10.76h-.802v11.064z" fill="#756262"/><path d="M374.123 498.617s1.189-.496 1.704-.891v-9.723h-1.704v10.614zm-11.716-15.385h1.289v9.76h-1.289v-9.76z" fill="#302C32"/><path d="M367.992 500.494h.803v-13.715h-.803v13.715z" fill="#756262"/><path d="M347.486 469.996c.484 0 1.115.097 1.906.396 2.623.994 5.828 3.729 9.53 8.131 4.457 5.301 8.839 7.406 11.729 8.24 3.127.903 6.527.487 6.548.483l.154.863c-.092.016-3.579.455-6.887-.486-3.022-.862-7.595-3.041-12.215-8.537-8.314-9.885-11.485-8.086-11.516-8.067l-.495-.723c.064-.044.459-.3 1.246-.3z" fill="#A47953"/><path d="M367.992 496.543s-10.715-6.989-11.726-6.989c-1.012 0-4.048 2.127-4.048 2.127v-1.236s3.661-2.442 4.137-2.442c.476 0 11.637 7.235 11.637 7.235v1.305z" fill="#DAE2F2"/><path d="M366.794 499.892s-9.055-6.658-10.341-6.658c-1.285 0-5.011 3.328-5.011 3.328l15.352 3.33z" fill="#B7975B"/><path d="M367.992 497.392s-10.715-7.107-11.726-7.107c-1.012 0-4.048 2.394-4.048 2.394v-1.197s3.661-2.365 4.137-2.365c.476 0 11.637 7.01 11.637 7.01v1.265z" fill="#B7975B"/><path d="M352.51 496.072s.024-11.307-2.619-18.764c-2.646-7.459-8.693-17.834-11.407-18.758l-.933.953c2.344 1.184 9.964 12.717 11.388 18.354 1.745 7.172 1.804 4.07 2.647 18.686.844 14.615.924-.471.924-.471z" fill="#A47953"/><path d="M360.841 497.392s-3.703-2.726-4.491-2.726c-.787 0-2.467 1.535-2.467 1.535s5.128 3.416 6.536 2.935c1.409-.482.422-1.744.422-1.744z" fill="#CED6E7"/><path d="M350.527 510.752s-1.748-1.745-1.302-6.274c.446-4.529.824-9.066-2.491-7.682-3.313 1.385-.449 4.915 1.55 3.051 0 0-.009 2.233-.3 5.172-.289 2.94-.078 5.754 2.543 5.733z" fill="#CA834E"/><path d="M348.776 510.015s-.487-2.722 0-3.279c.486-.555.035-1.418 0-2.082-.035-.662-.73-6.256 3.091-8.272 3.824-2.015 3.51.77 8.201 2.539 0 0 .73 10.907-2.466 11.811 0 0-6.36.547-8.826-.717z" fill="#DAE2F2"/><path d="M364.387 509.316s1.24-1.016 1.24-3.969c0-2.955 1.532-6.043 3.585-4.939 2.052 1.105-.023 3.203-1.195 1.873 0 0-.137 1.443-.137 3.359 0 1.918-1.071 4.154-3.493 3.676z" fill="#A36D48"/><path d="M363.209 510.002s1.436-1.174 1.436-4.592c0-3.418.769-7.008 3.145-5.729 2.374 1.28-.026 3.705-1.384 2.166 0 0-.156 1.67-.156 3.889s-1.083 4.475-3.041 4.266z" fill="#A76F49"/><path d="M361.659 510.375s1.362-2.405 1.362-6.081c0-3.677 1.025-6.384 3.581-5.009 2.554 1.377-.029 3.986-1.489 2.33 0 0-.168 1.797-.168 4.183 0 2.385-1.181 4.801-3.286 4.577z" fill="#AC724A"/><path d="M360.419 510.558s.97-1.633.97-5.732c0-4.102.814-7.979 3.664-6.446 2.848 1.536-.031 4.446-1.659 2.6 0 0-.189 2.002-.189 4.664 0 2.66-.438 5.164-2.786 4.914z" fill="#B1754B"/><path d="M358.776 510.736s1.838-1.502 1.838-5.879c0-4.375.067-8.752 3.107-7.113 3.04 1.634-.033 4.742-1.771 2.771 0 0-.2 2.139-.2 4.977 0 2.84-.468 5.511-2.974 5.244z" fill="#B6784C"/><path d="M357.602 510.732s1.91-1.564 1.91-6.115.07-9.104 3.231-7.401c3.162 1.703-.034 4.934-1.841 2.883 0 0-.209 2.225-.209 5.178s-.486 5.732-3.091 5.455z" fill="#CA834E"/><path d="M367.234 508.099s-7.175 3.957-18.845 1.438l-.691 1.681s9.045 3.543 19.985-1.32l-.449-1.799z" fill="#444247"/><path d="M351.699 507.135s-.73.295-1.538.303c-.2.014-.406-.019-.598-.04-.187-.064-.349-.162-.484-.235-.228-.24-.317-.415-.317-.415l.027-.024s.208.071.428.196c.136.032.284.07.436.124.166.026.337.096.523.115.185.012.372.039.55.026a5.845 5.845 0 00.964-.083l.009.033zm3.197-.033s.19.038.476.061c.143.014.31.02.487.022.178.013.365-.014.55-.026.186-.019.357-.089.523-.115.152-.054.301-.092.436-.124.22-.125.428-.196.428-.196l.027.024s-.089.175-.317.415c-.135.073-.297.171-.483.235-.193.021-.399.054-.599.04-.808-.008-1.538-.303-1.538-.303l.01-.033z" fill="#CA834E"/><path d="M353.871 505.786s.166-.191.488-.394c.164-.091.359-.209.588-.275.229-.071.477-.144.737-.15.258-.043.515-.033.756.009.243.029.456.103.625.199.344.176.544.33.544.33l-.015.032s-.264-.016-.614-.096c-.172-.06-.38-.079-.599-.105-.216-.049-.447-.099-.685-.088-.24-.022-.472.022-.693.064-.113.012-.213.057-.311.088-.096.036-.196.057-.275.1-.333.149-.522.311-.522.311l-.024-.025zm-2.293.025s-.14-.109-.384-.209a3.211 3.211 0 00-.418-.136c-.159-.023-.322-.071-.492-.054a1.776 1.776 0 00-.484.052c-.153.018-.303.008-.426.045-.252.039-.452.028-.452.028l-.014-.032s.136-.128.387-.263c.123-.074.283-.119.461-.14.178-.03.367-.008.554.03.188.012.363.09.528.141.16.065.304.145.416.222.229.152.348.29.348.291l-.024.025zm.655.542s.036-.513-.031-1.276a8.762 8.762 0 00-.211-1.282c-.057-.229-.15-.454-.225-.687l-.36-.669c-.066-.093-.107-.27-.113-.44l.057-.24c.039-.067.085-.133.13-.198.207-.228.474-.338.728-.407.258-.046.512-.068.748-.025.235.038.456.102.637.213.183.098.334.242.42.389.109.135.13.289.162.402.016.237.004.365.004.365h-.035s-.022-.131-.085-.333c-.059-.092-.096-.214-.205-.312-.086-.11-.23-.195-.387-.263a1.438 1.438 0 00-.548-.126 2.19 2.19 0 00-.63.046c-.21.047-.418.135-.564.271-.145.157-.175.302-.065.54l.33.697c.068.25.153.492.2.732.092.481.127.933.134 1.321.015.774-.056 1.286-.056 1.286l-.035-.004zm2.936-6.443s-1.042.077-2.085.123c-.521.045-1.043.058-1.433-.002a4.35 4.35 0 01-.652-.121v-.035s.261-.077.652-.122c.39-.06.912-.046 1.433-.001 1.043.045 2.085.123 2.085.123v.035zm-1.563-.971s-.373.077-.747.123c-.187.045-.375.059-.514-.002a.795.795 0 01-.234-.121v-.035s.094-.076.234-.121c.139-.061.327-.047.514-.002.374.046.747.123.747.123v.035z" fill="#454761"/></svg>