<svg xmlns="http://www.w3.org/2000/svg" style="isolation:isolate" viewBox="0 424.08 69.123 103.685" width="92.164" height="138.247"><path d="M69.123 525.043a2.722 2.722 0 01-2.722 2.722H2.721A2.722 2.722 0 010 525.043V426.8a2.721 2.721 0 012.721-2.72h63.68a2.721 2.721 0 012.722 2.72v98.243z" fill="#EAE8E8"/><path d="M50.289 453.591l-1.079-1.076c-4.007-3.543-6.625-5.931-6.625-8.861 0-2.385 1.852-4.236 4.235-4.236 1.315 0 2.623 1.402 3.469 2.402.848-1 2.156-2.402 3.469-2.402 2.385 0 4.236 1.851 4.236 4.236 0 2.93-2.618 5.318-6.625 8.861l-1.08 1.076z" fill="#7D3C40"/><path d="M50.274 441.808c-.848-.998-2.148-2.381-3.454-2.381-2.383 0-4.235 1.85-4.235 4.235 0 2.931 2.618 5.318 6.625 8.863l1.064 1.059v-11.776z" fill="#934348"/><path d="M18.833 453.591l-1.079-1.076c-4.008-3.543-6.626-5.931-6.626-8.861 0-2.385 1.852-4.236 4.235-4.236 1.316 0 2.623 1.402 3.47 2.402.847-1 2.155-2.402 3.469-2.402 2.385 0 4.236 1.851 4.236 4.236 0 2.93-2.619 5.318-6.625 8.861l-1.08 1.076z" fill="#7D3C40"/><path d="M18.817 441.808c-.848-.998-2.147-2.381-3.454-2.381-2.383 0-4.235 1.85-4.235 4.235 0 2.931 2.618 5.318 6.626 8.863l1.063 1.059v-11.776z" fill="#934348"/><path d="M50.289 473.201l-1.079-1.076c-4.007-3.543-6.625-5.932-6.625-8.864 0-2.383 1.852-4.234 4.235-4.234 1.315 0 2.623 1.4 3.469 2.4.848-1 2.156-2.4 3.469-2.4 2.385 0 4.236 1.851 4.236 4.234 0 2.932-2.618 5.321-6.625 8.864l-1.08 1.076z" fill="#7D3C40"/><path d="M50.274 461.418c-.848-1-2.148-2.383-3.454-2.383-2.383 0-4.235 1.851-4.235 4.236 0 2.93 2.618 5.318 6.625 8.861l1.064 1.061v-11.775z" fill="#934348"/><path d="M18.833 473.201l-1.079-1.076c-4.008-3.543-6.626-5.932-6.626-8.864 0-2.383 1.852-4.234 4.235-4.234 1.316 0 2.623 1.4 3.47 2.4.847-1 2.155-2.4 3.469-2.4 2.385 0 4.236 1.851 4.236 4.234 0 2.932-2.619 5.321-6.625 8.864l-1.08 1.076z" fill="#7D3C40"/><path d="M18.817 461.418c-.848-1-2.147-2.383-3.454-2.383-2.383 0-4.235 1.851-4.235 4.236 0 2.93 2.618 5.318 6.626 8.861l1.063 1.061v-11.775z" fill="#934348"/><path d="M18.833 492.81l-1.079-1.076c-4.008-3.543-6.626-5.932-6.626-8.863 0-2.383 1.852-4.235 4.235-4.235 1.316 0 2.623 1.401 3.47 2.401.847-1 2.155-2.401 3.469-2.401 2.385 0 4.236 1.852 4.236 4.235 0 2.931-2.619 5.32-6.625 8.863l-1.08 1.076z" fill="#7D3C40"/><path d="M18.817 481.027c-.848-1-2.147-2.383-3.454-2.383-2.383 0-4.235 1.852-4.235 4.234 0 2.932 2.618 5.321 6.626 8.864l1.063 1.06v-11.775z" fill="#934348"/><path d="M50.289 492.81l-1.079-1.076c-4.007-3.543-6.625-5.932-6.625-8.863 0-2.383 1.852-4.235 4.235-4.235 1.315 0 2.623 1.401 3.469 2.401.848-1 2.156-2.401 3.469-2.401 2.385 0 4.236 1.852 4.236 4.235 0 2.931-2.618 5.32-6.625 8.863l-1.08 1.076z" fill="#7D3C40"/><path d="M50.274 481.027c-.848-1-2.148-2.383-3.454-2.383-2.383 0-4.235 1.852-4.235 4.234 0 2.932 2.618 5.321 6.625 8.864l1.064 1.06v-11.775z" fill="#934348"/><path d="M18.833 512.427l-1.079-1.076c-4.008-3.543-6.626-5.932-6.626-8.863 0-2.385 1.852-4.235 4.235-4.235 1.316 0 2.623 1.401 3.47 2.401.847-1 2.155-2.401 3.469-2.401 2.385 0 4.236 1.85 4.236 4.235 0 2.931-2.619 5.32-6.625 8.863l-1.08 1.076z" fill="#7D3C40"/><path d="M18.817 500.642c-.848-.998-2.147-2.381-3.454-2.381-2.383 0-4.235 1.852-4.235 4.235 0 2.931 2.618 5.32 6.626 8.863l1.063 1.06v-11.777z" fill="#934348"/><path d="M50.289 512.427l-1.079-1.076c-4.007-3.543-6.625-5.932-6.625-8.863 0-2.385 1.852-4.235 4.235-4.235 1.315 0 2.623 1.401 3.469 2.401.848-1 2.156-2.401 3.469-2.401 2.385 0 4.236 1.85 4.236 4.235 0 2.931-2.618 5.32-6.625 8.863l-1.08 1.076z" fill="#7D3C40"/><path d="M50.274 500.642c-.848-.998-2.148-2.381-3.454-2.381-2.383 0-4.235 1.852-4.235 4.235 0 2.931 2.618 5.32 6.625 8.863l1.064 1.06v-11.777z" fill="#934348"/><path d="M5.071 432.791h.717v-5.484h-.633l-1.198.641.144.566.953-.515h.017v4.792zm4.555-5.577c-1.113 0-1.915 1.004-1.915 2.852.017 1.814.751 2.818 1.823 2.818 1.206 0 1.906-1.03 1.906-2.894 0-1.746-.666-2.776-1.814-2.776zm-.05.574c.776 0 1.113.886 1.113 2.236 0 1.4-.362 2.286-1.113 2.286-.675 0-1.114-.81-1.114-2.236 0-1.493.473-2.286 1.114-2.286zm54.474 91.264h-.717v5.483h.633l1.198-.641-.144-.565-.953.515h-.017v-4.792zm-4.556 5.576c1.114 0 1.916-1.004 1.916-2.851-.017-1.814-.751-2.818-1.823-2.818-1.206 0-1.906 1.029-1.906 2.894 0 1.746.666 2.775 1.813 2.775zm.051-.573c-.776 0-1.113-.886-1.113-2.236 0-1.4.362-2.286 1.113-2.286.675 0 1.114.81 1.114 2.235 0 1.494-.473 2.287-1.114 2.287zM7.417 444.043l-.578-.577c-2.144-1.896-3.545-3.173-3.545-4.742 0-1.275.99-2.265 2.267-2.265.703 0 1.403.748 1.856 1.283.453-.535 1.153-1.283 1.857-1.283 1.275 0 2.265.99 2.265 2.265 0 1.569-1.4 2.846-3.545 4.742l-.577.577z" fill="#7D3C40"/><path d="M7.408 437.736c-.454-.533-1.148-1.274-1.847-1.274a2.236 2.236 0 00-2.267 2.266c0 1.568 1.401 2.846 3.545 4.742l.569.567v-6.301z" fill="#934348"/><path d="M61.706 507.802l.577.576c2.144 1.897 3.545 3.174 3.545 4.743 0 1.275-.99 2.265-2.265 2.265-.704 0-1.405-.75-1.857-1.285-.453.535-1.153 1.285-1.856 1.285a2.235 2.235 0 01-2.266-2.265c0-1.569 1.4-2.846 3.545-4.743l.577-.576z" fill="#7D3C40"/><path d="M61.715 514.107c.453.535 1.148 1.275 1.848 1.275 1.275 0 2.265-.99 2.265-2.265 0-1.569-1.401-2.848-3.545-4.742l-.568-.569v6.301z" fill="#934348"/><path d="M34.561 463.902l-1.078-1.076c-4.008-3.543-6.626-5.932-6.626-8.864 0-2.384 1.851-4.234 4.235-4.234 1.314 0 2.623 1.4 3.469 2.4.847-1 2.156-2.4 3.468-2.4 2.386 0 4.237 1.85 4.237 4.234 0 2.932-2.618 5.321-6.625 8.864l-1.08 1.076z" fill="#7D3C40"/><path d="M34.545 452.117c-.848-.998-2.146-2.381-3.453-2.381-2.384 0-4.235 1.851-4.235 4.234 0 2.932 2.618 5.321 6.626 8.864l1.062 1.06v-11.777z" fill="#934348"/><path d="M34.561 502.273l-1.078-1.076c-4.008-3.543-6.626-5.932-6.626-8.863 0-2.383 1.851-4.235 4.235-4.235 1.314 0 2.623 1.401 3.469 2.401.847-1 2.156-2.401 3.468-2.401 2.386 0 4.237 1.852 4.237 4.235 0 2.931-2.618 5.32-6.625 8.863l-1.08 1.076z" fill="#7D3C40"/><path d="M34.545 490.49c-.848-1-2.146-2.383-3.453-2.383-2.384 0-4.235 1.852-4.235 4.236 0 2.93 2.618 5.319 6.626 8.862l1.062 1.06V490.49z" fill="#934348"/></svg>