<svg xmlns="http://www.w3.org/2000/svg" style="isolation:isolate" viewBox="325.723 530.406 69.123 103.683" width="92.164" height="138.244"><path d="M394.846 631.369a2.72 2.72 0 01-2.722 2.72h-63.68a2.72 2.72 0 01-2.721-2.72v-98.242a2.722 2.722 0 012.721-2.721h63.68a2.722 2.722 0 012.722 2.721v98.242z" fill="#EAE8E8"/><path d="M333.096 550.281l-.577-.576c-2.145-1.897-3.545-3.174-3.545-4.743 0-1.275.99-2.265 2.265-2.265.704 0 1.404.748 1.857 1.285.453-.537 1.153-1.285 1.856-1.285 1.276 0 2.266.99 2.266 2.265 0 1.569-1.401 2.846-3.545 4.743l-.577.576z" fill="#7D3C40"/><path d="M333.087 543.976c-.453-.535-1.148-1.275-1.848-1.275-1.275 0-2.265.99-2.265 2.265 0 1.569 1.4 2.846 3.545 4.743l.568.566v-6.299z" fill="#934348"/><path d="M387.385 614.041l.578.576c2.144 1.896 3.544 3.174 3.544 4.742 0 1.275-.99 2.266-2.266 2.266-.703 0-1.403-.75-1.856-1.286-.453.536-1.153 1.286-1.857 1.286a2.236 2.236 0 01-2.265-2.266c0-1.568 1.4-2.846 3.545-4.742l.577-.576z" fill="#7D3C40"/><path d="M387.394 620.345c.453.535 1.148 1.276 1.847 1.276a2.236 2.236 0 002.266-2.266c0-1.568-1.4-2.848-3.544-4.742l-.569-.569v6.301z" fill="#934348"/><path d="M331.008 540.856h.947v-2.798l.708-.805 2.406 3.603h1.121l-2.863-4.224 2.656-3.113h-1.176l-2.242 2.754c-.185.24-.381.501-.577.784h-.033v-3.538h-.947v7.337zm58.552 82.784h-.947v2.797l-.708.806-2.406-3.603h-1.121l2.863 4.223-2.656 3.114h1.176l2.242-2.754c.185-.24.381-.501.577-.784h.033v3.538h.947v-7.337z" fill="#7D3C40"/><path d="M343.369 605.812s-4.053-1.465-7.827-5.562v-5.016h7.827v10.578zm-7.827-13.072v-28.154s3.539-4.512 10.642-5.18c0 0 .132 28.517-10.642 33.334z" fill="#A64045"/><path d="M356.32 560.953h3.622v6.648h-3.622v-6.648zm-7.262-2.297h3.623v6.648h-3.623v-6.648z" fill="#302C32"/><path d="M359.97 558.31h3.621v6.649h-3.621v-6.649zm-7.272 2.17h3.622v6.648h-3.622v-6.648z" fill="#A64045"/><path d="M363.477 556.308h3.622v6.649h-3.622v-6.649z" fill="#302C32"/><path d="M367.126 556.173h3.622v4.141h-3.622v-4.141z" fill="#A64045"/><path d="M345.214 559.511s1.268 18.627-9.672 33.229l.02 1.937s6.438-3.025 10.102-15.787c3.663-12.76 2.003-19.379 2.003-19.379h-2.453z" fill="#302C32"/><path d="M346.887 559.929s.336 12.256-2.689 19.6c-3.026 7.346-5.131 12.351-8.656 15.117v5.604s9.939-9.61 13.197-20.434c3.259-10.824 2.65-20.293 2.65-20.293l-4.502.406z" fill="#EAE8E8"/><path d="M346.703 559.603c0 .461.933.832 2.083.832 1.151 0 2.083-.371 2.083-.832 0-.459-.932-.832-2.083-.832-1.15 0-2.083.373-2.083.832zm.154 1.832c-.024.449.869.861 1.994.922 1.126.059 2.057-.258 2.08-.707.025-.449-.868-.863-1.994-.922-1.124-.059-2.056.258-2.08.707zm.032 2.108c-.048.439.806.89 1.906 1.009 1.1.119 2.03-.142 2.077-.582.048-.439-.805-.892-1.906-1.009-1.1-.12-2.029.14-2.077.582zm-.096 2.337c-.071.43.743.922 1.818 1.1 1.074.178 2.003-.027 2.075-.457.07-.428-.744-.922-1.819-1.1-1.074-.177-2.003.028-2.074.457zm-.229 2.526c-.094.42.679.953 1.729 1.189 1.05.237 1.978.09 2.071-.33.095-.42-.679-.951-1.728-1.189-1.05-.237-1.978-.088-2.072.33zm-.369 2.672c-.118.41.617.982 1.641 1.277 1.024.297 1.951.205 2.069-.205.119-.408-.616-.981-1.639-1.277-1.025-.295-1.951-.204-2.071.205zm-.512 2.773c-.143.401.552 1.012 1.551 1.367 1 .356 1.924.321 2.066-.08.142-.398-.553-1.01-1.551-1.365-1-.355-1.925-.32-2.066.078zm-.665 2.832c-.165.389.49 1.041 1.464 1.455.972.416 1.897.436 2.062.047.167-.389-.488-1.041-1.463-1.455-.973-.416-1.897-.436-2.063-.047zm-.82 2.846c-.19.379.426 1.072 1.374 1.545.95.474 1.871.551 2.061.172.189-.379-.426-1.071-1.375-1.545-.948-.473-1.871-.551-2.06-.172zm-.983 2.818c-.213.369.362 1.1 1.286 1.635.923.533 1.844.666 2.058.297.213-.369-.364-1.1-1.286-1.635-.924-.531-1.845-.666-2.058-.297zm-1.151 2.746c-.238.36.298 1.131 1.197 1.723.898.594 1.818.783 2.055.424.237-.36-.299-1.131-1.198-1.723-.897-.592-1.817-.781-2.054-.424zm-1.326 2.631c-.259.35.237 1.16 1.11 1.813.873.652 1.791.898 2.052.549.26-.35-.237-1.161-1.109-1.813-.873-.65-1.792-.896-2.053-.549zm-1.504 2.473c-.284.34.172 1.189 1.02 1.9.848.713 1.766 1.014 2.05.676.284-.34-.173-1.189-1.021-1.9-.847-.711-1.765-1.014-2.049-.676zm-1.691 2.271c-.307.328.11 1.219.933 1.991.822.769 1.738 1.128 2.046.798.307-.328-.11-1.218-.932-1.99-.822-.769-1.738-1.127-2.047-.799zm-1.881 2.026c-.331.318.046 1.25.843 2.08.798.828 1.713 1.242 2.044.924.332-.319-.046-1.248-.843-2.079-.798-.83-1.712-1.244-2.044-.925z" fill="#A64045"/><path d="M356.566 575.81h5.756v-6.369h-5.756v6.369z" fill="#495DA7"/><path d="M362.074 575.541h-5.508v5.779l5.508-5.779zm.199-.491h-5.806v-4.728h5.806v4.728zm0-5.144h-5.707v-1.543l5.707-3.455v4.998z" fill="#B7975B"/><path d="M355.452 581.871l.221-13.405-4.725-2.67s-.927 11.1-2.049 13.094c-1.123 1.994 6.553 2.981 6.553 2.981z" fill="#A64045"/><path d="M355.37 581.912l1.404-.698v-13.716h-1.404v14.414z" fill="#DAE2F2"/><path d="M354.917 582.435l1.403-.695v-13.719h-1.403v14.414z" fill="#302C32"/><path d="M345.739 587.087c.476-1.201 1.282-2.314 1.878-3.46.97-1.87 1.661-3.848 1.979-5.907l.087-.002a6.887 6.887 0 016.398 4.34c-.215.242-.424.494-.692.721-.482.404-1.05.726-1.553 1.111-1.222.936-2.155 2.227-3.52 2.961-1.031.553-2.125.938-3.221 1.336-.471.17-.948.34-1.438.455a16.281 16.281 0 00-.443-.064c.18-.504.336-1.016.525-1.491z" fill="#302C32"/><path d="M345.739 587.087c.476-1.201 1.282-2.314 1.878-3.46.884-1.704 1.537-3.5 1.886-5.364.06-.002.119-.004.18-.004a6.347 6.347 0 015.99 4.248 3.68 3.68 0 01-.284.272c-.482.404-1.05.726-1.553 1.111-1.222.936-2.155 2.227-3.52 2.961-1.031.553-2.125.938-3.221 1.336-.471.17-.948.34-1.438.455a16.87 16.87 0 00-.443-.064c.18-.502.336-1.016.525-1.491z" fill="#B7975B"/><path d="M347.617 583.627c.389-.749.732-1.516 1.025-2.299a3.435 3.435 0 014.473 3.174c-.9.83-1.714 1.765-2.799 2.349-.656.352-1.336.635-2.028.897a3.451 3.451 0 01-1.864-2.047c.394-.698.832-1.379 1.193-2.074z" fill="#495DA7"/><path d="M369.109 571.046l-5.635 3.252-.286-10.494 5.921-3.261v10.503z" fill="#A64045"/><path d="M362.074 574.898h1.403v-10.621h-1.403v10.621z" fill="#DAE2F2"/><path d="M374.472 557.349s-2.425-1.361-4.926-1.711l-.302 15.217s3.838-1.424 5.563-1.359l-.335-12.147z" fill="#B9C8E6"/><path d="M374.472 557.349l.874.332v11.711h-.874v-12.043z" fill="#756262"/><path d="M375.346 557.681s1.294.539 1.854.971v10.58h-1.854v-11.551z" fill="#302C32"/><path d="M377.2 558.652s4.053 1.465 7.826 5.562v5.018H377.2v-10.58z" fill="#A64045"/><path d="M362.595 574.423h1.403v-10.619h-1.403v10.619z" fill="#302C32"/><path d="M368.673 555.638h.873v14.926h-.873v-14.926z" fill="#756262"/><path d="M346.356 588.83c.526 0 1.212-.106 2.074-.432 2.853-1.08 6.343-4.057 10.371-8.848 4.851-5.767 9.62-8.06 12.766-8.968 3.404-.983 7.272-.799 7.294-.795l.167-.94c-.1-.017-4.063-.226-7.663.799-3.289.938-8.265 3.311-13.295 9.291-9.048 10.76-12.499 8.801-12.532 8.779l-.539.787c.069.049.5.327 1.357.327z" fill="#A47953"/><path d="M368.673 559.939s-11.662 7.605-12.763 7.605c-1.1 0-4.405-2.314-4.405-2.314v1.344s3.984 2.658 4.503 2.658c.518 0 12.665-7.873 12.665-7.873v-1.42z" fill="#DAE2F2"/><path d="M367.369 556.294s-9.855 7.245-11.254 7.245c-1.399 0-5.455-3.621-5.455-3.621l16.709-3.624z" fill="#B7975B"/><path d="M368.673 559.015s-11.662 7.735-12.763 7.735c-1.1 0-4.405-2.608-4.405-2.608v1.305s3.984 2.574 4.503 2.574c.518 0 12.665-7.629 12.665-7.629v-1.377z" fill="#B7975B"/><path d="M351.822 560.453s.029 12.304-2.85 20.42c-2.878 8.117-10.123 19.531-12.253 20.566l-1.177-1.189s5.098-4.204 12.394-19.975c1.899-7.807 1.964-4.43 2.881-20.336.918-15.906 1.005.514 1.005.514z" fill="#A47953"/><path d="M385.026 571.724v28.156s-3.539 4.512-10.64 5.178c0 0-.133-28.515 10.64-33.334z" fill="#A64045"/><path d="M364.248 603.511h-3.621v-6.648h3.621v6.648zm7.263 2.297h-3.623v-6.648h3.623v6.648z" fill="#302C32"/><path d="M360.6 606.154h-3.622v-6.649h3.622v6.649zm7.271-2.168h-3.623v-6.65h3.623v6.65z" fill="#A64045"/><path d="M357.092 608.158h-3.622v-6.651h3.622v6.651z" fill="#302C32"/><path d="M353.443 608.291h-3.623v-4.141h3.623v4.141z" fill="#A64045"/><path d="M375.356 604.953s-1.269-18.627 9.67-33.229l-.019-1.937s-6.44 3.025-10.103 15.787c-3.663 12.76-2.003 19.379-2.003 19.379h2.455z" fill="#302C32"/><path d="M373.682 604.537s-.336-12.258 2.689-19.602c3.025-7.344 5.13-12.351 8.655-15.117v-5.604s-5.438 1.104-13.196 20.434c-3.26 10.826-2.65 20.293-2.65 20.293l4.502-.404z" fill="#EAE8E8"/><path d="M373.865 604.861c0-.459-.931-.832-2.083-.832-1.15 0-2.083.373-2.083.832 0 .459.933.832 2.083.832 1.152 0 2.083-.373 2.083-.832zm-.153-1.832c.023-.449-.869-.861-1.994-.922-1.126-.059-2.057.258-2.081.707-.025.451.869.863 1.995.922 1.125.058 2.057-.256 2.08-.707zm-.031-2.106c.048-.439-.807-.892-1.906-1.011-1.101-.118-2.031.142-2.079.582-.047.439.807.892 1.907 1.009 1.099.12 2.03-.14 2.078-.58zm.095-2.337c.07-.43-.743-.922-1.818-1.1-1.074-.18-2.004.025-2.075.455-.069.43.743.922 1.818 1.1 1.075.177 2.004-.028 2.075-.455zm.229-2.528c.094-.42-.68-.951-1.729-1.189-1.049-.237-1.977-.088-2.072.33-.095.42.679.953 1.729 1.189 1.05.237 1.977.09 2.072-.33zm.368-2.672c.118-.408-.616-.98-1.64-1.277-1.025-.297-1.952-.205-2.07.205-.118.408.616.98 1.641 1.277 1.024.297 1.95.203 2.069-.205zm.513-2.773c.142-.399-.553-1.01-1.551-1.367-1-.356-1.925-.319-2.066.08-.142.398.552 1.011 1.55 1.367 1 .353 1.925.32 2.067-.08zm.665-2.832c.165-.389-.489-1.041-1.464-1.455-.973-.414-1.897-.436-2.062-.047-.167.389.489 1.041 1.462 1.455.974.416 1.898.435 2.064.047zm.82-2.846c.19-.379-.427-1.07-1.375-1.545-.948-.472-1.87-.551-2.06-.172-.189.379.426 1.071 1.375 1.545.948.473 1.871.551 2.06.172zm.983-2.818c.213-.369-.363-1.1-1.287-1.633-.922-.535-1.843-.668-2.056-.299-.214.369.363 1.102 1.285 1.635.924.533 1.845.666 2.058.297zm1.152-2.746c.236-.36-.3-1.131-1.198-1.723-.899-.592-1.818-.781-2.055-.424-.236.36.299 1.131 1.197 1.723.899.594 1.819.783 2.056.424zm1.324-2.631c.261-.35-.236-1.16-1.109-1.813-.872-.652-1.791-.896-2.052-.549-.26.35.236 1.161 1.108 1.813.874.652 1.792.898 2.053.549zm1.505-2.473c.284-.34-.173-1.189-1.019-1.9-.849-.713-1.766-1.014-2.05-.674-.284.338.173 1.189 1.02 1.9.847.711 1.765 1.012 2.049.674zm1.691-2.271c.307-.328-.11-1.219-.933-1.989-.821-.771-1.737-1.129-2.046-.8-.308.328.109 1.218.932 1.99.822.769 1.739 1.127 2.047.799zm1.88-2.026c.331-.318-.046-1.248-.842-2.078-.798-.83-1.712-1.244-2.044-.926-.331.319.047 1.248.842 2.08.798.829 1.712 1.243 2.044.924z" fill="#A64045"/><path d="M364.004 588.654h-5.758v6.369h5.758v-6.369z" fill="#495DA7"/><path d="M358.495 588.923h5.509v-5.777l-5.509 5.777zm-.199.491h5.807v4.728h-5.807v-4.728zm0 5.144h5.708v1.543l-5.708 3.455v-4.998z" fill="#B7975B"/><path d="M365.116 582.593l-.22 13.405 4.724 2.67s.928-11.1 2.05-13.094c1.122-1.994-6.554-2.981-6.554-2.981z" fill="#A64045"/><path d="M365.198 582.554l-1.403.696v13.718h1.403v-14.414z" fill="#DAE2F2"/><path d="M365.651 582.029l-1.403.695v13.719h1.403v-14.414z" fill="#302C32"/><path d="M374.83 577.378c-.476 1.2-1.282 2.313-1.879 3.459-.968 1.87-1.661 3.848-1.977 5.907l-.087.002a6.891 6.891 0 01-6.4-4.338c.215-.244.425-.496.693-.721.481-.406 1.051-.726 1.554-1.111 1.22-.936 2.154-2.227 3.52-2.963 1.029-.553 2.124-.938 3.221-1.334.47-.172.947-.342 1.436-.455l.445.064c-.181.502-.336 1.014-.526 1.49z" fill="#302C32"/><path d="M374.83 577.378c-.476 1.2-1.282 2.313-1.879 3.459-.884 1.704-1.536 3.5-1.885 5.364-.06.002-.12.006-.179.006a6.349 6.349 0 01-5.991-4.25c.088-.092.181-.184.284-.27.481-.406 1.051-.726 1.554-1.111 1.22-.936 2.154-2.227 3.52-2.963 1.029-.553 2.124-.938 3.221-1.334.47-.172.947-.342 1.436-.455l.445.064c-.181.502-.336 1.014-.526 1.49z" fill="#B7975B"/><path d="M372.951 580.837c-.388.75-.73 1.516-1.024 2.299a3.438 3.438 0 01-4.474-3.174c.902-.83 1.714-1.765 2.801-2.349a16.911 16.911 0 012.026-.897 3.45 3.45 0 011.865 2.049c-.395.696-.832 1.377-1.194 2.072z" fill="#495DA7"/><path d="M351.459 593.418l5.637-3.25.285 10.492-5.922 3.261v-10.503z" fill="#A64045"/><path d="M358.495 589.568h-1.403v10.619h1.403v-10.619z" fill="#DAE2F2"/><path d="M346.097 607.115s2.425 1.361 4.926 1.711l.302-15.217s-3.839 1.424-5.563 1.359l.335 12.147z" fill="#B9C8E6"/><path d="M346.097 607.115l-.874-.332v-11.711h.874v12.043z" fill="#756262"/><path d="M345.223 606.783s-1.293-.539-1.854-.971v-10.578h1.854v11.549zm12.751-16.742h-1.404v10.619h1.404v-10.619z" fill="#302C32"/><path d="M351.896 608.826h-.873V593.9h.873v14.926z" fill="#756262"/><path d="M374.213 575.634c-.525 0-1.212.106-2.073.432-2.855 1.08-6.343 4.059-10.372 8.848-4.851 5.769-9.62 8.062-12.767 8.968-3.402.983-7.102.53-7.125.526l-.167.939c.1.018 3.895.496 7.494-.529 3.289-.938 8.267-3.311 13.295-9.291 9.049-10.758 12.499-8.801 12.532-8.779l.539-.787c-.069-.049-.5-.327-1.356-.327z" fill="#A47953"/><path d="M351.896 604.525s11.662-7.606 12.762-7.606c1.101 0 4.406 2.317 4.406 2.317v-1.346s-3.985-2.656-4.502-2.656c-.519 0-12.666 7.871-12.666 7.871v1.42z" fill="#DAE2F2"/><path d="M353.199 608.169s9.856-7.244 11.255-7.244c1.399 0 5.454 3.623 5.454 3.623l-16.709 3.621z" fill="#B7975B"/><path d="M351.896 605.451s11.662-7.737 12.762-7.737c1.101 0 4.406 2.608 4.406 2.608v-1.305s-3.985-2.574-4.502-2.574c-.519 0-12.666 7.631-12.666 7.631v1.377z" fill="#B7975B"/><path d="M368.746 604.013s-.027-12.306 2.851-20.422c2.879-8.117 9.46-19.408 12.414-20.414l1.015 1.037c-2.55 1.289-10.843 13.84-12.393 19.975-1.899 7.807-1.964 4.43-2.881 20.336-.919 15.908-1.006-.512-1.006-.512z" fill="#A47953"/><path d="M350.396 543.392s.627 5.836 0 7.031c-.626 1.196-1.822 3.844-1.822 3.844s2.59-.939 2.648 1.736c.056 2.676-2.135 2.534-2.933 2.534-.797 0-3.102-.94-1.594-4.639 1.509-3.701 1.778-2.221 2.013-4.898.236-2.676 0-5.436 0-5.436l1.688-.172z" fill="#DDDCDB"/><path d="M349.57 541.679s.626 5.834 0 7.03c-.626 1.197-1.821 3.843-1.821 3.843s2.59-.939 2.647 1.737c.057 2.675-2.135 2.533-2.932 2.533-.797 0-3.103-.938-1.594-4.639 1.508-3.701 1.778-2.221 2.013-4.896.235-2.676 0-5.438 0-5.438l1.687-.17z" fill="#EAE8E8"/><path d="M348.477 550.076s-4.475 17.039 5.683 17.039 8.952-13.002 5.778-17.578c-3.175-4.578-11.461.539-11.461.539z" fill="#DDDCDB"/><path d="M348.697 542.976s-.749 2.836-.296 3.742c.454.907-.006 2.463.076 3.358.083.896 1.303 2.433 3.963.621 0 0 6.854 3.664 6.913-1.065.059-4.726-.276-7.248-.276-7.248s-8.272-.925-10.38.592z" fill="#DAE2F2"/><path d="M367.284 540.88s-.626 5.836 0 7.034c.626 1.195 1.823 3.841 1.823 3.841s-2.591-.939-2.648 1.737c-.058 2.676 2.135 2.533 2.932 2.533.798 0 3.103-.939 1.594-4.639-1.508-3.701-1.777-2.22-2.013-4.896-.236-2.676 0-5.438 0-5.438l-1.688-.172z" fill="#6B6B6E"/><path d="M366.487 541.679s-.626 5.834 0 7.03c.626 1.197 1.823 3.843 1.823 3.843s-2.591-.939-2.649 1.737c-.056 2.675 2.136 2.533 2.933 2.533.797 0 3.102-.938 1.594-4.639-1.509-3.701-1.778-2.221-2.013-4.896-.236-2.676 0-5.438 0-5.438l-1.688-.17z" fill="#828486"/><path d="M365.32 542.503s-.626 5.836 0 7.032c.626 1.195 1.822 3.843 1.822 3.843s-2.59-.939-2.647 1.737c-.057 2.676 2.135 2.533 2.932 2.533.797 0 3.102-.939 1.594-4.639-1.509-3.701-1.778-2.22-2.013-4.896-.235-2.678 0-5.438 0-5.438l-1.688-.172z" fill="#95999A"/><path d="M363.622 542.759s-.626 5.836 0 7.034c.627 1.195 1.822 3.841 1.822 3.841s-2.59-.939-2.647 1.737c-.057 2.675 2.135 2.533 2.933 2.533.796 0 3.102-.94 1.593-4.639-1.508-3.701-1.778-2.221-2.013-4.896-.236-2.676 0-5.438 0-5.438l-1.688-.172z" fill="#ABAEAF"/><path d="M361.972 542.503s-.627 5.836 0 7.032c.626 1.195 1.821 3.843 1.821 3.843s-2.59-.939-2.647 1.737c-.057 2.676 2.134 2.533 2.931 2.533.798 0 3.104-.939 1.595-4.639-1.509-3.701-1.777-2.22-2.014-4.896-.235-2.678 0-5.438 0-5.438l-1.686-.172z" fill="#C4C4C3"/><path d="M360.292 542.277s-.626 5.836 0 7.031c.626 1.195 1.822 3.842 1.822 3.842s-2.59-.939-2.648 1.738c-.057 2.676 2.136 2.533 2.933 2.533.796 0 3.102-.939 1.593-4.64-1.508-3.701-1.777-2.221-2.012-4.897-.236-2.675 0-5.437 0-5.437l-1.688-.17z" fill="#DDDCDB"/><path d="M358.783 541.962s-.626 5.836 0 7.032c.626 1.195 1.823 3.843 1.823 3.843s-2.591-.939-2.648 1.737c-.057 2.676 2.135 2.533 2.932 2.533.797 0 3.102-.939 1.594-4.639-1.509-3.701-1.778-2.22-2.013-4.896-.236-2.676 0-5.438 0-5.438l-1.688-.172zm-6.343 8.735s-2.742.24-3.732 1.908c0 0 1.454 1.404 3.572.357 0 0 2.4.92 4.595.282 0 0-1.52-2.313-4.435-2.547z" fill="#EAE8E8"/><path d="M370.489 535.005l-3.337-.693-.673 3.244a30.99 30.99 0 00-2.644-.486l.378-3.096-3.54-.431-.387 3.164a64.11 64.11 0 00-2.987-.133v-3.248h-3.612v3.244c-1.097.021-2.084.06-2.909.101l-.547-3.255-3.887.652 1.313 7.81.723-.121.009.348 19.435.75.035-.307 1.019.211 1.611-7.754z" fill="#B7975B"/><path d="M347.883 543.203s10.004-1.528 20.986 1.064l.103-1.764s-13.768-3.212-21.369-.824l.28 1.524z" fill="#302C32"/><path d="M351.332 545.66s-.174-.035-.434-.055a4.744 4.744 0 00-.945.004c-.169.016-.322.084-.476.097a2.439 2.439 0 01-.396.12c-.2.113-.39.178-.39.178l-.024-.021s.08-.159.288-.377c.122-.067.27-.158.443-.208.17-.029.36-.055.542-.044.736.007 1.4.274 1.4.274l-.008.032zm2.91-.032s.664-.267 1.401-.274c.181-.012.371.015.542.044.173.049.32.141.442.207.208.219.288.378.288.378l-.023.021s-.191-.065-.391-.178a2.4 2.4 0 01-.395-.12c-.154-.013-.308-.081-.477-.097a4.734 4.734 0 00-.944-.004c-.261.02-.435.055-.435.055l-.008-.032z" fill="#828486"/><path d="M353.34 546.836s.172.147.476.283c.154.057.333.133.533.171.201.039.413.079.631.059.216.011.425-.039.624-.074.199-.031.386-.048.544-.102.319-.072.559-.087.559-.087l.014.03s-.182.14-.496.3a1.361 1.361 0 01-.571.172c-.216.05-.452.055-.686.016-.236-.005-.462-.072-.67-.137-.209-.059-.387-.168-.535-.25-.293-.185-.445-.358-.445-.358l.022-.023zm-2.088.023s-.108.126-.316.266c-.103.07-.233.141-.378.202-.151.046-.31.117-.482.128-.169.033-.342.058-.503.02a.93.93 0 01-.421-.12c-.228-.123-.352-.239-.352-.239l.014-.03s.181-.01.41.026c.112.033.249.022.386.048.141.024.289.045.443.041.307.01.608-.089.829-.175.221-.091.349-.19.349-.19l.021.023zm.607-.519s.064.465.051 1.17a7.039 7.039 0 01-.123 1.202c-.043.219-.12.439-.181.666l-.3.636c-.102.217-.073.348.058.49.133.123.32.208.512.255.195.04.392.046.574.035.183-.011.36-.044.499-.116a.864.864 0 00.353-.239c.099-.088.134-.199.186-.283.059-.184.079-.303.079-.303h.031s.011.116-.004.332c-.028.103-.048.242-.148.366a.977.977 0 01-.381.353c-.165.102-.368.16-.581.194-.214.041-.446.015-.679-.03-.23-.059-.477-.152-.664-.362a.727.727 0 01-.17-.399c.006-.155.043-.317.103-.401l.327-.609c.069-.212.154-.418.206-.626.1-.419.162-.82.192-1.167.06-.694.028-1.162.028-1.162l.032-.002z" fill="#454761"/><path d="M370.173 621.103s-.626-5.836 0-7.031c.627-1.195 1.822-3.844 1.822-3.844s-2.591.94-2.647-1.736c-.057-2.676 2.135-2.533 2.931-2.533.798 0 3.104.939 1.595 4.64-1.509 3.699-1.778 2.221-2.014 4.897-.235 2.675 0 5.437 0 5.437l-1.687.17z" fill="#DDDCDB"/><path d="M370.998 622.818s-.626-5.836 0-7.031c.626-1.198 1.822-3.844 1.822-3.844s-2.59.939-2.647-1.736c-.058-2.676 2.135-2.534 2.932-2.534.797 0 3.103.94 1.594 4.639-1.508 3.701-1.777 2.221-2.013 4.897-.236 2.675 0 5.437 0 5.437l-1.688.172z" fill="#EAE8E8"/><path d="M372.092 614.419s4.475-17.039-5.683-17.039c-10.159 0-8.952 13.002-5.778 17.581 3.175 4.576 11.461-.542 11.461-.542z" fill="#DDDCDB"/><path d="M371.871 621.519s.749-2.836.296-3.742c-.453-.906.008-2.463-.075-3.358-.082-.896-1.304-2.433-3.963-.621 0 0-6.853-3.662-6.913 1.065-.059 4.726.275 7.248.275 7.248s8.273.926 10.38-.592z" fill="#DAE2F2"/><path d="M353.284 623.615s.626-5.836 0-7.031c-.626-1.196-1.822-3.844-1.822-3.844s2.591.939 2.647-1.737c.058-2.675-2.134-2.533-2.931-2.533-.797 0-3.104.94-1.594 4.639 1.509 3.701 1.777 2.221 2.013 4.898.235 2.676 0 5.436 0 5.436l1.687.172z" fill="#6B6B6E"/><path d="M354.081 622.818s.627-5.836 0-7.031c-.626-1.198-1.821-3.844-1.821-3.844s2.59.939 2.647-1.736c.057-2.676-2.134-2.534-2.932-2.534-.797 0-3.103.94-1.594 4.639 1.509 3.701 1.777 2.221 2.014 4.897.235 2.675 0 5.437 0 5.437l1.686.172z" fill="#828486"/><path d="M355.249 621.992s.625-5.836 0-7.031c-.627-1.196-1.822-3.844-1.822-3.844s2.59.939 2.647-1.737c.057-2.675-2.134-2.533-2.931-2.533-.798 0-3.104.94-1.595 4.641 1.509 3.699 1.777 2.221 2.014 4.896.235 2.676 0 5.438 0 5.438l1.687.17z" fill="#95999A"/><path d="M356.946 621.736s.626-5.836 0-7.031c-.626-1.196-1.822-3.844-1.822-3.844s2.591.939 2.649-1.736c.056-2.676-2.136-2.534-2.933-2.534-.797 0-3.104.94-1.595 4.641 1.509 3.699 1.779 2.219 2.014 4.896.236 2.676 0 5.436 0 5.436l1.687.172z" fill="#ABAEAF"/><path d="M358.598 621.992s.626-5.836 0-7.031c-.627-1.196-1.822-3.844-1.822-3.844s2.59.939 2.647-1.737c.058-2.675-2.135-2.533-2.932-2.533-.798 0-3.103.94-1.594 4.641 1.508 3.699 1.778 2.221 2.013 4.896.236 2.676 0 5.438 0 5.438l1.688.17z" fill="#C4C4C3"/><path d="M360.276 622.22s.627-5.836 0-7.033c-.625-1.195-1.821-3.842-1.821-3.842s2.591.94 2.648-1.736c.056-2.676-2.135-2.533-2.933-2.533-.797 0-3.103.937-1.594 4.638 1.509 3.702 1.779 2.221 2.014 4.897.235 2.676 0 5.437 0 5.437l1.686.172z" fill="#DDDCDB"/><path d="M361.785 622.533s.627-5.836 0-7.031c-.626-1.196-1.821-3.844-1.821-3.844s2.59.939 2.647-1.737c.057-2.675-2.134-2.533-2.932-2.533-.797 0-3.103.94-1.594 4.641 1.509 3.701 1.777 2.221 2.013 4.896.236 2.676 0 5.438 0 5.438l1.687.17zm6.344-8.735s2.741-.24 3.731-1.908c0 0-1.453-1.404-3.572-.357 0 0-2.398-.92-4.594-.281 0 0 1.52 2.312 4.435 2.546z" fill="#EAE8E8"/><path d="M350.079 629.49l3.337.693.674-3.244c.842.195 1.73.357 2.644.488l-.378 3.094 3.54.434.386-3.166c1.008.068 2.013.111 2.988.132v3.248h3.612v-3.244a89.336 89.336 0 002.909-.101l.547 3.256 3.888-.653-1.314-7.81-.723.121-.009-.348-19.435-.748-.034.305-1.02-.211-1.612 7.754z" fill="#B7975B"/><path d="M372.686 621.293s-10.003 1.527-20.987-1.065l-.102 1.764s13.767 3.213 21.37.826l-.281-1.525z" fill="#302C32"/><path d="M369.236 618.836s.174.036.435.055c.26.026.607.034.944-.003.169-.015.323-.084.477-.096.138-.06.272-.092.395-.121.201-.113.391-.178.391-.178l.023.021s-.08.159-.288.377c-.122.068-.27.158-.442.208a2.5 2.5 0 01-.543.044c-.735-.008-1.399-.276-1.399-.276l.007-.031zm-2.91.031s-.664.268-1.399.276a2.495 2.495 0 01-.543-.044c-.172-.05-.32-.14-.442-.208-.208-.218-.289-.377-.289-.377l.024-.021s.19.065.39.178c.124.029.258.061.396.121.153.012.308.081.477.096.336.037.684.029.944.003.261-.019.434-.055.434-.055l.008.031z" fill="#828486"/><path d="M367.229 617.66s-.172-.148-.476-.283c-.154-.058-.333-.134-.533-.171-.201-.038-.413-.079-.631-.059-.217-.011-.426.038-.625.074-.198.031-.386.048-.543.102-.319.073-.56.088-.56.088l-.013-.03s.181-.14.496-.299c.153-.088.348-.157.57-.174.216-.05.452-.055.687-.016.235.005.461.071.67.136.209.059.386.168.535.25.293.185.444.358.444.358l-.021.024zm2.088-.024s.108-.126.316-.264c.103-.071.233-.142.379-.203.15-.045.309-.117.481-.127.169-.034.343-.058.503-.02.163.01.309.052.42.12.23.123.354.239.354.239l-.014.03s-.182.01-.41-.026c-.113-.033-.249-.023-.388-.049a2.334 2.334 0 00-.441-.04c-.308-.01-.61.088-.829.173a1.64 1.64 0 00-.35.191l-.021-.024zm-.606.519s-.065-.465-.053-1.17c.007-.353.039-.765.123-1.202.043-.219.12-.439.183-.666l.3-.635c.099-.217.073-.349-.06-.491a1.188 1.188 0 00-.512-.254 2.169 2.169 0 00-.575-.034 1.298 1.298 0 00-.499.116.874.874 0 00-.352.239c-.099.088-.133.2-.186.283-.057.184-.078.303-.078.303h-.031s-.011-.116.003-.332c.029-.102.048-.243.148-.366a.968.968 0 01.382-.354c.164-.101.366-.16.579-.194.215-.041.446-.015.68.03.229.059.476.153.665.363.095.11.152.245.17.397-.005.154-.042.317-.103.401-.11.205-.219.409-.328.609-.068.213-.152.418-.205.626-.101.419-.162.82-.192 1.167-.06.694-.028 1.162-.028 1.162l-.031.002z" fill="#454761"/></svg>