<svg xmlns="http://www.w3.org/2000/svg" style="isolation:isolate" viewBox="219.83 0 69.122 103.685" width="92.163" height="138.247"><path d="M288.952 100.963a2.721 2.721 0 01-2.72 2.722h-63.68a2.722 2.722 0 01-2.722-2.722V2.722A2.721 2.721 0 01222.552 0h63.68a2.72 2.72 0 012.72 2.722v98.241z" fill="#EAE8E8"/><path d="M257.332 28.658c-.873-.717-1.779-1.458-2.472-2.279a.608.608 0 00-.466-.216h-.035a.612.612 0 00-.47.216c-.694.821-1.6 1.562-2.473 2.279-1.851 1.515-3.763 3.083-3.763 5.51 0 2.201 1.539 3.739 3.746 3.739 1.064 0 1.994-.628 2.625-1.201-.303 1.295-.87 2.829-1.939 4.031h4.576c-1.07-1.204-1.635-2.74-1.939-4.037.63.575 1.561 1.207 2.63 1.207 2.203 0 3.744-1.538 3.744-3.739 0-2.424-1.915-3.992-3.764-5.51z" fill="#444247"/><path d="M254.359 40.737V26.163a.612.612 0 00-.47.216c-.694.821-1.6 1.562-2.473 2.279-1.851 1.515-3.763 3.083-3.763 5.51 0 2.201 1.539 3.739 3.746 3.739 1.064 0 1.994-.628 2.625-1.201-.303 1.295-.87 2.829-1.939 4.031h2.274z" fill="#57565A"/><path d="M257.332 65.442c-.873-.717-1.779-1.458-2.472-2.279a.606.606 0 00-.466-.217h-.035a.61.61 0 00-.47.217c-.694.821-1.6 1.562-2.473 2.279-1.851 1.514-3.763 3.082-3.763 5.509 0 2.201 1.539 3.739 3.746 3.739 1.064 0 1.994-.627 2.625-1.201-.303 1.296-.87 2.83-1.939 4.033h4.576c-1.07-1.206-1.635-2.742-1.939-4.039.63.577 1.561 1.207 2.63 1.207 2.203 0 3.744-1.538 3.744-3.739 0-2.423-1.915-3.991-3.764-5.509z" fill="#444247"/><path d="M254.359 77.522V62.946a.61.61 0 00-.47.217c-.694.821-1.6 1.562-2.473 2.279-1.851 1.514-3.763 3.082-3.763 5.509 0 2.201 1.539 3.739 3.746 3.739 1.064 0 1.994-.627 2.625-1.201-.303 1.296-.87 2.83-1.939 4.033h2.274z" fill="#57565A"/><path d="M228.754 13.774c-.452-.371-.922-.755-1.28-1.179a.315.315 0 00-.242-.113h-.019a.314.314 0 00-.243.113c-.359.424-.828.808-1.28 1.179-.959.784-1.95 1.598-1.95 2.854 0 1.14.797 1.937 1.94 1.937.552 0 1.033-.325 1.36-.622-.157.671-.45 1.465-1.004 2.088h2.37c-.554-.624-.847-1.419-1.005-2.091.328.298.809.625 1.362.625 1.141 0 1.94-.797 1.94-1.937 0-1.255-.992-2.068-1.949-2.854z" fill="#444247"/><path d="M227.213 20.031v-7.549a.314.314 0 00-.243.113c-.359.424-.828.808-1.28 1.179-.959.784-1.95 1.598-1.95 2.854 0 1.14.797 1.937 1.94 1.937.552 0 1.033-.325 1.36-.622-.157.671-.45 1.465-1.004 2.088h1.177z" fill="#57565A"/><path d="M279.995 89.909c.452.371.922.755 1.281 1.18.06.073.15.112.242.112h.018a.311.311 0 00.243-.112c.359-.425.829-.809 1.281-1.18.959-.784 1.949-1.596 1.949-2.853 0-1.141-.797-1.937-1.94-1.937-.551 0-1.033.324-1.36.621.157-.671.45-1.465 1.004-2.087h-2.37c.555.623.848 1.419 1.005 2.09-.327-.298-.809-.624-1.362-.624-1.141 0-1.94.796-1.94 1.937 0 1.255.992 2.067 1.949 2.853z" fill="#444247"/><path d="M281.536 83.653v7.548a.311.311 0 00.243-.112c.359-.425.829-.809 1.281-1.18.959-.784 1.949-1.596 1.949-2.853 0-1.141-.797-1.937-1.94-1.937-.551 0-1.033.324-1.36.621.157-.671.45-1.465 1.004-2.087h-1.177z" fill="#57565A"/><path d="M229.453 10.45v-.795h-3.167v-.022l.555-.522c1.491-1.437 2.438-2.493 2.438-3.799 0-1.013-.642-2.058-2.166-2.058-.806 0-1.513.316-1.992.719l.305.675c.326-.272.86-.599 1.502-.599 1.056 0 1.393.664 1.393 1.382 0 1.067-.827 1.982-2.634 3.702l-.751.729v.588h4.517zm49.876 82.785v.795h3.167v.021l-.555.523c-1.491 1.437-2.438 2.493-2.438 3.799 0 1.012.642 2.057 2.166 2.057.805 0 1.513-.315 1.992-.718l-.305-.675c-.326.272-.86.599-1.502.599-1.056 0-1.393-.664-1.393-1.383 0-1.067.827-1.981 2.634-3.701l.751-.729v-.588h-4.517z" fill="#444247"/></svg>