<svg xmlns="http://www.w3.org/2000/svg" style="isolation:isolate" viewBox="545.553 106.405 69.123 103.685" width="92.164" height="138.247"><path d="M614.676 207.368a2.722 2.722 0 01-2.722 2.722h-63.679a2.722 2.722 0 01-2.722-2.722v-98.241a2.722 2.722 0 012.722-2.722h63.679a2.722 2.722 0 012.722 2.722v98.241z" fill="#EAE8E8"/><path d="M567.312 128.933c-.873-.717-1.78-1.458-2.472-2.28a.61.61 0 00-.467-.216h-.036a.613.613 0 00-.47.216c-.692.822-1.598 1.563-2.472 2.28-1.851 1.513-3.763 3.082-3.763 5.508 0 2.202 1.539 3.74 3.745 3.74 1.065 0 1.994-.628 2.626-1.201-.304 1.295-.869 2.829-1.938 4.032h4.575c-1.07-1.205-1.636-2.741-1.939-4.038.63.575 1.561 1.207 2.629 1.207 2.203 0 3.745-1.538 3.745-3.74 0-2.422-1.915-3.992-3.763-5.508z" fill="#444247"/><path d="M564.338 141.012v-14.575h-.001a.613.613 0 00-.47.216c-.692.822-1.598 1.563-2.472 2.28-1.851 1.513-3.763 3.082-3.763 5.508 0 2.202 1.539 3.74 3.745 3.74 1.065 0 1.994-.628 2.626-1.201-.304 1.295-.869 2.829-1.938 4.032h2.273z" fill="#57565A"/><path d="M554.493 120.181c-.452-.371-.921-.755-1.28-1.181a.315.315 0 00-.241-.112h-.019a.316.316 0 00-.243.112c-.359.426-.829.81-1.281 1.181-.959.784-1.948 1.596-1.948 2.853 0 1.14.795 1.937 1.939 1.937.552 0 1.032-.325 1.359-.622-.156.671-.45 1.466-1.003 2.088h2.37c-.554-.624-.848-1.419-1.004-2.091.326.298.808.625 1.361.625 1.142 0 1.939-.797 1.939-1.937 0-1.255-.991-2.067-1.949-2.853z" fill="#444247"/><path d="M552.953 126.437v-7.549a.316.316 0 00-.243.112c-.359.426-.829.81-1.281 1.181-.959.784-1.948 1.596-1.948 2.853 0 1.14.795 1.937 1.939 1.937.552 0 1.032-.325 1.359-.622-.156.671-.45 1.466-1.003 2.088h1.177z" fill="#57565A"/><path d="M605.735 196.315c.453.372.922.755 1.281 1.18.06.072.149.112.241.112h.019c.093 0 .182-.04.244-.112.358-.425.828-.808 1.28-1.18.959-.784 1.949-1.597 1.949-2.853 0-1.141-.797-1.938-1.939-1.938-.553 0-1.034.326-1.361.624.158-.672.451-1.466 1.004-2.089h-2.37c.554.624.848 1.419 1.005 2.09-.327-.297-.809-.625-1.362-.625-1.141 0-1.94.797-1.94 1.938 0 1.255.992 2.067 1.949 2.853z" fill="#444247"/><path d="M607.276 190.059v7.548c.093 0 .182-.04.244-.112.358-.425.828-.808 1.28-1.18.959-.784 1.949-1.597 1.949-2.853 0-1.141-.797-1.938-1.939-1.938-.553 0-1.034.326-1.361.624.158-.672.451-1.466 1.004-2.089h-1.177z" fill="#57565A"/><path d="M598.769 128.933c-.873-.717-1.78-1.458-2.473-2.28a.608.608 0 00-.466-.216h-.036a.613.613 0 00-.47.216c-.693.822-1.599 1.563-2.472 2.28-1.852 1.513-3.763 3.082-3.763 5.508 0 2.202 1.538 3.74 3.744 3.74 1.067 0 1.995-.628 2.626-1.201-.303 1.295-.869 2.829-1.938 4.032h4.576c-1.071-1.205-1.636-2.741-1.94-4.038.631.575 1.561 1.207 2.629 1.207 2.203 0 3.745-1.538 3.745-3.74 0-2.422-1.915-3.992-3.762-5.508z" fill="#444247"/><path d="M595.794 141.012v-14.575a.613.613 0 00-.47.216c-.693.822-1.599 1.563-2.472 2.28-1.852 1.513-3.763 3.082-3.763 5.508 0 2.202 1.538 3.74 3.744 3.74 1.067 0 1.995-.628 2.626-1.201-.303 1.295-.869 2.829-1.938 4.032h2.273z" fill="#57565A"/><path d="M567.312 177.98c-.873-.717-1.78-1.457-2.472-2.279a.61.61 0 00-.467-.217h-.036a.614.614 0 00-.47.217c-.692.822-1.598 1.562-2.472 2.279-1.851 1.514-3.763 3.083-3.763 5.509 0 2.201 1.539 3.74 3.745 3.74 1.065 0 1.994-.628 2.626-1.202-.304 1.296-.869 2.829-1.938 4.032h4.575c-1.07-1.204-1.636-2.741-1.939-4.037.63.575 1.561 1.207 2.629 1.207 2.203 0 3.745-1.539 3.745-3.74 0-2.423-1.915-3.992-3.763-5.509z" fill="#444247"/><path d="M564.338 190.059v-14.575h-.001a.614.614 0 00-.47.217c-.692.822-1.598 1.562-2.472 2.279-1.851 1.514-3.763 3.083-3.763 5.509 0 2.201 1.539 3.74 3.745 3.74 1.065 0 1.994-.628 2.626-1.202-.304 1.296-.869 2.829-1.938 4.032h2.273z" fill="#57565A"/><path d="M598.769 177.98c-.873-.717-1.78-1.457-2.473-2.279a.609.609 0 00-.466-.217h-.036a.614.614 0 00-.47.217c-.693.822-1.599 1.562-2.472 2.279-1.852 1.514-3.763 3.083-3.763 5.509 0 2.201 1.538 3.74 3.744 3.74 1.067 0 1.995-.628 2.626-1.202-.303 1.296-.869 2.829-1.938 4.032h4.576c-1.071-1.204-1.636-2.741-1.94-4.037.631.575 1.561 1.207 2.629 1.207 2.203 0 3.745-1.539 3.745-3.74 0-2.423-1.915-3.992-3.762-5.509z" fill="#444247"/><path d="M595.794 190.059v-14.575a.614.614 0 00-.47.217c-.693.822-1.599 1.562-2.472 2.279-1.852 1.514-3.763 3.083-3.763 5.509 0 2.201 1.538 3.74 3.744 3.74 1.067 0 1.995-.628 2.626-1.202-.303 1.296-.869 2.829-1.938 4.032h2.273z" fill="#57565A"/><path d="M554.883 109.78h-3.385l-.457 3.397c.261-.033.577-.066.99-.066 1.405 0 2.025.642 2.025 1.557.011.947-.773 1.535-1.665 1.535-.654 0-1.231-.218-1.524-.392l-.24.729c.348.218.991.436 1.764.436 1.534 0 2.634-1.035 2.634-2.417 0-.882-.457-1.502-1.012-1.807-.436-.272-.969-.381-1.524-.381-.262 0-.414.011-.577.033l.272-1.818h2.699v-.806zm50.464 96.936h3.386l.457-3.397a7.54 7.54 0 01-.991.066c-1.404 0-2.024-.643-2.024-1.557-.011-.947.773-1.535 1.665-1.535.653 0 1.23.218 1.524.392l.24-.729c-.349-.218-.991-.436-1.764-.436-1.535 0-2.634 1.034-2.634 2.417 0 .881.457 1.502 1.012 1.807.436.272.969.381 1.524.381.262 0 .414-.011.577-.033l-.272 1.818h-2.7v.806zm-22.275-52.987c-.873-.717-1.779-1.458-2.471-2.28a.61.61 0 00-.467-.216h-.036a.612.612 0 00-.47.216c-.692.822-1.599 1.563-2.473 2.28-1.85 1.513-3.762 3.083-3.762 5.508 0 2.202 1.539 3.74 3.745 3.74 1.065 0 1.994-.627 2.626-1.202-.304 1.296-.869 2.831-1.939 4.033h4.576c-1.07-1.205-1.636-2.741-1.939-4.037.63.575 1.561 1.206 2.629 1.206 2.203 0 3.745-1.538 3.745-3.74 0-2.422-1.915-3.991-3.764-5.508z" fill="#444247"/><path d="M580.099 165.808v-14.575h-.001a.612.612 0 00-.47.216c-.692.822-1.599 1.563-2.473 2.28-1.85 1.513-3.762 3.083-3.762 5.508 0 2.202 1.539 3.74 3.745 3.74 1.065 0 1.994-.627 2.626-1.202-.304 1.296-.869 2.831-1.939 4.033h2.274z" fill="#57565A"/></svg>