<svg xmlns="http://www.w3.org/2000/svg" style="isolation:isolate" viewBox="219.83 106.457 69.122 103.685" width="92.163" height="138.247"><path d="M288.952 207.42a2.721 2.721 0 01-2.72 2.722h-63.68a2.722 2.722 0 01-2.722-2.722v-98.241a2.722 2.722 0 012.722-2.722h63.68a2.721 2.721 0 012.72 2.722v98.241z" fill="#EAE8E8"/><path d="M241.589 128.983c-.873-.716-1.779-1.457-2.472-2.279a.61.61 0 00-.466-.216h-.037a.611.611 0 00-.469.216c-.693.822-1.6 1.563-2.473 2.279-1.852 1.515-3.763 3.083-3.763 5.51 0 2.201 1.538 3.739 3.745 3.739 1.066 0 1.995-.627 2.625-1.201-.302 1.296-.869 2.829-1.938 4.032h4.576c-1.069-1.205-1.636-2.741-1.939-4.038.631.576 1.561 1.207 2.63 1.207 2.203 0 3.744-1.538 3.744-3.739 0-2.424-1.914-3.992-3.763-5.51z" fill="#444247"/><path d="M238.614 141.063v-14.575a.611.611 0 00-.469.216c-.693.822-1.6 1.563-2.473 2.279-1.852 1.515-3.763 3.083-3.763 5.51 0 2.201 1.538 3.739 3.745 3.739 1.066 0 1.995-.627 2.625-1.201-.302 1.296-.869 2.829-1.938 4.032h2.273z" fill="#57565A"/><path d="M228.771 120.231c-.453-.371-.922-.753-1.281-1.179a.316.316 0 00-.242-.112h-.018a.318.318 0 00-.243.112c-.359.426-.829.808-1.281 1.179-.959.785-1.949 1.598-1.949 2.855 0 1.14.797 1.937 1.94 1.937.552 0 1.033-.326 1.36-.623-.157.671-.45 1.465-1.004 2.088h2.37c-.555-.624-.848-1.419-1.005-2.09.327.297.809.625 1.362.625 1.141 0 1.94-.797 1.94-1.937 0-1.256-.992-2.068-1.949-2.855z" fill="#444247"/><path d="M227.231 126.488v-7.548h-.001a.318.318 0 00-.243.112c-.359.426-.829.808-1.281 1.179-.959.785-1.949 1.598-1.949 2.855 0 1.14.797 1.937 1.94 1.937.552 0 1.033-.326 1.36-.623-.157.671-.45 1.465-1.004 2.088h1.178z" fill="#57565A"/><path d="M280.013 196.366c.452.371.921.755 1.28 1.181a.315.315 0 00.241.112h.019c.094 0 .182-.04.243-.112.359-.426.828-.81 1.281-1.181.958-.784 1.949-1.596 1.949-2.853 0-1.14-.797-1.937-1.94-1.937-.552 0-1.033.325-1.359.622.156-.671.45-1.466 1.004-2.088h-2.371c.554.624.847 1.419 1.004 2.091-.326-.298-.807-.625-1.361-.625-1.142 0-1.94.797-1.94 1.937 0 1.255.992 2.067 1.95 2.853z" fill="#444247"/><path d="M281.553 190.11v7.549c.094 0 .182-.04.243-.112.359-.426.828-.81 1.281-1.181.958-.784 1.949-1.596 1.949-2.853 0-1.14-.797-1.937-1.94-1.937-.552 0-1.033.325-1.359.622.156-.671.45-1.466 1.004-2.088h-1.178z" fill="#57565A"/><path d="M273.045 128.983c-.873-.716-1.779-1.457-2.472-2.279a.608.608 0 00-.466-.216h-.037a.61.61 0 00-.468.216c-.694.822-1.6 1.563-2.473 2.279-1.852 1.515-3.763 3.083-3.763 5.51 0 2.201 1.538 3.739 3.744 3.739 1.066 0 1.995-.627 2.626-1.201-.302 1.296-.869 2.829-1.938 4.032h4.575c-1.069-1.205-1.636-2.741-1.938-4.038.63.576 1.56 1.207 2.629 1.207 2.203 0 3.745-1.538 3.745-3.739 0-2.424-1.915-3.992-3.764-5.51z" fill="#444247"/><path d="M270.071 141.063v-14.575h-.001a.61.61 0 00-.468.216c-.694.822-1.6 1.563-2.473 2.279-1.852 1.515-3.763 3.083-3.763 5.51 0 2.201 1.538 3.739 3.744 3.739 1.066 0 1.995-.627 2.626-1.201-.302 1.296-.869 2.829-1.938 4.032h2.273z" fill="#57565A"/><path d="M241.589 178.031c-.873-.716-1.779-1.458-2.472-2.279a.608.608 0 00-.466-.216h-.037a.608.608 0 00-.469.216c-.693.821-1.6 1.563-2.473 2.279-1.852 1.514-3.763 3.083-3.763 5.509 0 2.201 1.538 3.739 3.745 3.739 1.066 0 1.995-.628 2.625-1.201-.302 1.296-.869 2.83-1.938 4.032h4.576c-1.069-1.205-1.636-2.74-1.939-4.037.631.575 1.561 1.206 2.63 1.206 2.203 0 3.744-1.538 3.744-3.739 0-2.423-1.914-3.991-3.763-5.509z" fill="#444247"/><path d="M238.614 190.11v-14.574a.608.608 0 00-.469.216c-.693.821-1.6 1.563-2.473 2.279-1.852 1.514-3.763 3.083-3.763 5.509 0 2.201 1.538 3.739 3.745 3.739 1.066 0 1.995-.628 2.625-1.201-.302 1.296-.869 2.83-1.938 4.032h2.273z" fill="#57565A"/><path d="M273.045 178.031c-.873-.716-1.779-1.458-2.472-2.279a.605.605 0 00-.466-.216h-.037a.607.607 0 00-.468.216c-.694.821-1.6 1.563-2.473 2.279-1.852 1.514-3.763 3.083-3.763 5.509 0 2.201 1.538 3.739 3.744 3.739 1.066 0 1.995-.628 2.626-1.201-.302 1.296-.869 2.83-1.938 4.032h4.575c-1.069-1.205-1.636-2.74-1.938-4.037.63.575 1.56 1.206 2.629 1.206 2.203 0 3.745-1.538 3.745-3.739 0-2.423-1.915-3.991-3.764-5.509z" fill="#444247"/><path d="M270.071 190.11v-14.574h-.001a.607.607 0 00-.468.216c-.694.821-1.6 1.563-2.473 2.279-1.852 1.514-3.763 3.083-3.763 5.509 0 2.201 1.538 3.739 3.744 3.739 1.066 0 1.995-.628 2.626-1.201-.302 1.296-.869 2.83-1.938 4.032h2.273z" fill="#57565A"/><path d="M228.8 116.908v-1.938h.991v-.74h-.991v-4.398h-1.034l-3.157 4.518v.62h3.288v1.938h.903zm-3.222-2.678v-.022l1.731-2.405c.196-.327.37-.632.588-1.045h.032c-.021.37-.032.74-.032 1.11v2.362h-2.319zm54.404 85.462v1.938h-.991v.74h.991v4.398h1.034l3.157-4.518v-.62h-3.288v-1.938h-.903zm3.222 2.678v.022l-1.731 2.405c-.196.327-.37.632-.588 1.045h-.032c.021-.37.032-.74.032-1.11v-2.362h2.319z" fill="#444247"/></svg>