<svg xmlns="http://www.w3.org/2000/svg" style="isolation:isolate" viewBox="545.554 644.363 69.122 103.683" width="92.163" height="138.244"><path d="M614.676 745.326a2.721 2.721 0 01-2.721 2.72h-63.68a2.72 2.72 0 01-2.721-2.72v-98.242a2.721 2.721 0 012.721-2.721h63.68a2.722 2.722 0 012.721 2.721v98.242z" fill="#EAE8E8"/><path d="M587.779 683.718c-2.274-1.867-4.636-3.797-6.441-5.939a1.595 1.595 0 00-1.216-.563h-.094a1.6 1.6 0 00-1.223.563c-1.806 2.142-4.168 4.072-6.444 5.939-4.822 3.946-9.803 8.034-9.803 14.356 0 5.736 4.008 9.744 9.758 9.744 2.775 0 5.196-1.635 6.84-3.129-.79 3.375-2.264 7.371-5.05 10.504h11.922c-2.787-3.139-4.261-7.141-5.052-10.52 1.643 1.5 4.068 3.145 6.851 3.145 5.74 0 9.759-4.008 9.759-9.744 0-6.315-4.989-10.403-9.807-14.356z" fill="#444247"/><path d="M580.029 715.193v-37.977h-.001a1.6 1.6 0 00-1.223.563c-1.806 2.142-4.168 4.072-6.444 5.939-4.822 3.946-9.803 8.034-9.803 14.356 0 5.736 4.008 9.744 9.758 9.744 2.775 0 5.196-1.635 6.84-3.129-.79 3.375-2.264 7.371-5.05 10.504h5.923z" fill="#57565A"/><path d="M554.494 658.136c-.452-.371-.922-.754-1.28-1.179a.314.314 0 00-.242-.112h-.019a.313.313 0 00-.243.112c-.359.425-.828.808-1.28 1.179-.959.785-1.949 1.598-1.949 2.856 0 1.138.796 1.935 1.939 1.935.552 0 1.033-.324 1.36-.621-.157.67-.45 1.465-1.004 2.088h2.37c-.554-.625-.847-1.42-1.004-2.092.326.299.808.625 1.361.625 1.142 0 1.94-.797 1.94-1.935 0-1.256-.992-2.069-1.949-2.856z" fill="#444247"/><path d="M552.953 664.394v-7.549a.313.313 0 00-.243.112c-.359.425-.828.808-1.28 1.179-.959.785-1.949 1.598-1.949 2.856 0 1.138.796 1.935 1.939 1.935.552 0 1.033-.324 1.36-.621-.157.67-.45 1.465-1.004 2.088h1.177z" fill="#57565A"/><path d="M554.246 652.504l.784 2.308h1.012l-2.503-7.337h-1.132l-2.504 7.337h.98l.762-2.308h2.601zm-2.405-.74l.718-2.123c.152-.446.261-.903.37-1.328h.022c.109.425.218.86.381 1.339l.729 2.112h-2.22zm53.894 82.507c.453.371.922.756 1.281 1.182.06.072.149.111.241.111h.019a.319.319 0 00.244-.111c.358-.426.828-.811 1.28-1.182.959-.783 1.949-1.596 1.949-2.853 0-1.141-.797-1.936-1.939-1.936-.552 0-1.034.324-1.361.621.158-.672.451-1.465 1.004-2.088h-2.37c.555.623.848 1.42 1.005 2.092-.327-.299-.81-.625-1.362-.625-1.141 0-1.94.795-1.94 1.936 0 1.255.991 2.068 1.949 2.853z" fill="#444247"/><path d="M607.276 728.015v7.549a.319.319 0 00.244-.111c.358-.426.828-.811 1.28-1.182.959-.783 1.949-1.596 1.949-2.853 0-1.141-.797-1.936-1.939-1.936-.552 0-1.034.324-1.361.621.158-.672.451-1.465 1.004-2.088h-1.177z" fill="#57565A"/><path d="M605.982 739.904l-.783-2.308h-1.013l2.504 7.337h1.132l2.504-7.337h-.98l-.762 2.308h-2.602zm2.406.74l-.718 2.123c-.153.446-.262.903-.37 1.328h-.022c-.109-.425-.218-.86-.381-1.339l-.73-2.112h2.221z" fill="#444247"/></svg>