<?xml version="1.0" encoding="UTF-8" standalone="no"?><!-- Generator: Gravit.io --><svg xmlns="http://www.w3.org/2000/svg" xmlns:xlink="http://www.w3.org/1999/xlink" style="isolation:isolate" viewBox="610.151 507.33 64.898 137.303" width="64.898pt" height="137.303pt"><g><path d=" M 624.704 599.978 C 617.506 599.978 611.651 594.123 611.651 586.924 L 611.651 521.882 C 611.651 514.685 617.506 508.831 624.704 508.831 L 660.495 508.831 C 667.693 508.831 673.549 514.685 673.549 521.882 L 673.549 586.924 C 673.549 594.123 667.693 599.978 660.495 599.978 L 624.704 599.978 Z " fill="rgb(13,73,37)"/><path d=" M 660.496 507.33 L 624.704 507.33 C 616.667 507.33 610.151 513.846 610.151 521.883 L 610.151 586.924 C 610.151 594.962 616.667 601.477 624.704 601.477 L 660.496 601.477 C 668.533 601.477 675.049 594.962 675.049 586.924 L 675.049 521.883 C 675.049 513.846 668.533 507.33 660.496 507.33 Z  M 660.496 510.33 C 666.866 510.33 672.049 515.513 672.049 521.883 L 672.049 586.924 C 672.049 593.295 666.866 598.477 660.496 598.477 L 624.704 598.477 C 618.334 598.477 613.151 593.295 613.151 586.924 L 613.151 521.883 C 613.151 515.513 618.334 510.33 624.704 510.33 L 660.496 510.33 Z " fill="rgb(255,178,22)"/><path d=" M 655.571 625.661 C 655.571 618.498 649.763 612.69 642.599 612.69 C 635.436 612.69 629.628 618.498 629.628 625.661 C 629.628 632.825 635.436 638.633 642.599 638.633 C 649.763 638.633 655.571 632.825 655.571 625.661 Z " fill="rgb(13,73,37)"/><path d=" M 655.571 625.661 C 655.571 618.498 649.763 612.69 642.599 612.69 C 635.436 612.69 629.628 618.498 629.628 625.661 C 629.628 632.825 635.436 638.633 642.599 638.633 C 649.763 638.633 655.571 632.825 655.571 625.661 Z " fill="none" vector-effect="non-scaling-stroke" stroke-width="4" stroke="rgb(255,178,22)" stroke-linejoin="miter" stroke-linecap="square" stroke-miterlimit="3"/></g></svg>